<?xml version="1.0" standalone="no"?>
<!DOCTYPE svg PUBLIC "-//W3C//DTD SVG 1.1//EN" "http://www.w3.org/Graphics/SVG/1.1/DTD/svg11.dtd" >
<svg xmlns="http://www.w3.org/2000/svg" xmlns:xlink="http://www.w3.org/1999/xlink" version="1.1">
<metadata></metadata>
<defs>
<font id="sebastian_bobbyregular" horiz-adv-x="471" >
<font-face units-per-em="2048" ascent="1638" descent="-410" />
<missing-glyph horiz-adv-x="491" />
<glyph horiz-adv-x="0" />
<glyph horiz-adv-x="682" />
<glyph horiz-adv-x="0" />
<glyph horiz-adv-x="0" />
<glyph unicode="&#xd;" horiz-adv-x="491" />
<glyph unicode=" "  horiz-adv-x="491" />
<glyph unicode="&#x09;" horiz-adv-x="491" />
<glyph unicode="&#xa0;" horiz-adv-x="491" />
<glyph unicode="!" horiz-adv-x="348" d="M158 713q-3 5 -5 10.5t-1.5 14t1 14t2.5 16.5t3 16q1 16 7 45t7 45q8 17 22 61.5t27 63.5q0 1 -1.5 4.5t-0.5 6.5q16 40 53 120.5t54 124.5q-1 3 -4.5 0.5t-4.5 -0.5q4 13 14.5 38.5t14.5 39.5q6 5 13 3t8 -9q-5 -48 -33 -109.5t-33 -78.5q-19 -31 -44.5 -96t-35.5 -85 q-3 -18 -16 -54.5t-17 -53.5q-7 -15 -12 -52.5t-12 -52.5q0 -27 -6 -32zM115 430q-4 -8 -9 -8q-4 0 -12 4t-14 2q-2 2 -2 12q6 12 20.5 7t16.5 -17z" />
<glyph unicode="&#x22;" horiz-adv-x="399" d="M326 1319q1 -6 -1 -10t-7.5 -8t-6.5 -5q-14 -29 -44.5 -78t-51 -93.5t-27.5 -94.5q14 -5 15 -10q-3 -10 -15 -10.5t-16 8.5q0 12 -2 18q9 54 31.5 101t58.5 101t51 83q0 1 2 2t2 2q11 -5 11 -6zM172 1257q2 -1 5 -2t5 -1.5t3.5 -3t0.5 -5.5q-4 -6 -16 -14 q-6 -16 -19.5 -41.5t-22 -48.5t-11.5 -47q-1 -3 2.5 -7.5t-0.5 -5.5q2 -2 1 -2.5t-3 -0.5q-1 1 -2.5 0.5t-1.5 -1.5q-4 0 -6 2t-4 6.5t-3 6.5q3 30 13.5 56t31.5 62t27 47z" />
<glyph unicode="#" horiz-adv-x="819" d="M496 803q-35 -113 -56 -150q3 -1 11 1.5t10 2.5q24 0 98 11.5t117 5.5q-4 -7 -13 -9t-23 -1t-19 0q-29 -7 -91 -15.5t-92 -15.5q-3 -1 -5 -3t-4 -5t-3 -4q-5 -22 -20.5 -58.5t-20.5 -52.5q0 -3 6.5 -3t7.5 -3q14 5 19 8q19 1 59 4t60 4q2 0 12.5 1.5t16.5 0t9 -7.5 q-22 -9 -75 -13t-72 -9q-35 0 -55 -17q-2 -6 -7 -22.5t-8 -25t-8.5 -20.5t-11.5 -20q8 43 24 90q-33 0 -55.5 -17t-44.5 -46q-5 -1 -16 -8.5t-19 -6.5q-3 0 -6 1.5t-5 3t-3.5 4.5t-2.5 4.5t-2.5 6l-2 6t-1.5 6.5t-1 7q-18 9 -19 13q4 12 21 12q7 29 26.5 76.5t22.5 56.5 q-15 -1 -71.5 -13t-86.5 -12q0 2 -5 4t-5 5q1 5 5.5 6.5t13 2.5t10.5 1q28 6 35 4q3 3 12 3.5t10 4.5q2 -2 8 -2q11 4 42 10t44 13q7 11 17 33.5t20.5 40t24.5 28.5q10 -5 10 -27q-3 -2 -6.5 1t-5.5 3q-6 -10 -12.5 -22t-13.5 -26.5t-11 -22.5q14 -3 44.5 5t43.5 7q8 3 24 5 t25 5q3 6 9 18.5t10 23.5t6 22q-9 -3 -14.5 -20t-10.5 -21q7 25 27.5 67.5t27.5 65.5h5t3.5 -1t2.5 -1.5t2 -2t2 -1.5zM453 719q2 0 2.5 4t-2.5 4q0 -1 -1 -3q-2 -5 1 -5zM393 606q-1 5 3.5 11t4.5 12q-64 -8 -129 -29q-5 -14 -17 -41t-20 -49t-12 -41q26 1 86 16 q60 72 82 121h2q0 -4 2 -6q-8 -18 -28 -51t-29 -51q4 -3 17.5 -0.5t15.5 2.5q5 17 14 45.5t14 44.5q8 8 15 21.5t4 21.5q-8 -2 -14.5 -13.5t-10.5 -13.5zM219 446v-24q33 -18 64 37q-9 -4 -32.5 -6.5t-31.5 -6.5zM422 672q-4 -8 -4 -10q-3 2 -1 6t5 4z" />
<glyph unicode="$" horiz-adv-x="485" d="M422 1085q1 -2 1 -9t1 -9q-35 -114 -84 -238q4 -2 14.5 0t14.5 0q11 -17 12 -20q-5 -27 -10 -29q-5 2 -5 13.5t-1 13.5q-15 10 -33 -4q-8 -26 -31 -86t-33 -94q1 -5 9 -8.5t8 -8.5q19 -2 41 -19.5t26 -19.5q2 -4 8 -13t8.5 -13.5t6.5 -12.5t5.5 -16.5t2.5 -17.5 q1 -12 -1 -23.5t-4.5 -20t-10.5 -18t-11 -14t-15.5 -13t-15 -10.5t-17 -10.5t-15.5 -9.5q-3 0 -9 -1.5t-10 -0.5q-16 -11 -45 -17.5t-41 -11.5q-3 -6 -5 -14.5t-4 -19t-3 -15.5v-47q6 -29 -6 -31q-8 15 -9.5 35t1 49t2.5 39q-4 3 -12.5 3.5t-17 0t-19.5 0.5q-4 1 -18 7 t-23 7q-6 9 -23 21q-22 37 -20 63q2 22 12 42.5t26 43t21 31.5q7 5 25.5 27.5t31.5 25.5q1 -4 -1 -6t-6 -4.5t-5 -3.5q-4 -12 -8 -18q-1 -1 -5.5 -4t-6.5 -5q-1 -1 -31 -43q-15 -22 -25 -45.5t-9.5 -52t20.5 -45.5q39 -26 98 -20q9 9 6 20q23 98 66 223q-21 10 -33 17.5 t-24.5 22.5t-16.5 34q8 19 19 34.5t30.5 31t28 22.5t37 24.5t32.5 20.5q64 165 90 248q8 12 13 22h6zM188 696q1 -8 -0.5 -13t2.5 -11t4.5 -9t6.5 -7.5t8 -6.5t9 -5.5t10 -4.5t10.5 -4t9.5 -4q6 21 25.5 73t25.5 80q-60 -31 -111 -88zM193 371q9 -3 24.5 2t26.5 4 q20 8 73 35q22 16 43 41q20 51 -14.5 89.5t-85.5 55.5q-46 -123 -67 -227z" />
<glyph unicode="%" horiz-adv-x="890" d="M475 682q-9 -11 -74 -89.5t-102 -115.5q0 -4 -2 -4q-121 -149 -201 -268q-2 -6 -13 -30.5t-15 -41.5q0 -2 4 -10q14 0 28 5.5t21 6.5q-6 -24 -53 -35q-17 13 -23 23v2q3 42 27 63q21 45 51.5 88.5t71.5 94t61 78.5q15 15 41.5 46t42.5 46q7 14 27 30q6 17 22 27q0 2 1 5 t1 5q4 0 7.5 4t7.5 4q11 21 39.5 52.5t37.5 44.5q2 2 4.5 1.5t4.5 0.5q0 1 1.5 4t0.5 6q19 16 49.5 50.5t44.5 47.5q9 14 34 38t35 42q1 1 4 1.5t5 2.5q27 32 81 91t62 69q-2 0 -9 -5.5t-14 -4.5q-15 -12 -46 -27.5t-38 -19.5q-10 0 -10 2q-21 -18 -73 -40t-68 -32 q-20 -4 -84 -33q-27 -4 -76 -24q-16 -2 -50.5 -11.5t-55.5 -13.5q-8 1 -17.5 0t-15.5 0q-9 -8 -23 -29t-22 -30q-8 -7 -22.5 -20.5t-22.5 -20.5q-27 -22 -45 -15q-13 12 -13.5 27t5.5 25.5t18 25.5q30 45 66 68q1 3 2 9t2 9q17 14 36.5 3.5t22.5 -33.5q35 -1 71 6.5t86 23 t64 19.5q83 32 98 35q9 8 36.5 19.5t37.5 20.5h10q58 29 64 31q10 10 16 8q7 4 11 11q16 6 33.5 15t38.5 20.5t32 17.5q4 3 11 10t13 11.5t13 7.5q11 16 39.5 36.5t38.5 32.5q12 4 35.5 20.5t44.5 18.5q11 -11 12 -14q-35 -43 -94 -72q-4 -4 -6 -8q-20 -8 -48 -24.5 t-43 -22.5q-13 -11 -36.5 -34t-36.5 -34q-12 -21 -33 -33q-13 -19 -47.5 -54t-48.5 -58q-2 0 -4.5 -1t-4.5 -1q-14 -19 -52.5 -60.5t-55.5 -68.5h-8q-9 -13 -31.5 -37t-32.5 -37h-4zM1026 1219q-54 -31 -96 -70q19 7 34.5 16.5t38 26t31.5 22.5q-2 0 -3.5 2.5t-4.5 2.5z M918 1139q4 0 5 4q1 1 -1 2q0 -2 -2 -2t-2 -0.5v-3.5zM238 883q0 5 -9 10q0 -5 9 -10zM197 874q-5 -4 -19 -16.5t-21 -19.5t-16.5 -19t-14 -24.5t-5.5 -26.5q1 -1 4.5 -3.5t5.5 -2.5q53 26 98 96q-25 15 -32 16zM612 840zM479 694v-2v-1q3 2 2 3h-2zM610 416q1 -1 4 -2t4 -2 q4 2 13 12t18 10q26 -6 29 -39q-2 -5 -7 -16t-8 -17.5t-9 -14.5t-13 -11q0 -2 1.5 -5.5t-1.5 -4.5q-15 -15 -49 -64q-17 0 -23 -2q-5 1 -18 10q-1 16 -3.5 24t3.5 23t8 22.5t11 21.5t13.5 20t14 18.5t12.5 16.5zM596 297q7 13 27.5 39t27.5 41q6 24 6 29q-9 10 -13 5.5 t-13.5 -13.5t-18.5 -7q-2 -2 -9 -12t-9.5 -14t-8 -13.5t-8 -16t-5.5 -15.5t-4 -18t-1 -19q8 -1 16 6t13 8z" />
<glyph unicode="&#x26;" horiz-adv-x="1173" d="M537 543q16 -89 73 -201q5 2 20 12t23 11q12 14 52 30q19 19 26 13q3 4 8.5 7.5t13.5 7t11 5.5q5 3 18.5 8t18.5 8q2 1 4 -0.5t4 -1.5q27 17 61 26.5t70 4.5t53 -31q0 -2 1.5 -9.5t0.5 -10.5q-6 1 -10 4t-7.5 9.5t-4.5 8.5q-1 0 -15 7q-22 4 -24 6q-136 -14 -311 -135 q6 -18 16.5 -35.5t24 -37.5t20.5 -32q2 -2 7 -6t7 -6q29 -48 90 -105q2 -1 9 -0.5t8 -1.5q4 -13 0 -20q-9 -1 -17.5 1.5t-12.5 6t-12.5 11t-10.5 9.5q-24 24 -39 48q-15 17 -39.5 50.5t-34.5 45.5q-3 7 -33 61q-43 -29 -145 -106q-1 0 -1.5 -1.5t-1 -3.5t-1.5 -3 q-52 -37 -121.5 -102.5t-136.5 -121t-136 -90.5q-7 0 -14 -1t-10 -1h-19l-20 10q-1 6 0 13t3 15t3 13q2 3 11.5 18.5t17.5 20.5q39 72 92 123q14 25 49.5 66t48.5 61q5 2 11.5 10t11.5 9q38 54 114 133q21 30 52 55q15 25 53.5 63.5t52.5 59.5q-15 81 -12 199q3 14 8.5 50.5 t9.5 57.5t12 49.5t17 48.5q0 1 -1.5 5t-0.5 6q7 16 17.5 47t20.5 55t23 41q-1 8 5.5 15t5.5 14q2 2 8 2q9 26 24 51t36.5 54t31.5 46l2.5 2.5t2.5 2t3 -0.5q12 20 30.5 42t29.5 33t39.5 37.5t33.5 31.5q1 0 5 1t6 1q16 16 24 23t24 16.5t33 13.5q1 1 4 5t5 5q47 22 98.5 4.5 t60.5 -63.5q5 -85 -36 -170q-33 -87 -78 -143q0 -9 -7 -18t-8 -15q-17 -20 -61 -88q-33 -36 -64 -84q-2 -1 -6 -4t-6 -4q-1 -2 -6.5 -12t-10.5 -15t-12 -8q-21 -34 -69 -88t-66 -80q-5 0 -8.5 -5t-7.5 -3q-1 -1 -1.5 -6.5t-2.5 -6.5q-1 0 -3 -4.5t-7 -3.5q-23 -31 -72.5 -84 t-56.5 -61zM588 618q14 23 55 60q0 3 2 7t2 7q5 3 9.5 7.5t7.5 8.5t7 10t7 9q3 4 10.5 10.5t12.5 13t8 13.5q38 37 99.5 114.5t84.5 102.5q0 1 2 6.5t4 7.5q126 159 195 328q2 10 8 39t6 39t-2 43q-5 10 -23 37q-26 15 -53 16t-53 -10.5t-44 -23t-42 -31.5q-31 -22 -107 -93 q-5 -10 -18 -24.5t-16 -18.5q-3 -3 -15 -19.5t-20 -23.5q-84 -125 -134 -252t-57 -280q-4 -8 -4 -14q4 -98 12 -142q10 4 27.5 25.5t28.5 27.5zM512 516q-5 -14 -25 -31.5t-26 -29.5q-1 -1 -4 -2t-4 -2q-8 -13 -32.5 -37t-33.5 -41q-3 0 -6 -3t-6 -3q-3 -9 -18.5 -23.5 t-18.5 -26.5q-3 0 -6 -3t-6 -3q-25 -36 -47 -53q-8 -20 -19 -20q1 -2 -0.5 -6t-1.5 -5q-5 0 -9 -6t-9 -6q-15 -24 -48.5 -64t-46.5 -59q-3 -1 -7.5 -6t-8.5 -6q1 -3 0 -5.5t0 -4.5q-23 -21 -54 -68.5t-44 -62.5q-1 -6 -6.5 -16.5t-6.5 -16.5q29 -7 72 18t51 27q29 33 52 39 q33 34 100 92t94 84q0 -4 4 -4q3 10 18 22t19 19q11 6 35 26.5t41 28.5q14 17 47.5 40t46.5 36q-57 113 -72 190q-1 0 -2 1t-2 1q0 -5 -4.5 -7t-5.5 -3zM766 86z" />
<glyph unicode="'" horiz-adv-x="307" d="M174 1176q10 -20 10 -27q-2 0 -4.5 -1.5t-3.5 1.5q-6 -7 -23.5 -40t-33.5 -46q-1 -7 -2.5 -11t-5 -7.5t-9.5 -2.5q-3 2 -3.5 4.5t0.5 7.5t1 7q8 9 15 20t14 24.5t11 22t12 26t10 22.5h12z" />
<glyph unicode="(" horiz-adv-x="645" d="M758 1483q10 -30 -10 -47q-4 3 -1 15.5t-2 18.5q-8 -1 -20.5 -7t-15.5 -7q-15 -17 -49 -52t-59 -63.5t-44 -58.5q-2 0 -4 1t-4 1q-3 -13 -16.5 -29.5t-16.5 -27.5q-2 -3 -4 -0.5t-4 2.5q-2 -9 -12 -23t-13 -22q-2 1 -3.5 -0.5t-4.5 -1.5q-10 -20 -16 -23q0 -6 -4 -10 q-2 -2 -6 -10t-9 -9q-38 -61 -90 -137q-7 -16 -26 -46t-25 -48q-3 -1 -5.5 -6.5t-6.5 -5.5q-9 -22 -28 -55.5t-26 -49.5q-8 -4 -10 -4q-1 -3 0.5 -6.5t1.5 -5.5q-72 -161 -94 -236q-33 -110 -33 -213q0 -187 111 -356q2 0 2 3q0 2 0.5 2t3.5 -1q-1 -3 0.5 -8.5t1.5 -7.5 q1 -3 8 -10t8 -13q49 -49 62 -67q37 -18 40 -32q1 -2 1 -5q-18 4 -34 15.5t-36 30.5t-28 26q-82 105 -111 180q-2 4 -8 10q-3 13 -15.5 49.5t-13.5 56.5q-14 53 -6 76q-2 3 -4 11.5t-4 11.5q0 70 10 114q11 100 35 146q0 3 1.5 9t0.5 11q26 57 35 95q1 1 4.5 7t7.5 7 q0 21 14 35q16 41 52.5 108.5t42.5 79.5l6 6q9 21 16 27q4 15 18.5 37t18.5 33q6 3 8 2q2 20 31 49q6 25 26 39q5 15 5 16q8 0 8 6q2 1 2.5 -0.5t1.5 -1.5q6 0 1 4q-2 2 -3 2l6 9q6 9 12 10q10 32 49 71q14 27 48.5 68t46.5 59q19 18 56 62.5t60 64.5q5 2 14 8.5t15 10 t16 5.5t17 -5zM492 1214q-5 0 -5 -2q1 1 3 1t2 1zM377 1040z" />
<glyph unicode=")" horiz-adv-x="696" d="M-158 -180q2 8 10.5 17.5t18.5 12.5q9 19 36 47.5t36 45.5q8 6 19.5 22.5t21.5 20.5q7 15 28 38t27 39q35 40 73.5 91t63 87.5t67 101t62.5 93.5q0 2 1 6.5t1 6.5q12 13 29.5 45t28.5 45q13 35 24 43q9 20 33.5 73.5t36.5 82t29 74.5t28 87q17 129 16 172q-4 20 -4 59 q-10 20 -8 27q-2 5 -8 26t-8.5 28.5t-8 24.5t-10 26.5t-11 22t-13.5 22.5l-9 9t-10 11.5t-6 11.5q-7 5 -21.5 17t-23 18.5t-24 13.5t-31.5 9q-4 -1 -8 -2.5t-7 -3.5t-5.5 -5t-4.5 -5t-4.5 -6t-3.5 -6.5l-3 -7.5t-2.5 -7t-2 -7.5t-2.5 -7.5q-6 30 10.5 55t48.5 21 q11 -2 25.5 -10.5t23.5 -11.5q98 -69 132.5 -205t1.5 -291q-5 -25 -15.5 -54.5t-25.5 -66t-21 -53.5q-2 -5 -6 -14.5t-6 -14.5q-32 -65 -74 -141q-3 -6 -8 -19.5t-8 -19.5q-1 -1 -6.5 -4.5t-6.5 -7.5q-2 -3 -5 -10.5t-5 -10.5q-27 -49 -65 -104q-1 -1 -2 -5t-2 -5l-4 -3 q-4 -2 -5 -4q-7 -9 -15.5 -27t-12.5 -24q-28 -32 -37 -55q-10 -11 -31.5 -42t-36.5 -44q-10 -22 -37.5 -55.5t-36.5 -51.5q-3 -1 -8.5 -6t-7.5 -6q-13 -26 -33 -43q-13 -26 -34 -41q-38 -53 -60 -67q-3 -7 -13 -18.5t-13 -18.5q-6 -3 -22.5 -21.5t-29.5 -19.5z" />
<glyph unicode="*" horiz-adv-x="563" d="M377 1268q-2 -2 -5.5 1t-4.5 3q-49 -81 -66 -152q18 10 70 53.5t84 53.5q8 2 24 -2q0 -2 3 -7.5t1 -7.5q-5 -1 -16 4q-28 -8 -53.5 -25t-58.5 -46t-46 -39q3 -8 12 -11t25 -4t21 -2q-14 -16 -35 -11.5t-35 16.5q-12 -6 -16.5 -22t-5 -40t-1.5 -29q-8 1 -12 5.5t-5 12 t-0.5 13.5t2 16t1.5 13q-7 -1 -28 -15t-37 -12q-4 14 16 39q4 -1 4.5 -4t-1.5 -8t-1 -8q4 2 20 12t22 15t14 16t10 24q-20 38 -41 62q-4 9 2 18q11 -4 18.5 -14t15 -24.5t11.5 -20.5q7 14 22.5 51t30 61t33.5 41q8 0 9 -11t-3 -15z" />
<glyph unicode="+" horiz-adv-x="593" d="M317 694q-3 -15 -11 -40t-11 -38q6 -5 18 -2t19 9q23 0 71 6.5t64 7.5q5 0 12 -0.5t11.5 -1t10 0.5t9.5 3v-12q-21 -4 -68 -9.5t-85 -12.5t-72 -19q0 -12 -5.5 -33t-5.5 -33q6 -35 -12 -37q-6 20 -4.5 50t10.5 47q-15 0 -37.5 -7t-37.5 -8q-3 0 -4 -6t-3 -6q-9 -2 -24 18 q0 5 1.5 7t6.5 5t6 3q17 -1 50 7t44 9q5 13 31 105q5 1 9 -5.5t7 -7.5z" />
<glyph unicode="," horiz-adv-x="358" d="M176 551q6 -32 -24 -72q-2 -2 -10 -7.5t-11 -8.5q-1 -2 -5.5 -10.5t-6.5 -10.5q-1 -1 -5 -2t-5 -2t-1.5 -4t-1.5 -4q-27 -23 -45 -31q0 5 2.5 10t5.5 7.5t8 7t7 6.5q2 3 6.5 10t9 11.5t9.5 7.5q0 3 3.5 7t4.5 7q11 8 25 30t16 25q0 5 6 23q3 -1 7 0.5t5 -0.5z" />
<glyph unicode="-" horiz-adv-x="495" d="M389 635v-6q-15 -11 -50 -19.5t-48 -15.5q-15 -2 -39 -10.5t-37 -10.5q-5 0 -20 -2.5t-25 -3.5t-23 0.5t-22 7.5q0 2 -1 5t-1 4l6 12q10 -3 22.5 -3.5t20.5 0t23 2t20 1.5q4 1 13.5 4t14 3.5t13.5 -1.5q54 24 98 27q3 0 4.5 3t3.5 3q3 0 11 -4q-1 3 1 4.5t5 1.5t5.5 -0.5 t4.5 -1.5z" />
<glyph unicode="." horiz-adv-x="286" d="M106 494q5 -2 9 -15q-10 -14 -11 -20q-5 -1 -14.5 -5t-13.5 -4.5t-13 5.5q2 14 21.5 25.5t21.5 13.5z" />
<glyph unicode="/" horiz-adv-x="624" d="M700 1497q-8 -36 -31 -95.5t-28 -76.5q-23 -45 -71.5 -140.5t-86 -167.5t-75.5 -136q-8 -26 -32.5 -69.5t-33.5 -66.5q-6 -5 -12.5 -18.5t-12.5 -17.5q-6 -21 -25.5 -55t-25.5 -50q-7 -11 -24 -47.5t-31 -52.5q-3 -15 -15 -37.5t-16 -36.5q-3 -2 -6 -9t-6 -9 q-4 -12 -4 -15q-37 -65 -113 -221q-15 -22 -38.5 -70.5t-37.5 -70.5q-6 -20 -25 -57.5t-24 -57.5q-2 -3 -0.5 -12.5t-3.5 -11.5q-12 3 -12.5 11.5t5 22.5t5.5 21q7 10 20.5 41.5t26.5 44.5q-1 9 5 19t5 18q21 28 48 92q40 69 107.5 205.5t98.5 193.5q38 79 112.5 220.5 t100.5 193.5q10 19 51 96t66 127.5t47 102.5q3 3 7.5 11t7.5 11q5 22 21.5 59.5t21.5 57.5q-13 -7 -32 -35t-36 -35q60 93 92 127q3 1 4.5 -2t5.5 -2z" />
<glyph unicode="0" horiz-adv-x="419" d="M322 754q38 -1 55.5 -30.5t9.5 -66.5q-1 -6 -8 -18t-6 -21q-72 -110 -203 -235q-2 0 -14 -6q-2 -1 -11 -10q-28 -16 -57 -11t-33 31q-5 32 20 95.5t25 64.5q13 22 17 35q1 2 -0.5 4t-2.5 3.5t1 2.5q0 3 2.5 8.5t1.5 11.5q25 26 75 93.5t82 97.5q3 1 11 3.5t11.5 3t9.5 0 t11 -4.5q20 -17 3 -51zM307 758q0 4 3.5 10.5t2.5 13.5q-4 0 -4 6q-3 2 -5.5 2.5t-4.5 0.5t-5.5 -1t-6.5 -2q-2 -2 -14.5 -13t-16.5 -15t-12.5 -13.5t-14 -18t-10.5 -17.5q12 8 42.5 23t45.5 24zM207 690q-2 -3 -10 -12.5t-10.5 -13t-9.5 -12.5t-10 -14t-8.5 -13.5 t-8.5 -14.5t-7 -14.5t-7 -17t-5 -17.5q-8 -4 -14 -22.5t-13 -22.5q0 -17 -16 -41q-1 -9 -7 -31.5t-6 -32t5 -30.5q6 -6 29 -6q14 3 33 16t28 17q20 25 63 59q27 38 62 68q12 23 35 40q4 9 14.5 26.5t17.5 33.5t11 33q3 23 -5.5 43t-27.5 26q-16 5 -25.5 -1t-17.5 -19 t-16 -17q-4 8 2.5 17t3.5 12q-16 -4 -40.5 -19t-39.5 -20z" />
<glyph unicode="1" horiz-adv-x="225" d="M221 819q-4 -21 -22 -53.5t-23 -52.5q-9 -9 -21 -38.5t-22 -39.5q-10 -26 -33 -80.5t-38.5 -98t-24.5 -89.5q0 -3 4.5 -5.5t5.5 -5.5q-4 -16 -8 -20q-5 -1 -10.5 3.5t-8.5 4.5q-4 21 6 56.5t11 39.5q1 6 4 15t7.5 21t6.5 18q4 9 10 27.5t9 23.5q1 1 4 2t4 2q1 3 5 17 t7 20q3 9 12 18v10q32 66 35 78q2 2 5 5.5t4 4.5q1 14 11 32t11 26q-9 -7 -26 -28t-29 -30q-10 3 -13 9q15 18 50.5 54.5t54.5 59.5q6 0 12 -6z" />
<glyph unicode="2" horiz-adv-x="563" d="M-6 356q5 -11 28 -14.5t27 -5.5q28 3 85.5 12t78.5 12q3 1 9.5 5t12.5 6t11 0q82 23 252 45q2 1 3.5 -1t4.5 -1q6 0 14 4q27 2 66 2q2 0 10 1t12 0t8 -5q33 11 72 -6q-3 -7 -8.5 -8.5t-16 0.5t-16.5 1q-4 1 -22 1t-25 2q-6 -2 -16.5 -2t-12.5 -1q-5 -2 -10 3 q-16 -3 -56 -7.5t-48 -5.5q-61 -6 -186.5 -36t-182.5 -38q-70 -8 -106 19q-2 3 -5.5 9t-5.5 9q2 9 15 16.5t16 12.5q16 8 46.5 29.5t49.5 29.5q1 1 5 4t6.5 6t3.5 7q10 3 25.5 13.5t23.5 14.5q13 13 45 33q2 1 7 6t8 7t8 4.5t8 -0.5q2 2 2 10q18 13 53 42.5t57 43.5l6 12 q21 14 40 34.5t40.5 47.5t34.5 41q1 6 5 23t3 30q-7 16 -21.5 23.5t-31.5 7t-37 -1.5q-21 -4 -43 -10.5t-48.5 -16t-41.5 -14.5q-3 -2 -19 -10t-21.5 -10.5t-18.5 -10t-20 -13t-16 -13t-16 -15.5q-1 -2 1 -6t1.5 -6.5t-4.5 -3.5q-3 -5 -11 8q-2 3 -3 4q13 22 37 41t41 27.5 t56 25t50 21.5q6 -1 15.5 3t13.5 1q16 8 88 14q2 1 4 0l2 -2q20 3 37 -8.5t25 -30.5q0 -7 -1 -18.5t-1 -17.5q-28 -50 -31 -58q-37 -44 -160 -153q-53 -38 -127 -95q-34 -18 -53 -39q-6 -2 -14 -6q-17 -15 -58 -41t-59 -43z" />
<glyph unicode="3" horiz-adv-x="456" d="M385 848q0 -4 1 -16t1 -19q-27 -36 -111.5 -76t-113.5 -73q1 -2 -0.5 -6t-1.5 -5q0 -4 1.5 -7.5t4.5 -7.5t4 -7q23 -12 69 -29t80 -34.5t56 -41.5q24 -35 -2 -98q-9 -10 -31 -25.5t-29 -21.5q-21 -11 -42.5 -20t-49 -19t-43.5 -15.5t-52 -16.5t-48 -15q-67 -11 -139 -41 q-2 6 -2 16q33 23 83 29q22 5 56.5 15.5t52.5 15.5l12 6q12 0 32.5 7t25.5 5q2 1 4 4t4 4q15 2 38.5 13.5t33.5 11.5q8 6 25 16.5t27 17t22 18.5t18 26q0 4 1 11.5t1 12.5q-9 32 -37.5 53.5t-59.5 31t-67 24t-55 31.5q-14 36 -2 55q44 39 98 59q4 2 26 17.5t37 17.5 q4 4 30.5 20.5t31.5 34.5q0 1 -1.5 3.5t-0.5 5.5q-5 4 -18.5 8t-18.5 8q-15 0 -27 4h-16q-2 1 -6 2t-6 2q-13 -1 -47 1.5t-61.5 1t-45.5 -10.5q1 -4 5 -12.5t3 -16.5q-24 16 -18 43q18 10 42.5 13t71 0.5t58.5 -2.5q64 -9 96 -29z" />
<glyph unicode="4" horiz-adv-x="604" d="M287 924q-22 -38 -96 -141.5t-105 -168.5q-2 -2 -4 -5.5t-4 -4.5q-3 -7 -10.5 -22t-11.5 -27t-5 -27q2 -11 25 -20q27 4 52 11.5t64 23.5t48 20q26 17 39 17q2 2 55 28q63 92 86 146q9 13 31.5 59.5t42.5 65.5q6 -18 6 -19q-12 -24 -38 -70.5t-45 -84.5t-34 -76q2 0 13 3 t16 1q5 5 16.5 9t15.5 9q4 -2 11 -1t10 -1q4 5 16.5 7t16.5 8q16 -1 46 3.5t50 4.5q7 -2 23.5 -5t23.5 -5q3 -3 10 -7.5t12 -9t5 -8.5q-10 -5 -25 10q-47 11 -108 8q-30 -6 -80.5 -21.5t-75.5 -21.5q-1 -1 -3.5 -4t-4.5 -5t-4 -3q-14 -34 -43.5 -96.5t-50.5 -115t-33 -107.5 q-1 -2 -2 -6.5t-2 -8t-3 -6.5q0 -1 5 -33q2 -4 8 -4.5t8 -3.5q0 -8 -2 -12q-10 -7 -27 4q-13 19 -10 47q8 56 28 110.5t50 119.5t43 100q-36 -7 -113 -50t-123 -51q-15 -2 -43 2q-9 7 -22 29q0 12 2 24t7 25t8 21.5t11.5 22.5t11.5 19t13.5 20.5t11.5 17.5q2 4 11 21t14 24 q33 50 35 53q2 1 5 4t5 4q17 31 53.5 83.5t48.5 72.5q4 4 4 6q4 -1 7 -6t4 -6z" />
<glyph unicode="5" horiz-adv-x="552" d="M586 862q-72 -13 -203.5 -54t-206.5 -54q-10 14 6 22q34 1 93.5 18.5t76.5 20.5q63 23 88 25q13 8 41.5 14.5t40.5 11.5q29 -3 51 8q1 -1 3.5 -2t4.5 -1.5t3.5 -3t1.5 -5.5zM109 735q-3 -4 -5.5 -17t-5.5 -18q14 -33 72 -41q9 0 38.5 1.5t44 1.5t41 -1.5t41.5 -6.5 t32.5 -13.5t27 -23.5t13.5 -35q0 -22 -21 -70q-14 -14 -27 -37q-2 0 -4.5 -2.5t-5.5 -1.5q-12 -21 -47 -46.5t-43 -33.5q-2 1 -5 -0.5t-5 -1.5q-13 -10 -44 -23.5t-44 -21.5q-32 -12 -73.5 -5.5t-57.5 38.5q-2 89 71 174q0 -9 -9 -25t-11 -24q-3 -1 -6 -7t-6 -8 q0 -6 -3 -11.5t-7.5 -12t-6.5 -10.5q-1 -9 -6 -28.5t-6 -23.5q4 -4 4 -22q7 -14 47 -27q15 1 36 6t34 7q9 7 34 15.5t33 18.5q3 -1 7.5 0t7.5 0q13 18 39 31q3 3 12 11t12.5 11t12 11t12.5 12t11 12t11 13t9.5 13t9 14.5t7.5 15t7 16.5q3 38 -18 59q-25 20 -64.5 25.5t-75 2 t-76 2t-65.5 26.5q0 2 -10 26q-2 26 11 40q11 11 20 -5z" />
<glyph unicode="6" horiz-adv-x="450" d="M356 795q11 40 55 100t50 70q-20 -6 -47.5 -35.5t-38.5 -36.5q-7 -9 -32.5 -40t-34.5 -41.5t-32.5 -39.5t-33.5 -42.5t-31 -40.5t-32.5 -44t-29 -42.5t-30 -46t-27 -45t-26.5 -48.5q0 -4 -1.5 -9.5t-1.5 -9.5q7 3 23 10t23 10t24 10t24.5 9.5t25 8.5t26 7.5t27 6t28 4 t28.5 1.5t30 -1q15 -6 20.5 -8t15.5 -8.5t14 -16t5 -22.5q-1 -1 -6 -17q-94 -108 -211 -155q-53 -12 -89.5 17t-41.5 77q2 3 2 29q-47 -10 -74 -56q-3 0 -4.5 4t-3.5 4q4 15 14.5 27t19 17t28.5 15l26 13q9 37 20 43v12q6 10 24 42.5t31.5 53t30.5 37.5q97 150 222 281l6 12 q9 8 27.5 27t34.5 32t34 21q2 -2 8 -2q1 -2 2 -5l2 -6t2 -7q-1 -3 -4.5 -10t-3.5 -11q-17 -17 -44.5 -55t-41.5 -53q-13 -38 -31 -47zM68 328q5 -2 12.5 -9t9.5 -8q26 -9 74 -6q9 4 30.5 16t30.5 15q92 68 127 108q0 2 3 8t3 11q-1 4 -5 10t-5 10q-11 5 -23 7.5t-19.5 3.5 t-24.5 1.5t-25 0.5q-6 -6 -16 -9q-53 -10 -117 -30q-8 -5 -32.5 -16t-35.5 -19q-10 -46 13 -94z" />
<glyph unicode="7" horiz-adv-x="522" d="M84 297q-11 2 -21 22q0 43 27 95q1 2 25 32q1 2 2 7.5t2 7.5q4 5 13 12t13 12q12 18 15 21q24 28 49 47q16 31 63 61q5 5 20.5 21t23 23t21 18t25.5 18q21 23 47 46t60.5 52.5t50.5 43.5q1 4 6 10.5t4 13.5q-17 6 -47 -1.5t-43 -6.5q-22 -10 -84 -32t-94 -38 q-12 -3 -36 -10t-36 -10q-5 1 -9.5 0t-9 -0.5t-7.5 4.5q-1 6 3.5 11.5t4.5 6.5q28 -6 71.5 12t61.5 19q5 6 24.5 12t24.5 13q14 -1 38 9.5t38 10.5q14 5 19 8q2 1 4.5 -0.5t5.5 -1.5q37 17 86 11q10 -14 -6 -46q-10 -8 -61 -53t-81 -67q-6 -8 -24 -23t-25 -26q-2 0 -5 -2.5 t-5 -2.5q-17 -18 -86 -82t-106.5 -112t-61.5 -107q0 -14 -6 -26q1 -4 5.5 -11.5t5 -11t-4.5 -10.5z" />
<glyph unicode="8" horiz-adv-x="552" d="M457 887q3 1 4.5 5.5t3.5 4.5q8 0 16 -1.5t16.5 -3.5t12.5 -3q13 -7 14.5 -27t-6.5 -33q-62 -77 -211 -170q10 -8 29.5 -22t34 -26t26.5 -25q0 -4 1.5 -7t5 -6.5t4.5 -5.5q16 -37 7.5 -70t-34.5 -59q-55 -55 -164 -98q-18 -10 -42 -20t-41 -16t-47.5 -16t-43.5 -14 q-2 2 -8 2q-2 -1 -6.5 -1.5t-7.5 -1.5t-5 -3q-10 -1 -43 -6t-53 -6q-28 0 -48.5 15.5t-21.5 43.5q-1 6 1 12.5t5.5 14t4.5 12.5q62 82 164 142q3 2 13 10t16 12.5t15 9t15 5.5q1 -4 1.5 -6.5t-2.5 -5.5l-5 -5t-6 -4.5t-6 -3.5q-12 -12 -23 -14q-4 0 -4 -9q-7 -1 -13.5 -4.5 t-10 -6.5t-9.5 -10t-8 -9q-3 1 -6 -1t-6 -1q-3 -3 -13.5 -12.5t-14 -12.5t-13 -11.5t-13.5 -13t-12 -12.5t-13 -13.5t-11.5 -13.5t-12 -15t-10.5 -15q-4 -26 0 -39q18 -21 49 -21q26 -1 57 3.5t50 10t56.5 17t49.5 15.5q10 5 48 22t52 23.5t44 23t46 28.5t36 31t34 39 q6 15 3 30.5t-5 26t-11.5 23t-16 20t-19.5 17t-22 15t-22.5 14.5t-20.5 14q-5 0 -5.5 -5.5t-1.5 -6.5q-7 1 -16 -5t-14 -5q-2 -4 -10 -11t-11 -10q-22 -5 -63 -32t-56 -31q7 14 30.5 26t29.5 19q1 0 4 1.5t4 -1.5q14 15 48.5 36t49.5 35q-17 15 -24 21.5t-16.5 22 t-12.5 32.5q-1 24 7.5 43t16.5 27t27 24q1 0 1.5 1.5t1 3.5t1.5 4q13 6 45 34q91 47 140 15zM475 819q-8 -16 -10 -24q6 2 18.5 16t16.5 18q15 30 6 45q-14 8 -41 11q17 -33 10 -66zM444 877q-66 10 -120 -22t-86 -87q-12 -56 53 -98q3 1 9 5.5t13 4.5q1 2 5 5.5t6 6.5 q21 11 56 36.5t52 35.5q16 20 31 24q0 5 0.5 20.5t0 22t-2 17.5t-6 17.5t-11.5 11.5z" />
<glyph unicode="9" horiz-adv-x="514" d="M571 1001q-2 -10 -11 -24.5t-11 -24.5q-8 -8 -26.5 -39t-35.5 -41q0 -5 -3 -9.5t-3 -8.5q-13 -11 -33.5 -35.5t-33.5 -36.5q-7 -13 -21 -33.5t-18 -27.5q0 -4 -6 -4q-21 -40 -46 -83.5t-57.5 -98.5t-48.5 -82q0 -3 -2 -8t-2 -9q-16 -24 -38.5 -76.5t-31.5 -68.5 q-1 -13 -8 -37t-9 -37t5 -35q10 1 20.5 11t16.5 12q1 -11 -8 -21.5t-10 -17.5q-3 0 -7.5 -3t-7.5 -3q-10 2 -20 12q-14 29 2 88q10 36 33 84q10 23 36.5 76.5t36.5 81.5q13 16 34 52t34 52q5 22 25.5 53t25.5 48q-14 -6 -38 -31.5t-40 -32.5q-1 -2 -10 -16q-11 -5 -32 -24 t-38 -23q-20 -22 -56.5 -39t-72.5 -12t-47 42q-2 16 6 43q-1 2 0 2.5t3 0.5q3 0 3 1v13q9 5 13 20q17 23 37 44.5t51.5 51.5t40.5 39q11 6 34 25t40 25q15 16 39 28.5t51.5 14.5t44.5 -21q-2 -45 -49 -100q2 17 16 42t14 46v6q-1 3 -5 4.5t-5 3.5q-2 1 -6.5 1t-5.5 1 q-25 -5 -58 -16q-50 -35 -72.5 -51.5t-61 -49t-63.5 -64.5t-44 -69q0 -5 -1.5 -18.5t-0.5 -22.5q8 -20 41 -24q14 1 38 10t29 10q112 73 160 125q3 1 7 4.5t7 3.5q2 3 11.5 12.5t13.5 16.5h6q7 11 16 14q9 9 26 30t26 30q2 6 9.5 17t8.5 20q16 12 31 45q55 74 61 84 q7 6 19.5 20.5t19.5 20.5q5 0 8 -4.5t4 -4.5zM457 850q6 8 25 30.5t30.5 39t17.5 34.5q-8 -11 -24 -32.5t-28 -38t-21 -33.5z" />
<glyph unicode=":" horiz-adv-x="358" d="M178 721q-2 -27 -26 -51q-11 3 -17 12q-1 8 5.5 18t6.5 11q6 -4 15.5 8.5t15.5 1.5zM121 422q4 -2 8 -14q-8 -11 -10 -21q-5 -1 -14.5 -5t-13.5 -4.5t-13 5.5q2 14 21.5 25.5t21.5 13.5z" />
<glyph unicode=";" horiz-adv-x="378" d="M229 721q-2 -27 -26 -51q-11 3 -17 12q-1 8 5.5 18t7.5 11q6 -4 15 8.5t15 1.5zM170 420q5 -24 -0.5 -42.5t-22.5 -41.5t-20 -29q-6 -2 -14.5 -12t-18.5 -10q1 7 6 14.5t14 17t11 11.5q1 7 8.5 17.5t9.5 16.5q5 9 8.5 30t8.5 28q3 1 5.5 0t4.5 0z" />
<glyph unicode="&#x3c;" horiz-adv-x="819" d="M629 780q-25 -45 -31 -53q0 -18 -14 -18q0 9 8.5 28t9.5 31q-26 -2 -69.5 -21.5t-63.5 -23.5q-22 -16 -74 -31q-31 -20 -82 -41q-11 -8 -36.5 -22t-36.5 -23q-4 1 -8.5 -3t-8.5 -1q-9 -13 -45 -31q-6 -8 -21 -17.5t-24 -20.5t-8 -29q0 -5 4.5 -10t5.5 -7q10 -7 35 -14.5 t33 -11.5q32 0 86.5 -10.5t83.5 -10.5q61 -18 88 -18q7 -6 24 -10t23 -11q8 2 20.5 -4.5t20.5 -5.5q0 -5 4 -7t4 -3q-1 -3 -6 -3t-6 -1q-5 3 -22 7.5t-21 10.5q-17 3 -45.5 11t-51.5 12.5t-45 5.5q-22 6 -107 15t-124 28q-3 7 -10 10q-8 11 -15 31q-4 11 0 18q22 41 107 80 q5 3 30 20.5t42 22.5q50 30 159.5 76.5t143.5 62.5q7 -2 15 1.5t13 3.5q5 -1 9 -6.5t6 -6.5z" />
<glyph unicode="=" horiz-adv-x="569" d="M438 641q-6 -4 -13.5 -5.5t-13 -1.5t-16 0.5t-14.5 0.5q-12 0 -40.5 -2.5t-43.5 -1.5q-22 -4 -68 -8t-75 -9q-10 15 -4 23q5 -1 15.5 0.5t10.5 -2.5q56 12 92 6q41 10 60 4q10 5 32.5 3.5t36.5 2.5q6 -5 20 -4.5t21 -5.5zM442 565q0 -9 -13.5 -9t-16.5 -3q-40 0 -90 -8 q-23 2 -64 -5t-53 -8q-2 0 -10 -4t-15 -4q-4 -1 -9 -7t-9 -7q-4 11 0 22q43 22 117 29q3 0 9.5 -1t8.5 -1q1 0 3.5 2.5t4.5 3.5q11 2 76 2q42 4 61 -2z" />
<glyph unicode="&#x3e;" horiz-adv-x="645" d="M190 786q40 -17 118.5 -36.5t142 -42.5t100.5 -58q6 -19 4 -41q0 -4 -2.5 -9l-3.5 -7q-46 -42 -162 -88.5t-143 -61.5h-11q-11 -11 -26 -14q-8 -4 -34 -17.5t-38 -20t-30.5 -18.5t-32.5 -24q-1 -1 -6 -10t-11 -10q-7 5 -4 13t7.5 13t12.5 12t11 11q1 0 2.5 1t3.5 1 q4 6 18.5 12.5t18.5 9.5q1 0 4 1.5t6 0.5q13 12 46.5 26.5t47.5 25.5q47 18 130 53.5t122 50.5q13 13 45 29q2 4 10.5 16t8.5 21q-1 8 -10 16.5t-11 13.5q-20 13 -42 23.5t-54 20.5t-46 14t-58.5 15t-51.5 13q-9 3 -25.5 9.5t-30 10.5t-26.5 3q-6 6 0 22z" />
<glyph unicode="?" horiz-adv-x="563" d="M152 758q1 -5 9.5 -9.5t10.5 -9.5q25 4 37 0q-3 -10 -13.5 -12t-25 0.5t-18.5 1.5q-15 15 -19 25q1 23 10 39t23.5 30.5t19.5 24.5q13 6 32 28t34 27q38 38 51 47q1 2 4 6.5t4 6.5q9 9 36.5 28.5t37.5 32.5q2 1 5.5 4.5t8.5 3.5q22 24 66.5 63.5t60.5 55.5q1 1 6 7t9 9.5 t8 3.5q6 8 19 23t20 24.5t14.5 24.5t11.5 31q2 17 -10 33q-63 20 -168 -9q-3 -1 -17.5 -6t-21.5 -8q-2 -1 -5 -3t-4.5 -2t-8.5 1l-12 -6q-107 -54 -152 -94q0 -3 -0.5 -13.5t-2.5 -17t-7 -8.5q-21 33 16 61q29 24 103 66q3 3 6 0q71 43 155 55q1 1 4.5 2.5t4.5 3.5 q11 -1 39.5 3t41.5 3q51 -15 62 -45l-1 -6q-2 -6 1 -6q-15 -60 -55 -86q-8 -17 -34 -40t-34 -38q-5 0 -9.5 -5t-10.5 -5q-26 -30 -87 -81t-88 -81q-18 -9 -22 -20q-15 -4 -38.5 -30.5t-37.5 -33.5q-8 -11 -25 -28t-28.5 -33.5t-15.5 -38.5zM188 469q-7 -17 -24 -14 q-7 -5 -25 -15t-29 -19.5t-16 -23.5q-11 0 -16 23q9 12 32 25.5t29 21.5q6 -3 18 1.5t18.5 7t12.5 -6.5z" />
<glyph unicode="@" horiz-adv-x="1288" d="M694 612q-5 0 -15 -8t-15 -10q-10 -12 -64 -49q-6 -4 -19.5 -15t-25 -16t-27.5 -4q-2 2 -7 6t-7 6q-3 9 2 33q66 77 97 103q26 21 53 34h16q8 -4 16 -24q-1 -5 -4.5 -12.5t-3.5 -14.5q6 0 16 10t17 11q2 2 5 7.5t6 8.5t7 2q3 -1 5.5 -6t5.5 -6q-3 -5 -23 -35 q-4 -7 -10.5 -20l-9.5 -19l-17 -34t-20 -48q-9 -38 3 -62t50 -20q16 3 31.5 10t34.5 19t32 18q18 20 49 41q22 24 60 51q3 4 32 35.5t34 37.5t30.5 35.5t32.5 40t27.5 38t28.5 43.5t23 43.5t23 49.5t16.5 50t14.5 57q-3 66 -25 109q-6 6 -20.5 16.5t-20.5 16.5q-7 4 -31 9 t-32 13q-107 -5 -160 -18q-1 0 -18 -6t-27 -2q-32 -19 -76 -27q-9 -4 -31 -16t-36 -15q-18 -12 -23 -10q-16 -13 -56 -34t-58 -36q-1 2 1.5 8t2.5 9q5 1 11.5 4t8.5 4q22 30 51 33q12 12 41.5 25t40.5 22l5 2q6 1 6 -2q13 10 41 20t40 17q4 -1 11.5 0.5t9.5 -0.5 q57 24 126 32t135.5 -14.5t86.5 -81.5q0 -8 -2 -10q2 -1 4 -5.5t4 -6.5q8 -114 -28 -160q-13 -47 -34.5 -86t-63 -94t-50.5 -68q-3 -1 -7 -4t-7 -4q-5 -16 -28.5 -36.5t-29.5 -33.5q-2 -2 -10.5 -7t-11.5 -9q-2 -1 -4 -5.5t-4 -6.5q-1 -1 -5.5 -1t-5.5 -1t-1 -5.5t-1 -5.5 l-18 -12q-4 -3 -19 -16.5t-23.5 -20.5t-21.5 -17.5t-24 -17.5t-21 -12q-26 -16 -65 -22q-31 -2 -59 22q-2 4 -6.5 12.5t-6.5 12.5q-2 28 6 59t15.5 47.5t23.5 48.5zM635 657q-12 -14 -36.5 -35.5t-41.5 -42t-25 -44.5q16 -6 35.5 9t26.5 17q9 9 30.5 24.5t30.5 24.5 q3 2 9.5 5.5t9.5 5.5q-1 11 3.5 25.5t4.5 21.5q-11 7 -28 -2t-19 -9zM489 946q5 0 5 -8q-5 0 -5 8zM492 932q-6 -9 -20.5 -19.5t-20.5 -19.5q-1 -2 -3 -1t-4 1q1 -4 -0.5 -7t-4 -3.5t-3.5 0.5q-10 -16 -23 -30.5t-31 -31.5t-26 -26q-1 -2 -4.5 -7t-3.5 -10q-3 1 -4.5 -2 t-5.5 -2q-3 -5 -28.5 -41t-31 -44.5t-27 -41t-28.5 -46t-24.5 -43.5t-25 -50t-19.5 -48.5t-19.5 -55.5t-13.5 -56q-11 -105 44 -164t152 -80q69 -5 177 11q112 26 143 30q4 0 5.5 4.5t4.5 4.5q34 7 105.5 28t105.5 27q-1 -5 -11 -7.5t-11 -6.5q-5 -1 -43 -14t-56 -15 q-4 -1 -19 -8t-23 -9.5t-20.5 -5.5t-21.5 -2q0 -3 -5 -5t-5 -5q-13 -1 -100 -25h-11q-160 -40 -247 -16q-19 3 -35.5 9t-34.5 19t-25 18t-28 24.5t-23 21.5q-35 56 -43 97q0 22 4 88q60 184 127 274q4 17 22.5 38t22.5 36q11 11 42.5 50.5t52.5 57.5q0 3 2 6t2 5 q13 9 34.5 33.5t38.5 33.5q4 8 17.5 19.5t17.5 19.5q4 0 8 -4t5 -4z" />
<glyph unicode="A" horiz-adv-x="1406" d="M573 569q2 0 2 4q3 0 7.5 -1t7.5 -1q17 20 110 123q-24 -2 -71 -7.5t-88.5 -9t-77.5 -3.5q-18 -3 -62.5 -4.5t-68.5 -5.5q44 -10 63 -21q-12 -7 -29.5 -1.5t-27.5 13.5q-3 -5 -14.5 -0.5t-14.5 2.5q-9 9 -10 11q-177 0 -258 22q-27 3 -54 9.5t-44 12t-48 17t-47 16.5 q-3 1 -6 6.5t-6 4.5q-3 2 2 12q11 -1 31 -5t33 -5q24 -8 41 -8q5 -2 35 -7.5t42 -13.5q2 0 4 3t5 3q22 -6 95 -19t103 -26q27 0 97.5 -1.5t107.5 -0.5q48 7 107 4q24 7 64 10.5t56 6.5q5 -3 7 -3t9 3t11 4q2 0 5.5 -2.5t4.5 -3.5q2 3 9.5 4.5t9.5 3.5q13 6 31 28t30 29 q48 64 170 182q3 3 7 8t7 8.5t7.5 7t9.5 5.5q68 77 135 129q44 48 76 70q6 12 8 14q179 155 326 250q1 -3 5 -5.5t5 -4.5q-1 -17 -5.5 -33.5t-12.5 -35.5t-11 -28q-34 -71 -133 -261t-147 -300q12 -6 54 2.5t60 3.5q57 14 95 11q-2 -7 -7.5 -9.5t-15 -2.5t-14.5 -1 q-63 -9 -119 -14q-4 -1 -27 -2.5t-35 -7.5q-2 0 -4 -3.5t-4 -4.5q-92 -225 -119 -306q-1 -7 -7.5 -37.5t-8.5 -41.5t-6.5 -37.5t-5.5 -42t-2 -38t0.5 -42t5.5 -39.5q6 -12 28 -47.5t31 -57.5q3 -4 24.5 -32.5t29.5 -46.5q0 -3 -4 -6.5t-5 -4.5q-49 17 -75.5 60.5 t-44.5 109.5q0 12 -3 21q-52 107 -182 217l-6 12q-12 0 -29 21q-16 5 -28 20q-26 5 -21 21q5 1 7 0.5t8.5 -5.5t7.5 -6q25 -15 53 -43q8 1 22 -13t21 -17q30 -38 57 -54q1 -5 7.5 -11t7.5 -11q16 -11 36.5 -40t30.5 -38q0 18 1 38t2.5 35.5t5.5 37.5t6 34.5t8 36.5t8 32.5 t10 34.5t9.5 31t10 32.5t9.5 29.5q9 11 19.5 41.5t19.5 40.5q3 22 21.5 59.5t23.5 57.5q-94 -8 -256.5 -30.5t-204.5 -27.5q-27 -23 -69.5 -71.5t-57.5 -63.5q2 -3 8.5 -6t11 -6.5t3.5 -7.5q-4 -3 -7.5 -1.5t-10 6t-9.5 5.5q-5 -2 -12 -10t-15 -8q-2 -10 -14 -23t-14 -23 q-12 -11 -25.5 -25.5t-22.5 -24.5t-24 -29t-22 -27h-9q-6 -19 -28.5 -44.5t-26.5 -31.5q-6 6 -12 6q0 7 4 11q29 32 96 113t105 122zM1501 1413q-31 -20 -88 -61.5t-88 -61.5q-1 -1 -2 -5t-2 -5q-124 -101 -195 -176q-10 -3 -23.5 -17t-19.5 -18q-22 -24 -65.5 -66 t-50.5 -49q-19 -16 -56.5 -56t-60.5 -58q0 -5 -4 -13q-14 -10 -36.5 -36t-37.5 -35q-1 -8 -11.5 -19.5t-10.5 -17.5q48 7 139.5 16.5t140.5 16.5q9 3 21 6q2 0 10.5 -1.5t11.5 -0.5q6 0 17 3.5t16 4.5q4 0 15 1t16 1q9 0 29 3t30 3q25 55 79 160.5t79 159.5q7 4 13.5 18 t12.5 18q13 36 48 102t49 105q2 1 4 5.5t4 5.5q1 11 10 32t8 33q0 2 -2 2zM-51 735h-4h4zM-31 729zM51 711q54 -13 68 -13q23 -6 28 2l-75 12.5t-99 12.5q6 -1 24 -6t30 -7t24 -1zM158 694q2 -2 7 -2t5 2q-12 6 -12 0zM152 694zM182 690h4q1 3 -2.5 3.5t-3.5 -1.5q2 0 2 -2z M1083 92q0 -2 3.5 -6.5t3.5 -5.5q0 -6 4 -6q0 -15 12 -27h2h-2q-1 5 -12 27q0 6 -4 6q0 12 -7 12zM1458 799q1 -7 -6 -9.5t-12 1.5v6q11 4 18 2zM410 639q3 -1 21.5 -5t23.5 -11q-2 0 -2 -5q-5 3 -16.5 3.5t-19 4t-7.5 13.5zM498 604q-8 -6 -21 0t-18 14v5q8 0 23 -6.5 t16 -12.5zM532 594q-2 -2 -2 -6q-9 -4 -24 6q3 8 11.5 7t14.5 -7zM575 573q-2 0 -2 -4q-13 0 -26 6t-12 17q8 -1 22 -8.5t18 -8.5v-2zM631 545q6 0 2 -8q-6 0 -2 8zM639 543q5 0 10 -5t8 -6q0 -4 -4 -8q-20 5 -14 19zM705 500q-18 -7 -21 10q-4 0 -9 3.5t-5 8.5 q30 -6 35 -22zM705 500h8l-1 -4q-1 -4 -5 -4q-4 4 -2 8zM723 494q7 -2 17 -9.5t16 -9.5q5 -9 0 -14q-3 3 -12.5 8.5t-15.5 11t-5 13.5zM762 469q1 -1 4 -2.5t4.5 -2.5t4 -4t1.5 -5t-2 -6q-3 1 -7 4.5t-7 3.5q-2 5 2 12zM356 293q0 -7 -8.5 -22t-9.5 -23q-10 -10 -30 -38.5 t-36 -39.5q0 -1 -2.5 -4t-1.5 -8q-3 -1 -7 -6.5t-7 -6.5q-10 -16 -44 -59.5t-48 -71.5q-3 0 -6 -3.5t-6 -4.5q0 -1 -2 -5t-1 -7q-9 -8 -17 -19.5t-12.5 -19.5t-12.5 -24.5t-11 -22.5q0 -6 6.5 -10.5t5.5 -10.5q-10 -16 -34 2q0 7 -2 7q11 34 29.5 65t44.5 66t38 55q3 3 13 8 q17 32 73 96q1 3 4 7.5t4 7.5q47 51 80 92z" />
<glyph unicode="B" horiz-adv-x="1433" d="M825 1563q4 -1 7.5 -3t6.5 -5.5t5 -4.5q4 -25 -2.5 -54.5t-19 -66.5t-17.5 -57q-1 -6 -3 -12.5t-3 -9.5q-2 -6 -4 -18t-4 -17q-3 -9 -16.5 -43t-18.5 -55q-13 -24 -25.5 -51.5t-28 -64.5t-22.5 -54q15 19 51 74.5t60 80.5q13 22 28 43.5t34.5 44.5t31.5 36t38.5 40.5 t34.5 36.5q5 3 35.5 27.5t50.5 33.5h23q14 -24 16 -28q-6 -58 -18 -68q-2 -11 -5.5 -21t-9.5 -20.5t-9.5 -17t-11.5 -19t-11 -16.5q-11 -30 -41.5 -78t-40.5 -68q-6 -7 -65.5 -86.5t-98.5 -113.5q-6 -14 -25 -33t-22 -23q18 -3 54.5 -7.5t62.5 -9.5t45 -13q25 -2 49 -10.5 t55 -24.5t43 -21q0 -2 2 -2.5t4 -2.5t2 -5q68 -28 123 -104q3 -4 15.5 -19t17.5 -24q36 -60 53 -178q-1 -9 -2 -27t-2 -28t-3 -24t-5 -25.5t-8 -22.5v-13l-3 -3t-5 -1q-5 -22 -16 -46.5t-17 -35t-27 -41t-22 -32.5q-12 -9 -30.5 -32.5t-31.5 -31.5q-1 -3 -5 -7t-5 -7 q-88 -78 -106 -94q-28 -12 -66 -46h-8q-9 -9 -33.5 -23.5t-34.5 -23.5q-44 -21 -69 -41q-2 2 -9 2l-18 -12q-17 -5 -65.5 -25t-73.5 -24q-2 -2 -7.5 -5t-7.5 -5q-8 2 -22 -2.5t-17 0.5q-2 -3 -8.5 -7.5t-7.5 -5.5q-117 -17 -168 -20q-9 2 -59 2q-9 2 -33 6.5t-37 8t-30 11 t-27 17.5q-10 0 -23.5 13.5t-19.5 15.5q-29 37 -41 75q-2 6 -8.5 19t-7.5 19.5t1 23.5q0 3 -2 7t-2 7q2 37 13.5 75t19 55t32.5 60.5t28 49.5q30 30 41 55q9 5 23 23.5t26 23.5q7 16 32.5 38t32.5 36h8q2 2 5.5 7t5.5 7q7 4 22 17t23 16q14 44 48 117.5t44 99.5 q-8 -4 -49.5 -30.5t-69.5 -34.5q-4 -7 -22 -14.5t-23 -12.5q-10 0 -12 2q-35 -22 -125 -41q-12 3 -29 0q-1 0 -14.5 2.5t-14.5 -0.5q-2 2 -9.5 8t-10.5 9t-8 9t-6 12.5t0 14.5q0 8 10.5 26.5t19.5 29.5q28 38 113 94q2 1 29 20t43 25q4 2 12 5t13 6t9 7h13q2 -1 3 3t3 4 q2 1 19 6t22 12q32 6 65 22q13 -1 39 9t41 8q5 4 10.5 5t13.5 1.5t15 1.5q16 21 37.5 71.5t36.5 71.5q8 25 29.5 72t29.5 72q7 8 13.5 26t13.5 25q12 39 22 53q-2 2 -2 13q15 27 33 88.5t27 83.5q0 7 2.5 21t1.5 20q-16 -32 -16 -48q-11 -10 -9 -18q-2 -2 -6 -2 q3 -2 0.5 -12.5t-2.5 -12.5q-4 8 -3.5 18.5t7.5 10.5q0 5 -6 2q7 24 26 74t27 78zM1036 1442q-82 -53 -159 -158q-4 0 -7.5 -4t-7.5 -4q-5 -6 -14 -20.5t-18 -25t-19 -16.5q-7 -20 -29.5 -49t-29.5 -49q-9 -5 -19 -24.5t-18 -24.5q-6 -20 -31 -45q1 -4 -1 -8t-1 -8 q-40 -52 -84 -142q7 -2 19 0.5t18.5 3.5t13.5 -6q6 7 21.5 5.5t27.5 0.5q6 19 25 25q19 32 49 53q5 5 13 16t15 19.5t15 13.5v9q7 6 20.5 22.5t22.5 22.5q9 29 39 55q7 15 29.5 48t29.5 56q85 130 105 215q-1 3 -2 10t-2 9h-21zM586 842q-2 -5 -25.5 -50.5t-30.5 -68.5 q21 14 58.5 47t58.5 47q2 7 12.5 17t12.5 18q-57 -5 -86 -10zM252 303q-2 -1 -2.5 -5t-1.5 -5q-18 -15 -33 -33t-35.5 -47.5t-27.5 -38.5q-7 -18 -26 -50t-26 -50q-1 -8 -13.5 -59t-12.5 -76q6 -12 6 -13q-1 -3 -1.5 -11t-2.5 -11q1 -5 9 -18t9 -23q9 -6 27 -33 q6 -4 12.5 -9t13.5 -12t11 -10q104 -51 215 -37q3 -2 19 -0.5t22 0.5q98 21 118 23q2 4 11 7.5t10 4.5q23 2 56.5 16t52.5 17q9 8 36 20t37 23q20 2 46 18.5t42 18.5q52 36 86 57q4 3 13 10.5t14.5 12.5t14.5 10t18 8q3 3 16 17.5t23 22.5t22 13q1 1 2 5.5t2 5.5 q14 12 41 40.5t41 41.5q7 12 35 56.5t41 70.5q3 12 15.5 51t17.5 61q3 27 0 56.5t-9 65.5t-8 50q-21 42 -26 49q0 2 0.5 5t1 4t-0.5 3t-3 3q0 4 -4 3.5t-7 0.5q-11 25 -43.5 59t-38.5 41q-17 4 -38 25q-102 62 -213 82h-11q-41 10 -120 10q-21 -20 -64.5 -58.5t-65.5 -58.5 q-2 0 -4 1t-4 1q-1 -7 -11.5 -13.5t-12.5 -10.5q-3 0 -8 -5.5t-11 -3.5q-2 -6 -14 -14q-12 -29 -46 -102t-50 -115q17 6 43 28t43 27q-7 -8 -24.5 -22.5t-24.5 -22.5q-10 -5 -20 -13t-21.5 -20t-16.5 -16l-18 -51t-22 -60.5t-21 -48.5q-2 -13 -12 -46t-9 -54q-4 -8 -12 -8 q-1 2 -3.5 3.5t-6.5 3.5l-6 3q-1 16 3 35t7.5 30t12.5 33t11 27q2 20 17 51t16 47q-23 -19 -98 -94zM266 743q-8 -11 -37 -24q-67 -51 -96 -76q-4 -7 -18.5 -24t-22 -31t-8.5 -31q5 -9 27 -22q23 -3 32.5 -2.5t35 5t36.5 5.5q6 4 15 7t20.5 6t17.5 5q26 17 43 19q3 10 15 4 q11 11 37.5 26.5t37.5 24.5q2 0 5 1t6 1q10 8 37 26t40 31q11 28 36 79t32 67q0 2 -2 0q-122 -19 -289 -97zM768 1376h4q1 -3 -0.5 -6.5t-1.5 -5.5q-2 2 -2 12zM764 1350zM762 1343zM754 1333z" />
<glyph unicode="C" horiz-adv-x="1077" d="M666 569q1 11 7 20t10 12t15 11q27 41 76 101q17 36 68 108q9 18 33.5 66.5t37 75.5t30.5 69.5t30 82t20 79.5q11 59 -5 111t-56 75q-23 11 -50 12t-56.5 -7.5t-47 -15.5t-43.5 -19q-5 -3 -24 -15.5t-31 -17.5q-15 -15 -49 -40.5t-49 -39.5q-8 -8 -43 -44t-54 -54 q-6 -9 -6 -17q-19 -8 -40.5 -38t-32.5 -37q-15 -25 -46 -70t-36 -53q-16 -23 -41.5 -65.5t-36.5 -59.5q-8 -20 -30.5 -62t-31.5 -67q-3 -3 -6 -11t-6 -10q-27 -67 -37 -94t-33.5 -93.5t-31.5 -110.5t-18 -106.5t-7.5 -122.5t14.5 -120q5 -10 14.5 -32.5t14.5 -32.5 q1 -1 7 -7.5t5 -13.5q9 -7 31 -26.5t35 -28.5q66 -18 123 -13q30 6 145 39q1 1 4.5 5.5t5.5 5.5q28 7 69 27.5t60 27.5q8 8 9 10q39 17 74.5 37.5t90.5 58t68 45.5q8 0 10 2q3 3 62 44q4 1 26.5 17t34.5 11q-4 -7 -16 -13.5t-14 -8.5q-3 -3 -15 -10.5t-16 -12.5 q-8 -6 -31.5 -19.5t-32.5 -23.5q-27 -16 -180 -117q-6 0 -14 -4q-99 -63 -217 -106q-44 -17 -89 -27t-100 -6.5t-90 29.5q-83 66 -98 180q-10 49 -10.5 105.5t5.5 103t19.5 104t24.5 95t28 88.5q1 3 4.5 8t4.5 6q0 2 1.5 6.5t0.5 9.5q11 20 30 67.5t33 69.5q2 14 14 33.5 t15 30.5q3 -1 4.5 3.5t5.5 2.5q3 14 15.5 35t15.5 35q13 16 37 55t41 57q2 4 7 12.5t9.5 14.5t9.5 10q2 9 12.5 21.5t12.5 21.5q12 11 36.5 41t41.5 43q5 16 26 36t27 32q12 8 34.5 32t39.5 33q1 5 7 10t7 7q3 1 8.5 6t9.5 6q12 13 28.5 25.5t38.5 28t34 24.5q22 7 53 26 q45 21 99 23t93 -25q47 -47 56 -106q3 -13 0.5 -40t-3.5 -36t-5.5 -35.5t-6.5 -36.5q-2 -1 -4.5 -5t-5.5 -5q2 -6 0 -14t-6.5 -18t-5.5 -15q-13 -39 -23 -49q1 -17 -10.5 -36t-11.5 -34q-15 -21 -46 -83.5t-55 -88.5q0 -5 -3.5 -10t-2.5 -10q-10 -14 -50.5 -73t-65.5 -89 q-3 -2 -17.5 -15.5t-25.5 -13.5z" />
<glyph unicode="D" horiz-adv-x="1605" d="M348 -190q-8 0 -16 12q5 34 20.5 64.5t30 47t41.5 43.5q29 59 45 82q9 22 14 27q173 334 238 479q22 67 45 101q2 17 15.5 41.5t15.5 29.5q3 3 11 18.5t16.5 22t19.5 0.5q-3 -7 -11.5 -16.5t-11.5 -13.5q-7 -18 -22 -41q-6 -18 -6 -21q-16 -29 -42 -97.5t-44 -99.5 q-30 -72 -64.5 -142.5t-89.5 -174t-72 -137.5q35 27 78.5 53t100.5 56t85 46q19 8 55 31t58 31q2 3 8.5 7t7.5 5q1 0 4.5 1.5t6.5 0.5q20 17 64.5 45.5t64.5 44.5q21 7 28 21q4 0 8.5 3.5t8.5 2.5q12 13 41 33.5t41 34.5q14 2 26 22q13 4 31 21.5t31 21.5q8 9 26 25.5 t23 21.5q97 97 135 142q60 71 97.5 167t23.5 191q-2 8 -7 25.5t-7 25.5q-5 11 -12 22t-12 17.5t-15.5 19t-14.5 17.5q-26 26 -36 31q-3 2 -9.5 4t-9.5 4q-2 1 -5 5t-5 5q-58 28 -117 41q-8 2 -39.5 4.5t-44.5 9.5q-8 -3 -61 -0.5t-56 2.5q-187 -17 -346 -77 q-13 -7 -49.5 -24.5t-53.5 -26.5t-45.5 -24.5t-51 -30.5t-43.5 -32q-15 -4 -36.5 -21t-31.5 -22q-44 -34 -180 -161q-17 -22 -78 -97q-59 -95 -82 -151q-14 -71 -12 -99q2 -36 28 -86q44 -59 162 -96q82 -16 209 -26q63 0 90 -5q1 -4 -1.5 -6t-7 -2t-8.5 0.5t-8.5 1 t-5.5 0.5q-73 -1 -128.5 2t-120 15.5t-108.5 34t-78 61t-44 94.5q-1 38 4 71t18.5 64t23.5 49.5t31.5 52t29.5 46.5q12 6 14 8q2 6 8 15.5t8 15.5q14 12 48 50t57 54q19 26 76 68q25 25 78.5 61.5t66.5 46.5q14 6 55.5 32t69.5 34q4 8 25 12q90 50 274 92q45 9 162 17 q72 6 196 -19q190 -39 244 -188q2 -12 6 -30t6 -30q0 -38 -4 -104q-8 -38 -55 -148q-22 -27 -25 -38q-1 0 -4 -4.5t-8 -4.5q-2 -10 -13.5 -23.5t-14.5 -23.5q-10 -7 -27.5 -29t-32.5 -30q-71 -83 -131 -125q-64 -58 -209 -164q-42 -28 -121.5 -78t-105.5 -67 q-24 -11 -74 -38.5t-78 -39.5q-17 -11 -52.5 -31.5t-53.5 -32.5q-10 -8 -29 -21.5t-33.5 -25.5t-27.5 -26q-6 -10 -17.5 -28.5t-20 -33t-14.5 -28.5q-5 -7 -21.5 -42t-33.5 -44z" />
<glyph unicode="E" horiz-adv-x="1347" d="M952 1358q4 -13 -7.5 -33t-24.5 -33q-22 -25 -41 -41q-9 -18 -31.5 -44t-30.5 -40q7 0 35 11h10q2 1 12.5 6t16.5 6q3 1 10 1.5t12 1.5t9 3q2 0 5.5 3t4.5 3q3 1 14.5 1.5t16.5 2.5q8 2 25 9.5t30 9.5q6 1 19.5 2t19.5 2q22 9 41 12h14q3 1 12.5 5.5t14.5 4.5h22 q3 1 15 5.5t22 5.5q6 1 17 5t14 5q1 0 3 -2t3 -2q11 1 33 7t28 7q4 0 4 -6q84 22 146 0q4 -12 2 -23q-16 -27 -66 -49q-60 -39 -170 -84q-28 -17 -69 -30q-2 -1 -6 -4.5t-6 -5t-5.5 -3t-7.5 -0.5q16 23 49 27q3 2 19 12t22 13t19.5 8t25.5 6q3 6 13 9.5t12 10.5q8 -1 18.5 6 t18.5 7q11 9 57 34t62 50q-3 9 -19.5 10t-21.5 4q-27 0 -129 -12q-21 -4 -85 -17t-96 -18q-1 -2 -5 -4t-5 -4q-1 0 -4 1.5t-6 0.5q-21 -6 -87 -24t-108.5 -31t-81.5 -29q-4 -2 -10 -10t-10 -11q-2 3 3 9t5 8q-13 -4 -76 -29q-5 -24 -10 -29q-2 0 -4 4.5t-2 5.5 q-16 -10 -39 -36.5t-37 -36.5q0 -3 -3 -7.5t-3 -7.5q-129 -160 -197 -264q12 6 40.5 22.5t43.5 22.5q2 1 4 -1t5 -1q11 13 41 28t41 25h10q8 4 23 12.5t26 13.5t20 7q6 6 15.5 11.5t25 12.5t19.5 9q-1 -7 -10 -13t-11 -8q-9 0 -18.5 -8t-18.5 -8q-63 -41 -127 -65 q-18 -13 -61.5 -36t-62.5 -36q-1 0 -2.5 1t-2.5 1q-12 -6 -26 -25t-17 -22q-7 -14 -59 -102t-74 -140q16 -4 56 6t55 11q48 15 161.5 43.5t168.5 46.5h12q21 10 63.5 19.5t57.5 14.5q6 0 6 -2q2 1 10 9q23 3 107.5 18.5t128.5 17.5q10 -2 32.5 0.5t28.5 -2.5q3 1 7 5t7 4 q6 -7 25 -8t23 -9q18 3 36 -4t25 -20q-3 -8 -6 -11q-83 23 -117 21h-33q-6 3 -18.5 1.5t-20.5 0.5q-22 -4 -71.5 -11t-76.5 -11.5t-66 -13.5t-70 -19q-22 -3 -66.5 -15.5t-60.5 -15.5q-24 -12 -39 -12q-36 -11 -108.5 -31.5t-100.5 -28.5q-80 -19 -117 -30q-8 2 -20.5 -3 t-20.5 -2q-8 -8 -14 -8q-3 -10 -16.5 -45.5t-18.5 -58.5q-21 -99 10 -197q2 -4 8 -11.5t7 -14.5q14 -24 16 -29q2 -3 14 -13t15 -18q8 -7 26 -17t25 -16q2 -1 4.5 1t5.5 1q11 -6 60 -18q1 1 6 -4q12 3 43 0.5t41 3.5q27 -1 77.5 10t63.5 13q14 9 35 12q8 5 28 11t27 11 q15 1 41.5 13t40.5 14q48 27 84 35q1 1 2 4t2 4q8 0 8 -4q9 9 34 19t32 14v-6q3 6 16.5 12.5t16.5 9.5q6 3 6 -4q13 9 67 35q1 0 6 -2q16 14 49 27t44 20q2 -3 0.5 -5t-4 -3.5t-5.5 -3.5t-4 -5q-22 -6 -55 -23.5t-53 -23.5q-60 -33 -96 -43q-44 -24 -132.5 -60t-111.5 -46 q-12 2 -33 -12q-33 -6 -88 -27q-56 -8 -82 -14q-74 -3 -100 -2q-96 6 -154 72.5t-67 170.5q-3 96 41 211q-56 -6 -102.5 4.5t-55.5 46.5q-8 24 8 33q1 5 2.5 9t4 7.5t4 6t5 5.5t5 4.5t6.5 4.5t6 4q38 41 78 62q1 1 7.5 6t8.5 10q41 15 66 43q20 8 53 30.5t51 30.5q1 0 14 13 q9 0 21 8q3 5 21 21.5t20 33.5q2 3 14 15q36 64 78 106q9 25 31 37q18 33 63 82.5t60 70.5q3 0 6 3t6 2q9 14 8 20q2 1 5.5 5t8.5 3q33 36 95.5 98t82.5 82q15 6 37.5 29t40.5 29zM864 1272q-21 -25 -41 -37q-14 -18 -49 -49q-2 -4 -9 -11.5t-9 -11.5q-2 -2 -9.5 -7 t-11.5 -9.5t-2 -9.5q8 4 34.5 11.5t39.5 18t18 29.5q2 0 5 -1.5t4 1.5q39 60 79 109q0 4 -4 4q-38 -33 -45 -37zM307 666q-9 -10 -32 -23.5t-31 -19.5q-14 -4 -51 -29q-1 -1 -5.5 -2t-5.5 -2q-14 -9 -37.5 -29.5t-27.5 -23.5q-44 -38 -45 -39q-3 -4 -17 -25 q-6 -7 -3.5 -14.5t4 -11.5t8.5 -9t11.5 -7t13 -5.5t11.5 -5.5q60 -4 107 6q24 55 81.5 153t61.5 105q-4 -1 -18 -9.5t-25 -8.5zM756 1106zM756 1106zM750 1100zM1104 1079q2 1 3.5 -0.5t4.5 -1.5q0 -3 -4.5 -6t-5.5 -4q-4 1 -1 6t3 6zM1092 1069q0 -3 -3 -6l-4 -4q-6 2 -1 8 q3 3 8 2zM1075 1063q4 -1 0 -4q-2 -1 -2 -2q-1 1 2 6zM1061 1055q0 -4 -1 -5t-3 1l-2 -3q-2 -2 -6 -1q1 3 3 4.5t5 2.5t4 1zM1026 1040q0 -1 -1 -2q-2 -6 -7 -4q6 6 8 6zM995 1024q-4 -8 -10 -6q0 8 10 6zM979 1018q0 -6 -8 -6q6 6 8 6zM874 971q0 -8 -8 -8q3 5 8 8z M858 965q4 -1 3 -4q-1 -2 -1 -3q-6 0 -6 -2q-3 1 -2 2.5t3.5 3.5t2.5 3zM844 952l4 2q2 -2 -4 -4q-1 -1 -1.5 -0.5t1.5 2.5zM836 948zM811 938h2v-4h-4v4h2zM1161 219q3 -5 -3 -8.5t-15 -5.5q0 3 3 6t3 6q8 -2 12 2z" />
<glyph unicode="F" horiz-adv-x="1255" d="M1808 1217q-1 7 2.5 11.5t8.5 2.5q5 8 21.5 24t21.5 29q-3 10 0 16q-5 10 -21 19.5t-20 13.5q-92 10 -164 6q-44 -8 -101 -8q-14 -5 -30 -8t-37.5 -5.5t-32.5 -4.5q-69 -18 -98 -21l-12 -6q-172 -31 -342 -100q-18 -3 -55 -19t-60 -16q1 8 9.5 12t20.5 6.5t15 4.5 q19 10 54 22t48 18q27 4 54 21q15 1 35 9.5t36 8.5q10 7 38 12.5t36 12.5q10 -1 26.5 4t24.5 4q2 0 8 6q17 -2 49.5 10t53.5 11q4 1 8.5 4t5.5 4q32 4 86 13.5t97.5 14.5t86.5 5q157 10 193 -43q4 -18 0 -30t-18 -27t-15 -17h-10q-3 -2 -8.5 -11.5t-14.5 -8.5zM831 1133 q3 0 2.5 -3.5t-2.5 -3.5q-3 0 -1 4zM827 1126q-22 -22 -45 -22q-17 -12 -56.5 -27t-55.5 -28q-18 -3 -45.5 -19t-42.5 -20q-4 -4 -4 -9q-28 -5 -56 -26q-31 -11 -62 -28t-66 -39.5t-56 -33.5q-6 -5 -22.5 -16t-27.5 -20.5t-18 -20.5q-4 -7 -0.5 -19.5t2.5 -15.5 q-21 0 -16 41q36 45 78 60q92 64 223 125q7 3 10 10q28 10 95 42.5t104 41.5q3 2 10 6.5t11.5 7t11.5 4.5t14 2q3 8 14 4zM977 1098q4 -10 -9.5 -26t-13.5 -28q-2 -1 -5.5 -6t-6.5 -6q-20 -49 -135 -289q-17 -47 -57 -133t-56 -133q20 4 77.5 20.5t88.5 18.5q5 8 28.5 12 t29.5 11q23 1 65 7.5t45 6.5q6 -3 31.5 -1t27.5 -7q0 -7 -9.5 -7.5t-14.5 1.5q-58 -3 -117 -15t-148 -37.5t-112 -31.5q-7 -4 -13 -13.5t-13.5 -29.5t-8.5 -23q-32 -75 -80 -192q-11 -27 -31 -79t-26 -67q-1 -6 -13.5 -55t-17.5 -76q-2 -42 2.5 -67.5t24.5 -34.5 q4 -1 8.5 0.5t6.5 2t5 -2.5q0 -23 -22 -23q-8 1 -13.5 4t-10.5 10t-7 10.5t-6.5 15t-5.5 13.5q-5 31 4 111q11 45 24.5 88t33 94t30 78t37 89.5t33.5 78.5q1 3 10 12q1 7 3.5 14.5t6 15t4.5 11.5q-111 -26 -219 -71q-55 -16 -162 -58t-159 -57q-3 -2 -9 -4t-8 -4 q-5 -1 -39 -9.5t-53 -7.5q-2 2 -6 5t-6.5 6t-3.5 8q28 22 71 33q-1 -7 -11.5 -14t-12.5 -9q1 -4 6 -3.5t8 -0.5q83 29 113 35q8 5 19.5 9.5t29.5 9.5t24 7q1 1 6.5 4t8 4t8.5 2.5t8 -1.5q16 13 47 20q60 27 176.5 66.5t141.5 48.5q5 -1 13.5 1.5t12.5 0.5q9 8 19 29t16 28 q10 34 38 91t38 87q13 23 25.5 49.5t28 62.5t22.5 52q7 5 11.5 13t8.5 20.5t6 17.5q4 8 17 29t18 33q5 10 14.5 32.5t14.5 32.5q2 3 12 21.5t17 28t12 12.5q1 0 2 -1t2 -1zM25 256z" />
<glyph unicode="G" horiz-adv-x="1361" d="M1106 958q-2 12 12.5 35t16.5 35q31 50 41 100q60 142 12 215q-21 30 -88 41q-23 1 -49 -3.5t-54 -11.5t-41 -9l-18 -12q-57 -19 -100 -48q-15 -3 -35 -15.5t-31 -16.5q-13 -9 -43 -28t-51.5 -34t-38.5 -32q-38 -22 -96 -76q-6 -1 -15.5 -11t-15.5 -10q-20 -25 -90 -90 q-14 -17 -44 -47.5t-44 -46.5q0 -1 -3 -7t-3 -9q-27 -20 -64 -70t-51 -64q-11 -19 -32.5 -52.5t-38 -62.5t-29.5 -57q-49 -104 -45 -172q4 -31 32 -71q4 -2 19.5 -11.5t26.5 -13.5t24 -6q30 -1 60 3t50.5 9t50.5 17t42.5 18.5t44.5 23.5t41 21q31 17 90.5 54.5t89.5 54.5 q335 237 459 321q-103 -25 -299.5 -88t-300.5 -88q-7 0 -11 -8q-16 0 -48.5 -6.5t-47.5 -7.5q-64 -4 -90 20q4 14 22 19t43.5 5.5t32.5 2.5q3 -1 25 -5t31 -8q111 29 298.5 86.5t258.5 77.5h12q1 2 6.5 4t7.5 4q208 50 291 62q19 1 52.5 3.5t53.5 4t49 1t56 -4.5 q2 -3 10.5 -5.5t14 -5.5t2.5 -8q-1 -3 -4 -4.5t-6.5 -0.5t-7 2.5t-7 3.5t-4.5 2q-128 14 -338 -33q-13 -18 -144.5 -200t-193.5 -282q-41 -57 -109.5 -167.5t-95.5 -151.5q-10 -24 -35.5 -67.5t-35.5 -67.5q-74 -125 -117 -250q-1 -2 -4 -11.5t-4.5 -15t-4 -15t-3 -16.5 t-0.5 -15t2.5 -14t7.5 -11q12 2 41 16q20 17 39.5 36t41 42t34.5 38t37.5 44t33.5 39q5 5 14.5 17.5t14.5 17.5q2 1 11.5 15.5t21.5 14.5q2 -7 -6 -13.5t-9 -8.5t-10 -19t-18 -22q-11 -25 -37 -47q-29 -50 -82 -99q-25 -35 -90 -88l-14 -3.5t-14 -2.5t-15 2q-29 14 -31 45 q4 37 20 90q15 38 34 78.5t45 89.5t38 74q4 8 10 10q19 48 64 115q1 6 6 14.5t6 14.5q34 52 124 194.5t142 218.5q1 1 6.5 5.5t8.5 5.5q10 23 36 58t35 54q16 16 41.5 55t42.5 56q12 22 40 58.5t40 55.5q-23 -6 -54 -26.5t-40 -24.5q-81 -56 -86 -59q-121 -87 -172 -119 q-31 -26 -68.5 -52.5t-86 -59t-72.5 -48.5q-138 -88 -250 -139q-13 -3 -40 -11t-48.5 -12.5t-42.5 -5.5q-57 -3 -101 26t-59 77q-1 5 -1 12.5t-0.5 12t-2.5 8.5q12 104 41 139q3 21 20 49t21 43q68 104 124 176.5t122 132.5q1 5 7 12.5t7 10.5q15 8 36.5 34.5t37.5 34.5 q15 20 52 50t52 49q21 13 86.5 62t108.5 69q81 53 139 76q38 17 64 26t65 18.5t75 6.5t68 -19q36 -20 60 -73q0 -76 -13 -101q-1 -30 -17 -69t-19 -56q-5 -8 -15 -30.5t-18 -32.5q-3 -5 -8 -16.5t-8.5 -18t-9.5 -14t-13 -11.5zM389 651q-2 -1 -4.5 -2t-6 -1h-6.5t-6 -0.5 t-5.5 -0.5t-3.5 -1t-1 -3q5 2 26 0.5t28 3.5q-3 1 -10.5 2t-10.5 2zM412 647z" />
<glyph unicode="H" horiz-adv-x="1462" d="M1710 1634q2 -9 -2 -28l-18 -33t-19.5 -35.5t-18.5 -32t-22 -32.5q-5 -13 -13 -26t-18.5 -29t-15.5 -25q-17 -25 -47 -77.5t-47 -78.5q-5 -8 -13.5 -24t-17 -29t-18.5 -23q-8 -22 -28.5 -57.5t-27.5 -52.5q-3 1 -5 -2t-5 -2q-19 -52 -39 -74q-6 -25 -22 -45 q-25 -56 -75.5 -159.5t-72.5 -152.5q30 -1 98.5 4.5t108.5 2.5q14 5 39 4.5t39 1.5q5 1 7 -2q1 -2 3 -2q31 7 49 0q-2 -7 0 -11q-24 -2 -153 -10t-197 -14q-6 -1 -10.5 -11t-7.5 -12q-4 -9 -28.5 -67t-39.5 -86q0 -2 -1.5 -6t-0.5 -7q-2 -2 -5 -8t-5 -8q-13 -39 -54.5 -142 t-58.5 -165q-6 -6 -10.5 -26t-11.5 -27q-10 -38 -37.5 -135t-40.5 -150q-1 -4 -5.5 -33t-5.5 -36t-4.5 -33t-4.5 -37l-3 -33t-2 -36t1 -31.5t3 -32.5q5 1 10 10t11 10q6 -12 -10 -49q-11 -4 -25 6q-13 76 2 211q27 168 62 252q33 139 77 235q-1 5 0.5 11.5t1.5 9.5 q2 6 10.5 26.5t10.5 34.5q13 25 37 91t43 96q20 69 49 108q2 26 22 62q-37 -1 -79 -5.5t-70 -9.5t-74.5 -13.5t-68.5 -12.5q-24 -30 -72 -100t-76 -103q-3 -20 -22 -35q-41 -66 -93 -131q-10 -11 -29 -40t-38 -46.5t-45 -24.5q-7 1 -23 17q0 17 1 34t4.5 35.5t6 30.5t9.5 33 t10 29t12 32.5t11 30.5q4 13 11 38t11 38q11 17 12 20q25 62 31 74q-45 -7 -121 -31.5t-104 -31.5q-23 -10 -79.5 -29.5t-82.5 -32.5q-34 -7 -91 -29.5t-85 -29.5q-11 -5 -46 -18.5t-50.5 -19.5t-46.5 -17t-52.5 -16t-50 -10.5t-55.5 -6.5q-18 5 -55 10q-2 3 -2 15t-1 16 q14 0 25 -11q17 -5 35.5 -5.5t30 1.5t34.5 6.5t33 6.5q23 10 49 19t57.5 19t51.5 17q25 10 31 10q8 3 22.5 10t27 11.5t25.5 7.5q13 7 40 16t42 19q21 3 60 18.5t61 18.5q53 25 90 28q5 5 14 9t21 7.5t18 6.5q11 0 32.5 8.5t33.5 7.5q18 9 54 18t46 13q10 15 27.5 57 t32.5 60q4 20 20.5 50t20.5 44q-1 3 2.5 4.5t3.5 3.5q17 41 56.5 114t55.5 109q2 2 7 6.5t8 5.5q1 18 14.5 40t16.5 30q2 2 10 6q0 4 2 10t2 11q7 11 64 103t94 134q4 1 13 4t15 2q2 -1 5 -5t5 -5q-1 -29 -16 -69.5t-18 -57.5q-9 -18 -21.5 -60.5t-21.5 -60.5q-3 17 7 49.5 t11 45.5q3 3 6.5 14.5t7.5 15.5q2 19 14.5 52t14.5 55q-16 -3 -31 -22t-20 -23q-27 -41 -56 -89t-65 -110.5t-53 -91.5q-2 -16 -19 -37q-23 -49 -90.5 -181t-99.5 -208q12 2 55.5 14t69.5 13q17 6 36 11t46.5 10t36.5 7q12 20 48 71t52 81q1 1 4 2t4 2q25 45 82 121.5 t80 115.5q6 2 12.5 12.5t12.5 12.5q3 8 12 20.5t12 20.5q6 3 11 7.5t11.5 15.5t6.5 12q2 2 10 2q15 30 50 74t42 55q2 0 3 -2t3 -2q2 17 18.5 35t20.5 30q2 1 5.5 -0.5t4.5 -1.5q3 16 20.5 35.5t22.5 30.5q7 4 18.5 20.5t22.5 20.5q12 22 43 55.5t43 52.5q3 0 7.5 4t5.5 5 q7 17 31 39.5t32 37.5q1 0 4.5 2.5t8.5 1.5q8 13 20.5 27t19.5 20.5t26.5 23.5t23.5 20q5 1 8 -1t5.5 -5.5t4.5 -4.5zM1343 1241q-40 -51 -51 -59v-8q-4 -1 -7.5 -6.5t-6.5 -6.5q-5 -13 -20.5 -30.5t-20.5 -28.5q-14 -12 -36.5 -44t-37.5 -44q-5 -16 -11 -17h-3 q-13 -24 -43.5 -64.5t-42.5 -62.5q-12 -11 -31 -40t-33 -42q-18 -36 -32 -45q-17 -40 -39 -59q-6 -13 -58 -88q0 -1 -1.5 -4t-0.5 -6q-1 -1 -4.5 -3.5t-5.5 -5t-2 -6.5q123 18 174 29q54 3 115 14q1 3 10.5 28.5t18.5 33.5q0 7 6 17t6 18q7 8 16.5 28.5t16.5 28.5 q12 34 42.5 91.5t41.5 84.5q6 6 14 25t16 24q2 8 7.5 20t7.5 17q2 1 5 2t5 2q0 10 8 23t8 22q13 15 32.5 51.5t33.5 51.5q19 52 51 84q11 38 37 67q0 3 6 15q19 26 54.5 90.5t58.5 93.5q0 3 1.5 7.5t0.5 8.5q12 12 34 62q-38 -26 -95 -88t-72 -76q-31 -40 -91 -109t-82 -96z M584 483q-50 -100 -123 -319q1 -10 -5 -40t1 -38h14q9 9 23 12q10 16 39 48t40 53q3 1 6.5 5t6.5 5q0 8 2 10h6q12 25 44.5 67t45.5 66q0 3 2 1.5t4 -1.5q0 8 2 10q9 5 19 23t18 23q1 6 10 14t9 18q6 2 12 14.5t12 14.5q6 15 22 34.5t21 28.5q0 5 -4 5q-143 -33 -227 -54z M965 1036zM956 1026v-12q-3 0 -1.5 5t1.5 7z" />
<glyph unicode="I" horiz-adv-x="849" d="M1300 1167q-8 0 -18 25q-9 13 -27 22t-44 17.5t-40 15.5q-3 0 -4 -3.5t-4 -2.5q-40 7 -80 10t-90 1t-74.5 -3.5t-87.5 -8t-75 -7.5q-13 -2 -69 -11.5t-73.5 -13t-64 -12t-70.5 -14t-61.5 -14.5t-68 -18t-60.5 -20q144 -41 168 -180q13 -32 18.5 -69.5t5 -73t-1.5 -78.5 q-4 -5 -5 -13t-0.5 -19t-0.5 -17q12 5 21 31q0 3 2.5 5t3.5 3q20 45 63.5 120t59.5 107q-10 -10 -27.5 -41t-32.5 -41q-3 5 2 11.5t4 13.5q9 13 31.5 46t39 55.5t34.5 41.5q1 6 7 15.5t7 15.5q9 9 25 39t28 41q6 -12 -2 -30.5t-8 -22.5q-36 -56 -98.5 -168.5t-93.5 -161.5 q-46 -94 -93 -172q1 -6 -2 -14.5t-2 -14.5q-5 -7 -7.5 -28.5t-8.5 -28.5q-1 -19 -12.5 -48t-14.5 -46q-1 -1 -4 -7.5t-8 -7.5q1 -1 2 -3q3 -3 2 -7t-4 -14t-5 -16t-6 -13.5t-9 -11.5q-3 -27 -19 -71t-20 -62q-9 -17 -26 -66t-30 -72q0 -11 -8 -23.5t-8 -25.5q29 7 99.5 32 t111.5 34q2 2 8.5 4t9.5 4q23 2 74 18q20 3 57 11.5t67 13.5t58 4q41 14 78 -2q-2 -8 -17 -9t-18 -3q-36 -2 -74 -6.5t-67 -9.5t-70.5 -15t-64 -15.5t-68.5 -20t-62 -20t-67.5 -23t-64.5 -21.5q-10 -15 -35 -71t-49 -77q-2 1 -9.5 -1.5t-9.5 1.5q-6 5 -10 12.5t-5.5 14 t-1 18t1.5 18t3.5 20t3.5 18.5q-33 -10 -166 -61t-211 -64q-26 0 -57 22q-4 9 -5 18.5t0.5 16.5t6.5 16t8.5 13.5t11 14t9.5 11.5q-1 -7 -7.5 -21t-11 -24.5t-2.5 -23t13 -21.5q4 -2 19 -3t19 -3q72 21 99 25q13 8 48 20.5t48 20.5q6 0 12 -3q30 21 66 27q34 23 76 29 q3 4 28 14q14 48 19 55q0 5 2 12t2 11q6 14 30.5 72t35.5 83t31.5 67.5t39.5 74.5q0 1 1.5 4t0.5 8q14 24 55 104t68 119q4 11 12.5 30.5t14.5 37t10 35.5q8 81 10 112q-4 6 0 27q-2 3 -2.5 16t-3.5 17q1 16 -0.5 31t-6 34t-6.5 28t-9.5 32.5t-8.5 27.5q-19 36 -47 64 q-40 40 -129 63q-69 -18 -250 -78t-291 -81q-47 4 -56 17q-4 5 -5 11q44 31 154 64q0 -3 -2 -6t-1 -6q-13 -3 -41 -16t-45 -15q-3 -3 -16 -9t-16 -12q23 -8 71.5 3t59.5 12q12 0 22 10q67 17 183 55t172 53q-1 2 -9.5 1t-9.5 4q-3 0 -9.5 -2t-11.5 -2t-7 4q-24 -8 -46 -5 q-4 0 -11.5 -3t-11 -3.5t-7.5 4.5q-28 -19 -72 -14q2 7 13 8t14 4q2 0 4.5 -1t3.5 -1q30 13 137 19q50 -3 88 6q3 1 9.5 5t9.5 5q5 -3 20 0q2 0 2.5 3.5t1.5 4.5q39 3 88 21q7 -2 16.5 1.5t16.5 2.5q2 2 9 3.5t9 4.5q79 13 131 25q4 -1 27.5 4t32.5 2q51 15 67 12 q19 6 55.5 10.5t43.5 5.5q5 0 11 -1t11 -1q64 15 240 15q4 -6 23 -3t26 1q52 -3 125 -25q65 -28 63 -76zM475 729zM164 -25q7 1 69 23q24 51 64.5 154t54.5 137q9 33 40.5 124.5t39.5 145.5q-22 -43 -70 -135.5t-75.5 -147.5t-63 -139.5t-59.5 -161.5zM158 -55 q-1 -5 -6 -27.5t-5 -29.5t3 -25q14 1 24.5 19.5t15.5 21.5q3 13 15 32t14 33q-7 -3 -20 -7t-23.5 -8t-17.5 -9zM-14 1112q1 1 2.5 1t1.5 1q4 -1 3 -4.5t-3 -5.5q-1 0 -1 1.5t-0.5 3.5t-2.5 3zM-14 1112l-4 -8q-5 -2 -20 -5.5t-21 -8.5l-4 8q-10 -10 -13 -11v3 q-29 -14 -41 -11q-4 0 -12 -8q-7 2 -15.5 -1.5t-12 -5.5t-7.5 5h6q11 9 42 18t40 13q6 0 12 1.5t11.5 3.5t7.5 3q4 -4 15.5 0t15.5 4zM-174 1065q0 -8 -8 -8q-1 3 0.5 5.5t4 3t3.5 -0.5z" />
<glyph unicode="J" horiz-adv-x="983" d="M1630 1163q-5 6 -11 23t-11 22q-16 3 -23 17q-41 13 -85 19.5t-103.5 4t-87.5 -4t-104 -11t-85 -10.5q-6 -3 -20.5 -6.5t-20.5 -6.5q-8 3 -22.5 -1.5t-22.5 -2.5q-17 -8 -54 -15.5t-52 -12.5q-55 -214 -142 -408.5t-213 -419.5q-5 -9 -27 -39.5t-30 -50.5 q-138 -186 -147 -197q-1 -1 -5 -2t-6 -2q-53 -68 -86 -92q-1 -5 -5.5 -11t-4.5 -11q-6 -3 -60 -46t-93 -51q-5 0 -11.5 1.5t-13.5 0.5q-4 3 -12.5 9.5t-12.5 9.5q-26 48 11 131q20 50 24 57q2 2 5.5 5t4.5 4q4 5 8 16t5 12q1 2 4 6t5.5 7.5t4.5 7.5q16 23 37.5 50t37.5 45 t43 47.5t38 41.5q4 -1 5.5 3t4.5 3q4 6 13.5 16.5t13.5 16.5q2 2 5.5 1t4.5 1q8 24 26 27q-2 -15 -20.5 -30.5t-22.5 -25.5q-2 -1 -5.5 -4.5t-8.5 -3.5q0 -4 -5 -9t-5 -9q-21 -16 -52 -55t-48 -54q-7 -19 -29 -47t-29 -45q-4 -2 -10 -8q-8 -16 -17 -35.5t-19.5 -43 t-16.5 -36.5q-9 -56 6 -80q4 -5 21 -4.5t20 0.5q28 13 52 28.5t51.5 40t40 36.5t46 47t39.5 41q13 27 51 61q6 17 26.5 41.5t27.5 40.5q13 7 27 33.5t26 34.5q7 13 25.5 42.5t25.5 47.5l8 4q29 59 53 92q0 6 5 15t6 14q3 2 7 8.5t7 9.5q28 63 45 86q21 55 37 76 q53 132 74 170q12 36 37.5 101t44 120t30.5 109q-13 0 -37 -7t-32 -8q-19 -8 -97 -24q-15 -8 -42 -16t-39 -13q-62 -11 -91 -29q-9 3 -26 -8q-24 0 -45 -14q-4 1 -8.5 0t-7.5 -2.5t-7.5 -4t-7.5 -3.5h-12q-12 -4 -74 -27.5t-94 -32.5q-2 0 -8 -6q-51 -15 -133.5 -47.5 t-112.5 -42.5q-3 -5 -8 -8q-49 -18 -138 -56t-133 -55q-4 -4 -11 -7.5l-9 -4.5q-35 -11 -90 -35q-17 -3 -72 -29q4 -9 17 -24t16 -27q-20 14 -28.5 20t-20 20.5t-13.5 29.5q7 7 13 0q32 14 144.5 58.5t172.5 74.5q61 19 109 45q2 -1 5.5 0.5t5 2.5t3.5 -1q13 12 46 22t46 21 q14 0 30 8.5t30 9.5q20 11 60 26.5t56 23.5q6 0 8 -2q5 5 20 9.5t19 8.5q3 0 7 0.5t6 1t4.5 1.5t4.5 2.5t3 4.5q25 4 68.5 21.5t70.5 21.5q31 14 91.5 32.5t91.5 31.5q1 0 3 -1t3 -1q20 7 70.5 19.5t80.5 25.5q46 0 78 16q3 -2 8 -1t8 -1q6 7 6.5 25t2.5 24q7 -1 9 -8t2 -18 t1 -15q8 1 36 9t44 8q28 14 51 8q79 22 141 22q67 16 123 13q41 7 66 2q10 2 31.5 1.5t35.5 0.5q9 -2 38 -5t48 -9t33 -19q1 0 21 -4l6 -6q5 -6 6 -7.5t5.5 -7t6 -8.5t4 -8.5t2.5 -10v-10t-2 -10.5z" />
<glyph unicode="K" horiz-adv-x="1075" d="M901 1374q12 -11 9 -29.5t-9.5 -32t-15.5 -24.5q-4 -19 -21 -49t-22 -43q-57 -99 -119.5 -203.5t-149 -246t-122.5 -201.5q-9 -25 -33.5 -65.5t-32.5 -57.5q28 9 73 35t66 35q107 67 152 94q12 11 39 28.5t41 30.5q8 0 12 4q6 9 23 20t22 17q6 0 12 4.5t9 5.5q6 6 4 11 q28 17 72 53t57 45q6 3 6 10q15 7 39 32.5t43 31.5q1 4 4.5 8.5t3.5 7.5q105 94 158 166q6 4 10.5 9t7.5 9.5t7.5 12.5t6.5 12q12 6 13 6q0 9 7.5 19t8.5 16q2 0 4 4t8 2q1 18 15.5 42t15.5 26q-3 21 8 28q3 -1 5 -4t2 -6.5t-0.5 -9t-0.5 -6.5q-6 -23 -17 -43.5t-27.5 -46.5 t-22.5 -37q-1 -1 -3 -4t-4 -4.5t-5 -2.5q-48 -78 -121 -141q-25 -31 -81 -79t-75 -68q-3 1 -6 -0.5t-6 -1.5q0 -1 -2 -4t-2 -7q-18 -13 -106.5 -80t-141.5 -98q-19 -15 -41 -30.5t-39.5 -27t-45 -28t-41 -24.5t-46 -26t-43 -23.5t-48 -25.5t-44.5 -24q-63 -105 -78 -137 q13 -10 45.5 -22.5t44.5 -20.5q8 4 12 -2q6 0 6 -12q2 -1 7.5 2t7.5 2q12 -5 34.5 -13t37 -13t33 -14t32.5 -18h12q2 0 4 -4l2 -4q17 -2 36 -8.5t42 -16.5t33 -14q2 2 8 2q3 -1 7 -4t5 -4q54 -13 146 -47q16 0 20 -8q8 6 23 -4q69 -13 86 -25q5 5 21.5 0.5t25.5 -2.5 q10 -6 24 -8t31.5 -2.5t26.5 -1.5q18 -5 36 -6t44 -1t39 -1q1 -7 -5 -9t-12 1q-52 -10 -102 2q-4 -2 -21 -2q-142 16 -266 57q-11 3 -50 16t-60 19q-37 13 -108 40t-101 38q-6 2 -26.5 9t-31.5 11q-158 62 -161 63q-23 -33 -56.5 -100t-48.5 -92q-5 -18 -25.5 -64t-25.5 -77 q-2 -1 -4 -5.5t-4 -5.5q-6 -35 -15 -71q0 -22 2 -25q6 -1 12.5 3.5t10.5 2.5q5 -12 -5 -23t-28 -7q-18 25 -12 59q2 9 7 30.5t8 33t8.5 27.5t11.5 28q6 26 26.5 68t26.5 63q4 7 12 20.5t13.5 25t9.5 23.5q42 72 51 95q-46 17 -119 39q-16 -3 -50.5 -16t-53.5 -15 q-17 -11 -58 -23t-55 -18q-3 -1 -4.5 0.5t-3.5 1.5q-97 -33 -164 -33q-3 0 -6 -3t-6 -3t-22.5 0.5t-24 1t-21.5 1.5t-23 3t-19.5 5t-20 7.5t-15.5 11t-14.5 15t-9.5 19.5q-2 23 14 43q46 37 103.5 52.5t144.5 24.5q9 -2 37 -2.5t41 -7.5q6 6 21 2.5t18 -0.5q2 -2 2 -8 q49 3 84 -16q26 0 80 -15q5 -1 11 -3t10 -3t7 0q19 5 57.5 24t57.5 25q13 5 35 18.5t28 16.5q3 2 12.5 5t12.5 5q5 6 15 26t18 28q2 1 2 5.5t2 4.5q3 3 11 17.5t16 19.5q7 20 27.5 54.5t27.5 55.5q35 48 98 164q25 36 74 117t76 119q24 51 86 145q25 60 45 80 q8 26 29.5 71.5t29.5 69.5h2zM322 367l-18 -9t-25 -6q-15 -15 -52.5 -30t-50.5 -25q4 -6 27 -13t30 -14q1 3 5 0t6 0q3 -5 11.5 -6t10.5 -2q44 73 58 103q0 2 -2 2zM39 309q-54 9 -70 15q-3 1 -6 -0.5t-6 -1.5l-3 3q-4 3 -9 3q-11 0 -68.5 4.5t-83.5 3.5q-15 -3 -46.5 -8.5 t-47.5 -8.5q-4 -5 -33 -10q-6 -5 -33 -19t-37.5 -29t-3.5 -38q1 -1 7.5 -5t7.5 -7q20 -8 28 -12q9 -1 29.5 -4.5t32.5 -4.5q48 -2 139 19q94 21 115 29q28 10 77.5 25t73.5 24q-11 9 -63 22zM1264 -20q-22 -5 -29 4q2 4 9.5 6t14 -0.5t5.5 -9.5z" />
<glyph unicode="L" horiz-adv-x="1320" d="M406 145q12 -5 40.5 -9t42.5 -13q27 2 80 -12.5t74 -16.5q33 -12 64 -14q2 -2 10 -6q45 -5 92 -23h14q3 1 6.5 -1.5t4.5 -2.5q35 0 57 -14q2 0 6 1t6 1q22 -7 71 -16t73 -19q41 0 69 -14q101 -12 144 -27q58 -2 131 -18q4 2 18 2l18 -6q23 1 47.5 -1.5t53 -6.5t43.5 -5 q35 2 102 -6q38 6 62 -2q21 5 26 0q32 8 56 -4q13 6 38 6t35 2q13 -2 45.5 1t51.5 1q21 4 60 7.5t58 9.5q1 -2 6.5 -2.5t6.5 -2.5q7 6 26.5 6.5t26.5 6.5q42 0 61 8q47 3 72 14q11 -3 36.5 3.5t33.5 4.5q-2 -6 -17 -8t-16 -8q-3 2 -10.5 0.5t-10.5 -0.5q-44 -14 -122 -25 t-107 -18q-11 2 -31 -0.5t-26 0.5q-8 -3 -19.5 -5.5t-20.5 -3t-24 -0.5t-22 -1q-60 -4 -86 -8q-1 1 -5.5 2t-5.5 2q-141 -10 -489 24q-28 5 -93.5 15.5t-112.5 19.5t-87 21q-102 15 -329.5 69t-356.5 70q-18 -14 -70.5 -55t-76 -58.5t-71.5 -50t-82.5 -49.5t-83.5 -35.5 t-97 -28.5q-9 2 -19.5 0.5t-21.5 -0.5t-15 7q-1 0 -1.5 -3.5t-2.5 -3.5q-100 14 -123 95q0 39 37 86q21 24 82 55q45 27 70 35q1 0 11 2t15 4q2 1 26 7.5t36 8.5q3 1 4 0.5t3 -2t3 -2.5q7 7 25 9.5t24 5.5q14 -1 46.5 3t41.5 -1q11 4 35.5 4.5t34.5 -2.5q6 3 17.5 2.5 t15.5 -6.5q12 4 57 4l16 -4q8 0 25.5 -4t30.5 -1q4 1 7 3.5t6.5 7.5t6.5 8q3 2 8.5 3.5t6.5 2.5q2 2 4.5 5t5 5.5t6.5 5.5q8 5 27 26.5t34 29.5q50 53 103 100q1 3 5 8t5 8q22 14 55 52.5t52 52.5q10 12 104.5 124t138.5 177q-11 -6 -51 -29t-69 -36.5t-60 -22.5 q6 -8 26.5 -11.5t28.5 -7.5q-19 -5 -28.5 -4.5t-28 4.5t-25.5 5q-3 0 -67 -5q-1 4 -4.5 9t-3.5 6q14 1 29 3.5l27 4.5t27.5 7.5t25 8.5t26.5 10.5t24.5 10.5t25.5 12t23 12t24.5 13t23.5 12q6 3 24 15.5t29 17.5q12 7 28 28t25 27q35 56 60 76q5 18 28 33q1 9 7.5 18 t16.5 19t13 14q1 2 2 5t2 4.5t3.5 3t6.5 1.5q16 36 52 64q3 4 11 16.5t12.5 18.5t12 15t15 15.5t16.5 11.5q-2 5 2 13q3 2 9.5 5.5t10 6t7 7.5t4.5 11q15 9 37 36t39 36q26 35 86 68q6 2 10.5 2t8 -1t6 -3t4.5 -5t3.5 -5.5t3.5 -6.5l3 -6q1 -8 -1 -17.5t-1 -15.5 q-38 -83 -74 -110q-6 -24 -37 -43q-1 -2 -2 -6.5t-2 -6.5q-13 -11 -57 -51.5t-70 -60.5q-11 -11 -16 -21q-6 0 -12 -5.5t-9 -6.5q-88 -80 -231 -180q-6 -7 -20.5 -22.5t-22 -24.5t-18 -23.5t-17.5 -27.5q-9 -5 -20.5 -21.5t-20.5 -21.5v-9q-67 -74 -117 -137 q-6 -3 -15 -14.5t-16 -14.5q-9 -16 -34 -41.5t-33 -42.5l-5 -1q-5 0 -7 1q0 -4 -4 -9t-5 -9q-206 -201 -249 -240zM1395 1260q-4 1 -7 -3t-6 -4q-58 -59 -124.5 -137.5t-103.5 -125t-114 -146.5q50 31 131 96q5 6 9 2q0 3 1.5 5t3 2.5t4 1.5t3.5 1q27 33 88 76q4 4 8 12 q5 2 15 11.5t18 11.5q17 22 63 68.5t66 76.5q1 0 3 3.5t7 2.5q1 3 19.5 37.5t23.5 55.5q0 22 -2 24q-15 -2 -27 -6.5t-25 -14.5t-17.5 -13.5t-20.5 -20.5zM88 137q-1 -1 -4.5 -2t-5.5 -2q-191 -9 -311 -117q-2 -5 -16 -27t-15 -38q1 -8 5 -20t5 -19q3 -3 8 -7.5t9 -9t8 -8.5 q53 -26 110 -22q42 0 94 18q15 5 46 20t40 19q8 4 20.5 10t18.5 9q49 29 74 49q4 -1 8 1.5t6 2.5q2 1 5 5t4 5q57 39 163 125q-129 14 -272 8z" />
<glyph unicode="M" horiz-adv-x="1402" d="M575 1485q3 -22 -11.5 -60t-16.5 -51q-2 -1 -5.5 -6t-4.5 -6q-9 -41 -19 -55q0 -15 -9.5 -36.5t-10.5 -35.5q-5 -2 -7 -9t-6 -7q8 43 34.5 118.5t33.5 102.5q-7 -6 -12 -16.5t-10.5 -26.5t-8.5 -23q-24 -45 -63.5 -135t-55.5 -123q-12 -36 -42.5 -103t-43.5 -106 q-3 -3 -8 -16.5t-12 -18.5q-2 -21 -15 -47.5t-16 -42.5q-9 -9 -18 -36t-17 -35q-6 -23 -20.5 -59.5t-17.5 -45.5q-8 -17 -24.5 -64.5t-29.5 -68.5q0 -2 -1 -6t-1 -6q-17 -38 -46.5 -120t-47.5 -120q-16 -54 -43 -117q-12 -38 -43 -120.5t-45 -130.5q-1 -1 -6 -11 q-46 -136 -51 -155q11 11 22 43t19 43q44 138 67 182q4 34 17 47q-3 9 0 18q13 17 24 60q12 16 25 60t26 59v10q11 8 11 27q7 5 12.5 20.5t11.5 19.5q-3 20 14 37q8 30 29 62q1 11 5 22t7 16t10.5 17t8.5 14t4 6.5t4 6.5q4 6 6.5 14t4.5 16.5t3 12.5q12 17 27 43 q23 45 23 47q3 -1 4 1t1 4.5t2 4.5t5 2q6 32 31 51q24 67 67 119q8 26 31 49q7 16 35 58q50 72 92 139q2 1 6.5 2t7.5 2q3 9 8.5 18.5t9.5 14.5t12.5 14.5t10.5 11.5q10 25 38.5 59t37.5 52q6 2 14 10q9 17 34 41t32 33q6 6 10 4q1 6 5 11t5 7q10 5 25.5 20.5t33 25 t40.5 6.5q9 -9 14 -9q1 -2 10 -16q0 -22 -3.5 -46t-6.5 -40.5t-11 -44.5t-11 -37.5t-13.5 -40.5t-11.5 -35q-12 -43 -27 -100q-63 -178 -96 -303q-11 -18 -24 -60.5t-21 -58.5q-16 -69 -47 -158q-5 -17 -21.5 -86t-29.5 -104q-2 -20 -9.5 -57.5t-11.5 -63t-2 -58.5t14 -57 q2 -3 31 -22l3 1q3 1 5.5 1t3.5 -2q12 6 25 6q13 6 29.5 19.5t23.5 17.5q73 81 103 139q18 18 47 70q29 38 47 74q3 1 6.5 5t5.5 5l5.5 11t4.5 11q34 49 41 66q30 39 79.5 118t68.5 107q7 15 25.5 43t25.5 45q37 61 41 66q3 2 5.5 11.5t10.5 10.5q-1 4 0.5 10t1.5 9 q27 40 90 164q4 6 15 10q5 24 26 67.5t25 53.5q34 82 47 108q5 20 10.5 38.5t14.5 40t14 32.5t17.5 36.5t15.5 32.5q25 35 35 39q2 0 10 -8q-17 -56 -41 -92q-14 -33 -30.5 -68.5t-36.5 -77.5t-31 -67q-14 -50 -47 -139.5t-46 -132.5q-35 -86 -51 -164q-52 -165 -98 -369 q-4 -15 -8 -49q-13 -53 -25 -139q-1 -16 -8.5 -86.5t-5.5 -116t18 -80.5q7 -1 15 7t10 7q6 -7 4.5 -16.5t-13 -16t-24.5 -1.5q-5 3 -9 8t-7.5 12.5t-5 12t-5 16t-4.5 14.5q-3 22 2 107q1 6 0 14t-0.5 14.5t4.5 11.5q-7 58 13 103q-1 45 19 126.5t22 112.5q15 52 45.5 168 t57 203t56.5 162q0 10 5 22t6 19q-23 -40 -72 -128t-87.5 -153.5t-76.5 -122.5q-1 -5 -5.5 -11.5t-6.5 -10.5q-3 -2 -7 -9t-7 -9q-30 -49 -95 -148.5t-94 -148.5q-5 -8 -40 -64.5t-56 -83.5q-3 -3 -13 -16t-13.5 -17t-13.5 -15.5t-15.5 -16.5t-15 -13.5t-17 -13t-17.5 -10 t-20 -8.5q-19 -6 -49 -3q-4 1 -8 3.5t-7 4t-6.5 5l-5.5 5.5t-5 6.5l-4 6t-4 7.5l-3.5 7t-4 7.5t-3.5 7.5q-3 11 -7 67q2 24 12.5 71t12.5 71q65 236 98 334v14q2 5 13 16q2 26 16.5 66.5t17.5 62.5q0 1 1.5 1.5l3 1t2.5 1.5q7 36 27.5 97t27.5 92q0 3 3.5 7t4.5 5 q16 60 31 90q1 13 6.5 31t5.5 27q9 16 19 51t16 49q2 10 10.5 41t9.5 51q0 2 4 19.5t5 26.5t0 22t-7 20q-11 1 -24 -5.5t-21 -8.5q-138 -120 -297 -357q-4 -1 -8 -6.5t-8 -5.5q-56 -96 -98 -147q-5 -23 -27 -41q-6 -21 -26 -52.5t-25 -41.5q-38 -77 -60 -105 q-19 -55 -71 -141q-28 -71 -47 -103q-2 -14 -14 -36.5t-13 -38.5q-15 -19 -31.5 -66t-29.5 -65q-10 -36 -39 -113t-39 -123q-2 -2 -6 -7t-6 -7q-15 -73 -37 -111q-5 -31 -25.5 -77.5t-24.5 -57.5q-3 -1 -11 -6.5t-15 -3.5q-1 1 -4 1t-4.5 0.5t-1.5 2.5q-5 13 3 40t9 34 q9 20 26.5 74.5t32.5 78.5v16q2 3 4.5 9t4.5 8q17 51 52.5 142.5t49.5 131.5q19 49 52 140.5t62 165t58 137.5q8 29 30 82.5t29 78.5q14 22 23 58q13 22 32 74t35 75q-1 10 7.5 26.5t9.5 27.5l12 18q2 9 10 23.5t9 25.5q12 19 16 37q43 96 106 250q2 2 6.5 6t6.5 6 q15 54 55 115q0 4 4 4t9 -3.5t7 -2.5z" />
<glyph unicode="N" horiz-adv-x="1310" d="M799 162q2 10 -2 22q15 27 29.5 59t32 75t26.5 63q1 5 6 8.5t6 5.5v13q3 4 8 14t8 14q6 22 24 62.5t24 64.5q2 1 4.5 5t5.5 5v15q2 3 9 14t9.5 15.5t5.5 14t4 19.5q61 132 131 322q3 1 6.5 6t6.5 6q-1 9 5.5 19.5t6.5 19.5q16 32 41 94.5t33 79.5q1 3 5 1.5t5 -1.5 q2 8 2 25q22 44 27 65q11 19 31 65.5t34 67.5q12 39 49 107q15 44 39 78q14 41 51 104t48 86q16 16 22 41q5 3 14 15t17 14q27 -5 23.5 -41t-21.5 -47q0 43 4 59q-5 1 -9.5 -2.5t-7 -7t-6 -10.5l-4.5 -9q-4 -6 -14.5 -22t-15.5 -24t-12 -21.5t-11 -26.5q-3 -1 -6.5 -5 t-5.5 -5q-2 -12 -12.5 -28t-12.5 -25q-26 -41 -68 -130.5t-67 -129.5v-13q-9 -11 -21 -42.5t-22 -43.5q-5 -23 -23 -61t-22 -62q-17 -25 -40.5 -84.5t-39.5 -85.5q-15 -44 -47.5 -123t-46.5 -118q-3 -5 -8 -8q-19 -68 -47 -117q-2 -3 -1 -7.5t-1 -7.5q-96 -213 -144 -329 q0 -2 -8 -6q-33 -88 -57 -121zM799 162q0 -12 -8 -29.5t-9 -28.5q-10 -20 -42.5 -79.5t-47.5 -94.5q-25 -36 -33 -63q-12 -17 -36.5 -52t-36.5 -53q-55 -51 -86 -67q-25 -8 -72 4q-63 37 -92 160q-18 120 2 344q8 112 20 180q0 2 -1.5 6.5t-0.5 9.5q1 7 3.5 19t3 18t-0.5 19 q32 276 74 463q0 18 10.5 50.5t8.5 57.5q25 81 16 148q-13 -7 -25.5 -30.5t-19.5 -29.5q-15 -41 -43 -92q-1 -8 -16 -43q-3 -6 -7 -16.5t-6.5 -16.5t-6.5 -12t-9 -10q0 -18 -13 -47.5t-14 -47.5q31 60 45 97q16 22 64 116q4 2 10.5 11.5t10.5 13.5t14 0q-2 -12 -19 -25 q-6 -11 -18 -34.5t-19 -37t-18.5 -32.5t-22.5 -33q-4 -27 -14 -37q-18 -40 -27 -49q0 -19 -12 -31q-5 -18 -21.5 -53t-19.5 -53l-12 -18q-5 -26 -27.5 -79t-27.5 -87q-3 -4 -7.5 -14t-7.5 -13q-22 -102 -43 -156q-3 -39 -22 -73v-15q-8 -21 -26.5 -84.5t-31.5 -93.5 q0 -20 -10.5 -49t-11.5 -43q-8 -14 -21.5 -62.5t-33.5 -64.5q-12 4 -21 10q1 25 4.5 46.5t9.5 45t9 39.5q2 1 4 4.5t4 4.5q0 25 12 49v10q7 14 18 55t25 60q-2 2 -2 3.5t1 4.5t1 6q16 27 10 39q27 46 35 94q10 12 19.5 45t19.5 45q6 26 26.5 73t26.5 75q20 39 49.5 127.5 t47.5 124.5q2 22 15.5 54t16.5 50q15 33 88 203q7 9 27.5 48.5t40.5 51.5q8 -8 16 -10q-1 -2 0 -4t2 -3l2.5 -2.5l2.5 -2.5q2 -88 -35 -236q-6 -42 -23 -140.5t-27.5 -173t-15.5 -149.5q-5 -14 -6.5 -40t-5.5 -38q0 -23 -8 -55q-1 -32 -8.5 -105t-8.5 -114q-1 -19 -4 -60.5 t-3.5 -62.5t1.5 -61q6 -130 70 -205q29 -14 37 -21q6 2 14.5 2.5t11.5 1.5q7 2 18.5 8.5t18.5 8.5q27 21 33 24q110 133 168 275l6.5 6.5t7.5 5.5q9 35 29 55q9 41 33 62q0 -2 4 -2zM133 340q1 3 3.5 8.5t3 8.5t-0.5 8q-1 -3 -3.5 -8.5t-3 -8.5t0.5 -8zM102 264 q0 -2 -3.5 -2.5t-4.5 -1.5q2 -4 2 -16q-28 -72 -94 -303q14 16 25.5 59.5t23.5 60.5v19q21 47 48.5 143t33.5 113q-1 0 -2 1t-2 1q-5 -12 -14 -37.5t-13 -36.5z" />
<glyph unicode="O" horiz-adv-x="1546" d="M1149 1210q30 5 51 11q121 14 187 -60t61 -194q0 -2 1.5 -6t0.5 -7l-10 -100q0 -4 -6 -10q3 -40 -17 -64q2 -14 -6.5 -35t-7.5 -32q-17 -24 -17 -45q-7 -12 -23 -44.5t-26 -45.5q0 -2 1.5 -4.5t0.5 -4.5q-8 -9 -19.5 -32t-19.5 -31v-12q-13 -15 -25.5 -33.5t-27 -42 t-22.5 -35.5q-1 -1 -4 2q-11 -29 -46.5 -69t-46.5 -62h-8q-9 -23 -33 -37q-2 -10 -14 -22t-14 -21q-4 -1 -9 -5t-8 -5q-25 -36 -84.5 -94t-66.5 -66l-12 -6q-16 -16 -36 -32.5t-46 -35.5t-39 -30q-14 -8 -65 -38t-77.5 -43t-74 -26t-92.5 -12q-123 4 -188.5 95t-67.5 222 q-2 17 -2.5 38.5t0 37.5t4.5 44l5.5 38.5t6.5 43.5t6 38q6 15 6 33q-7 -1 -34 -6t-40.5 -7t-38.5 -3.5t-40 1.5t-31 10.5t-25 20.5q1 18 20.5 25t35.5 0q-4 -5 -15.5 -8.5t-15.5 -8.5q12 -24 59 -24q26 1 75 12t58 12q4 8 12 31t15 33q-1 20 11 45t14 39q11 17 18 47 q2 1 4 4.5t4 3.5q4 23 22 55.5t23 51.5l8 8q4 14 9.5 26t16.5 30t13 22q18 43 43 75q-2 2 -1 6l1 5q14 11 19 30q1 2 5.5 6t6.5 7q2 14 16 32t17 25q3 1 8 4.5t6 -0.5q2 -3 -0.5 -8t-1.5 -10q-9 -14 -32.5 -56.5t-39.5 -62.5q-6 -15 -21.5 -43.5t-21.5 -44.5q-3 -5 -8 -8 v-11q-23 -39 -44 -88.5t-46.5 -115t-38.5 -97.5q0 -7 -3.5 -17t-4.5 -13q11 0 28 8.5t27 7.5q65 32 131 72q42 33 66 45l8.5 8.5t11 9.5t11.5 6q11 13 30 23q21 23 78 65q23 23 65.5 63t76.5 73.5t61 66.5q2 0 5 1t5 1q7 16 29 38t29 36q1 1 4 2t4 2q9 16 34 44t35 48 q11 8 28 30.5t26 30.5q7 16 27.5 43.5t27.5 45.5q-4 1 -13.5 -4t-15.5 -5q-8 -4 -12 -10q-20 -5 -56.5 -28t-62.5 -27q4 3 18.5 14.5t25.5 17.5t22 9q3 8 20 14t21 14q12 2 30.5 12.5t32.5 12.5q2 0 3 3t3 3q3 5 9 16q15 27 23 42t21 42.5t19 48t11.5 48t4.5 55t-8 55.5 q-12 18 -24 39q-19 15 -42 18t-51 -8t-41.5 -18t-42.5 -24q-6 -6 -26.5 -22t-28.5 -26h-10q-1 -3 -5 -7t-5 -7q-24 -16 -60.5 -53.5t-50.5 -48.5q-7 -11 -25 -29.5t-24 -30.5q-4 -4 -10 -4q-14 -20 -51 -65t-54 -72q-2 0 -4 -1.5t-4 -0.5q-4 -6 -14 -22.5t-15.5 -24.5 t-15 -19.5t-18.5 -19.5q-14 -29 -25 -31q-4 5 4 16.5t6 20.5q12 12 39 57q21 17 45 52q3 0 5 2.5t5 1.5q0 10 8.5 20t10.5 17q21 21 74 83t86 91q1 1 2 5t2 5q5 5 16.5 14t20.5 18t14 19q17 9 47 37t51 37q45 35 76 41q2 2 6.5 4t5.5 4q45 18 88 -1.5t52 -64.5q2 -3 5 -10 t5 -10q-2 -9 4 -21q1 -69 -20 -127.5t-62 -132.5zM1307 543q2 4 5 13t5 13q2 6 9 15t9 12q78 170 95 281q12 88 0.5 159t-59 120.5t-128.5 53.5q-1 0 -3 -1.5t-5 -0.5q-22 2 -54.5 -5.5t-39.5 -8.5q-13 -22 -26 -42.5t-30.5 -45l-27.5 -38.5t-33.5 -43.5t-29 -37t-34 -42.5 t-30.5 -38q-6 0 -8 -2q-29 -40 -91 -102.5t-83 -87.5q-26 -23 -79 -69t-79 -68q-7 -3 -25 -21q-164 -128 -313 -178q-2 -7 -10.5 -42t-12 -51t-7.5 -45t-5 -55q0 -3 -2 -7t-2 -7q0 -141 33 -231q54 -104 155 -131q31 -2 78 -7q12 9 37 9q108 31 164 67h10q10 8 99.5 73 t128.5 107q6 1 12 9.5t12 9.5q15 22 50 54.5t40 37.5q2 0 2 5t2 5q5 6 17 14.5t19.5 17.5t10.5 21q55 63 76 95q2 0 6 1t6 1q5 20 17 35t26 18q1 4 -2 5.5t-2 4.5q72 102 97 150zM942 1100q3 -5 -1 -10.5t-11 -2.5q-1 3 0.5 6t3 3.5t4.5 2t4 1.5zM924 1081z" />
<glyph unicode="P" horiz-adv-x="1280" d="M760 1636q5 0 10 -4.5t10 -3.5q-1 -4 -7.5 -25.5t-6.5 -35.5q-7 -12 -23 -49t-30 -54q-40 -104 -136.5 -310t-138.5 -320q16 13 39.5 46t38.5 46q12 28 27 32q2 3 6 10.5t6 11.5t6.5 9t9.5 8q0 9 6.5 16t12.5 1q-2 -9 -8.5 -18.5t-14.5 -10.5q-7 -18 -30 -45.5t-29 -46.5 q-2 -1 -6.5 -4.5t-9.5 -3.5q-1 -10 -11 -22t-12 -19q-28 -32 -54 -79t-40 -80.5t-37 -96.5q-5 -24 -12.5 -46t-21.5 -56t-17 -42q-5 -37 -26.5 -95.5t-27.5 -84.5q4 -6 10 -9.5t15.5 -6t13.5 -4.5q9 -1 29 0t27 0q70 16 168 53q57 33 94 51q37 22 166 109q40 26 96 71 q4 4 12.5 13.5t12.5 13.5q2 1 6.5 2t5.5 2q9 7 24.5 24.5t24.5 24.5q1 1 5.5 2t6.5 2q4 4 11 14t12 15q8 9 27 26.5t24 22.5q1 2 2 6t2 6q1 1 19 17.5t22 28.5q4 -1 7 2.5t7 3.5q5 8 35.5 51.5t39 57t33 52.5t34.5 62t26 58.5t24 69t13 69.5q0 6 6 12q-1 13 -1.5 40t-3 46 t-9.5 33q0 10 2 12q-36 67 -88 84q-45 10 -143 -15q-6 -6 -15 -12q-2 -1 -8 -1t-8 -1q-9 -8 -36 -20t-36 -23q-1 0 -6.5 -2t-7.5 -4q-6 -4 -24.5 -17t-32.5 -20q-2 -1 -9.5 -9t-13.5 -7q-2 -6 -12.5 -13t-12.5 -12q-5 -1 -13 -8.5t-15 -5.5q-7 -10 -17 -20.5t-17.5 -17 t-21.5 -18t-20 -16.5q0 10 8 19t19 12q5 14 27.5 30t29.5 29q10 2 22.5 14.5t22.5 14.5q9 14 36.5 30t35.5 23q3 3 8 -2q4 7 16 16.5t13 10.5q4 2 10 -4q12 12 30 23t29 15.5t39 13.5t33 11q8 0 8 -4q51 19 113 -6q48 -36 71 -101t13 -147q-27 -140 -123 -299q-4 -2 -9.5 -8 t-9.5 -8q-23 -43 -80.5 -107.5t-74.5 -87.5q-19 -18 -119 -112q-2 -1 -6.5 -4t-7.5 -3q-25 -26 -58.5 -51.5t-76 -55t-64.5 -46.5q-2 -1 -4 0.5t-4 1.5q-43 -40 -123 -76q-2 -1 -3.5 -4t-2.5 -4q-6 1 -11 -1t-10.5 -6t-7.5 -5q-10 -6 -31 -13t-28 -10q-3 -1 -8.5 -5t-8.5 -5 t-12 -3t-14.5 -4.5t-10.5 -7.5q-40 -3 -84 -16q-48 2 -88 19q-57 -147 -98 -402v-74q-1 -3 1.5 -9t0.5 -11q-1 -1 -4.5 -2t-5.5 -2q-8 0 -11 7.5t-4 18.5t-4 15q1 51 17 146t18 112q1 2 3 7t3 7q24 136 31 160q-3 14 5 49.5t-3 46.5q3 121 64 182q8 40 30 45q4 6 20 40 t32 46q0 8 5 19t5 20q104 241 137 328q21 38 59.5 125t63.5 129q18 67 61 137q17 50 55.5 140t47.5 114q0 2 1 3.5t1 2.5zM299 555zM285 528q-3 -15 -19 -46.5t-18 -55.5q-4 -3 -8.5 -15t-8.5 -16q-2 -28 -16 -55q0 -9 -4.5 -28.5t0.5 -24.5q5 5 10.5 26.5t14.5 26.5 q6 34 16.5 68.5t24 75t20.5 63.5q0 2 -2 2q-2 -10 -10 -21zM250 479q11 11 22 41q-2 2 -4 2q-1 -8 -9.5 -20t-8.5 -23zM209 377q22 42 29 74q1 1 5.5 8.5t4.5 9.5v10q-3 -6 -15 -29t-17.5 -39t-6.5 -34zM199 236q3 3 3.5 9.5t-3.5 8.5q0 -2 -2 -6.5t-2 -7.5t4 -4zM721 1161 q6 -11 -16 -22q0 22 16 22zM698 1137zM674 1112zM639 1079q2 0 3.5 -2t2.5 -2q0 -6 -6 -6q-3 5 0 10zM629 1065q4 1 4 -2.5t-2 -3.5t-2 6zM618 1057q5 0 5 -2q-7 -27 -27 -35q1 9 11 19t11 18z" />
<glyph unicode="Q" horiz-adv-x="1331" d="M1092 1221q95 -67 108 -209q0 -4 4 -8.5t4 -8.5q4 -115 -2 -161q5 -30 -8 -46q0 -37 -10 -47q7 -18 -6 -28q3 -29 -13 -45q-1 -4 0.5 -10t-0.5 -7q-4 -10 -11.5 -32t-12 -35t-13.5 -30.5t-18 -29.5q3 -8 -2.5 -17t-5.5 -15q-19 -24 -45 -78l-8.5 -8.5t-10.5 -8.5 q-8 -22 -30 -52.5t-29 -43.5q-15 -9 -22 -29q-74 -82 -152 -161q-98 -84 -129 -107q-11 -3 -28.5 -15.5t-30.5 -15.5q14 -5 46 -7t44 -7h14q21 -3 65.5 -10t69.5 -10q182 -32 371 -82q14 -3 38 -12.5t36 -12.5q18 -6 50.5 -19.5t41.5 -17.5q45 -20 94 -51q2 -4 23 -22.5 t20 -36.5q-4 -1 -7.5 2.5t-7.5 9.5t-6 8q-4 3 -12 9.5t-12 9.5q-8 8 -27.5 20.5t-23.5 15.5q-10 3 -20 7.5t-20.5 11t-15.5 8.5q-282 113 -776 174q-126 -62 -215 -55q-49 2 -121 41q-2 2 -25.5 23.5t-31.5 37.5q-10 0 -25.5 3t-25.5 3q-102 15 -117 19h-14q-11 3 -37.5 7.5 t-41 8t-31.5 13.5t-25 24q9 25 67 25q51 -2 115 -31q-19 -1 -81 10t-77 -2q2 -5 11.5 -9.5t11.5 -8.5q123 -29 258 -45q-29 45 -38.5 133t3.5 155q-2 1 -10 2.5t-11 2.5t-10.5 2.5t-10.5 3t-9.5 3.5t-9.5 4.5t-7.5 5.5t-7.5 6.5t-5.5 7.5t-4.5 9q1 24 11.5 43t21.5 29.5 t32 24.5q37 25 48 26q-5 -11 -33 -30q-4 -4 -10 -9t-13.5 -11t-11.5 -9q-2 -5 -10.5 -15.5t-12.5 -20.5t0 -23q13 -29 72 -25q7 57 33 137q-1 4 -4 5t-4 5q0 3 1.5 3.5t4.5 0.5t4 1q12 20 12 38q1 2 4 9.5t6 9.5q1 13 4.5 23.5t11 25.5t9.5 20q5 31 25 58q21 57 72.5 152 t58.5 110q2 2 6 2q8 18 27.5 47.5t25.5 42.5q1 1 4.5 3.5t5.5 2.5q19 36 63 93.5t56 76.5q1 1 7 6.5t11 6.5q13 22 44 55t40 45q4 2 11.5 9t11.5 9q9 11 28.5 28.5t26.5 25.5q3 1 6.5 4.5t6.5 3.5q1 3 4.5 6t3.5 6q66 46 94 72q3 1 56 31t87 40q73 17 115 -43 q14 -37 13.5 -59.5t-9.5 -62.5q-5 -27 -39 -117q-5 -6 -9.5 -15t-9.5 -20t-7 -16zM1100 1282q1 2 5 5t5 5q2 5 4 16.5t4 16.5q1 3 6 10t6 11q21 49 18 105t-36 81q-33 11 -63 6q-40 -12 -81 -33.5t-64.5 -38.5t-66 -51t-59.5 -47q-14 -14 -59 -59.5t-68 -71.5 q-19 -22 -56 -71.5t-58 -73.5q-5 -8 -63 -96.5t-81 -139.5q-1 -1 -4.5 -3.5t-5.5 -2.5q-12 -32 -41 -88t-35 -68q-33 -76 -65 -164q-2 -22 -14.5 -56.5t-14.5 -55.5q-7 -19 -16 -72q43 14 81.5 37.5t86.5 61t69 51.5q2 4 10 10t11 10q14 4 30.5 23t28.5 24q32 35 115.5 118 t124.5 132q14 7 31.5 30.5t29.5 30.5q6 14 24.5 33t24.5 31q20 16 27 33q12 8 29 32.5t30 32.5q11 20 43 64.5t45 73.5q4 4 31 47q-55 22 -88 22q-6 0 -20 -2t-24 -1.5t-15 5.5q38 12 79.5 7t73.5 -19q7 6 14.5 25t10.5 24zM586 -23q53 29 147 95q3 3 10 9.5t11.5 10t11.5 8 t14 6.5q5 11 31 33q5 5 18.5 20t24.5 25t23 17q3 14 26 32q40 54 66 76q6 10 33.5 48.5t37.5 64.5q23 28 42 63.5t42.5 89t32.5 72.5q2 27 19 70q17 90 22 162q3 110 -23 199t-88 130q0 2 -2 2l-4 -4q-2 -2 -5.5 -7.5t-6 -9t-6.5 -5.5q1 -6 -2.5 -12t-3.5 -9l-10 -10 q-14 -31 -58 -90q-1 -2 -10 -12t-10 -17q-5 -2 -13 -10l-4 -8t-4 -10q-17 -15 -48 -55t-52 -56q-28 -47 -74 -86q-221 -246 -412 -395q-13 -8 -37.5 -25t-40.5 -27t-40 -21t-49 -17q-20 -80 -11 -167t47 -139q68 -8 185.5 -21.5t169.5 -19.5zM385 -72q30 0 137 19 q5 3 19.5 9.5t21.5 12.5q-42 3 -151 16.5t-166 16.5q47 -62 139 -74z" />
<glyph unicode="R" horiz-adv-x="1140" d="M741 1655q2 -1 6 -6.5t5 -6.5q-16 -46 -29 -61q-7 -25 -29 -55q-5 -25 -25 -65t-26 -64q7 1 35 11.5t45 8.5q4 2 0.5 4t-2.5 4q106 28 192 23q1 -2 4.5 -3.5t4.5 -2.5q10 0 21 -2.5t19 -5t20 -7.5t17.5 -8t20 -10.5t18.5 -9.5q154 -121 123 -307q-7 -42 -23 -85 t-29.5 -71.5t-44.5 -73t-43.5 -60.5t-51.5 -63.5t-45 -54.5q-19 -12 -31 -31q-10 -4 -24.5 -20t-24.5 -21q-60 -60 -115 -92q-81 -65 -172 -104q-44 -30 -149 -70q-50 -22 -170 -51q-7 -13 -21 -70q18 -11 62.5 -31t64.5 -34q36 -9 51 -29q16 -2 45 -20q4 -2 12.5 -6.5 t12.5 -6.5t9 -6.5t9 -9.5q15 -3 43.5 -20.5t42.5 -22.5q3 -2 3 -5.5t1 -4.5q11 0 43 -21q27 -8 37 -20q3 1 6.5 0t6.5 0q6 -7 25.5 -15t25.5 -16q18 -5 49.5 -20.5t50.5 -20.5q8 -8 33 -15t33 -16q25 0 39 -14q16 -2 38.5 -11t34.5 -12q3 1 5.5 -2t3.5 -4q44 -13 128 -35.5 t121 -33.5q26 0 29 -6q31 -1 97 -10.5t106 -8.5q1 -1 6 -4.5t4 -4.5t-2 -9q-4 -1 -20 10q-9 -10 -11 -10q-138 10 -172 22q-15 -1 -40 5.5t-40 6.5q-4 3 -15.5 5.5t-14.5 5.5q-18 1 -46.5 10t-46.5 10q-97 34 -135.5 48t-112 44t-126.5 58q-15 3 -34.5 14t-33.5 14 q-17 11 -76 42t-86 53q-4 0 -8 2t-8 2q-124 75 -231 121q-10 7 -23 10q-57 -169 -57 -334q9 -50 8 -59q-11 -4 -19 2q-7 15 -9 34t-1 47.5t0 40.5q2 11 7.5 47.5t11 64.5t12.5 50q2 22 13 61t14 52q-21 17 -76 34t-72 25q-6 1 -27.5 2t-34.5 2.5t-30.5 5t-30 10.5t-20.5 17 q7 9 31 6t28 0q89 -22 102 -26q39 0 154 18q60 191 152 449q0 3 3 5.5t3 4.5q10 45 26 69q0 2 -1 5.5t-1 5.5q14 28 27 60.5t30 77.5t25 64q1 1 1 3q1 3 5 2q-1 3 0.5 7.5t1.5 6.5q5 13 15.5 39.5t15.5 40.5q1 1 3 4t5 2q3 26 23 63q3 14 29 74q1 15 12.5 36t13.5 34 q-8 -3 -23 -13t-26 -12q-2 -1 -4 -5t-4 -5q-30 -17 -75 -57.5t-56 -49.5q-5 -6 -40 -44.5t-52 -59.5l-18 -25q-18 -25 -29 -36q-9 -17 -30.5 -53t-33 -57t-25 -53t-20.5 -61l-10 -10q-35 -143 -35 -248q1 -35 22.5 -89t24.5 -64q-3 0 -6 4t-6 4q-4 8 -15.5 28t-18.5 34.5 t-11 29.5q-8 100 2 154v16q18 88 37 137q9 36 38 95.5t33 68.5q21 21 29 45q3 4 10 13t11.5 16t7.5 14q10 13 31.5 40.5t35 44t33 37t37.5 34.5l6 12q43 37 133 107q1 0 3.5 1t4 1t2.5 -2q1 3 6 7t5 7q3 0 5.5 -1t4.5 -1q1 0 1.5 4t2.5 4q8 4 10 2q9 9 12 10q32 65 54 125 q9 11 19.5 41.5t19.5 40.5q1 10 5 20.5t7.5 16.5t10.5 17t9 14zM514 410q8 2 18 7.5t13 6.5q4 2 11.5 4t8.5 2q3 1 7.5 6.5t9 8t8.5 -0.5q11 11 39 26.5t37 23.5q24 12 67.5 45.5t65.5 46.5q2 6 10 14q26 19 54 45t44.5 44t48 54.5t43.5 49.5q-3 7 0 10q14 13 33 41t29 39 q11 32 33 57q0 17 12 29q3 12 17 45.5t16 60.5q1 3 3 8.5t3 8.5q1 13 2 43t2 45q0 1 -2.5 4t-1.5 8q0 19 -8.5 42t-10.5 34q-35 64 -65 88q-1 2 -2 6t-2 6q-7 1 -14.5 5.5t-17 12.5t-13.5 11q-2 1 -37 18q-3 1 -10.5 2.5t-12.5 3.5t-8 6q-6 -2 -14 0.5t-10 2.5q-61 6 -121 0 q-78 -16 -158 -54q-2 -2 -5.5 -5t-6.5 -6t-6 -7q-33 -86 -124.5 -317.5t-150.5 -397.5t-106 -334q177 49 272 101zM109 268q11 -4 42.5 -16.5t49.5 -18.5q0 8 7 25.5t3 28.5q-15 -4 -51.5 -9.5t-50.5 -9.5z" />
<glyph unicode="S" horiz-adv-x="1349" d="M1403 1303q0 8 4 19t10.5 25.5t9.5 22.5q2 6 11.5 32t13.5 42q5 41 -6 72q-3 9 -12.5 24.5t-12.5 24.5q-39 21 -88.5 25t-81 -0.5t-96.5 -20t-86 -19.5q-174 -56 -295 -102q-26 -16 -39 -12q-18 -13 -54.5 -28t-51.5 -26q-53 -18 -90 -43q-28 -8 -99 -47q-2 0 -5 -1t-5 1 q-46 -33 -111 -61q-166 -105 -245 -203q-21 -34 -18 -77.5t28 -73.5q21 -26 49 -49.5t51 -39.5t64 -37t61 -30t70 -30.5t65 -28.5q0 -1 1.5 -3.5t0.5 -5.5q29 -9 75.5 -30.5t64.5 -28.5q0 -2 3 -4t3 -4q60 -23 115 -56q3 -3 10 0q1 -4 8 -7t8 -7q21 -5 52 -21t40 -20 q5 -3 21 -12.5t22.5 -14t17 -13t17.5 -17.5q67 31 186.5 90.5t165.5 81.5q16 4 52.5 20.5t56.5 18.5q0 -6 2 -6q-9 -8 -30.5 -18t-28.5 -15q-28 -7 -72.5 -29t-67.5 -29q-16 -12 -28 -14q-3 -1 -7.5 -5t-7.5 -5q-12 -4 -16 -8q-11 -2 -26.5 -10.5t-20.5 -10.5 q-15 -10 -23 -12q-1 -1 -9.5 -4t-10.5 -8q-6 0 -8 2q-11 -10 -26.5 -18.5t-34.5 -17t-29 -13.5q5 -9 16 -21.5t14 -17.5q53 -113 -112 -246q-104 -83 -181 -117q-12 -11 -42 -24t-37 -19q-12 -4 -41.5 -15.5t-49 -17.5t-46.5 -12t-52.5 -4t-48.5 12q-2 4 -10 14t-11 17v27 l3 2q14 23 29 44t37.5 43t35 35t44 37t39.5 30.5t46.5 34t42.5 30.5q123 86 246 143q26 19 45 25q-7 7 -24 18t-23 18q-23 9 -73.5 35t-76.5 35q-23 14 -73.5 37.5t-73.5 38.5q-59 24 -328 153q-85 51 -135 107q-43 62 -43 113q1 25 11.5 48t19.5 35t29.5 34t25.5 28 q155 130 287 188q18 13 58 32.5t58 31.5q213 95 381 155.5t344 92.5q91 7 135 -2q8 -4 16.5 -9t18.5 -12t15 -10q10 -21 16 -25q26 -61 10 -129q-5 -10 -12 -33.5t-12 -33.5q-1 -3 -5.5 -15t-7.5 -18t-9 -12t-13 -6zM895 395q-289 -143 -449 -293q-13 -7 -33 -28t-32 -29 q-2 -5 -25 -33t-18 -47q1 -11 17 -18.5t32 -9.5q39 -4 81 7.5t90 33t63 26.5q83 45 98 55q15 8 44.5 30t47.5 30q9 12 35.5 33t36.5 36q34 31 59 80q22 77 -43 127q0 3 -2 1q-1 -1 -2 -1z" />
<glyph unicode="T" horiz-adv-x="962" d="M891 1190q8 0 20.5 3.5t22.5 2.5q1 1 4 8t6 8q4 0 6.5 -5.5t3.5 -6.5q14 6 45 10.5t45 10.5q2 0 7 -1.5t8 -0.5q16 9 58 12.5t59 11.5q19 -3 59.5 6.5t62.5 3.5q5 1 19.5 5.5t21 5.5t22 2.5t21.5 -2.5q5 0 11.5 4t7.5 4q21 1 73.5 4t81.5 4q2 -1 6.5 -4t6.5 -4q3 3 8.5 5 t9.5 5q9 1 20 -3.5t15 -4.5l16 8q3 -4 12.5 -2.5t12.5 -5.5q7 5 41 2t43 -2v-14q-11 2 -28.5 3t-26.5 3q-11 1 -23 1t-25.5 -0.5t-21.5 -0.5q-4 0 -12 3t-11 3q-14 0 -39 -3.5t-39 -4t-38 3.5q-13 -6 -45 -8t-45 -7q-114 -6 -230 -30q-2 1 -7 2t-7 2q-32 -10 -102 -23.5 t-93 -19.5q-8 -8 -16.5 -31t-15.5 -31q-4 -10 -15.5 -31.5t-15.5 -35.5q-15 -15 -35 -57t-35 -58q-27 -63 -59 -100q-2 -10 -13 -24.5t-12 -24.5q-46 -66 -122.5 -197.5t-104.5 -175.5q-50 -107 -61 -127q-28 -49 -48 -98q-40 -101 -53 -164q-2 -7 -6.5 -27t-7 -34t-2.5 -27 q-1 -8 -0.5 -15t-1.5 -14t-8 -10q-4 0 -6.5 1.5t-4.5 3t-4 4.5t-4 5q-5 43 2 80t24.5 83t22.5 64q24 44 54 125q34 66 55 123q11 13 27.5 48.5t29.5 49.5q-1 5 3 11t3 10q2 2 6.5 5t6.5 5q17 53 53 98q8 24 33 66t34 64q16 21 44.5 67.5t43.5 67.5q-1 4 2 8t3 8 q20 27 50 84.5t46 81.5q2 10 14.5 42.5t13.5 57.5q-44 -11 -156.5 -42t-170.5 -44q-4 4 1 6t11 2q10 7 29.5 13t27.5 12q5 0 9 -4q29 15 97 33.5t71 19.5q15 -1 45 10t41 13q1 48 -27 74t-76 42q-27 0 -41 7q-92 2 -248 -37q-33 -17 -47 -15q-47 -23 -106 -38 q-228 -98 -400 -187q-2 -2 -10 -6.5t-10 -9.5q-4 -2 -21.5 -12t-23 -13t-21 -12t-22.5 -14t-19.5 -14t-20 -16t-16.5 -16.5t-16 -19.5q27 -12 47 -11t52.5 6.5t48.5 4.5q2 2 9.5 4t10.5 4q4 0 12 -4q11 10 44 17t42 12q3 0 7 1t6.5 1t5.5 -2q28 20 55 14l12 12q19 2 51.5 14 t51.5 13q6 2 14 10q22 3 60.5 16.5t58.5 16.5q15 4 23 12q13 -4 43 11q7 1 31 7t38 7q2 1 4.5 5t5.5 5q4 0 10 1.5t9 1t6 -4.5q10 10 14 4q0 -3 -2.5 -5t-5.5 -2.5t-4 1.5q-3 1 -3 -3q1 -3 -1 -3q-4 -1 -38 -12.5t-54 -12.5q-17 -9 -39.5 -16t-52 -15t-43.5 -12 q-22 -12 -71.5 -26t-68.5 -23q-21 -1 -52.5 -12.5t-45.5 -13.5q-6 -4 -22.5 -8t-24.5 -9q-22 -4 -58.5 -13t-58.5 -14t-60 -9t-63 3q-15 12 -24 23q2 11 9 20.5t12.5 14t19.5 14t18 12.5q29 24 39 27q103 68 242 131q14 14 39 18q22 16 53 25q2 2 7 5t7 5q3 -1 7.5 0.5 t5.5 -0.5q33 25 63 29q23 16 75 34t72 29q23 5 89 27t106 25q59 18 133.5 11.5t116.5 -36.5q1 -2 11.5 -15t13 -17.5t8.5 -16t8 -22t2 -23.5zM889 1167q1 -11 -4 -26.5t-4 -26.5q-7 -12 -21.5 -44t-25.5 -46q-29 -61 -48 -84q-12 -39 -30 -53q-4 -12 -10 -24t-11 -19.5 t-14.5 -21t-13.5 -19.5q-5 -16 -23.5 -43t-21.5 -43q6 9 14 12q7 17 23.5 45t21.5 39q22 25 52 79.5t44 74.5q12 27 50.5 95t52.5 112q-6 0 -15.5 -3.5t-15.5 -3.5zM657 707q0 2 2 2q0 4 -4 4q0 -6 2 -6zM637 674q14 14 14 24q-11 -4 -14 -24zM614 635q7 3 7 8 q-4 1 -5.5 -1.5t-1.5 -6.5zM604 614q-1 1 1 4t-1 3q-4 -7 0 -7zM1817 1253q-2 0 -2 -2q-4 5 -17 6t-16 7q-7 -11 -21 -4q7 9 29 6.5t27 -13.5zM1839 1253q8 3 8 -6q-1 -1 -5 -1t-5 1q0 2 1 3.5t1 2.5z" />
<glyph unicode="U" horiz-adv-x="1384" d="M1622 1536q1 -6 -4 -10t-6 -6q-6 -35 -29 -62q-5 -21 -23.5 -52t-23.5 -50q-6 -6 -14 -24t-17 -23q0 -4 -2 -10t-2 -9q-51 -86 -61 -119q-25 -38 -56 -120t-45 -109q-5 -25 -24 -67t-23 -68q-18 -29 -24 -76q-11 -15 -23 -53.5t-20 -52.5q-3 -46 -27 -90q-7 -42 -28 -120 t-27 -108q0 -18 -8 -46t-9 -44q1 -3 -1.5 -5.5t-2.5 -6.5q0 -10 2 -10q-64 -280 2 -431q2 -4 16.5 -18.5t8.5 -26.5q-8 0 -17.5 10t-11.5 11q-36 56 -45 125q-7 169 21 293q3 52 14 73q6 53 27 134t26 108q4 8 9.5 27t9.5 26q15 64 34.5 125.5t51.5 149.5t43 119q1 2 4 6 t4 6q5 24 20 60.5t19 47.5q-6 0 -14 -15t-15 -17q-5 -21 -25 -51.5t-26 -47.5q-24 -28 -61 -100q-2 0 -4 -2.5t-5 -1.5q-21 -49 -51 -84q-4 -8 -2 -14q-6 -2 -11.5 -11.5t-10.5 -11.5q-20 -37 -60 -98t-55 -86q-2 -1 -5 -4t-5 -4q0 -4 -4.5 -10.5t-4.5 -10.5q-2 -1 -6 -4 t-6 -4q-5 -16 -22.5 -39t-22.5 -35q-7 -8 -23.5 -31.5t-27.5 -33.5q0 -4 -2 -9t-2 -6q-47 -51 -72 -94q-13 -11 -36 -38.5t-38 -39.5q-96 -117 -215 -178q-9 -1 -24 -4.5t-27 -5.5t-22 -2q-18 2 -32 8t-30.5 16.5t-23.5 14.5q-53 59 -62 166q-1 53 8 117t17 97t26 107 q10 15 11 16q16 71 61 178t57 142q-1 2 -5 -1q-4 -5 -7 -5q-54 -75 -78 -98q0 -5 -4.5 -12t-5.5 -11l-7 -6q-8 -7 -13 -8q-1 -4 -6 -11t-7 -12q-23 -17 -43 -47q-26 -17 -45 -49q-20 -15 -64 -54t-71 -57q-26 -11 -37 -20q-7 1 -15.5 -2.5t-12.5 -3.5q-22 2 -34 19.5t7 31.5 q4 0 5 -4t1 -10t2 -9q6 -2 27 -2q18 5 34 14t39 25.5t31 22.5q2 1 4 5.5t4 6.5q3 0 6.5 2.5t6.5 1.5q18 19 52 51.5t60.5 61t46.5 57.5q1 0 4.5 2.5t6.5 1.5q2 10 14 22.5t14 22.5q9 3 15 6q3 9 6 15q13 15 26.5 32t29 38.5t24.5 33.5q14 14 26 32t25 41t22 36q22 56 50 96 q0 9 12 25q-3 6 6 6q0 5 3 11.5t3 10.5q13 17 32.5 50.5t39 58t43.5 39.5q3 -2 18 -17q1 -5 -2.5 -11t-3.5 -11q-37 -61 -115 -183q-9 -14 -53.5 -75t-62.5 -101q-22 -35 -66 -143q-20 -34 -31 -70q-15 -28 -34.5 -87.5t-28.5 -80.5q-7 -31 -22.5 -95.5t-22.5 -100.5 q0 -15 -4 -46t-4 -48q0 -135 63 -201q7 -1 37 -16q22 0 39 -5q4 2 16 2q87 23 115 56q3 1 7 3t7 3q10 11 36 33.5t38 36.5h10q21 30 82.5 97t87.5 111q6 6 15 9q16 27 58.5 86.5t61.5 95.5q9 3 19 19.5t20 19.5q0 23 19 33q0 6 4.5 14.5t5.5 13.5q3 -1 4.5 2.5t5.5 1.5 q3 12 15.5 30t15.5 30q6 3 14 14t15 14q13 31 46.5 82.5t45.5 77.5q4 4 8 2q6 19 29 51.5t28 55.5q10 11 39 67q8 4 11 4v15q47 73 69 123q14 25 38 81.5t40 83.5q9 26 34 75t34 77q10 6 22 26.5t19 26.5q5 0 8.5 -2t6.5 -5.5t5 -4.5zM731 1217q1 -2 -0.5 -5t-1.5 -6 q-28 -31 -43 -63q-5 -8 -20 -31t-24.5 -39.5t-14.5 -32.5q11 7 24 31.5t25 30.5q7 18 33.5 58t33.5 65q-1 0 -4 -4t-8 -4z" />
<glyph unicode="V" horiz-adv-x="1124" d="M1839 1753q-7 -6 -24.5 -12.5t-22.5 -9.5q-21 -12 -53 -33q-44 -35 -168 -150q-14 -24 -47 -53q-1 -3 -4 -8t-4 -8q-37 -39 -103 -125q-4 -5 -23 -27t-28 -35q-9 -11 -24.5 -35.5t-20.5 -31.5q-10 -12 -94 -129q-6 -9 -27.5 -41.5t-36 -52t-31.5 -37.5 q-14 -29 -47.5 -78.5t-42.5 -65.5q-54 -91 -92 -143q-22 -44 -73 -119.5t-72 -116.5q-30 -45 -93.5 -149.5t-101.5 -157.5q-1 -4 -4 -11t-4 -11q-4 -3 -10 -11.5t-10 -11.5q-14 -31 -46 -67q-88 -157 -167 -226q-3 -1 -12.5 -4.5t-17 -5t-16.5 -0.5q-3 1 -10 4.5t-12 3.5 q-3 4 -10.5 12.5t-10.5 12.5q-1 3 -5 20t-5 23.5t-3 20.5t-1.5 26t2.5 24q-9 65 10 152q0 64 17 141q17 157 63 303q5 46 27 121.5t27 112.5q-23 -31 -62 -98t-61 -97q-25 -44 -77.5 -121.5t-64.5 -97.5q-9 -12 -30.5 -42.5t-33.5 -46t-31 -38.5t-38.5 -40.5t-40.5 -32.5 q-22 -8 -43 -8t-32 18q4 8 38 22q2 -3 -0.5 -12.5t2.5 -11.5q13 0 29 11t23 13q19 30 57 64q10 21 33 37q19 30 56 84t48 71q3 4 8.5 14.5t8.5 14.5q25 35 30 39q4 13 11.5 25t18 25.5t15.5 21.5q4 6 10.5 18.5t13 22.5t15.5 16q19 39 44 81.5t56 92t48 78.5q4 20 17.5 54 t17.5 56q8 22 30 69t31 73q13 17 33 57.5t35 60.5q37 62 75 60q6 -5 4 -16.5t-3.5 -16t-7 -15t-7.5 -14.5q-3 -6 -59 -110q-5 -9 -13.5 -29t-13.5 -29q-12 -21 -52.5 -86t-58.5 -99t-40.5 -94t-30.5 -118q-10 -17 -21 -56t-18 -54q-13 -94 -49 -215q-4 -43 -28 -189 t-24 -229q0 -100 29 -135q15 -5 17 -7q10 1 21.5 8t12.5 7q30 21 69.5 76.5t53.5 70.5q20 44 71.5 116.5t70.5 111.5q5 4 12 15t12 15q2 3 3 6t1.5 7t1.5 6q15 19 43 68t47 71q42 74 126.5 206t119.5 191q3 2 9 11.5t12 11.5q0 8 4 14t10.5 12.5t9.5 10.5q1 1 7.5 16.5 t11.5 22.5q7 13 23.5 35.5t21.5 31.5q4 6 13.5 21t16.5 24l5 5t6 8.5t2 9.5q33 33 41 59q11 11 29.5 38.5t31.5 39.5q6 13 15 26t22.5 29.5t19.5 24.5q11 14 27.5 40t31.5 46t32 35q1 3 4 8t4 8q3 3 9 8t9 8q12 23 43.5 57.5t42.5 53.5q18 17 38 38t44 47.5t37 39.5 q3 1 8.5 5t9.5 5q20 30 50 45q48 51 122 78h7q4 -1 11 0t11 0zM510 977q21 31 57 93.5t54 90.5q5 18 28.5 58.5t22.5 68.5q-104 -138 -162 -311z" />
<glyph unicode="W" horiz-adv-x="1490" d="M1653 1548q-56 -124 -84 -231q-2 0 -10 -5t-15 -1q-9 -19 -32.5 -74t-38.5 -84q-8 -38 -35 -101t-35 -96q-1 -2 -2.5 -5.5t-3 -5.5t-4.5 -3q-26 -87 -72 -192q-14 -60 -55 -168q-85 -295 -193 -570q-3 -3 -7 -12t-7 -12q0 -4 -1 -9t-1 -8q-2 -2 -6.5 -8t-6.5 -8 q-26 -74 -94 -168q-23 -17 -55 -27h-25q-59 20 -79.5 81.5t-24.5 158.5q-9 48 -2 98q-2 57 1 119t9 137t8 111q5 34 12.5 126t16.5 140q1 27 9.5 157t6.5 210q-4 9 -5 28.5t-4 33t-13 14.5q-7 1 -17.5 -8.5t-17.5 -20.5q-3 -5 -7.5 -13.5t-9.5 -15t-12 -10.5q-8 -17 -44 -81 t-52 -105q-28 -54 -72.5 -163t-58.5 -141q-4 -20 -22.5 -62t-22.5 -69q-26 -43 -29 -67l-8 -8q-15 -46 -48 -125t-46 -115q-6 -9 -19 -32.5t-24.5 -37.5t-28.5 -22q-42 5 -55 57q-1 59 -1.5 91.5t6.5 87.5t12 85.5t15 84.5t15 85q8 19 17.5 63.5t17.5 63.5v17q2 6 6 14 q4 26 20 80t17 84q-73 -99 -133 -191q-10 -12 -35 -44.5t-39 -49t-36 -41.5t-44 -43.5t-45 -34.5q-5 0 -17.5 -2.5t-17.5 -1.5q-15 2 -25.5 12t-2.5 25q5 3 9 0.5t8 -8t7 -6.5q7 -2 17 1t16 1q30 27 59 47q14 21 51 61t52 66q4 4 10 4q1 5 6 14.5t6 14.5q9 5 22 25t25 24 q15 33 56.5 88t56.5 88q9 7 16 19t14.5 27.5t12.5 23.5q2 16 12.5 38.5t12.5 36.5q3 6 8 11q0 5 3 12.5t3 11.5q32 55 47 99q11 12 35.5 52.5t38.5 55.5q7 9 16.5 15.5t20 5t16.5 -14.5q-10 -18 -34 -63t-37.5 -70t-35.5 -61t-42 -64q-4 -8 -3 -12q-12 -10 -27 -40t-28 -40 l-8.5 -25.5t-10.5 -29.5t-10 -23q-5 -31 -32 -117q-10 -44 -37.5 -156.5t-40.5 -176.5q-2 -40 -16 -90q0 -44 -11 -86q-4 -33 -3 -88t18 -82q5 0 14 -9q10 2 22 14t17 15q2 5 13 23.5t13 33.5q21 31 54 121q7 20 31 76.5t34 89.5q2 0 3.5 4t4.5 4q33 105 68 164q0 23 16 47 q0 14 2 17q-1 4 1.5 5t7.5 1q2 18 12.5 42t13.5 38q3 6 11 10q15 44 34.5 88t47.5 99t40 81q5 1 9.5 8.5t9.5 8.5q2 12 12.5 29t13.5 28q7 5 24 27.5t32 29.5q2 -1 11.5 -6t16.5 -6q6 -18 15 -33q5 -31 6 -64.5t-0.5 -79.5t-1.5 -65q-7 -101 -34.5 -378t-35.5 -437 q2 -23 3 -73t3.5 -82.5t8.5 -72.5t20.5 -68.5t36.5 -45.5q5 -2 17 -4t16 -4q7 3 19.5 8t19.5 8q4 3 12.5 13.5t15.5 13.5q4 19 19 25q5 19 24 38q19 38 36.5 77.5t37 88t30.5 78.5t33.5 91t30.5 83q5 31 23 68v16q2 5 7.5 16t7.5 16.5t4.5 16t2.5 21.5q34 81 64 190 q0 3 4.5 7.5l5.5 5.5v18q31 63 41 121q13 21 30 72t31 73q0 6 3.5 15t3.5 14q14 24 34 80t35 80q0 15 2 16q92 230 176 404q8 3 17 -11zM557 1307q-16 -18 -39.5 -55.5t-32.5 -49.5q-5 -21 -27.5 -60.5t-25.5 -64.5q9 7 22 34t25 34v8q19 27 48 82.5t38 69.5q-2 2 -8 2z M426 1075v-4h2l2 2v2h-2q-2 -2 -2 0z" />
<glyph unicode="X" horiz-adv-x="1331" d="M1561 1272q14 87 4 145q-16 36 -68 49q-17 2 -39 -7t-28 -7q-98 -60 -197 -143q-9 -15 -37 -36t-37 -38q-7 -1 -14.5 -10t-14.5 -11q-9 -11 -21.5 -23t-18.5 -17t-26.5 -21.5t-21.5 -17.5q-10 -26 -41 -45q-13 -17 -44 -47t-44 -48q-15 -9 -37.5 -37t-37.5 -34 q-14 -22 -50.5 -59t-50.5 -60q-4 0 -14 -10q-5 -8 -21 -25.5t-22 -30.5q-3 -3 -10.5 -8.5t-12 -11t-6.5 -12.5h-8q0 -2 -1 -6t-1 -7q-77 -73 -111 -129q-7 -5 -14 -12t-11.5 -12.5t-12 -15.5t-11.5 -15q19 -83 72 -176q0 -2 4.5 -4t5.5 -2q1 -5 6 -12t6 -11q12 -11 84 -74 q22 -5 25 -12q10 -2 38 -11.5t44 -10.5q53 -6 90 8q3 1 6 -0.5t4 -1.5q10 7 34 15t30 11q8 5 23 14.5t26.5 15.5t21.5 9q12 17 19 15q3 5 8 9.5t12.5 9.5l10.5 7q4 2 14.5 12t17.5 9q-5 -18 -31.5 -36.5t-33.5 -31.5q-12 -2 -25.5 -14.5t-23.5 -14.5q-2 0 -3 -3.5t-3 -4.5 q-7 -4 -28.5 -13.5t-31.5 -16.5q-71 -23 -123 -23q-48 4 -137 45q-30 30 -61 49q-2 2 -12 14.5t-12.5 16t-11 14.5t-12 16.5t-10 16t-10 18t-7.5 17.5t-7 20q-1 2 -4 5l-4 2q-3 15 -12 40t-11 39q-22 -11 -41 -49q-25 -21 -65 -72.5t-64 -72.5q0 -3 -1.5 -6t-0.5 -6 q-2 -1 -6 -3.5t-6 -3.5q-19 -40 -45 -63q-18 -27 -51 -74t-59.5 -87t-47.5 -77q-1 -1 -4 -4.5t-6 -3.5q-4 -11 -32 -62.5t-32 -90.5q1 -4 4 -10.5t4 -8.5q12 -3 36.5 -1.5t29.5 -4.5q-1 -9 -7.5 -12t-16.5 -4.5t-15 -4.5q-25 -2 -39.5 15t-13.5 47q11 39 30 76.5t44.5 79.5 t37.5 67q20 26 55.5 78.5t66 92.5t61.5 73q0 4 4.5 10.5t5.5 11.5q33 36 90 108.5t74 92.5q-2 18 -6.5 51.5t-6.5 50.5q-8 75 -4 243.5t-4 246.5q-4 -43 -2 -78t-1.5 -75t-16.5 -68q3 43 8 69q0 13 -2 17q-4 95 2 178q0 3 -0.5 10.5t-0.5 12t1.5 10.5t5.5 10q10 -10 14 -10 q12 -32 19 -92q-6 -391 -6 -392q3 -19 7 -77t11 -84q164 196 252 288q0 3 2 6t2 5q17 11 43 43.5t37 42.5q16 14 49 47q12 12 27 24q5 4 22.5 26t30.5 28q4 9 21 22q13 21 48.5 50.5t47.5 49.5q3 0 7.5 5t10.5 2q21 26 44.5 50t57 54t48.5 43t61 50.5t53 43.5q11 0 15 2 q10 11 34 25t33 22q8 2 26.5 9t27.5 8q56 14 98 -60q11 -52 2 -108q-1 -3 -5.5 -21.5t-10.5 -23.5zM1550 1229q3 5 4 -2q2 -6 -4 -6q-1 2 0.5 5t-0.5 3zM1544 1208q4 -1 1.5 -6t-1.5 -8q-3 1 -3 3.5t1.5 6t1.5 4.5zM1538 1186q2 -4 -4 -23q-2 3 1 11.5t3 11.5zM1524 1139z M1225 498q4 0 4 -2q-5 -17 -31 -43q0 -5 -2 -7.5t-6 -1.5q2 9 10.5 21.5t16.5 13.5q2 2 4 9t4 10zM1188 442q2 -3 -4 -14q-5 3 -3.5 8.5t7.5 5.5zM1176 432q2 -6 1.5 -8t-7.5 -7l-7 -5q0 4 2.5 7.5t5.5 6.5t5 6zM1149 406q2 0 4 -2.5t4 -2.5q-7 -13 -25.5 -31.5t-25.5 -29.5 q-3 1 -7 -0.5t-7 0.5q8 12 29 32.5t28 33.5z" />
<glyph unicode="Y" horiz-adv-x="1320" d="M1034 485q11 -1 63 5.5t60 -3.5q-1 -5 -5 -7.5t-9.5 -2t-11 0t-9.5 -0.5q-14 -4 -50 -9.5t-52 -12.5q-68 -135 -197 -336q-3 -2 -10.5 -12.5t-13.5 -12.5q-18 -31 -41.5 -64t-41.5 -55.5t-47.5 -58t-43.5 -53.5q-3 0 -6.5 -2.5t-6.5 -1.5q-106 -132 -282 -242 q-66 -28 -80 -31q-66 -11 -109 8q-90 57 11 269q146 234 419 418q2 1 7.5 2t7.5 2q75 53 190 104q8 4 26.5 13.5t26.5 13.5q6 2 22 6.5t26 9t18 10.5q20 3 59 16t58 17q28 66 84 187q0 26 20 43q14 64 43 120q29 92 44 144.5t32.5 138t19.5 149.5q4 82 -26 117 q-28 12 -43 12q-18 -6 -19 -6q-5 -1 -15 -5t-15 -5q-42 -24 -81.5 -52.5t-87 -72.5t-66.5 -62.5t-75 -74.5q-27 -21 -71.5 -66.5t-67.5 -64.5q-25 -29 -72.5 -78t-62.5 -65q-6 -6 -56.5 -59t-74.5 -83q-20 -20 -64 -68.5t-69 -72.5q-1 -4 -7 -10t-8 -11q-11 -9 -48 -44.5 t-64 -55t-60 -31.5q-3 -1 -11 -1.5t-11 -2.5q-32 3 -51 25v33q2 7 5 24.5t5 24.5q6 12 8 14q12 37 26.5 71.5t35 72.5t32.5 59t40 65.5t36 57.5q53 71 68 96q7 3 10 10q22 36 49 66q25 36 77 94.5t62 71.5q4 2 10.5 8t12.5 9.5t12 4.5q1 0 10.5 -2t12.5 -5.5t4 -10.5 q-3 -8 -27 -2q-6 -1 -14 -8.5t-15 -8.5q-6 -11 -20.5 -25.5l-15.5 -15.5l-14 -14t-15 -16.5t-10 -14.5q-3 -3 -6.5 -10.5t-4.5 -9.5q-5 -4 -30 -29q-3 -5 -14.5 -23t-20.5 -27.5t-21 -16.5q-3 -12 -9.5 -22t-17.5 -22t-16 -20q-23 -39 -43 -61q-3 -5 -22 -36.5t-24 -39.5 t-21.5 -36.5t-23 -41t-20 -38t-21 -42.5t-17.5 -41t-18 -46.5t-15 -45.5q0 -31 4 -43q7 -6 15 -7.5t18.5 1t18 5.5t19 8t15.5 7q81 59 209.5 198.5t175.5 182.5q34 44 106.5 116t92.5 93q18 20 54.5 53.5t47.5 44.5q62 66 107 97q11 15 26.5 29t35 29.5t30.5 25.5 q11 6 38.5 27.5t47.5 27.5q6 9 18 15.5t22 9.5t27 6.5t23 5.5q21 -6 27 -6q5 -7 20 -15q0 -4 4 -4q25 -41 21 -149q-21 -185 -82 -361t-156 -383zM989 449h-4q-202 -59 -436 -211q-210 -139 -348 -326q-11 -23 -33.5 -64.5t-30.5 -56.5q-12 -36 -22 -86q3 -21 0 -39 q2 -4 10.5 -22.5t13.5 -26.5q4 0 7 -1.5t7 -4.5t7 -4q42 -16 102 0q66 27 134 74.5t110 86.5t110 107q146 178 293 410q14 31 56 100q5 16 16 36t12 23q-1 1 -2 3t-2 2z" />
<glyph unicode="Z" horiz-adv-x="1705" d="M356 -4q5 -4 18.5 -7t18.5 -7q23 -2 75.5 -11t78.5 -10q10 -5 10 -6q28 1 90 -2.5t88 -3.5q43 11 64 4q21 2 69 7t76 7q3 1 4.5 -2.5t3.5 -3.5q9 12 37 6q8 4 10 6q13 -3 35 2t33 2q2 1 3.5 4t2.5 3q20 -3 55 6.5t56 5.5q3 1 7 4t5 4q10 -2 26 5t23 3q6 6 15 8.5t16 -2.5 q2 1 3.5 4.5t2.5 4.5q1 0 4 -1.5t6 -0.5q47 14 72 14q3 0 4.5 3.5t3.5 4.5q35 5 94 22.5t93 22.5q6 8 23.5 10.5t21.5 8.5q6 0 18.5 5.5t19.5 6.5q10 -1 25 4t19 6q1 -13 -14 -18t-23 2q-4 -4 -4 -8q-8 4 -16.5 -3t-16.5 -4q-2 0 -3 -4.5t-3 -5.5q-11 3 -39 -7t-41 -7 q-16 -14 -60 -21q-3 -1 -8.5 -4.5t-9.5 -5t-8 -0.5q-4 0 -4 -4q-24 -2 -61 -13t-54 -12q-31 -10 -162 -38q-4 -2 -12 2q-30 -14 -85 -19.5t-77 -13.5q-2 1 -7 1t-7 1q-22 -9 -81.5 -12t-74.5 -7q0 1 -8 5q-24 -8 -76 -3q-17 -10 -82 -4q-24 -2 -73 4t-70 5q-77 15 -111 18 q-1 1 -5 2.5t-5 3.5q-39 3 -61 14q-7 -3 -27.5 -13.5t-30.5 -12.5q-2 0 -2.5 -3t-1.5 -3q-17 -3 -43.5 -18t-40.5 -17q-32 -21 -51 -19q-55 -29 -98 -26q-37 -13 -127 2v6q-8 -4 -11 -2q-21 11 -31 17t-22 20.5t-16 32.5q-3 25 3.5 39t22.5 30h7q2 2 5 7.5t5 7.5 q6 -1 10.5 5t7.5 7q18 7 35 11t47 8t33 5q4 -3 22 -1.5t19 -4.5q3 2 7.5 1.5t10.5 0.5q16 -2 53.5 -7t59.5 -7q2 -1 4.5 -5t5.5 -5q24 -3 43 -7t48 -13.5t40 -12.5q28 13 75.5 40.5t62.5 35.5q19 16 68 47t71 53q8 0 20 9.5t17 9.5q12 12 47 34q1 1 10.5 8.5t15.5 6.5 q2 16 31 20q1 1 2 5t2 5q16 8 41 33q5 2 14.5 7.5t14.5 7.5q13 16 44.5 37.5t43.5 33.5q21 6 33 21q1 1 2 -0.5t2 -1.5q7 11 28.5 26.5t28.5 26.5q8 3 23.5 16.5t29.5 16.5q1 1 2 3q3 3 2 7q55 38 86 72h11q4 4 4 10q8 3 22 15.5t23 12.5q0 10 14 15q2 0 2.5 4t1.5 4 q15 9 40.5 34t41.5 34q4 4 2 8q18 9 45 35.5t45 35.5q0 1 1.5 4.5t0.5 6.5q9 4 24.5 20.5t27.5 20.5q8 12 31.5 31t31.5 36q9 1 18.5 14t18.5 15q0 3 2 7t2 7q29 22 71 75t58 69v8q11 12 19.5 27.5t17.5 36.5t14 30q9 40 -6 74q-22 30 -88 37q-11 -4 -14 0q-5 -2 -19.5 -2.5 t-21.5 -6.5q-25 1 -65.5 -10t-55.5 -12q-13 -7 -38.5 -16t-35.5 -13q-1 -1 -19 -8t-24 -14q-7 2 -15 -3t-13 -3q-5 -7 -24.5 -15t-25.5 -16q-12 -2 -32 -13t-35 -14q-10 -8 -37 -24t-39 -27h-6q-17 -13 -52.5 -37.5t-56 -39.5t-45.5 -41.5t-39 -55.5q0 -27 13 -43 q9 -4 31 -21t40 -22q3 -5 15 -10t14 -11q2 -1 4 0.5t4 1.5q4 -6 21 -13.5t20 -16.5q-4 -1 -16 5.5t-17 12.5q-22 0 -28 12q-8 -3 -20.5 4.5t-24.5 6.5q0 3 -3 5t-3 5q-24 3 -37 22q-37 8 -37 68q1 1 3 4t3 4q7 19 23.5 38t30 29t38.5 27q29 29 49 37q3 8 17.5 15t17.5 14 q5 -2 8.5 0t6.5 6.5t6 5.5q7 6 27 16l22 11q10 6 30.5 18.5t30.5 18.5q4 -1 8 2.5t6 -0.5q23 20 54 26q1 3 22 13q2 1 5 4t5 4t5.5 1t6.5 0.5t5.5 3t3.5 5.5q13 0 29 9.5t24 7.5q4 0 5 4l1 4q6 -2 13.5 1.5t13.5 0.5q9 9 36 18.5t32 12.5q8 0 8 -5q5 2 10 7q16 0 49.5 8.5 t52.5 5.5q7 6 28 5.5t32 0.5q1 -1 5 -2.5t5 -3.5q7 3 17 -1.5t16 -4.5q3 -3 9 -9.5t11.5 -12t10.5 -9.5q1 -2 12 -25q2 -48 -12.5 -91t-33.5 -68t-49 -61.5t-44 -59.5q-4 0 -7.5 -3.5t-7.5 -2.5q-8 -15 -28.5 -35t-26.5 -29q-15 -9 -39.5 -36.5t-42.5 -36.5q-15 -21 -41 -37 q-53 -53 -158.5 -143t-140.5 -122q-3 1 -6 -0.5t-4 -1.5q-76 -70 -152 -118q-1 -2 -3 -5.5t-3 -5.5q-37 -23 -108.5 -78t-112.5 -79q-17 -17 -57 -43.5t-56 -44.5q-5 1 -9.5 -3t-8.5 -3q-37 -33 -70 -48q-35 -32 -71 -45q-15 -14 -47.5 -32.5t-45.5 -28.5zM33 35q0 4 -8 4 q-30 -1 -52 -3.5t-49 -9.5t-45.5 -22t-25.5 -37q-4 0 -6.5 -2.5t-4 -7t-2.5 -6.5q3 -5 6 -16.5t4 -14.5q41 -35 146 -39q2 3 5.5 3t8.5 -1.5t8 -1.5q0 4 2 4q11 0 38.5 6t35.5 7q2 1 4.5 4t5.5 4q1 0 3 -2.5t4 -1.5q10 10 26 10q18 10 70 31.5t74 38.5q-150 56 -248 53z M1729 143q-1 -1 -6 -3t-5 -7q-1 2 -3.5 2.5t-4 -0.5t-0.5 -4q-4 1 -7 -0.5t-7 -1.5q-2 2 -2 8q5 -2 17 2.5t18 3.5z" />
<glyph unicode="[" horiz-adv-x="696" d="M768 1376q-2 -5 -7.5 -7t-15 -2.5t-12.5 -0.5q-34 -4 -70.5 -13.5t-82.5 -23t-72 -20.5q4 -4 8 -23q-18 -108 -49 -209t-83.5 -237t-70.5 -187q-22 -44 -55 -134t-51 -128q-13 -41 -50.5 -143t-60 -179.5t-33.5 -160.5q-2 -24 7 -68l6 -12q5 -8 24 -21q19 -6 56 -2 q13 4 34 10.5t33 10.5q27 14 60.5 27t75.5 28.5t65 24.5q6 -1 29 5.5t26 -1.5q-4 -7 -13.5 -11t-23.5 -8t-20 -6q-20 -8 -63.5 -24t-65.5 -25q-9 -4 -37.5 -17.5t-48.5 -21t-39 -12.5q-37 -8 -72 3.5t-45 39.5q-4 17 -4.5 38t-0.5 37t4.5 41.5t6.5 37.5t10 41t10 35t11 38 l10 31q42 139 136 375t122 315q20 46 52.5 139t46.5 129q42 188 47 222q-4 -1 -16.5 -4t-21 -4.5t-19 -2t-16.5 3t-7 11.5q2 3 6 4.5t7.5 2t11 0.5t12.5 1q41 9 120 29t115 28q22 -3 37 2q33 0 37 -2zM508 1307q-4 0 -4 -2q4 0 4 2z" />
<glyph unicode="\" horiz-adv-x="552" d="M41 1386q2 1 2.5 0t0 -4t-0.5 -4q-4 4 -2 8zM565 -55q-6 2 -13.5 9t-12.5 9q-41 62 -58 80q-40 76 -85 178.5t-66.5 155.5t-75.5 190q-62 177 -113 359q-8 38 -26.5 116.5t-26.5 120.5q-8 25 -21 82t-24 86q-2 5 -7.5 15t-8.5 18t-2 16q1 0 3 2q3 2 3 0h4q6 -3 11 -15.5 t7 -14.5q26 -85 62.5 -246.5t54.5 -226.5q52 -191 149 -439q11 -21 31.5 -74t34.5 -77q4 -16 10 -31t17 -34.5t14 -26.5q26 -66 43 -88q5 -15 12.5 -28.5t19 -31t15.5 -24.5q5 -11 25.5 -37.5t23.5 -42.5z" />
<glyph unicode="]" horiz-adv-x="550" d="M51 -158q18 -1 34.5 -0.5t35.5 -1.5t33 -8q-6 -7 -21.5 -7t-33.5 2t-25 1q-4 -2 -0.5 -10t-3.5 -8q-9 -5 -35 16q-57 -2 -159 -20.5t-118 -20.5q-5 -1 -18 -3t-20.5 -3t-17 -1t-15.5 3t-9 10q3 6 9.5 7.5t17.5 0t12 -1.5q44 1 129 17.5t119 19.5q31 3 64 6q-3 9 -5 20 t-2 25.5v22.5t1.5 25t1.5 20q26 130 63.5 253t101 294.5t84.5 232.5q1 1 5.5 9t7.5 10q15 45 46.5 132.5t49.5 142.5t35.5 139t21.5 163q-4 16 -4 29q-6 8 -22 20q-5 0 -17 -1t-18 -1q-70 -21 -115 -45q-11 -1 -41 -12t-47 -8q1 9 16.5 13.5t18.5 6.5q7 1 20 6.5t23 5.5 q13 6 119 48h45h6q21 -17 27 -29q5 -22 6 -43.5t-3 -50t-6 -42t-10 -50t-10 -43.5q-7 -37 -19.5 -80.5t-20.5 -67t-28 -80t-24 -67.5q-3 -9 -12.5 -27t-12.5 -27q-11 -40 -12 -41q-17 -51 -43 -110q-13 -41 -47.5 -134t-50.5 -147q-17 -41 -42 -123t-38 -116 q-3 -20 -14.5 -66t-17.5 -85t-5 -77q2 -7 5 -21.5t5 -21.5z" />
<glyph unicode="^" horiz-adv-x="655" d="M139 1014q22 36 52 111t61.5 135t71.5 92q11 3 41 0q2 -1 7.5 -5t8.5 -4q34 -53 64 -173t42 -150v-10q11 -17 11 -29q2 -6 12 -35.5t14.5 -41t13.5 -32t19 -36.5q2 -2 7 -4.5t8 -5.5t3 -7q-12 -4 -17.5 -0.5t-14.5 16t-13 15.5v8q-5 4 -10 18.5t-8 18.5q1 3 0 5.5t0 4.5 q-9 16 -19.5 51.5t-19.5 51.5q-11 49 -36 137.5t-34 126.5q-11 15 -22 49q-4 1 -14 10.5t-19 9.5q-8 1 -19 -7t-16 -9q-9 -10 -17 -21t-15.5 -24.5t-13.5 -23.5t-13.5 -27t-11.5 -26t-12 -28.5t-11 -27t-11.5 -29.5t-10.5 -28q-3 -7 -18.5 -34t-16.5 -44q-4 -4 -23 2z" />
<glyph unicode="_" horiz-adv-x="665" d="M496 459q-2 -7 -8 -8.5t-17 0.5t-14 2q-46 0 -170 -13t-189 -10q-2 2 -6.5 3.5t-7 3t-4 5t-0.5 9.5q8 1 28 -3t31 -4q38 -1 169 12.5t188 2.5z" />
<glyph unicode="`" horiz-adv-x="329" d="M236 985q-6 -1 -12.5 2t-15.5 10t-11 9q-4 3 -16 13t-19 13q-5 8 -19 25t-20 30q0 6 5.5 9t10.5 0q7 -9 30.5 -38t37.5 -44q3 -3 11 -7t13 -9t5 -13z" />
<glyph unicode="a" horiz-adv-x="512" d="M141 596q3 -2 5.5 -1.5t7.5 2t8 1.5q20 -14 24 -44t-2 -59t-4.5 -59.5t17.5 -44.5q8 -1 20.5 1t20.5 1q81 36 163 121q23 12 54 47q3 0 6.5 4t7.5 4q26 37 45 37q0 -14 -16 -14q-6 -16 -35 -37q-73 -83 -162 -147q-2 0 -3 -2t-2 -4.5t-3 -4.5q-11 -4 -32 -15t-34 -15 q-8 -1 -19.5 1t-17.5 1q-27 16 -32 58.5t2 82.5q6 12 5.5 34t-9.5 34q-8 -2 -14 -7t-10 -14t-6 -15t-5 -18.5t-4 -17.5q-4 4 -4 11t2 16t2 14q-9 0 -22.5 -12.5t-20.5 -14.5q-25 -36 -58 -59q-21 -32 -47 -49q-1 0 -6 -11q-14 -7 -43 -32q-39 -8 -53 6q-2 3 -5 10t-5 10 q-1 9 3.5 20.5t4.5 14.5t3.5 4.5t4.5 3.5q3 12 15 29.5t16 28.5q10 12 27 37.5t22 33.5q5 6 19 21t20 22q37 47 78 82q42 33 65 39q2 -2 6 -2q18 -9 25 -31q-2 -23 -12.5 -59t-12.5 -43zM150 707q-2 1 -4.5 4t-4.5 4q-42 -7 -92 -62q-4 -5 -29 -30q-15 -17 -41.5 -54 t-41.5 -53q0 -2 -1.5 -6t-1.5 -6q-2 -3 -11.5 -17.5t-13 -20.5t-10 -18t-10.5 -23.5t-6 -23.5q1 -1 11 -6q19 3 38 14t28.5 19.5t27.5 26.5q7 7 35 34t43 43q7 2 14.5 11.5t9.5 11.5q21 8 35 33q6 -2 10 2q0 3 -4.5 5.5t-3.5 6.5q23 51 23 105z" />
<glyph unicode="b" horiz-adv-x="579" d="M-102 137q4 3 6 8t4.5 12.5l3.5 10.5q10 17 10 31q7 8 15.5 30.5t15.5 30.5q2 19 20 37v12q2 3 10 14t9 19q4 4 14 21t19 22q4 21 26.5 48t28.5 42q12 11 36 39t40 41q1 -3 -0.5 -8.5t-1.5 -7.5q-21 -17 -42 -43t-45.5 -60.5t-37.5 -50.5q1 -8 -5.5 -16.5t-11.5 -8.5 q-1 -2 0.5 -5t1.5 -5q-6 -5 -12 -18.5t-12 -16.5q-4 -23 -24 -61t-23 -61q-2 -2 -4.5 -7.5t-4.5 -7.5v-10q-5 -13 -21 -59t-26 -68q-3 1 -8 3t-8 3q-1 4 -2 15t-2 16q0 6 4 14q0 44 27 168q5 31 21 84t22 82q7 16 19 58t22 61q3 30 16 53q-1 4 0.5 9.5t-0.5 6.5q-9 0 -18 9 q2 6 6.5 12t8 9.5t11 9.5t10.5 8q9 16 24.5 62t29.5 67q-3 9 0 12q11 22 30 76.5t33 78.5q4 17 20 47t19 52q18 18 21 43q11 12 24.5 45t26.5 45q1 10 9 23t9 22h6q3 22 23 39q7 18 17.5 35t27.5 40t24 33q22 18 44 2.5t16 -43.5q-2 -7 -11.5 -30.5t-11.5 -40.5 q-8 -5 -14 -25t-14 -24q-14 -47 -35 -68q-20 -44 -65 -117.5t-62 -107.5q-34 -37 -55 -86q-6 -1 -10 -10t-9 -9q-5 -15 -22 -41.5t-21 -44.5q-34 -36 -57 -90t-44 -128.5t-36 -110.5q-22 -85 -47 -193q0 -13 -5 -37.5t-3 -40.5zM96 791q17 17 41.5 60t42.5 60q0 6 4 13.5 t4 13.5q8 5 17.5 22.5t17.5 22.5q10 22 36 62.5t36 64.5q8 5 16 24.5t17 24.5q2 5 6 17t9 21t13 13q4 16 26 67t21 87q-3 1 -6 6t-6 6l-4 -4h-10q-2 -5 -12 -12q-123 -170 -177 -313q-13 -20 -31 -63.5t-28 -61.5q-8 -32 -32.5 -93.5t-33.5 -91.5q26 26 33 54zM338 649 q2 -5 6 -14t6 -14q-3 -29 -14 -57.5t-22 -45t-31.5 -43.5t-28.5 -39q27 4 106 45h11q135 77 149 86q11 10 38.5 33t41.5 37q4 -14 -16.5 -28.5t-22.5 -22.5q-14 -7 -37.5 -27.5t-40.5 -26.5l-12 -12q-2 0 -6.5 -1.5t-7.5 -0.5q-15 -16 -33 -18q-19 -15 -59.5 -34.5 t-55.5 -29.5q-89 -24 -123 -74q-22 -11 -73 -55q-2 0 -5 1t-4 1q-5 -8 -14 -12.5t-24 -8.5t-23 -7q-3 0 -8 2t-8 2q-1 2 -2 5t-2 5q1 5 7 12t7 12q5 3 20.5 14.5t22 16t21 13.5t24.5 14t24 11t27 9q1 1 6 4t6 7q9 0 11 -2l18 12q31 36 49 59.5t39 61.5t33 77q-1 6 -3 10.5 t-6.5 7.5t-7 5t-9 4.5t-7.5 3.5q-2 0 -4.5 -3t-5.5 -3q-1 4 4 14q12 1 15.5 0.5t10.5 -3t13 -3.5zM176 381q-32 -10 -76 -41q-32 -13 -47 -37q11 3 20.5 6.5t20 10t17 10t18 12.5t15 12t17 14.5t15.5 12.5q4 0 4 2q-4 0 -4 -2zM281 643q0 -3 -1.5 -3.5t-3.5 0t-3.5 -1 t-0.5 -5.5q-2 0 -4.5 1t-3.5 1q-1 -5 -10.5 -9.5t-11.5 -9.5q-4 0 -6.5 -1t-5.5 -2.5l-5 -2.5q-3 -6 -13.5 -14.5t-12.5 -13.5q-9 0 -16.5 -9t-12.5 -10q0 -6 -2 -8h-12q5 12 22.5 26t22.5 23q2 0 4 -1.5t4 -0.5q2 2 5.5 6t5.5 6.5t5.5 5.5t6 3t6.5 -2q1 1 4.5 5t6 6.5 t6.5 6t7 5t6.5 3t7 0.5t5.5 -4z" />
<glyph unicode="c" horiz-adv-x="276" d="M100 627q-3 9 0.5 24t5 22.5t-7.5 16.5q-24 -9 -45 -27.5t-32.5 -33.5t-30.5 -43q-22 -24 -34 -41.5t-23 -47.5t-11 -65q6 -19 25 -35q41 -7 102 23q3 1 12 10q13 2 32.5 16.5t33.5 14.5q-10 -16 -27.5 -29t-41.5 -26t-35 -21q-8 -2 -22.5 -7.5t-23.5 -6.5q-38 -3 -60 22 t-17 60q2 13 6.5 26t10.5 27.5t9 21.5q18 18 37 56q10 10 33 39t43.5 50.5t40.5 31.5q33 17 39 -16q7 -31 -13 -56z" />
<glyph unicode="d" horiz-adv-x="583" d="M469 1274q16 -16 8 -53q-6 -40 -6 -41q-18 -58 -18 -64q-3 -6 -33.5 -72t-52.5 -94q-9 -29 -39.5 -72.5t-40.5 -68.5q0 -2 -6 -2q-12 -28 -23 -35q-16 -40 -39 -63q0 -5 -3.5 -10t-4.5 -7q-49 -47 -35 -203q21 -84 94 -90q22 3 88 27q21 16 55 41t54 41q3 1 8 12 q10 3 23 17.5t22 17.5q14 25 45 39q17 31 41 39q-1 -4 -5 -10.5t-5 -10.5q-9 -4 -22.5 -21t-26.5 -20q0 -4 -4 -8t-4 -8q-37 -26 -56 -53q-18 -13 -52 -43.5t-64 -49.5t-68 -28q-48 -12 -90 18q-45 34 -55 129q2 29 2 78q-3 0 -9.5 -7.5t-7.5 -14.5q-8 -4 -10 -6 q-5 -8 -19 -27t-20.5 -28.5t-19 -26t-21.5 -27t-21 -23t-24 -22.5q-28 -41 -84 -51q-4 4 -14.5 10t-14.5 10q-4 12 -4 24.5t1.5 19.5t5 21t4.5 21q6 6 10 8q5 13 11 26t15.5 26.5t15.5 21.5t18.5 23.5t17.5 21.5q12 7 34 29q7 0 16.5 4t10.5 4q10 0 17 -5t11.5 -10.5 t7.5 -16t4 -18t2.5 -21t2.5 -19.5q15 14 36 45t34 43q5 18 19.5 78t26.5 97.5t28 70.5q6 31 34 86q0 3 2 8.5t2 9.5q3 3 9 14.5t12 14.5q17 67 61 127q39 79 76 106q2 2 4 8t2 7q30 6 31 6zM291 831q1 9 9 21.5t9 21.5q15 14 34 50.5t32 50.5q7 15 26 57t28.5 64t21.5 58.5 t18 70.5q-1 4 -1 12.5t-1 13.5q-3 0 -4 1t-1 2.5t-1 2.5h-8q-25 -21 -46.5 -51.5t-44.5 -74t-36 -62.5q-1 -3 -16.5 -38.5t-18 -41.5t-16 -38t-17 -43t-14.5 -39t-15.5 -44t-12.5 -41t-13 -47t-10 -45q17 20 47 68.5t51 70.5zM-57 397q17 17 30 19q3 3 8.5 9t9.5 10t9.5 8.5 t11.5 7.5q7 10 33.5 40.5t36.5 51.5q-9 60 -19 75q-8 8 -34 0q-72 -64 -95 -106q-51 -92 -14 -119q4 0 11 2.5t12 1.5z" />
<glyph unicode="e" d="M129 721q3 -5 8 -19q1 -4 0 -7t-2.5 -4.5t-5 -4.5t-4.5 -4q-5 -16 -10 -23q-1 -1 -6.5 -2.5t-6.5 -3.5q-2 -2 -5 -7t-5 -7q-3 -4 -8 -8.5t-12.5 -9t-10.5 -7.5q-23 -23 -43 -32q-6 1 -10.5 0t-8 -1t-5.5 3q-42 -44 -45 -129q0 -12 6 -15q1 -29 30 -45t64 -14q3 -1 7 0.5 t5 1.5q24 0 58.5 14.5t48.5 16.5q8 4 14 10q35 13 68.5 33t72 46.5t60.5 39.5l12.5 12.5t15.5 14t15 8.5q4 8 19.5 17t19.5 17q7 0 15 7.5t12 7.5q-1 -15 -17.5 -27t-19.5 -18q-4 0 -9.5 -4.5t-9.5 -4.5q-26 -27 -60.5 -52t-81 -53.5t-69.5 -45.5q-49 -20 -75 -37 q-16 -3 -42 -13.5t-36 -13.5q-56 -6 -94.5 17.5t-45.5 68.5q1 6 0 17t0 18q3 19 9.5 39t12.5 33t16.5 34l15.5 31q1 2 5 3t5 2q37 47 96 96q3 1 11.5 3t12 2t13.5 -1zM84 690q-4 -4 -18 -15.5t-20 -17t-16 -15.5t-17 -19.5t-13 -20.5q17 -1 34 12t21 15q27 27 39 33 q2 10 14 21.5t13 21.5q-10 1 -20.5 -6.5t-16.5 -8.5z" />
<glyph unicode="f" horiz-adv-x="507" d="M-41 352q13 1 32 12.5t32 14.5q4 2 14.5 10t20 13t18.5 6q13 10 43 25.5t43 25.5q2 0 5.5 1t6.5 1q5 5 18.5 12t18.5 12q16 0 51 25q26 8 79 34.5t81 33.5q-6 -11 -32.5 -20t-33.5 -17q-35 -14 -100 -49q-5 0 -13 -4t-12 -5q-2 -1 -7.5 -5t-9 -6t-8.5 -4t-9 -1 q-1 -1 -2 -4t-2 -4q-23 -9 -66 -34.5t-68 -33.5q-16 -14 -52.5 -33.5t-51.5 -31.5q-30 -112 -33 -136q-13 -52 -14.5 -107t16.5 -103q8 4 17 0q0 -20 -11 -25q-8 -2 -12.5 0t-9.5 10.5t-6 9.5q-2 12 -7 33t-8 38.5t-2 35.5q0 3 2.5 6.5t3.5 5.5l-2.5 17.5t4 17l5.5 16.5 q4 18 10 55.5t12 65t14 49.5q-17 -2 -43 -24q-16 -3 -37.5 -16t-33.5 -17q-2 -1 -6 -4.5t-7 -5.5q-6 -2 -30.5 -12.5t-34 -14t-31.5 -11.5t-35.5 -10.5t-32.5 -5t-36 -1.5q0 4 -2 4q1 7 6 10t6 6q55 3 119.5 26t101.5 42.5t103 58.5q0 10 7.5 29t8.5 24v13q1 2 4 6t4 6 q2 7 5 24.5t5 24.5q4 17 18 58.5t19 64.5q-29 14 -32 26q-1 28 13.5 41.5t43.5 22.5q0 -12 -21.5 -26.5t-17.5 -28.5q1 -7 11 -9.5t14 -5.5q69 203 88 256q2 4 7.5 8t6.5 5q0 3 -2 8t-2 8q7 15 23.5 60t29.5 65q6 22 23.5 61t23.5 62q5 6 15.5 30.5t21.5 32.5v15 q10 10 12 24q13 21 38.5 65.5t42 70.5t44.5 57t60 49q20 3 30 2q8 -8 17 -10q0 -2 4 -6q6 -17 3.5 -42t-7 -40.5t-11.5 -40t-10 -39.5q-12 -22 -31 -70t-30 -70l-10 -10q-10 -35 -41 -89t-39 -71q-4 -1 -8.5 -7t-8.5 -7q0 -3 1.5 -5.5t0.5 -4.5q-19 -29 -22 -41 q-2 -1 -5.5 -5t-6.5 -5q-2 -13 -15 -31.5t-16 -30.5q-16 -22 -41.5 -66t-36.5 -61q-70 -102 -139 -143q-10 -36 -36.5 -116t-37.5 -126zM455 1470q-1 -1 -13.5 -12.5t-23.5 -13.5q-4 -7 -21 -27.5t-22 -34.5q-20 -18 -45 -62t-39 -60q-21 -58 -53 -111q-13 -35 -52.5 -128 t-56.5 -147q0 -4 -3.5 -5t-4.5 -5q-5 -25 -22.5 -73.5t-22.5 -73.5q-3 -11 -17.5 -42t-13.5 -50q15 9 37 32.5t35 32.5q8 16 34 49.5t35 57.5q9 7 22 32.5t25 32.5q0 9 3 15q12 15 30.5 48.5t22.5 39.5q2 0 4 2t4 2q2 7 8 19.5t8 19.5q10 11 26.5 44.5t31.5 45.5q0 4 1 9.5 t1 8.5q18 30 34.5 65.5t36 83.5t29.5 70q1 13 6.5 33t9.5 35.5t4 34t-8 32.5q-5 1 -14.5 0t-15.5 0zM618 659q5 0 5 -8q-8 -4 -17 -4q0 4 5.5 6.5t6.5 5.5zM600 651h2v-8h-2v8zM592 645q-7 -10 -33.5 -19t-34.5 -16q-2 1 -5 0.5t-5 -0.5t-2 2q-1 -3 -3.5 -5.5t-7 -4t-7 -2 t-9.5 -1.5t-8 -1q-25 -18 -53 -20q8 10 36 20t36 18q20 1 50.5 14t45.5 15z" />
<glyph unicode="g" horiz-adv-x="665" d="M229 240q25 17 74.5 63.5t75.5 63.5q12 19 63 59q90 85 238 199q7 14 20 16q-2 -9 -7 -16t-15 -15t-12 -10q-38 -31 -39 -33q-6 -2 -14 -10t-13 -10q-29 -26 -84.5 -73.5t-75.5 -65.5q-17 -16 -49.5 -44t-58.5 -51.5t-47 -46.5q-9 -4 -22.5 -17.5t-18.5 -17.5 q-1 -3 -4 -7t-4 -5q-2 -2 -8.5 -4t-8.5 -4q-22 -66 -70.5 -179t-64.5 -155q-20 -25 -33 -70q-16 -27 -57.5 -108t-69.5 -121q-5 -17 -22 -43.5t-23 -42.5q-82 -112 -125 -151q-14 -7 -22 -15q-3 0 -12 -1t-11 1q-11 4 -16.5 10.5t-7 17t-1 18.5t3 23.5t3.5 22.5 q36 124 137 299q1 2 3.5 1t4.5 1q17 43 70 117q7 16 24 38t23 34q2 4 10 8q9 20 32.5 49t31.5 45q1 1 4 2t4 2q6 15 24 29q16 25 36 49.5t47.5 55.5t39.5 45q8 3 15 10q62 138 102 334q18 75 14 127l-6 12q-6 2 -14 10q-9 -1 -17 -4t-17.5 -7.5t-14.5 -6.5q-26 -26 -47 -31 q-4 -8 -10.5 -14t-18.5 -14t-14 -9q-6 -11 -22 -45.5t-24.5 -51t-23.5 -41t-29 -42.5q9 32 35.5 78.5t34.5 70.5q-17 -12 -54.5 -41t-69 -51t-62.5 -39q-38 -15 -56 8q-3 17 3 33.5t19 36.5t17 27q2 2 5 2t5 2v5t2 3.5t3 3.5q2 2 7.5 9t8.5 10q9 7 32 31.5t38 35.5q2 2 11 9 l13.5 10.5t13 10t14.5 9.5l14 7t15 5t13 0q44 -6 41 -69q14 8 43 31.5t53 35.5t49 8q5 -2 9 -5t8.5 -8.5t5.5 -6.5q6 -27 6 -57q-27 -167 -103 -385zM-86 451q41 17 76.5 40.5t82 61.5t64.5 51q12 46 -8 66q-6 5 -23.5 2t-21.5 -2q-83 -64 -100 -80q-9 -15 -31 -39 t-36 -46.5t-17 -49.5q10 0 14 -4zM100 86q-7 -22 -31.5 -50t-31.5 -40q-5 -1 -10 -10t-11 -11q1 -2 -1.5 -6t-2.5 -8q-14 -8 -20 -27q-3 -1 -7.5 -5t-7.5 -5q-7 -22 -28 -43q-23 -37 -69 -107.5t-68 -107.5q-3 -20 -21 -35q-6 -27 -29 -57q0 -17 -16 -33q-2 -17 -13 -43 t-14 -35q-1 -11 -5.5 -28.5t-7.5 -30.5t-1.5 -28t10.5 -25q22 4 41 18t27.5 24.5t26.5 35.5q2 -1 3.5 1t4.5 1q16 23 51.5 80t56.5 86q13 27 63.5 124t80.5 162t55 135q14 17 29.5 60t23.5 57q1 9 8 23.5t9 21.5q-3 2 -5 0q-9 -10 -25.5 -31t-32 -36.5t-32.5 -26.5z" />
<glyph unicode="h" horiz-adv-x="645" d="M-94 233q7 5 12 12t11.5 22t7.5 16q2 5 8.5 15.5t11 19.5t6.5 18q9 8 21 32.5t22 32.5q8 24 31.5 60t30.5 51q10 6 18 29q12 13 39 46.5t50 54t50 32.5q6 -3 15 0q12 -8 20 -12q9 -25 14 -71t13.5 -82.5t29.5 -55.5q6 -3 17 -11.5t16 -11.5q17 0 24.5 -1t24.5 5.5t23 9 t22 11t21 10.5q2 2 11 10.5t16 13t14 7.5q18 17 64 55.5t69 62.5q6 2 19.5 15.5t23.5 13.5q-8 -21 -20 -25q-86 -98 -220 -188q-10 -1 -25.5 -7.5t-21.5 -8.5q-23 -4 -35 -2q-102 20 -106 188q-1 5 -2 15.5t-2.5 17t-4.5 13t-9 9.5q-20 -4 -35.5 -14.5t-31 -28t-24.5 -24.5 q-10 -13 -33.5 -44.5t-37.5 -47.5q-3 -5 -35.5 -66t-52.5 -90q-1 -3 -8 -20.5t-9.5 -22.5t-9 -20t-10.5 -22t-10.5 -18t-13 -19.5t-13.5 -16.5q-3 2 -7.5 2.5t-7 1t-3.5 2.5q-3 1 -4.5 3t-3.5 5.5t-3 5.5q6 74 27 125v14q3 8 23.5 69.5t35.5 90.5q12 46 33 84q-1 3 0.5 7.5 t1.5 6.5q0 4 -6.5 7t-7.5 6q2 4 18 20q5 11 33 61t37 81q3 0 4.5 5t5.5 5q7 39 39 84q0 4 2 9t2 9q6 6 14.5 23t14.5 24q2 12 7 23.5t9 18.5t12 19t11 17q6 30 24 45q1 -9 -3 -22.5t-5 -18.5q-82 -153 -123 -250q13 8 33.5 39.5t36.5 40.5q1 2 -0.5 4.5t-1.5 5.5 q30 36 59.5 76t68.5 95.5t56 78.5q28 47 53 76q-1 3 0.5 6t1.5 4q8 10 25.5 41t30.5 45q5 18 23 56t22 63q3 16 -11 23q-4 -2 -16 -6q-56 -52 -80 -97h-8q-1 -8 -8.5 -20t-9.5 -19h-7q-7 -21 -30 -53.5t-29 -54.5q-4 -2 -8 -9.5t-8 -9.5q0 -1 -1.5 -5t-0.5 -7 q-9 -8 -16 -20.5t-14.5 -28t-12.5 -23.5q-12 4 -7 17.5t13 17.5q0 7 5.5 15t6.5 12q4 3 8 12.5t8 11.5q2 16 20.5 41t22.5 41q9 9 11 9q7 20 20 41.5t32 47.5t28 40q5 1 10 8t10 8q1 8 8.5 16t9.5 13q4 1 17 11.5t29 8.5q3 -2 10 -5t10 -5q4 -17 3.5 -25t-6.5 -25t-7 -24 q-2 -1 -4 -4.5t-4 -5.5q-24 -70 -84 -156q-9 -22 -34 -56t-32 -46q0 -2 -8 -6q-8 -22 -32.5 -53.5t-31.5 -45.5q-1 -1 -4.5 -3.5t-5.5 -2.5q-16 -35 -57 -80q-46 -73 -86 -118q-7 -16 -32.5 -49t-33.5 -58q-36 -76 -76 -194q-5 -5 -6 -5q-7 -27 -24.5 -77t-28 -91.5 t-12.5 -87.5zM86 770q2 0 3.5 2.5t1.5 5t-1 2.5q-4 -4 -4 -10z" />
<glyph unicode="i" horiz-adv-x="368" d="M72 930q3 -28 -17 -31q-4 12 -1.5 25.5t18.5 5.5zM29 629q-2 -2 -13 4q-47 -76 -69 -158q0 -33 22 -55q18 -6 33 -12q37 4 70.5 17.5t72 35.5t60.5 31q148 111 190 137q-8 -18 -33 -29q-132 -120 -294 -197q-5 -2 -18.5 -5t-18.5 -5q-7 -1 -16.5 -2t-16.5 -2q-2 0 -6.5 1 t-7.5 1l-8 3q-9 4 -15 5q-28 24 -33 54q0 47 21 94q4 8 12 24.5t12 24.5q6 13 43 66q17 -7 13 -33z" />
<glyph unicode="j" horiz-adv-x="378" d="M186 913v-10q-70 -3 -118 -41q-2 -2 0.5 -6t1.5 -8q-3 1 -4 0t-1.5 -3t-1.5 -3q-15 5 -26 20q6 8 14 15t15 11.5t19.5 10t19 7.5t22 7t20.5 7q6 -2 18.5 -3t20.5 -4zM-49 338q10 3 30 18t33 19q39 31 105 67q77 54 125 80q4 6 17.5 14.5t17.5 14.5q7 4 12 2 q14 13 44.5 34t43.5 34q3 0 6 -3q21 21 29 21q1 -7 -10 -15.5t-13 -11.5q-15 -10 -58.5 -42t-70.5 -46q-33 -24 -43 -26q-136 -96 -213 -140q-28 -25 -63 -43q-127 -380 -346 -616q-8 -4 -13 -4q-17 -21 -44 -43.5t-41.5 -32.5t-51.5 -35q-10 -2 -28 -12.5t-31 -9.5 q-35 -25 -84.5 -12t-55.5 55q-3 29 0.5 55.5t15 52.5t20 42t27 44t25.5 39q12 13 41.5 46.5t45.5 51.5t42.5 43t51.5 44q27 26 60.5 53t76 59t65.5 51q2 0 4 -1t3 -1v6q1 0 3.5 1t4 1t2.5 -2q27 34 65 48q10 11 37.5 26t36.5 27q10 1 22 11t21 11q18 35 39 109.5t29 97.5 q1 19 10.5 58t7.5 63q16 21 27 8q1 -2 2 -8.5t2 -9.5q-38 -161 -84 -293zM-92 293q-201 -130 -275 -189q-6 -3 -8 -2q-3 -6 -14 -14t-14 -14q-34 -24 -68 -54.5t-73 -69t-62 -59.5q-14 -23 -62 -79q-2 -3 -13 -21t-14 -23.5l-12 -22t-12.5 -25.5t-9 -24t-8.5 -29t-4 -29 q2 -4 1.5 -15.5t0.5 -17.5q11 -21 12 -31q5 -4 10.5 -7.5t10 -5.5t11.5 -3.5t11.5 -2t12.5 0t11.5 0.5t13.5 1.5t12.5 2t13 2.5t12.5 2q3 7 10 10q15 2 37 18t37 17q9 14 18 14q5 13 26 26.5t27 24.5q4 0 8.5 4.5t8.5 4.5l54 63t54 64q8 19 34 52t34 56q1 0 3 1t3 1 q2 10 23 41q2 4 14.5 29.5t21.5 34.5q1 10 11 28t12 31q33 57 84 209h-4z" />
<glyph unicode="k" horiz-adv-x="405" d="M309 1040q-1 7 9 20t10 21q2 2 8 2q1 1 4.5 10.5t5.5 12.5t6 9.5t8 10.5t9 7q37 66 73 118q34 69 54 95q3 10 17 40t17 46q6 12 4 27t-14 18q-13 -2 -28 -15t-23 -16q-94 -107 -127 -164q-142 -227 -274 -577q4 -2 5.5 0.5t3 8.5t1.5 7q9 8 23.5 27.5t23.5 27.5 q5 15 23 36.5t24 35.5q4 4 10 4q12 40 33 49q1 -7 -6.5 -17.5t-7.5 -17.5q-5 -4 -13 -16.5t-16 -15.5q-5 -16 -23 -39.5t-24 -38.5q-10 -16 -16 -17q-8 -17 -31 -46t-31 -44q-4 -14 -16 -45t-17 -49q98 79 136 104q4 -1 8.5 0.5t9.5 3.5t8 3q5 0 11 -2t10 -2q15 -11 17 -38 t-13 -38q-1 4 -1 26t-7 29q-20 12 -66 -16l-3 -5q-3 -5 -5 -6t-7 -2t-6 -2q-3 -2 -6.5 -6.5t-7.5 -7.5q-4 -4 -4 -8q-4 -3 -11 -7t-11.5 -7t-9.5 -7.5t-7 -9.5q-2 1 -5.5 -0.5t-4.5 -1.5q-2 -2 -5.5 -4.5t-6 -4.5t-4.5 -6t-3 -8q-6 2 -9.5 -2.5t-8.5 -3.5q-8 -24 -24.5 -66 t-28.5 -76.5t-21 -64.5q41 8 90 50q27 9 76 36t76 35q2 2 7 6.5t7 6.5q21 0 45 16q13 3 25.5 7.5t26.5 11t24 10.5q25 3 71 15.5t73 16.5q0 -3 4 -3.5t4 -2.5q-1 -6 -13 -7.5t-14 -6.5q-44 -6 -101.5 -26t-78.5 -25q-71 -28 -190 -94.5t-144 -79.5q-11 -30 -32 -82t-29 -74 q-14 0 -21 10q3 9 24.5 55.5t26.5 77.5q-20 -10 -48.5 -5t-29.5 28q-1 10 5.5 22.5t15.5 18.5q24 50 59 90.5t90 91.5q17 50 33 88q-18 -9 -35 -4q-6 17 -4 19q4 2 9 0t10 0q8 3 19.5 13.5t15.5 12.5q14 31 51 125.5t61 142.5q20 54 65 142.5t60 122.5q1 1 4.5 3.5t5.5 2.5 q11 41 39 69q9 17 18 32.5t21.5 33.5t20 28.5t25 31t22 26.5t25.5 30t24 27q7 2 23 13.5t26 11.5q7 2 14 0q22 -9 15 -45q-23 -70 -56 -131t-91.5 -149t-73.5 -113q-6 -2 -15 -11zM-84 436q-10 -16 -32.5 -41.5t-36.5 -49t-17 -50.5q7 -6 16.5 -7t15.5 0.5t19 5.5t17 5 q9 19 19 44t16 42.5t15.5 47.5t14.5 44q-9 -5 -23.5 -20.5t-23.5 -20.5zM297 1032q4 -1 4 -5.5t-2.5 -8t-5.5 -2.5q-2 5 1.5 8.5t2.5 7.5zM287 1006q3 -13 -11 -17q-3 -15 -18.5 -35.5t-19.5 -33.5q-8 0 -12 -10t-7 -11q-3 10 7.5 28t21.5 21q-1 8 5 16t7 13q1 0 2.5 -1 t3.5 -1q1 2 2 6.5t2 6.5l3 6t3.5 6t4.5 4t6 2z" />
<glyph unicode="l" horiz-adv-x="573" d="M616 649q-25 -28 -81 -92.5t-88.5 -100.5t-82 -87t-97.5 -91t-99 -75q-4 -1 -30.5 -12t-43.5 -13q-8 4 -28 4q-125 28 -111 217q17 151 64.5 281.5t127.5 292.5q1 3 3.5 10t3.5 10q22 22 24 49q110 200 162 275q41 60 82 106q3 1 7 4.5t8 5.5t9 1t9.5 -4.5t7 -6t7 -9 t5.5 -7.5q1 -14 -2.5 -27.5t-3.5 -21.5q-11 -36 -25 -71.5t-33 -74t-31.5 -62t-38 -69.5t-34.5 -63q-1 -3 -9.5 -16t-10.5 -21q-13 -16 -43 -70q-11 -9 -20.5 -22t-20 -31.5t-15.5 -26.5q-32 -39 -55 -79q-92 -120 -121 -152q-26 -112 -28 -133q-11 -74 -11 -82 q-7 -173 115 -186q9 4 31 9t31 9q9 5 26.5 15.5t26.5 15.5q27 21 58 48t49.5 44.5t55.5 54.5t50 49q122 132 149 160q4 4 13.5 16.5t18.5 20t19 8.5zM442 1411q-17 -11 -20 -12q-178 -221 -330 -578q-2 -3 -5 -0.5t-5 0.5q4 -4 4 -14q-49 -117 -63 -176q5 7 15.5 22.5 t19.5 26.5t20 18q28 48 86 121q0 4 4 12q26 36 51 75t62.5 99.5t48.5 77.5q14 33 45 92t52 110t30 106q-2 3 -3 10.5t-3 9.5q-2 -1 -4.5 0t-4.5 0z" />
<glyph unicode="m" horiz-adv-x="737" d="M193 422q11 0 22.5 11t17.5 13q7 8 52.5 65.5t74.5 82.5q3 8 9 15t15 15t13 13q5 0 8 -6.5t5 -7.5q0 -24 -19 -80.5t-14 -89.5q10 -14 20 -21q22 -4 30.5 -3t27 8t28.5 9q15 8 29.5 16.5t31 19.5t26.5 18.5t29 21.5t25.5 19t28 21.5t25.5 19.5q3 1 8 7.5t12 6.5 q1 2 4.5 5.5t4.5 6.5q8 1 21 13.5t24 11.5q1 -7 -6 -14t-15 -9q-14 -16 -32 -32.5t-31.5 -27t-37 -28t-34.5 -26.5q-87 -61 -132 -79q-13 -5 -26 -9q-27 -3 -57 12q-1 1 -3.5 4t-4.5 5t-6 3q-5 15 -11 21q-3 30 12 77.5t17 65.5q-7 -2 -15.5 -13.5t-15.5 -13.5 q-19 -27 -56.5 -72.5t-53.5 -68.5q-33 -28 -39 -31q-24 -4 -37 16t-11.5 45t9.5 46q-2 21 7.5 57.5t10.5 48.5q4 5 7 21t8 20q-6 10 4 31q0 3 4 25.5t2 39.5t-14 25q-2 1 -4.5 -0.5t-4.5 -1.5q-7 -3 -16.5 -13.5t-17.5 -13.5q-187 -224 -287 -448q-3 -1 -11 4t-10 6 q16 53 59 135.5t56 114.5h8q0 3 -1.5 5t-0.5 5q10 12 27 49.5t31 51.5q10 -3 13.5 -15t-1.5 -24q-5 0 -5 7.5t-1 8.5q-12 -13 -27.5 -45t-24.5 -43q-2 -12 -12.5 -31t-11.5 -28q5 8 33.5 49.5t38 54.5t34 47.5t39.5 52.5t37 42.5t43 43.5q5 0 15 5q7 -1 14.5 -7.5t9.5 -7.5 q15 -53 -7.5 -153.5t-23.5 -114.5q-3 0 -3 -5t-3 -5q2 -12 0.5 -24.5t1 -28t11.5 -23.5z" />
<glyph unicode="n" horiz-adv-x="368" d="M215 455q-3 -3 -10 -1.5t-9 3t-8 5.5t-8 5q-12 16 -17.5 43t-6 44t-0.5 54q0 45 -11 56q-4 1 -8 -2t-6 -3q-36 -39 -85.5 -126t-59.5 -103q-11 -33 -41 -57q-4 1 -9 5t-10 5q0 6 -4 8q14 52 45.5 141.5t42.5 126.5q17 -7 19 -6q0 -7 3.5 -21t4 -21.5t-5.5 -18.5 q-2 2 -4.5 12t-8.5 12q-7 -16 -22.5 -68t-30.5 -75q2 -7 -1.5 -14.5t-2.5 -14.5q0 -3 -3.5 -9t-2.5 -11q5 2 8.5 5t6.5 8t5 8.5t5 11t4 10.5q28 39 39 68q4 0 7 6t7 6q25 56 76 121q6 0 14 12q4 0 8 4h2h15q12 -6 17 -21t5.5 -27.5t-1 -37t-1.5 -33.5q1 -5 4 -24.5t4.5 -27 t6.5 -20t12 -20.5q2 -2 5 -3.5t5.5 -3t4 -4.5t1.5 -7z" />
<glyph unicode="o" horiz-adv-x="378" d="M29 678q9 11 22 -2q-12 -8 -14.5 -21.5t0.5 -37.5t2 -37q2 -2 8.5 -4t7.5 -5q68 -11 142 -4q30 15 51 8q2 2 7 4.5t7 6.5q15 -2 39.5 9.5t36.5 12.5q10 6 29.5 16.5t29.5 16.5q5 -10 4 -12q-183 -110 -362 -74q-4 -3 -4 -20q-4 -11 -17 -64.5t-26 -73.5 q-9 -14 -25.5 -19.5t-29.5 7.5q-8 19 -5 43t15 39q1 25 17 63.5t20 57.5q-5 7 -16.5 19t-19.5 21t-16.5 22.5t-12.5 25.5t-3 27t8 30q31 20 62 -0.5t43 -54.5zM18 655q-3 22 -30 62q-39 22 -56 0q-4 -22 2.5 -39t22.5 -37t20 -27q18 -6 19 -6q2 10 11 25.5t11 21.5zM8 600 q1 -3 15 -12q0 30 -5 37q-8 -17 -10 -25zM-27 526q-2 -13 -11 -44t-11 -50q1 -8 0 -15.5t1 -14.5t7 -9q44 54 61 172q-4 4 -22 13q-1 -3 -10 -23.5t-15 -28.5z" />
<glyph unicode="p" horiz-adv-x="327" d="M84 596v2h6q24 36 86 43q5 -3 14 -5t15 -5q3 -3 14 -25q5 -28 -10 -67q-17 -44 -21 -52t-10 -16t-14.5 -17t-11.5 -12q-4 -4 -9.5 -13.5t-5.5 -10.5q-3 -3 -10 -8.5t-10 -8.5q-1 -1 -8 -9.5t-11 -10.5q-2 -2 -14 -8q0 -1 -2 -6t-4 -7q-4 -4 -18.5 -11.5t-18.5 -14.5 q-3 1 -7 -0.5t-5 -1.5q-4 -1 -13 -15q-60 -33 -122 -47q-1 -2 -11 -12v-2h-2q2 -14 -8 -40.5t-12 -39.5q0 -6 -4 -2q-1 2 -2 2q-3 -8 4 -10q-7 -16 -17 -57t-20 -58q4 4 -2 4q-2 -1 2 -4l2 -2q-4 -24 -20.5 -88t-20.5 -98q-23 -70 -29 -105q-2 -2 -4 -14.5t-8 -15.5 q-1 -24 -16.5 -71t-16.5 -67q-7 -4 -10.5 -18t-11.5 -16q-5 -1 -9 1t-7 6t-5 5q0 7 -4 15.5t-4 10.5q-3 2 -1.5 45t1.5 44q1 0 2 3t2 3q-1 33 13 87.5t16 67.5q4 8 9.5 38.5t14.5 43.5q-1 1 -0.5 6.5t0.5 6.5q6 15 16 47.5t19.5 57.5t20.5 44q6 45 28 70q1 3 -0.5 7t-1.5 5 q28 47 47 98q-4 4 -14 9.5t-14 9.5l-3.5 10.5t-3.5 11.5t-2.5 11t-1 11.5t2 9.5t4.5 9q0 12 7 24.5t15 12.5q-20 -61 -9 -81q8 -13 25 -17q10 8 24 31.5t22 31.5q30 76 36 113q19 50 51 145t40 117q3 -1 6.5 -4.5t7.5 -1.5q-1 -7 -4 -25.5t-4.5 -26.5t-5.5 -21t-9 -22 t-12 -16q-7 -27 -26.5 -77.5t-26.5 -77.5q8 5 25 28t28 27q6 17 27.5 36t27.5 29q1 0 3 -1t3 -1q3 4 10.5 11.5t10.5 11.5zM18 342q61 46 113 98q25 42 43 56q2 7 11 28.5t12.5 34t2.5 30.5t-12 32q-25 5 -44.5 -2.5t-46.5 -29t-31 -24.5q-8 -11 -30.5 -33.5t-31.5 -39.5 q-15 -12 -35 -42t-32 -42q-8 -15 -18 -47t-15 -44q1 -7 -2.5 -14t-3.5 -10q20 2 40 10t43.5 21t36.5 18zM-129 287q6 1 9 6t5 13.5t4 12.5h-6q0 -7 -5.5 -16.5t-6.5 -15.5zM-137 270q-21 -35 -38.5 -71.5t-34.5 -83.5t-26.5 -73.5t-29.5 -90t-27 -84.5q1 -7 -10 -51 q-2 -9 -4 -28t-5.5 -34.5t-9.5 -25.5q0 -2 2.5 -5t0.5 -8q-19 -80 6 -121q16 32 34.5 106t28.5 101v15q33 128 37 153q6 21 25 93.5t32 107.5q2 18 14 49.5t13 50.5h-8zM-137 201zM-117 258q3 1 4 0q2 -1 0 -3l-4 -1v2q2 0 0 2z" />
<glyph unicode="q" horiz-adv-x="479" d="M156 616q6 5 18 18t19 17q16 29 32 35q3 1 4 -1.5t0.5 -6t1.5 -4.5q-34 -43 -79 -121q2 -4 1.5 -17.5t2.5 -17.5q-4 1 -7.5 6.5t-5.5 7.5q-44 -61 -84 -161q15 1 39.5 14t34.5 16q4 3 19.5 10t21.5 13h8q9 2 21 14q45 19 114.5 64t96.5 59q13 10 22 25q13 3 32.5 23 t35.5 20q-3 -13 -19 -21q-32 -38 -82 -65q-5 -3 -39.5 -29t-56.5 -35q-6 -3 -12 -12q-12 -4 -33.5 -16.5t-34.5 -16.5q-3 -1 -8 -5t-6 -5q-19 -10 -55 -26.5t-64 -30.5t-51 -29q-3 -7 -31.5 -75t-40.5 -107q5 -14 4 -17q34 -63 35.5 -156t-24.5 -165q-18 -62 -41 -82 q-8 -4 -37 0q-24 19 -32 59t1 74q8 78 25 113q-2 6 1.5 13.5t2.5 14.5q10 24 26 71.5t21 61.5q-7 41 -30.5 67.5t-63.5 47.5q-13 -7 -35 -5.5t-29 11.5v10q15 6 43 5.5t41 5.5q4 1 70 30q71 31 80 33q3 3 7 10t7 9q8 25 20 51t27 55t23 47q1 2 5.5 7.5t6 8t5 7.5t5 9t3 9.5 t1.5 11.5q-13 -6 -34.5 -29.5t-34.5 -31.5q-2 -2 -13.5 -12.5t-19.5 -17.5t-19.5 -16.5t-21.5 -16t-19 -9.5q-12 -5 -27 -2t-24 13q-1 4 -4 12t-4 12q42 124 178 240q28 7 41 4q2 -4 10.5 -10.5t10.5 -10.5q3 -4 3.5 -9t-0.5 -11t-1 -8q0 -3 0.5 -27.5t-4.5 -26.5zM131 705 h-12h-6q-10 -4 -28.5 -20.5t-29.5 -22.5q-83 -90 -116 -168q-4 -16 -2 -27q3 -1 5.5 -5.5t6.5 -4.5q0 -3 7.5 -1.5t10.5 1.5q31 16 59 37.5t63.5 54t51.5 45.5q0 3 3 24t4 29.5t-0.5 23.5t-6.5 25q-10 5 -10 9zM20 332q0 -4 -2 -4q-18 -5 -49 -21.5t-49 -21.5 q-3 -6 -17.5 -11.5t-17.5 -11.5q16 -8 29.5 -21.5t27.5 -33.5t23 -29q27 73 62 154h-7zM-109 -135q0 -79 19 -107l18 -6q2 1 5 4t5 4.5t5 1.5q4 14 17.5 49.5t22 65.5t11.5 60q6 97 -27 190q-2 0 -2 2t-2 2q-45 -102 -72 -266zM2 313v-8q-3 0 -4.5 2t-0.5 4t5 2z" />
<glyph unicode="r" horiz-adv-x="323" d="M272 659q-7 4 -21.5 16.5t-23.5 16.5q-5 1 -9.5 1t-9 -0.5t-7.5 -0.5q-26 -11 -46 -28t-47.5 -47.5t-35.5 -38.5q-11 -19 -34.5 -55t-40.5 -66.5t-28 -61.5q-2 0 -4 -2t-4 -2q-4 -22 -29 -63q-4 4 -11.5 7.5t-8.5 4.5q-1 18 6 43t8 33q10 17 23.5 59.5t23.5 59.5 q5 26 20.5 66.5t18.5 53.5q2 0 4 3t4 4q4 -8 13 -5q5 -36 -4 -53q-3 0 -5.5 5.5t-3.5 6.5q-5 -6 -11.5 -28t-12.5 -29q-6 -31 -31 -88q0 -19 -14 -37q0 -6 -3 -15.5t-3 -15.5q7 2 12 15.5t12 15.5q0 11 4 15q58 97 84 126q8 22 37 50t37 45q8 2 19 11t20 11q2 2 6 10 q23 10 57 7q3 -3 16 -12t19 -17.5t4 -20.5z" />
<glyph unicode="s" horiz-adv-x="266" d="M131 715q-19 -28 -67.5 -66.5t-59.5 -50.5q-16 -32 -29 -47q0 -13 -6 -19q0 -35 11 -49q6 0 15.5 6t16.5 3q13 13 39 16q-7 -7 -18 -13.5t-24.5 -13t-20.5 -10.5q11 -15 39.5 -35.5t45.5 -43.5t15 -58q-6 -15 -16 -27.5t-25 -27.5t-22 -23q-14 -3 -25 -18 q-8 -5 -40.5 -22t-47.5 -26l-30 -10t-37 -12t-34.5 -7.5t-39.5 -2.5q-52 6 -80 45q0 16 -2 20q11 31 31.5 56.5t55 55t46.5 42.5q16 7 45 31.5t47 29.5q4 10 23 19.5t24 15.5q-16 33 -4 72q1 6 -3.5 8t-4.5 4q-1 7 4 14t6 9q25 19 68.5 71t72.5 72q2 1 5 1t5.5 0.5t2.5 2.5 q12 -3 18 -12zM-111 406q-82 -52 -172 -156q0 -1 -4 -18.5t-2 -28.5q17 -17 41 -23q11 -4 30 -3t29.5 3.5t28 6.5t25.5 6q11 2 20 8h13q6 3 28 15t30 17t26 16.5t27.5 20t22 21.5t21.5 27t15 30q-5 25 -21.5 44t-41.5 38t-36 31q-6 0 -6 -4q-13 -5 -36.5 -22t-37.5 -19l1 -5 q2 -5 -1 -5z" />
<glyph unicode="t" horiz-adv-x="587" d="M6 590q2 0 2 2q-2 0 -2 -2q-16 -4 -22 0q-1 6 2 9t8.5 5t7.5 4q12 11 18 31q6 1 11 7.5t8 8.5q24 67 43 95q5 21 19.5 52t17.5 38q2 2 14 6q-3 6 -0.5 12t8.5 6q2 -3 2 -3.5t-2.5 -3l-3.5 -3.5q-2 -14 -8 -28t-15.5 -30t-11.5 -20q-5 -17 -16.5 -44t-15.5 -38 q37 54 51 82q7 1 16 23q41 61 51 84q-7 1 -26 -7t-25 -4q-16 -9 -58.5 -19t-58.5 -19q-24 0 -32 -11q-39 -6 -100 -24.5t-93 -24.5q-8 -7 -29 -10t-30 -10q-3 -1 -6.5 0.5t-5.5 1.5q-13 -4 -15 -8q-14 2 -37 -3t-39 -2l-3 6t-2 6t1 7q16 -1 42 9t32 11q0 -4 -6.5 -7t-7.5 -7 q16 -3 35 8q45 7 127.5 32.5t123.5 33.5q77 25 111 30q13 9 57 15q10 27 33.5 71t30.5 58q4 4 8 2q2 8 0 16q4 5 13 29t22 29q0 1 -2 1q-3 0 -4 1q3 2 7 8.5t5 7.5q30 68 63 109q6 16 22 38.5t21 32.5q2 0 4.5 1t4.5 1q23 48 65 64q1 -1 4.5 -3.5t5.5 -4.5t3 -5 q0 -7 -1.5 -15t-1.5 -13q-6 -13 -17 -41.5t-21 -49t-23 -36.5q1 -5 -2 -10.5t-2 -10.5q-13 -15 -32 -50t-32 -50q-14 -29 -44.5 -77t-41.5 -70q33 7 129.5 34t153.5 35q12 12 25 6q11 3 16 9q15 -1 54 8.5t57 7.5q17 12 51 12q31 9 99 19t95 18q4 -1 14 0.5t13 -0.5 q23 5 68 9t71 9q12 -3 47 0.5t45 -0.5q8 4 19 4.5t29 -0.5t24 -1q-6 -10 -29 -5q-21 -2 -77.5 -6t-96 -9t-75.5 -13q-8 3 -26 -2.5t-30 -3.5q-1 0 -80.5 -15.5t-121.5 -19.5q-1 -4 -10 -4.5t-9 -5.5q-34 -3 -95 -16.5t-89 -16.5q-41 -13 -140.5 -39t-148.5 -43 q-9 -10 -25 -39t-28 -41q-6 -17 -24.5 -43t-24.5 -43q-79 -96 -115 -205q-1 -14 -11 -34t-10 -35q-14 -33 -34 -107q-10 -32 -13 -70q-7 -50 4 -110q10 -34 35 -52t62 -10q6 3 14 11h10q5 1 15.5 8.5t17.5 5.5q9 11 34.5 27.5t35.5 29.5q53 38 67 60q4 3 14.5 13t18.5 13 q4 4 4 11q26 21 72 68t71 69q8 8 22.5 26t27 31t26.5 23q2 8 14.5 18.5t14.5 18.5q3 0 5.5 1t4.5 1q2 5 4.5 10.5t5 9t6.5 8.5t6.5 7.5t8 7t7 6t8 6.5t7.5 6q7 15 39 41q4 -2 0.5 -7t-2.5 -9q-17 -7 -20 -25q-10 -5 -27 -31q-2 0 -5.5 -3t-6.5 -3q-4 -8 -6 -14 q-17 -17 -56.5 -59t-62.5 -64q1 -3 -0.5 -6t-1.5 -4q-23 -14 -51 -54q-77 -69 -115 -114q-5 -5 -16.5 -13.5t-16.5 -13.5q-9 -8 -33 -30.5t-37 -34.5t-35 -28.5t-42 -27.5q-30 -18 -84 -18q-50 7 -70.5 55.5t-13.5 112.5l4 4q-2 16 2.5 40.5t5.5 33.5q3 9 16.5 64t28.5 79 q-2 2 -0.5 9t0.5 11q8 17 22.5 53.5t18.5 45.5v2zM428 1329q-25 -17 -45 -41t-43.5 -60t-34.5 -50q0 -2 -1.5 -6t-0.5 -7q-2 0 -5 -4.5t-9 -3.5q-16 -59 -56 -108q-4 -21 -10 -21v-12q-30 -45 -57 -115q7 -1 22 4.5t23 5.5q16 33 43 72q7 10 21 35.5t24 38.5 q108 194 123 225q0 6 5 22t5 25h-4zM-297 791q7 0 4 -7h-4v7z" />
<glyph unicode="u" d="M53 715q10 -10 17 -10q-2 -8 0.5 -23t-0.5 -20q-4 2 -6 4.5t-3 6.5t-2 7q-14 -14 -32.5 -48.5t-30.5 -47.5q0 -3 -1.5 -6t-0.5 -5q-29 -40 -86 -143q0 -3 -1.5 -9.5t-1.5 -10v-8t2 -8t5 -5.5q35 8 64.5 29t59 50.5t50.5 43.5q2 1 5 5.5t5 6.5q10 7 37 29t43 31 q3 1 8.5 4.5t7 3.5t9.5 -2q16 -17 7 -62t5 -63q18 -6 29 -6q14 1 30.5 11.5t28.5 12.5q40 34 88 62q12 12 46 38.5t48 45.5q3 -2 8.5 3.5t10.5 4.5q-4 -12 -21 -25q-16 -22 -53.5 -51t-50.5 -43q-20 -12 -55 -43h-7q-35 -30 -84 -39q-43 10 -49 45q-2 18 3 44.5t3 41.5 q-11 -1 -24 -11.5t-19 -12.5q-6 -7 -26 -22.5t-27 -26.5q-21 -13 -61 -51.5t-64 -51.5q-2 -4 -10 -8.5t-10 -9.5q-11 0 -23 -8l-24 6q-2 2 -17 22q-1 27 10 53.5t29 42.5q6 29 27 50q-1 7 5.5 14t4.5 12q12 5 16 23l3.5 3.5t5.5 2.5q9 20 31.5 58.5t31.5 58.5q2 0 6 4z" />
<glyph unicode="v" horiz-adv-x="368" d="M381 817l4 -4q-1 -6 -7 -14.5t-7 -10.5q-4 -2 -13.5 -9t-15.5 -9q-5 -9 -21.5 -24t-21.5 -27q-18 -14 -45 -47.5t-43 -46.5q-6 -7 -43 -53t-59 -68q-2 -8 -11 -19.5t-12 -17.5q-1 -1 -5 -4t-7 -4q-3 -6 -15.5 -21t-15.5 -26q-1 -1 -4.5 -2t-5.5 -2q-11 -22 -21 -37 q-2 -4 -7.5 -8t-6.5 -5q-3 -4 -6 -11.5t-6 -10.5q-1 -1 -39 -17q-36 11 -39 46q4 30 23 76t24 67q15 26 38 85t38 85q3 0 5 -4t5 -4q-1 -2 -1 -9t-1 -10q-7 -19 -28 -61.5t-29 -65.5q-8 -18 -21 -57l-3 -6q-31 -73 -20 -109q0 -2 1 -4q9 0 19.5 5.5t14.5 6.5q2 3 6 8.5 t6.5 9t6 8t7.5 8t9 5.5q9 18 34 48t34 47q8 4 10 4q5 15 23 26q18 30 62 76t60 70q1 1 5.5 4t7.5 4q19 31 53 55q1 5 6 13t6 10q3 3 10 0q16 25 62 61z" />
<glyph unicode="w" horiz-adv-x="507" d="M475 813q-11 -48 -39 -76q-12 -26 -40 -69.5t-34 -53.5q-11 -14 -34.5 -55t-40.5 -59q-28 -54 -51 -74q-11 -27 -54 -70q-5 -2 -14 -7t-14 -7q-23 -3 -41 8q-12 32 2 88t14 70q3 2 5 11t5 11q-1 3 -0.5 10t-1.5 9q24 57 17 106q-33 -24 -75 -91.5t-59 -86.5q1 -3 -0.5 -7 t-1.5 -5q-7 -10 -19 -32t-23.5 -36.5t-28.5 -21.5q-19 0 -29 10q2 39 14.5 78.5t32.5 84.5t29 73q3 3 35 57q28 -3 30 -23q-5 -3 -16 2q-13 -9 -24 -38t-19 -37q-3 -13 -13 -37t-12 -39q-8 -8 -10 -12q-1 -7 -11 -40.5t-9 -54.5q16 10 34 38.5t29 37.5q8 13 22 40.5 t26.5 47.5t27.5 35q33 60 72 78q3 -2 11 -5t11 -5q2 -60 -28 -158q-4 -38 -13 -47q0 -11 -4.5 -45.5t-3.5 -46.5q1 -1 3 -2t3.5 -2t1.5 -3q47 8 68 56h8q20 36 37 51q4 13 19 32t18 34q16 16 40 58.5t42 59.5q47 83 102 162q1 0 2 -1t2 -1z" />
<glyph unicode="x" horiz-adv-x="456" d="M348 762q-5 -1 -11 2.5t-11 3.5q-26 -11 -62 -44.5t-55 -45.5q-1 -2 -3 -7t-3 -7q-22 -12 -54 -46.5t-51 -46.5q-8 -19 -49 -51q-5 -11 -19 -26t-18 -21q2 -41 35 -70q2 -1 6.5 -2.5l7.5 -2.5t6.5 -3.5t4.5 -5.5q4 2 41 2q45 12 85 35t90 60t72 51l8.5 8.5t8.5 11.5 q6 1 15.5 8t15.5 8q1 3 4 8.5t4 8.5q15 5 36 28.5t40 24.5q-9 -17 -24 -31.5t-36 -31t-31 -25.5q-17 -16 -50.5 -43.5t-45.5 -38.5q-38 -22 -76 -53q-15 -6 -44 -21.5t-46 -21.5q-66 -16 -112 18q-10 10 -33 56q-8 -8 -22.5 -25.5t-27 -30t-26.5 -20.5q-3 -2 -7.5 -9.5 t-10.5 -7.5q-7 12 14 17q34 52 78 90q-3 110 12 203q5 0 9 -2.5t7 -1.5q0 -7 -7.5 -71.5t-2.5 -103.5q22 15 27 35q69 65 106 109q4 0 8.5 4t8.5 4q0 9 9 18t11 15q2 0 6.5 2.5t8.5 1.5q81 81 120 108q16 2 27.5 -6t5.5 -18zM-104 352q-8 -16 -30.5 -39t-29.5 -34 q2 21 29 43q4 3 9.5 12.5t11 15t10.5 2.5zM-174 279h6q1 -6 -2.5 -9.5t-3.5 -5.5q-3 2 -2.5 7.5t2.5 7.5zM-184 260q4 0 4 -4q-2 0 -4 -1.5t-3 -3t-3 -2.5t-3 1q0 3 4 6t5 4z" />
<glyph unicode="y" horiz-adv-x="638" d="M176 176q48 45 86 94q3 0 7.5 2.5t6.5 3.5q2 8 12.5 18.5t12.5 18.5q30 25 89.5 85t94.5 87q34 38 60 56q30 38 61 55q5 14 27 25q16 22 29 18q3 -8 -6.5 -16t-10.5 -11q-84 -70 -188 -174q-2 -2 -8 -2q-28 -30 -81 -83.5t-95.5 -99t-77.5 -89.5q-1 0 -13 -6 q-15 -27 -39 -45q-24 -42 -74 -125t-75 -125q-15 -10 -23 -37q-12 -4 -23 -24t-20 -25q1 -2 0 -6l-2 -4q-9 -11 -51 -68t-70 -82q-5 8 -18 8q7 28 31.5 67.5t31.5 55.5q9 10 26 35.5t28 36.5q1 11 11.5 24t12.5 19q4 0 6.5 4t6.5 2q10 31 51 72q11 23 40.5 57t39.5 51 q18 13 40 49.5t29 44.5q0 2 1.5 7t0.5 8q2 2 7 8t8 8q13 30 46.5 102.5t51 114t38.5 105.5t30 122q-3 24 -13 44q-3 0 -16 1.5t-14 -1.5q-59 -31 -141.5 -115t-121.5 -111q-21 -24 -61 -30q-4 4 -20 8q-17 25 -13 45q11 39 41.5 102t34.5 72q7 4 19 18.5t22 18.5 q15 -6 20 -19q-4 -22 -10 -28q0 -4 -1 -9t-1 -8q-7 -7 -15 -36.5t-18 -34.5q1 25 13 62t14 46q-8 -1 -17.5 -16t-15.5 -19q-2 -9 -11 -23.5t-11 -23.5q-31 -55 -35 -76q-3 -2 -6 -9t-4 -9q0 -38 10 -43q5 2 13 2.5t11 1.5q32 19 81.5 64.5t62.5 56.5q4 10 26 24q5 5 17 19.5 t20 21.5q2 2 6 2.5t5 1.5q5 3 13.5 13t12.5 14q42 30 49 33q39 14 68 -27q0 -8 4 -20q-3 -49 -16 -94.5t-34 -97.5t-30 -81q-18 -33 -47 -96t-39 -84v-2zM-51 -137q-9 -14 -26.5 -40.5t-26.5 -39.5q-5 -6 -12.5 -21.5t-12.5 -21.5q-2 -3 -7 -9.5t-7.5 -11t-5 -10t-1.5 -8.5 q52 63 111 152q1 1 4 2t4 2q8 19 33 53t33 57q20 20 28 47q-13 -18 -53.5 -69.5t-60.5 -81.5z" />
<glyph unicode="z" horiz-adv-x="430" d="M268 758q2 -13 -10 -29.5t-14 -21.5q-24 -25 -66 -76t-61 -72q-5 -17 -31 -43q-1 -5 -6 -22t-7 -26t1.5 -20t15.5 -16q27 -3 70 5t61 7q3 -2 9.5 -7t9.5 -7q-1 -22 -13.5 -35.5t-30 -24.5t-24.5 -22q-17 -5 -39.5 -24.5t-38.5 -24.5q-17 -14 -49.5 -30.5t-46.5 -26.5 q-1 1 -5 0.5t-5 1.5q-9 -9 -15 -13q-6 0 -20.5 -3t-28.5 -1q-20 15 -22 19v26q0 3 3.5 9.5t2.5 13.5q10 19 22.5 37.5t30 42t25.5 35.5q21 16 43 45q35 22 57 86q9 16 29.5 42.5t29.5 41.5q2 1 8.5 7.5t10.5 8.5q2 6 9 14.5t9 14.5q36 40 49 69q-20 -3 -51.5 -24t-40.5 -25 q-40 -28 -45 -31q-12 -12 -40 -30t-40 -31q0 -4 5.5 -8t3.5 -10q-15 2 -25.5 11t-9.5 23q31 18 64 40.5t75.5 53t62.5 44.5q8 1 21 6.5t22 9t19 2t16 -11.5zM55 471zM-27 373q-16 -16 -18 -19q-1 -2 -4 -9.5t-6 -10.5q-3 -6 -14.5 -24t-14.5 -27q-9 -27 4 -37t33.5 -5 t36.5 17h16q0 6 12 14q6 1 15.5 6.5t15.5 6.5q2 4 10.5 9t10.5 9q7 0 21 11.5t22 11.5q12 19 45 34q3 4 12 13t12 16q1 1 8.5 6.5t10.5 8t6.5 8t3.5 10.5q-8 -1 -27 -3.5t-30 -3.5t-28 -1.5t-27.5 2.5t-22 8t-17.5 15.5t-8 25.5q-15 -14 -44.5 -51t-33.5 -41z" />
<glyph unicode="{" horiz-adv-x="456" d="M195 692q57 117 61 342q3 144 45 236q58 123 133 184q2 1 10.5 4.5t11 4.5t10 3.5t11.5 3t10.5 1.5t12.5 0.5t12 -1.5q2 -2 6 -5t6.5 -4.5t4.5 -5.5t-1 -7q-5 -1 -17.5 4t-18.5 6q-27 -5 -51.5 -22t-37.5 -32.5t-35 -46.5t-30 -42q-40 -82 -55 -152q-5 -36 -7.5 -110.5 t-3.5 -83.5q-9 -252 -131 -394q-25 -22 -47 -47q-5 -1 -12 -6t-12 -6q3 -5 10 -14.5t10 -14.5q30 -71 33 -102q2 -36 -5.5 -66t-23 -64t-20.5 -50q-11 -17 -31.5 -58.5t-34.5 -60.5q-7 -18 -28.5 -63.5t-30.5 -73.5q0 -6 -1 -18t-1 -19q6 -29 30 -43q27 -7 52 0t51.5 21 t42.5 18q-5 -16 -29.5 -29t-27.5 -16q-9 -3 -25.5 -10t-26.5 -9q-34 0 -41 2q-29 12 -40.5 46.5t1.5 72.5q25 59 81 171.5t81 172.5q23 85 -20 162q-22 30 -47 37q-17 17 -2 24q23 -6 81 41.5t87 118.5z" />
<glyph unicode="|" horiz-adv-x="491" d="M236 1450q3 -35 -0.5 -95t-2.5 -85q-6 -37 -34 -219t-49 -277q-1 -25 -6.5 -40t-6.5 -42q-5 -5 -6.5 -21t-5.5 -22q0 -20 -7.5 -57.5t-8.5 -56.5q-4 -14 -9.5 -54t-13.5 -59q1 -14 -2.5 -40t-3.5 -40q-2 -2 -3 -8.5t-3 -9.5v-17q-12 -60 -17 -94q-6 -25 -13 -80t-13 -80 q0 -20 -7 -61t-6 -62q0 -4 4 -12.5t1 -13.5q-12 -1 -15.5 8.5t-2 21.5t-1.5 23q3 13 6 47t10 51q-3 7 0 17.5t0 17.5q8 25 17 103q17 79 27 156t22 140q11 83 34.5 202t33.5 188q6 39 18.5 112.5t21.5 133t13 116.5q2 4 4 13.5t4 13.5q-2 22 2 62t2 61q-11 -12 -20 -44 t-23 -44q31 112 49 151q2 1 5 -2.5t6 -1.5z" />
<glyph unicode="}" horiz-adv-x="372" d="M66 367q0 -48 14.5 -83.5t48 -80.5t41.5 -58q33 -81 29 -133q-1 -15 -4.5 -29t-11 -29t-11.5 -21.5t-15 -23t-12 -18.5q-13 -6 -28 -28q-22 -6 -31 -21q-12 -2 -41 -16q-2 1 -18 -2t-17 6q-1 5 2.5 7t11 2.5t9.5 0.5q27 15 59 31q7 6 25.5 25t29.5 28q4 9 12.5 28 t12.5 28q0 4 6 28q4 45 -8.5 83.5t-33 67t-41.5 57.5t-34.5 67t-11.5 82q0 9 3.5 22t4.5 21q51 103 152 221q-9 21 -25 37q-25 66 -18 114q17 78 56.5 149t91 145.5t77.5 127.5q3 1 12 10q32 62 52 111q7 49 -11 72q-63 35 -133 -27q-2 10 -1 14t7 10.5t7 8.5q24 12 48.5 17 t47.5 3t38.5 -18.5t16.5 -46.5q1 -15 -2 -31t-10.5 -34t-12.5 -29t-16.5 -30.5t-13.5 -23.5q-34 -56 -80 -121q-9 -18 -66.5 -106t-74.5 -143q-13 -38 -11 -88.5t21 -81.5q0 -6 14.5 -16t14.5 -19q1 -5 -3 -10t-10.5 -10.5t-9.5 -8.5q-2 -2 -5 -8t-5 -8q-4 -4 -15 -12.5 t-14 -12.5t-6.5 -9t-8 -12.5t-7.5 -11.5q-3 -5 -23 -31t-29 -42q-18 -27 -36 -90z" />
<glyph unicode="~" horiz-adv-x="860" d="M711 612q-2 -7 -7.5 -12t-15 -9.5t-12.5 -6.5q-35 -20 -41 -25q-2 3 -4 0.5t-6 -2.5q-2 -3 -9.5 -7t-9.5 -7q-15 -5 -38.5 -19t-45.5 -22.5t-49 -7.5q-14 4 -43 18q-1 1 -3.5 6t-4.5 7t-6 3q-13 16 -22 72.5t-27 71.5q-25 -2 -62 -27q-23 -16 -98 -82q-1 -1 -88 -94 q1 -1 11 -5t11 -11q-7 -4 -23 -0.5t-26 0.5q-5 10 -4 14q31 31 92 88t80 76q2 1 6 4.5t8 3.5q1 2 5.5 6t5.5 6q11 4 33.5 21t37.5 18q25 -1 38.5 -23t17 -50t13.5 -56.5t28 -38.5q16 -4 22 -8q9 1 24.5 4.5t22.5 3.5q32 18 60 29q3 1 14.5 8.5t19.5 9.5q5 5 11 8.5t15.5 7 t10.5 3.5q4 2 15.5 10.5t21 12t21.5 1.5z" />
<glyph unicode="&#xa1;" horiz-adv-x="399" d="M287 995q3 -5 5 -10.5t1.5 -14t-1 -14t-2.5 -16.5t-3 -16q-1 -16 -7.5 -45t-7.5 -45q-8 -17 -22 -61.5t-27 -63.5q0 -1 1.5 -4.5t0.5 -6.5q-16 -40 -52.5 -120t-53.5 -125q1 -3 4 -0.5t4 0.5q-4 -14 -14.5 -39t-14.5 -39q-6 -5 -12.5 -3t-7.5 9q5 48 32.5 110t32.5 78 q19 31 44.5 96t35.5 85q3 18 16 54.5t17 53.5q7 16 12.5 52.5t12.5 52.5q0 27 6 32zM330 1278q4 8 8 8t12.5 -4t14.5 -2q2 -2 2 -12q-6 -12 -20.5 -7t-16.5 17z" />
<glyph unicode="&#xa2;" horiz-adv-x="399" d="M266 702q21 3 30 -10.5t3 -34.5q-8 -1 -12 3t-7 13.5t-4 12.5q-14 2 -19.5 -6t-9 -20.5t-9.5 -16.5q-9 -27 -36 -89.5t-38 -100.5q77 39 125 75q5 -1 11.5 1.5t10.5 2.5q-3 -9 -26 -18q-13 -12 -30.5 -24t-30 -19.5t-36 -21t-32.5 -19.5q-29 -73 -37 -115 q-5 -10 -10.5 -34t-10.5 -33q0 -1 -1 -7.5t1 -7.5q-5 -5 -8.5 -23t-13.5 -20q-4 4 -4 13t2 17t5.5 19.5t4.5 16.5q11 52 47 162q-14 -3 -29.5 2.5t-21.5 15.5q-1 4 -3 13.5t-3 13.5q23 82 102 164q7 13 17.5 23.5t28 23.5t22.5 18q52 131 88 176q2 0 6.5 1.5t9.5 0.5 q0 -2 4 -3t4 -3q2 -8 -4 -12t-12 0q-37 -51 -74 -150zM92 451q10 -16 17 -19q6 0 16 3t12 3q22 55 23 64q1 3 10 12q5 20 13 42t22 52.5t18 40.5q0 4 -2 4q-10 -11 -31 -33.5t-33 -36.5t-27 -35.5t-24 -45.5t-14 -51z" />
<glyph unicode="&#xa3;" horiz-adv-x="845" d="M752 883q-3 5 -7 20.5t-10 18.5q-16 -6 -32 -31t-25 -31q-15 -24 -59 -97t-68 -112q11 -2 32 0.5t33 1.5q25 0 39 2q5 -3 21.5 -2.5t29 -3t15.5 -16.5q-103 13 -184 -4q-20 -31 -43.5 -61.5t-56.5 -71.5t-46 -58q8 -3 125 -30q60 -10 76 -13q88 -6 123 -4q9 5 25.5 6 t21.5 2q1 -6 -4 -8t-6 -4q-8 2 -23 -3t-20 -1q-26 -10 -76 -6q-12 1 -52.5 4t-60.5 6q-2 0 -3 2.5t-3 3.5q-3 1 -10 0t-10 0q-16 2 -57 12.5t-64 12.5q-4 1 -8.5 -5t-8.5 -3q-24 -30 -53.5 -54.5t-78 -58t-62.5 -43.5h-12q-10 -11 -24 -17.5t-35 -12.5t-30 -9q-17 2 -24 0 q-30 2 -50.5 17.5t-19.5 43.5q5 19 13.5 34.5t22.5 28.5t25 21t31 21.5t29 19.5q8 0 22.5 8.5t24.5 6.5q7 5 18.5 8.5t27 7t24.5 6.5q2 1 4 -1.5t4 -2.5q5 7 17 8.5t16 -6.5q1 0 1 3t1 3q50 4 117 -4q88 95 147 185q-18 2 -49 -4t-47 -3q-81 -24 -137 -10v15q2 1 6 2t6 2 q20 -4 57 0t53 0q19 10 86 14q7 2 18.5 3.5t19.5 4t12 8.5q7 20 28.5 50.5t28.5 48.5q6 5 14.5 23t16.5 22q9 24 35.5 58t33.5 48q6 4 18 19t23 18q8 -2 13.5 -16t7.5 -17q-1 -5 -2 -13.5t-2 -12.5zM307 428q-2 -1 -8.5 -1t-7.5 -1q-28 3 -40 2t-38 -6t-41 -6 q-56 -21 -109 -47q-33 -33 -53 -45q-3 -6 -12.5 -22t-13.5 -26q3 -17 12 -32q33 -9 47 -11q49 4 121 43q17 13 29 15q36 32 63 45q32 32 45 37q5 10 22.5 24.5t22.5 24.5q-18 3 -39 6z" />
<glyph unicode="&#xa8;" horiz-adv-x="342" d="M258 1055q2 -2 3.5 -10t4.5 -9q0 -4 -4 -12q-27 0 -29 8q1 10 8.5 16.5t16.5 6.5zM137 1020q-3 -1 -8 -4t-8 -4.5t-7 -0.5t-8 5q-2 10 1.5 14.5t9.5 7.5t8 6q15 0 12 -24z" />
<glyph unicode="&#xa9;" horiz-adv-x="741" d="M618 1341q-3 2 -15 15t-21 18q-48 8 -111 -12q5 -3 28 -3t29 -9q3 0 4.5 2.5t4.5 1.5q85 -33 104 -107q2 -6 10 -14q1 -11 4.5 -35t4.5 -37.5t-1.5 -32t-11.5 -32.5q0 -30 -18 -39q0 -2 1 -6t1 -7q-11 -18 -25.5 -35t-34.5 -37.5t-30 -31.5q-2 1 -4.5 -0.5t-4.5 -1.5 q-73 -67 -188 -104l-24.5 -3.5t-24.5 -3t-24.5 -1.5t-24.5 1q-43 4 -101 47q-37 37 -47 87q-3 77 39 137q9 31 43 65q3 13 18 29t19 27q55 59 160 122q12 0 41 19q12 3 46 14t58.5 15t48.5 0q51 -15 47 -48zM489 924q98 77 142 153q0 17 10 27q18 86 -16.5 158t-104.5 84 h-78q-16 -3 -32.5 -9t-27.5 -10.5t-29.5 -15.5t-24.5 -15t-27 -19t-25 -17q-88 -82 -147 -203q-1 -7 -8 -32.5t-6 -43.5q3 -67 57 -104t127 -31q96 21 133 45q3 1 3.5 -2t2.5 -2q4 8 12.5 14t21 13t17.5 10zM442 1112q-19 4 -14 59q-15 -7 -29.5 -19.5t-23 -22t-23 -28.5 t-20.5 -26q-4 -16 -10 -20q2 -6 2 -21q2 -7 12 -13t12 -9q32 2 75.5 26t61.5 29q0 -7 -7.5 -11t-8.5 -5q-13 -10 -26.5 -18t-34.5 -18.5t-29 -15.5q-11 0 -27 -4q-22 5 -34 21t-9 39q24 50 43 65q4 13 22 28t23 26q9 9 21 12.5t24 -4.5q2 -11 -1.5 -34.5t1.5 -35.5z" />
<glyph unicode="&#xab;" horiz-adv-x="1210" d="M1020 780q-25 -45 -31 -53q0 -18 -14 -18q0 9 8.5 28t9.5 31q-26 -2 -69.5 -21.5t-63.5 -23.5q-22 -16 -74 -31q-33 -21 -81 -41q-11 -8 -37 -22t-37 -23q-4 1 -8.5 -3t-8.5 -1q-9 -13 -45 -31q-6 -8 -21 -17.5t-24 -20.5t-8 -29q0 -5 4.5 -10t5.5 -7q10 -7 35 -14.5 t33 -11.5q32 0 86.5 -10.5t83.5 -10.5q61 -18 88 -18q7 -6 24 -10t23 -11q8 2 20.5 -4.5t20.5 -5.5q0 -5 4 -7t4 -3q-1 -3 -6 -3t-6 -1q-5 3 -22 7.5t-21 10.5q-17 3 -45 11t-51 12.5t-45 5.5q-22 6 -107.5 15t-124.5 28q-3 7 -10 10q-7 9 -14 31q-4 11 0 18q23 42 106 80 q5 3 30 20.5t42 22.5q50 30 159.5 76.5t143.5 62.5q7 -2 15.5 1.5t13.5 3.5q5 -1 8.5 -6.5t5.5 -6.5zM668 780q-25 -45 -31 -53q0 -18 -14 -18q0 9 8.5 28t9.5 31q-26 -2 -69.5 -21.5t-63.5 -23.5q-22 -16 -74 -31q-31 -20 -82 -41q-11 -8 -36.5 -22t-36.5 -23q-4 1 -8.5 -3 t-8.5 -1q-9 -13 -45 -31q-6 -8 -21 -17.5t-24 -20.5t-8 -29q0 -5 4.5 -10t5.5 -7q10 -7 35 -14.5t33 -11.5q32 0 86.5 -10.5t83.5 -10.5q61 -18 88 -18q7 -6 24 -10t23 -11q8 2 20.5 -4.5t20.5 -5.5q0 -5 4 -7t4 -3q-1 -3 -6 -3t-6 -1q-5 3 -22 7.5t-21 10.5q-17 3 -45.5 11 t-51.5 12.5t-45 5.5q-22 6 -107 15t-124 28q-3 7 -10 10q-8 11 -15 31q-4 11 0 18q22 41 107 80q5 3 30 20.5t42 22.5q50 30 159.5 76.5t143.5 62.5q7 -2 15 1.5t13 3.5q5 -1 9 -6.5t6 -6.5z" />
<glyph unicode="&#xad;" horiz-adv-x="495" d="M389 635v-6q-15 -11 -50 -19.5t-48 -15.5q-15 -2 -39 -10.5t-37 -10.5q-5 0 -20 -2.5t-25 -3.5t-23 0.5t-22 7.5q0 2 -1 5t-1 4l6 12q10 -3 22.5 -3.5t20.5 0t23 2t20 1.5q4 1 13.5 4t14 3.5t13.5 -1.5q54 24 98 27q3 0 4.5 3t3.5 3q3 0 11 -4q-1 3 1 4.5t5 1.5t5.5 -0.5 t4.5 -1.5z" />
<glyph unicode="&#xb0;" horiz-adv-x="385" d="M205 1106q0 3 3.5 1t4.5 1q16 -8 29 -43q-1 -14 -4.5 -25.5t-14.5 -23t-15.5 -16t-22.5 -17.5t-19 -14q-28 -8 -43 14q-7 20 20 55q6 9 20.5 22.5t18.5 18.5q12 20 19 23q0 4 4 4zM199 1057q-4 0 -8 4t-5 4q-2 -5 -11 -13t-13 -14q-40 -46 -10 -53q10 -2 23.5 8.5t28 27 t17.5 19.5q0 2 1.5 8t0.5 9q-4 2 -9 10t-9 10q-2 -2 -2.5 -10.5t-3.5 -9.5z" />
<glyph unicode="&#xb4;" horiz-adv-x="385" d="M289 1071q-14 -10 -70 -44t-82 -58q2 -5 -2 -13q-17 0 -24 7q-1 2 4 16q10 4 19 10t20 17l14 14q6 3 6 0q5 5 22 14.5t23 16.5q12 -2 19 8q9 -1 20.5 5t15.5 7q0 5 7.5 4t7.5 -4z" />
<glyph unicode="&#xb7;" horiz-adv-x="485" d="M223 674q4 -2 8 -15q-8 -12 -10 -20q-5 -1 -14.5 -5t-13.5 -4.5t-13 5.5q2 14 21.5 25.5t21.5 13.5z" />
<glyph unicode="&#xb8;" horiz-adv-x="403" d="M268 289q-3 -4 -10 -2.5t-8 0.5q-4 -6 -15 -17.5t-18.5 -23t-11.5 -25.5q0 -2 2 -3t2 -3q56 -15 65 -49q0 -17 -7.5 -32.5t-13.5 -22t-24.5 -22.5t-21.5 -19q-34 -38 -78 -50q-20 -4 -30.5 10t-6.5 32t19 24q5 -6 0.5 -21.5t1.5 -21.5q25 2 44 12.5t38.5 28.5t31.5 25 q2 5 14.5 23t10.5 34q-5 14 -33.5 24t-34.5 23q3 23 13.5 39t31 33.5t27.5 25.5q7 -2 11 -8.5t1 -13.5z" />
<glyph unicode="&#xbb;" horiz-adv-x="915" d="M190 786q40 -17 118.5 -36.5t142 -42.5t100.5 -58q6 -19 4 -41q0 -4 -2.5 -9l-3.5 -7q-46 -42 -162 -88.5t-143 -61.5h-11q-11 -11 -26 -14q-8 -4 -34 -17.5t-38 -20t-30.5 -18.5t-32.5 -24q-1 -1 -6 -10t-11 -10q-7 5 -4 13t7.5 13t12.5 12t11 11q1 0 2.5 1t3.5 1 q4 6 18.5 12.5t18.5 9.5q1 0 4 1.5t6 0.5q13 12 46.5 26.5t47.5 25.5q47 18 130 53.5t122 50.5q13 13 45 29q2 4 10.5 16t8.5 21q-1 8 -10 16.5t-11 13.5q-20 13 -42 23.5t-54 20.5t-46 14t-58.5 15t-51.5 13q-9 3 -25.5 9.5t-30 10.5t-26.5 3q-6 6 0 22zM457 786 q39 -17 118 -36.5t142 -42.5t100 -58q6 -19 4 -41q0 -4 -2.5 -9l-3.5 -7q-46 -42 -162 -88.5t-143 -61.5h-10q-11 -11 -27 -14q-8 -4 -34 -17.5t-38 -20t-30.5 -18.5t-32.5 -24q-2 -2 -6 -10.5t-10 -9.5q-7 5 -4 13t7.5 13t12 12t10.5 11q1 0 2.5 1t3.5 1q4 6 18.5 12.5 t18.5 9.5q1 0 4 1.5t6 0.5q13 12 47 26.5t48 25.5q47 18 130 53.5t122 50.5q13 13 45 29q1 3 9.5 15.5t8.5 21.5q-1 8 -9.5 17t-10.5 13q-20 13 -42 23.5t-54 20.5t-46 14t-58.5 15t-51.5 13q-9 3 -25.5 9.5t-30 10.5t-26.5 3q-5 6 0 22z" />
<glyph unicode="&#xbf;" horiz-adv-x="706" d="M563 977q-1 5 -9.5 9t-10.5 9q-25 -4 -37 0q3 10 13.5 12.5t25 0t18.5 -1.5q15 -15 19 -25q-1 -23 -10.5 -39t-24 -30.5t-19.5 -24.5q-13 -6 -31.5 -28.5t-33.5 -27.5q-38 -38 -51 -47q-1 -2 -4.5 -6t-4.5 -6q-9 -8 -36 -28t-37 -33q-2 -1 -6 -5t-9 -4q-22 -24 -66 -62.5 t-61 -55.5q-2 -2 -6.5 -8t-8 -9.5t-7.5 -3.5q-5 -7 -24 -28.5t-28 -37.5t-14 -36q-2 -15 11 -33q65 -20 168 8q3 1 11 4t15 5.5t12 5.5q2 1 5 3t5 2t9 -1q109 55 150 89q7 5 14 11q0 3 0.5 13.5t2.5 17t7 8.5q21 -34 -16 -62q-25 -21 -103 -65q-3 -3 -6 0q-71 -43 -156 -55 q-1 0 -4 -2t-4 -4q-11 1 -40 -3.5t-42 -3.5q-50 15 -61 45q0 1 1 4t1 5t-2 4q15 60 55 86q8 17 34 40t34 38q5 0 9.5 5t10.5 5q26 30 86.5 81t87.5 81q20 10 23 20q15 4 38.5 30.5t37.5 33.5q8 11 25 28t28.5 33.5t15.5 38.5zM526 1266q7 17 25 14q7 5 25 14.5t29 19 t16 23.5q12 0 16 -22q-9 -12 -32.5 -25.5t-29.5 -21.5q-6 3 -18 -1.5t-18.5 -7t-12.5 6.5z" />
<glyph unicode="&#xc0;" horiz-adv-x="1406" d="M573 569q2 0 2 4q3 0 7.5 -1t7.5 -1q17 20 110 123q-24 -2 -71 -7.5t-88.5 -9t-77.5 -3.5q-18 -3 -62.5 -4.5t-68.5 -5.5q44 -10 63 -21q-12 -7 -29.5 -1.5t-27.5 13.5q-3 -5 -14.5 -0.5t-14.5 2.5q-9 9 -10 11q-177 0 -258 22q-27 3 -54 9.5t-44 12t-48 17t-47 16.5 q-3 1 -6 6.5t-6 4.5q-3 2 2 12q11 -1 31 -5t33 -5q24 -8 41 -8q5 -2 35 -7.5t42 -13.5q2 0 4 3t5 3q22 -6 95 -19t103 -26q27 0 97.5 -1.5t107.5 -0.5q48 7 107 4q24 7 64 10.5t56 6.5q5 -3 7 -3t9 3t11 4q2 0 5.5 -2.5t4.5 -3.5q2 3 9.5 4.5t9.5 3.5q13 6 31 28t30 29 q48 64 170 182q3 3 7 8t7 8.5t7.5 7t9.5 5.5q68 77 135 129q44 48 76 70q6 12 8 14q179 155 326 250q1 -3 5 -5.5t5 -4.5q-1 -17 -5.5 -33.5t-12.5 -35.5t-11 -28q-34 -71 -133 -261t-147 -300q12 -6 54 2.5t60 3.5q57 14 95 11q-2 -7 -7.5 -9.5t-15 -2.5t-14.5 -1 q-63 -9 -119 -14q-4 -1 -27 -2.5t-35 -7.5q-2 0 -4 -3.5t-4 -4.5q-92 -225 -119 -306q-1 -7 -7.5 -37.5t-8.5 -41.5t-6.5 -37.5t-5.5 -42t-2 -38t0.5 -42t5.5 -39.5q6 -12 28 -47.5t31 -57.5q3 -4 24.5 -32.5t29.5 -46.5q0 -3 -4 -6.5t-5 -4.5q-49 17 -75.5 60.5 t-44.5 109.5q0 12 -3 21q-52 107 -182 217l-6 12q-12 0 -29 21q-16 5 -28 20q-26 5 -21 21q5 1 7 0.5t8.5 -5.5t7.5 -6q25 -15 53 -43q8 1 22 -13t21 -17q30 -38 57 -54q1 -5 7.5 -11t7.5 -11q16 -11 36.5 -40t30.5 -38q0 18 1 38t2.5 35.5t5.5 37.5t6 34.5t8 36.5t8 32.5 t10 34.5t9.5 31t10 32.5t9.5 29.5q9 11 19.5 41.5t19.5 40.5q3 22 21.5 59.5t23.5 57.5q-94 -8 -256.5 -30.5t-204.5 -27.5q-27 -23 -69.5 -71.5t-57.5 -63.5q2 -3 8.5 -6t11 -6.5t3.5 -7.5q-4 -3 -7.5 -1.5t-10 6t-9.5 5.5q-5 -2 -12 -10t-15 -8q-2 -10 -14 -23t-14 -23 q-12 -11 -25.5 -25.5t-22.5 -24.5t-24 -29t-22 -27h-9q-6 -19 -28.5 -44.5t-26.5 -31.5q-6 6 -12 6q0 7 4 11q29 32 96 113t105 122zM1501 1413q-31 -20 -88 -61.5t-88 -61.5q-1 -1 -2 -5t-2 -5q-124 -101 -195 -176q-10 -3 -23.5 -17t-19.5 -18q-22 -24 -65.5 -66 t-50.5 -49q-19 -16 -56.5 -56t-60.5 -58q0 -5 -4 -13q-14 -10 -36.5 -36t-37.5 -35q-1 -8 -11.5 -19.5t-10.5 -17.5q48 7 139.5 16.5t140.5 16.5q9 3 21 6q2 0 10.5 -1.5t11.5 -0.5q6 0 17 3.5t16 4.5q4 0 15 1t16 1q9 0 29 3t30 3q25 55 79 160.5t79 159.5q7 4 13.5 18 t12.5 18q13 36 48 102t49 105q2 1 4 5.5t4 5.5q1 11 10 32t8 33q0 2 -2 2zM-51 735h-4h4zM-31 729zM51 711q54 -13 68 -13q23 -6 28 2l-75 12.5t-99 12.5q6 -1 24 -6t30 -7t24 -1zM158 694q2 -2 7 -2t5 2q-12 6 -12 0zM152 694zM182 690h4q1 3 -2.5 3.5t-3.5 -1.5q2 0 2 -2z M1083 92q0 -2 3.5 -6.5t3.5 -5.5q0 -6 4 -6q0 -15 12 -27h2h-2q-1 5 -12 27q0 6 -4 6q0 12 -7 12zM1458 799q1 -7 -6 -9.5t-12 1.5v6q11 4 18 2zM410 639q3 -1 21.5 -5t23.5 -11q-2 0 -2 -5q-5 3 -16.5 3.5t-19 4t-7.5 13.5zM498 604q-8 -6 -21 0t-18 14v5q8 0 23 -6.5 t16 -12.5zM532 594q-2 -2 -2 -6q-9 -4 -24 6q3 8 11.5 7t14.5 -7zM575 573q-2 0 -2 -4q-13 0 -26 6t-12 17q8 -1 22 -8.5t18 -8.5v-2zM631 545q6 0 2 -8q-6 0 -2 8zM639 543q5 0 10 -5t8 -6q0 -4 -4 -8q-20 5 -14 19zM705 500q-18 -7 -21 10q-4 0 -9 3.5t-5 8.5 q30 -6 35 -22zM705 500h8l-1 -4q-1 -4 -5 -4q-4 4 -2 8zM723 494q7 -2 17 -9.5t16 -9.5q5 -9 0 -14q-3 3 -12.5 8.5t-15.5 11t-5 13.5zM762 469q1 -1 4 -2.5t4.5 -2.5t4 -4t1.5 -5t-2 -6q-3 1 -7 4.5t-7 3.5q-2 5 2 12zM356 293q0 -7 -8.5 -22t-9.5 -23q-10 -10 -30 -38.5 t-36 -39.5q0 -1 -2.5 -4t-1.5 -8q-3 -1 -7 -6.5t-7 -6.5q-10 -16 -44 -59.5t-48 -71.5q-3 0 -6 -3.5t-6 -4.5q0 -1 -2 -5t-1 -7q-9 -8 -17 -19.5t-12.5 -19.5t-12.5 -24.5t-11 -22.5q0 -6 6.5 -10.5t5.5 -10.5q-10 -16 -34 2q0 7 -2 7q11 34 29.5 65t44.5 66t38 55q3 3 13 8 q17 32 73 96q1 3 4 7.5t4 7.5q47 51 80 92zM1583 1573q-6 -1 -12 1.5t-16 10t-11 8.5q-5 3 -16.5 13.5t-18.5 13.5q-5 8 -19 25t-20 30q0 6 6 8.5t11 -0.5q8 -9 30.5 -37.5t36.5 -43.5q3 -3 11 -7t13 -9t5 -13z" />
<glyph unicode="&#xc1;" horiz-adv-x="1406" d="M573 569q2 0 2 4q3 0 7.5 -1t7.5 -1q17 20 110 123q-24 -2 -71 -7.5t-88.5 -9t-77.5 -3.5q-18 -3 -62.5 -4.5t-68.5 -5.5q44 -10 63 -21q-12 -7 -29.5 -1.5t-27.5 13.5q-3 -5 -14.5 -0.5t-14.5 2.5q-9 9 -10 11q-177 0 -258 22q-27 3 -54 9.5t-44 12t-48 17t-47 16.5 q-3 1 -6 6.5t-6 4.5q-3 2 2 12q11 -1 31 -5t33 -5q24 -8 41 -8q5 -2 35 -7.5t42 -13.5q2 0 4 3t5 3q22 -6 95 -19t103 -26q27 0 97.5 -1.5t107.5 -0.5q48 7 107 4q24 7 64 10.5t56 6.5q5 -3 7 -3t9 3t11 4q2 0 5.5 -2.5t4.5 -3.5q2 3 9.5 4.5t9.5 3.5q13 6 31 28t30 29 q48 64 170 182q3 3 7 8t7 8.5t7.5 7t9.5 5.5q68 77 135 129q44 48 76 70q6 12 8 14q179 155 326 250q1 -3 5 -5.5t5 -4.5q-1 -17 -5.5 -33.5t-12.5 -35.5t-11 -28q-34 -71 -133 -261t-147 -300q12 -6 54 2.5t60 3.5q57 14 95 11q-2 -7 -7.5 -9.5t-15 -2.5t-14.5 -1 q-63 -9 -119 -14q-4 -1 -27 -2.5t-35 -7.5q-2 0 -4 -3.5t-4 -4.5q-92 -225 -119 -306q-1 -7 -7.5 -37.5t-8.5 -41.5t-6.5 -37.5t-5.5 -42t-2 -38t0.5 -42t5.5 -39.5q6 -12 28 -47.5t31 -57.5q3 -4 24.5 -32.5t29.5 -46.5q0 -3 -4 -6.5t-5 -4.5q-49 17 -75.5 60.5 t-44.5 109.5q0 12 -3 21q-52 107 -182 217l-6 12q-12 0 -29 21q-16 5 -28 20q-26 5 -21 21q5 1 7 0.5t8.5 -5.5t7.5 -6q25 -15 53 -43q8 1 22 -13t21 -17q30 -38 57 -54q1 -5 7.5 -11t7.5 -11q16 -11 36.5 -40t30.5 -38q0 18 1 38t2.5 35.5t5.5 37.5t6 34.5t8 36.5t8 32.5 t10 34.5t9.5 31t10 32.5t9.5 29.5q9 11 19.5 41.5t19.5 40.5q3 22 21.5 59.5t23.5 57.5q-94 -8 -256.5 -30.5t-204.5 -27.5q-27 -23 -69.5 -71.5t-57.5 -63.5q2 -3 8.5 -6t11 -6.5t3.5 -7.5q-4 -3 -7.5 -1.5t-10 6t-9.5 5.5q-5 -2 -12 -10t-15 -8q-2 -10 -14 -23t-14 -23 q-12 -11 -25.5 -25.5t-22.5 -24.5t-24 -29t-22 -27h-9q-6 -19 -28.5 -44.5t-26.5 -31.5q-6 6 -12 6q0 7 4 11q29 32 96 113t105 122zM1501 1413q-31 -20 -88 -61.5t-88 -61.5q-1 -1 -2 -5t-2 -5q-124 -101 -195 -176q-10 -3 -23.5 -17t-19.5 -18q-22 -24 -65.5 -66 t-50.5 -49q-19 -16 -56.5 -56t-60.5 -58q0 -5 -4 -13q-14 -10 -36.5 -36t-37.5 -35q-1 -8 -11.5 -19.5t-10.5 -17.5q48 7 139.5 16.5t140.5 16.5q9 3 21 6q2 0 10.5 -1.5t11.5 -0.5q6 0 17 3.5t16 4.5q4 0 15 1t16 1q9 0 29 3t30 3q25 55 79 160.5t79 159.5q7 4 13.5 18 t12.5 18q13 36 48 102t49 105q2 1 4 5.5t4 5.5q1 11 10 32t8 33q0 2 -2 2zM-51 735h-4h4zM-31 729zM51 711q54 -13 68 -13q23 -6 28 2l-75 12.5t-99 12.5q6 -1 24 -6t30 -7t24 -1zM158 694q2 -2 7 -2t5 2q-12 6 -12 0zM152 694zM182 690h4q1 3 -2.5 3.5t-3.5 -1.5q2 0 2 -2z M1083 92q0 -2 3.5 -6.5t3.5 -5.5q0 -6 4 -6q0 -15 12 -27h2h-2q-1 5 -12 27q0 6 -4 6q0 12 -7 12zM1458 799q1 -7 -6 -9.5t-12 1.5v6q11 4 18 2zM410 639q3 -1 21.5 -5t23.5 -11q-2 0 -2 -5q-5 3 -16.5 3.5t-19 4t-7.5 13.5zM498 604q-8 -6 -21 0t-18 14v5q8 0 23 -6.5 t16 -12.5zM532 594q-2 -2 -2 -6q-9 -4 -24 6q3 8 11.5 7t14.5 -7zM575 573q-2 0 -2 -4q-13 0 -26 6t-12 17q8 -1 22 -8.5t18 -8.5v-2zM631 545q6 0 2 -8q-6 0 -2 8zM639 543q5 0 10 -5t8 -6q0 -4 -4 -8q-20 5 -14 19zM705 500q-18 -7 -21 10q-4 0 -9 3.5t-5 8.5 q30 -6 35 -22zM705 500h8l-1 -4q-1 -4 -5 -4q-4 4 -2 8zM723 494q7 -2 17 -9.5t16 -9.5q5 -9 0 -14q-3 3 -12.5 8.5t-15.5 11t-5 13.5zM762 469q1 -1 4 -2.5t4.5 -2.5t4 -4t1.5 -5t-2 -6q-3 1 -7 4.5t-7 3.5q-2 5 2 12zM356 293q0 -7 -8.5 -22t-9.5 -23q-10 -10 -30 -38.5 t-36 -39.5q0 -1 -2.5 -4t-1.5 -8q-3 -1 -7 -6.5t-7 -6.5q-10 -16 -44 -59.5t-48 -71.5q-3 0 -6 -3.5t-6 -4.5q0 -1 -2 -5t-1 -7q-9 -8 -17 -19.5t-12.5 -19.5t-12.5 -24.5t-11 -22.5q0 -6 6.5 -10.5t5.5 -10.5q-10 -16 -34 2q0 7 -2 7q11 34 29.5 65t44.5 66t38 55q3 3 13 8 q17 32 73 96q1 3 4 7.5t4 7.5q47 51 80 92zM1640 1704q-14 -10 -69.5 -44t-81.5 -58q2 -4 -2 -13q-19 0 -25 6q-1 3 4 17q10 4 19 10t21 17.5t14 13.5q6 3 6 0q5 5 22 14t23 16q11 -2 18 9q9 -1 21 5t16 7q0 6 7 5t7 -5z" />
<glyph unicode="&#xc2;" horiz-adv-x="1406" d="M573 569q2 0 2 4q3 0 7.5 -1t7.5 -1q17 20 110 123q-24 -2 -71 -7.5t-88.5 -9t-77.5 -3.5q-18 -3 -62.5 -4.5t-68.5 -5.5q44 -10 63 -21q-12 -7 -29.5 -1.5t-27.5 13.5q-3 -5 -14.5 -0.5t-14.5 2.5q-9 9 -10 11q-177 0 -258 22q-27 3 -54 9.5t-44 12t-48 17t-47 16.5 q-3 1 -6 6.5t-6 4.5q-3 2 2 12q11 -1 31 -5t33 -5q24 -8 41 -8q5 -2 35 -7.5t42 -13.5q2 0 4 3t5 3q22 -6 95 -19t103 -26q27 0 97.5 -1.5t107.5 -0.5q48 7 107 4q24 7 64 10.5t56 6.5q5 -3 7 -3t9 3t11 4q2 0 5.5 -2.5t4.5 -3.5q2 3 9.5 4.5t9.5 3.5q13 6 31 28t30 29 q48 64 170 182q3 3 7 8t7 8.5t7.5 7t9.5 5.5q68 77 135 129q44 48 76 70q6 12 8 14q179 155 326 250q1 -3 5 -5.5t5 -4.5q-1 -17 -5.5 -33.5t-12.5 -35.5t-11 -28q-34 -71 -133 -261t-147 -300q12 -6 54 2.5t60 3.5q57 14 95 11q-2 -7 -7.5 -9.5t-15 -2.5t-14.5 -1 q-63 -9 -119 -14q-4 -1 -27 -2.5t-35 -7.5q-2 0 -4 -3.5t-4 -4.5q-92 -225 -119 -306q-1 -7 -7.5 -37.5t-8.5 -41.5t-6.5 -37.5t-5.5 -42t-2 -38t0.5 -42t5.5 -39.5q6 -12 28 -47.5t31 -57.5q3 -4 24.5 -32.5t29.5 -46.5q0 -3 -4 -6.5t-5 -4.5q-49 17 -75.5 60.5 t-44.5 109.5q0 12 -3 21q-52 107 -182 217l-6 12q-12 0 -29 21q-16 5 -28 20q-26 5 -21 21q5 1 7 0.5t8.5 -5.5t7.5 -6q25 -15 53 -43q8 1 22 -13t21 -17q30 -38 57 -54q1 -5 7.5 -11t7.5 -11q16 -11 36.5 -40t30.5 -38q0 18 1 38t2.5 35.5t5.5 37.5t6 34.5t8 36.5t8 32.5 t10 34.5t9.5 31t10 32.5t9.5 29.5q9 11 19.5 41.5t19.5 40.5q3 22 21.5 59.5t23.5 57.5q-94 -8 -256.5 -30.5t-204.5 -27.5q-27 -23 -69.5 -71.5t-57.5 -63.5q2 -3 8.5 -6t11 -6.5t3.5 -7.5q-4 -3 -7.5 -1.5t-10 6t-9.5 5.5q-5 -2 -12 -10t-15 -8q-2 -10 -14 -23t-14 -23 q-12 -11 -25.5 -25.5t-22.5 -24.5t-24 -29t-22 -27h-9q-6 -19 -28.5 -44.5t-26.5 -31.5q-6 6 -12 6q0 7 4 11q29 32 96 113t105 122zM1501 1413q-31 -20 -88 -61.5t-88 -61.5q-1 -1 -2 -5t-2 -5q-124 -101 -195 -176q-10 -3 -23.5 -17t-19.5 -18q-22 -24 -65.5 -66 t-50.5 -49q-19 -16 -56.5 -56t-60.5 -58q0 -5 -4 -13q-14 -10 -36.5 -36t-37.5 -35q-1 -8 -11.5 -19.5t-10.5 -17.5q48 7 139.5 16.5t140.5 16.5q9 3 21 6q2 0 10.5 -1.5t11.5 -0.5q6 0 17 3.5t16 4.5q4 0 15 1t16 1q9 0 29 3t30 3q25 55 79 160.5t79 159.5q7 4 13.5 18 t12.5 18q13 36 48 102t49 105q2 1 4 5.5t4 5.5q1 11 10 32t8 33q0 2 -2 2zM-51 735h-4h4zM-31 729zM51 711q54 -13 68 -13q23 -6 28 2l-75 12.5t-99 12.5q6 -1 24 -6t30 -7t24 -1zM158 694q2 -2 7 -2t5 2q-12 6 -12 0zM152 694zM182 690h4q1 3 -2.5 3.5t-3.5 -1.5q2 0 2 -2z M1083 92q0 -2 3.5 -6.5t3.5 -5.5q0 -6 4 -6q0 -15 12 -27h2h-2q-1 5 -12 27q0 6 -4 6q0 12 -7 12zM1458 799q1 -7 -6 -9.5t-12 1.5v6q11 4 18 2zM410 639q3 -1 21.5 -5t23.5 -11q-2 0 -2 -5q-5 3 -16.5 3.5t-19 4t-7.5 13.5zM498 604q-8 -6 -21 0t-18 14v5q8 0 23 -6.5 t16 -12.5zM532 594q-2 -2 -2 -6q-9 -4 -24 6q3 8 11.5 7t14.5 -7zM575 573q-2 0 -2 -4q-13 0 -26 6t-12 17q8 -1 22 -8.5t18 -8.5v-2zM631 545q6 0 2 -8q-6 0 -2 8zM639 543q5 0 10 -5t8 -6q0 -4 -4 -8q-20 5 -14 19zM705 500q-18 -7 -21 10q-4 0 -9 3.5t-5 8.5 q30 -6 35 -22zM705 500h8l-1 -4q-1 -4 -5 -4q-4 4 -2 8zM723 494q7 -2 17 -9.5t16 -9.5q5 -9 0 -14q-3 3 -12.5 8.5t-15.5 11t-5 13.5zM762 469q1 -1 4 -2.5t4.5 -2.5t4 -4t1.5 -5t-2 -6q-3 1 -7 4.5t-7 3.5q-2 5 2 12zM356 293q0 -7 -8.5 -22t-9.5 -23q-10 -10 -30 -38.5 t-36 -39.5q0 -1 -2.5 -4t-1.5 -8q-3 -1 -7 -6.5t-7 -6.5q-10 -16 -44 -59.5t-48 -71.5q-3 0 -6 -3.5t-6 -4.5q0 -1 -2 -5t-1 -7q-9 -8 -17 -19.5t-12.5 -19.5t-12.5 -24.5t-11 -22.5q0 -6 6.5 -10.5t5.5 -10.5q-10 -16 -34 2q0 7 -2 7q11 34 29.5 65t44.5 66t38 55q3 3 13 8 q17 32 73 96q1 3 4 7.5t4 7.5q47 51 80 92zM1655 1567q-23 3 -29.5 28t-3 52.5t-6.5 48.5q-37 -18 -88 -72.5t-58 -60.5q-1 -6 3 -8.5t4 -4.5q-9 -4 -19.5 -0.5t-13.5 9.5q0 3 2 5.5t4 3.5l5 2.5l5 2.5q16 13 40.5 42.5t41.5 43.5q3 6 12 13.5t11 10.5q9 4 22 14.5t19 14.5 q14 2 22.5 -6t10.5 -21t2 -29.5t-1.5 -32t0.5 -28.5q2 -5 8.5 -12.5t6.5 -15.5z" />
<glyph unicode="&#xc3;" horiz-adv-x="1406" d="M573 569q2 0 2 4q3 0 7.5 -1t7.5 -1q17 20 110 123q-24 -2 -71 -7.5t-88.5 -9t-77.5 -3.5q-18 -3 -62.5 -4.5t-68.5 -5.5q44 -10 63 -21q-12 -7 -29.5 -1.5t-27.5 13.5q-3 -5 -14.5 -0.5t-14.5 2.5q-9 9 -10 11q-177 0 -258 22q-27 3 -54 9.5t-44 12t-48 17t-47 16.5 q-3 1 -6 6.5t-6 4.5q-3 2 2 12q11 -1 31 -5t33 -5q24 -8 41 -8q5 -2 35 -7.5t42 -13.5q2 0 4 3t5 3q22 -6 95 -19t103 -26q27 0 97.5 -1.5t107.5 -0.5q48 7 107 4q24 7 64 10.5t56 6.5q5 -3 7 -3t9 3t11 4q2 0 5.5 -2.5t4.5 -3.5q2 3 9.5 4.5t9.5 3.5q13 6 31 28t30 29 q48 64 170 182q3 3 7 8t7 8.5t7.5 7t9.5 5.5q68 77 135 129q44 48 76 70q6 12 8 14q179 155 326 250q1 -3 5 -5.5t5 -4.5q-1 -17 -5.5 -33.5t-12.5 -35.5t-11 -28q-34 -71 -133 -261t-147 -300q12 -6 54 2.5t60 3.5q57 14 95 11q-2 -7 -7.5 -9.5t-15 -2.5t-14.5 -1 q-63 -9 -119 -14q-4 -1 -27 -2.5t-35 -7.5q-2 0 -4 -3.5t-4 -4.5q-92 -225 -119 -306q-1 -7 -7.5 -37.5t-8.5 -41.5t-6.5 -37.5t-5.5 -42t-2 -38t0.5 -42t5.5 -39.5q6 -12 28 -47.5t31 -57.5q3 -4 24.5 -32.5t29.5 -46.5q0 -3 -4 -6.5t-5 -4.5q-49 17 -75.5 60.5 t-44.5 109.5q0 12 -3 21q-52 107 -182 217l-6 12q-12 0 -29 21q-16 5 -28 20q-26 5 -21 21q5 1 7 0.5t8.5 -5.5t7.5 -6q25 -15 53 -43q8 1 22 -13t21 -17q30 -38 57 -54q1 -5 7.5 -11t7.5 -11q16 -11 36.5 -40t30.5 -38q0 18 1 38t2.5 35.5t5.5 37.5t6 34.5t8 36.5t8 32.5 t10 34.5t9.5 31t10 32.5t9.5 29.5q9 11 19.5 41.5t19.5 40.5q3 22 21.5 59.5t23.5 57.5q-94 -8 -256.5 -30.5t-204.5 -27.5q-27 -23 -69.5 -71.5t-57.5 -63.5q2 -3 8.5 -6t11 -6.5t3.5 -7.5q-4 -3 -7.5 -1.5t-10 6t-9.5 5.5q-5 -2 -12 -10t-15 -8q-2 -10 -14 -23t-14 -23 q-12 -11 -25.5 -25.5t-22.5 -24.5t-24 -29t-22 -27h-9q-6 -19 -28.5 -44.5t-26.5 -31.5q-6 6 -12 6q0 7 4 11q29 32 96 113t105 122zM1501 1413q-31 -20 -88 -61.5t-88 -61.5q-1 -1 -2 -5t-2 -5q-124 -101 -195 -176q-10 -3 -23.5 -17t-19.5 -18q-22 -24 -65.5 -66 t-50.5 -49q-19 -16 -56.5 -56t-60.5 -58q0 -5 -4 -13q-14 -10 -36.5 -36t-37.5 -35q-1 -8 -11.5 -19.5t-10.5 -17.5q48 7 139.5 16.5t140.5 16.5q9 3 21 6q2 0 10.5 -1.5t11.5 -0.5q6 0 17 3.5t16 4.5q4 0 15 1t16 1q9 0 29 3t30 3q25 55 79 160.5t79 159.5q7 4 13.5 18 t12.5 18q13 36 48 102t49 105q2 1 4 5.5t4 5.5q1 11 10 32t8 33q0 2 -2 2zM-51 735h-4h4zM-31 729zM51 711q54 -13 68 -13q23 -6 28 2l-75 12.5t-99 12.5q6 -1 24 -6t30 -7t24 -1zM158 694q2 -2 7 -2t5 2q-12 6 -12 0zM152 694zM182 690h4q1 3 -2.5 3.5t-3.5 -1.5q2 0 2 -2z M1083 92q0 -2 3.5 -6.5t3.5 -5.5q0 -6 4 -6q0 -15 12 -27h2h-2q-1 5 -12 27q0 6 -4 6q0 12 -7 12zM1458 799q1 -7 -6 -9.5t-12 1.5v6q11 4 18 2zM410 639q3 -1 21.5 -5t23.5 -11q-2 0 -2 -5q-5 3 -16.5 3.5t-19 4t-7.5 13.5zM498 604q-8 -6 -21 0t-18 14v5q8 0 23 -6.5 t16 -12.5zM532 594q-2 -2 -2 -6q-9 -4 -24 6q3 8 11.5 7t14.5 -7zM575 573q-2 0 -2 -4q-13 0 -26 6t-12 17q8 -1 22 -8.5t18 -8.5v-2zM631 545q6 0 2 -8q-6 0 -2 8zM639 543q5 0 10 -5t8 -6q0 -4 -4 -8q-20 5 -14 19zM705 500q-18 -7 -21 10q-4 0 -9 3.5t-5 8.5 q30 -6 35 -22zM705 500h8l-1 -4q-1 -4 -5 -4q-4 4 -2 8zM723 494q7 -2 17 -9.5t16 -9.5q5 -9 0 -14q-3 3 -12.5 8.5t-15.5 11t-5 13.5zM762 469q1 -1 4 -2.5t4.5 -2.5t4 -4t1.5 -5t-2 -6q-3 1 -7 4.5t-7 3.5q-2 5 2 12zM356 293q0 -7 -8.5 -22t-9.5 -23q-10 -10 -30 -38.5 t-36 -39.5q0 -1 -2.5 -4t-1.5 -8q-3 -1 -7 -6.5t-7 -6.5q-10 -16 -44 -59.5t-48 -71.5q-3 0 -6 -3.5t-6 -4.5q0 -1 -2 -5t-1 -7q-9 -8 -17 -19.5t-12.5 -19.5t-12.5 -24.5t-11 -22.5q0 -6 6.5 -10.5t5.5 -10.5q-10 -16 -34 2q0 7 -2 7q11 34 29.5 65t44.5 66t38 55q3 3 13 8 q17 32 73 96q1 3 4 7.5t4 7.5q47 51 80 92zM1479 1686q5 0 8.5 -6t5.5 -7q0 -4 0.5 -16.5t1 -17.5t2 -14.5t4 -14t6.5 -9.5t10 -6t15 0q15 5 18 4q2 1 5 4.5t6.5 5t7.5 1.5q12 5 38.5 24t41.5 23q3 1 8.5 8.5t11.5 7.5q6 -5 2.5 -13t-12.5 -7q-4 -7 -19.5 -16.5t-19.5 -16.5 q-12 -5 -31 -18.5t-36.5 -21t-36.5 -7.5q-35 12 -39 37q-6 45 -7 47q-4 -3 -16.5 -13t-19 -16t-11 -17.5t-0.5 -25.5q-4 -4 -20 4q0 11 -2 15q5 10 10.5 19t14.5 18.5t14 14.5t17 15.5t16 14.5h6z" />
<glyph unicode="&#xc4;" horiz-adv-x="1406" d="M573 569q2 0 2 4q3 0 7.5 -1t7.5 -1q17 20 110 123q-24 -2 -71 -7.5t-88.5 -9t-77.5 -3.5q-18 -3 -62.5 -4.5t-68.5 -5.5q44 -10 63 -21q-12 -7 -29.5 -1.5t-27.5 13.5q-3 -5 -14.5 -0.5t-14.5 2.5q-9 9 -10 11q-177 0 -258 22q-27 3 -54 9.5t-44 12t-48 17t-47 16.5 q-3 1 -6 6.5t-6 4.5q-3 2 2 12q11 -1 31 -5t33 -5q24 -8 41 -8q5 -2 35 -7.5t42 -13.5q2 0 4 3t5 3q22 -6 95 -19t103 -26q27 0 97.5 -1.5t107.5 -0.5q48 7 107 4q24 7 64 10.5t56 6.5q5 -3 7 -3t9 3t11 4q2 0 5.5 -2.5t4.5 -3.5q2 3 9.5 4.5t9.5 3.5q13 6 31 28t30 29 q48 64 170 182q3 3 7 8t7 8.5t7.5 7t9.5 5.5q68 77 135 129q44 48 76 70q6 12 8 14q179 155 326 250q1 -3 5 -5.5t5 -4.5q-1 -17 -5.5 -33.5t-12.5 -35.5t-11 -28q-34 -71 -133 -261t-147 -300q12 -6 54 2.5t60 3.5q57 14 95 11q-2 -7 -7.5 -9.5t-15 -2.5t-14.5 -1 q-63 -9 -119 -14q-4 -1 -27 -2.5t-35 -7.5q-2 0 -4 -3.5t-4 -4.5q-92 -225 -119 -306q-1 -7 -7.5 -37.5t-8.5 -41.5t-6.5 -37.5t-5.5 -42t-2 -38t0.5 -42t5.5 -39.5q6 -12 28 -47.5t31 -57.5q3 -4 24.5 -32.5t29.5 -46.5q0 -3 -4 -6.5t-5 -4.5q-49 17 -75.5 60.5 t-44.5 109.5q0 12 -3 21q-52 107 -182 217l-6 12q-12 0 -29 21q-16 5 -28 20q-26 5 -21 21q5 1 7 0.5t8.5 -5.5t7.5 -6q25 -15 53 -43q8 1 22 -13t21 -17q30 -38 57 -54q1 -5 7.5 -11t7.5 -11q16 -11 36.5 -40t30.5 -38q0 18 1 38t2.5 35.5t5.5 37.5t6 34.5t8 36.5t8 32.5 t10 34.5t9.5 31t10 32.5t9.5 29.5q9 11 19.5 41.5t19.5 40.5q3 22 21.5 59.5t23.5 57.5q-94 -8 -256.5 -30.5t-204.5 -27.5q-27 -23 -69.5 -71.5t-57.5 -63.5q2 -3 8.5 -6t11 -6.5t3.5 -7.5q-4 -3 -7.5 -1.5t-10 6t-9.5 5.5q-5 -2 -12 -10t-15 -8q-2 -10 -14 -23t-14 -23 q-12 -11 -25.5 -25.5t-22.5 -24.5t-24 -29t-22 -27h-9q-6 -19 -28.5 -44.5t-26.5 -31.5q-6 6 -12 6q0 7 4 11q29 32 96 113t105 122zM1501 1413q-31 -20 -88 -61.5t-88 -61.5q-1 -1 -2 -5t-2 -5q-124 -101 -195 -176q-10 -3 -23.5 -17t-19.5 -18q-22 -24 -65.5 -66 t-50.5 -49q-19 -16 -56.5 -56t-60.5 -58q0 -5 -4 -13q-14 -10 -36.5 -36t-37.5 -35q-1 -8 -11.5 -19.5t-10.5 -17.5q48 7 139.5 16.5t140.5 16.5q9 3 21 6q2 0 10.5 -1.5t11.5 -0.5q6 0 17 3.5t16 4.5q4 0 15 1t16 1q9 0 29 3t30 3q25 55 79 160.5t79 159.5q7 4 13.5 18 t12.5 18q13 36 48 102t49 105q2 1 4 5.5t4 5.5q1 11 10 32t8 33q0 2 -2 2zM-51 735h-4h4zM-31 729zM51 711q54 -13 68 -13q23 -6 28 2l-75 12.5t-99 12.5q6 -1 24 -6t30 -7t24 -1zM158 694q2 -2 7 -2t5 2q-12 6 -12 0zM152 694zM182 690h4q1 3 -2.5 3.5t-3.5 -1.5q2 0 2 -2z M1083 92q0 -2 3.5 -6.5t3.5 -5.5q0 -6 4 -6q0 -15 12 -27h2h-2q-1 5 -12 27q0 6 -4 6q0 12 -7 12zM1458 799q1 -7 -6 -9.5t-12 1.5v6q11 4 18 2zM410 639q3 -1 21.5 -5t23.5 -11q-2 0 -2 -5q-5 3 -16.5 3.5t-19 4t-7.5 13.5zM498 604q-8 -6 -21 0t-18 14v5q8 0 23 -6.5 t16 -12.5zM532 594q-2 -2 -2 -6q-9 -4 -24 6q3 8 11.5 7t14.5 -7zM575 573q-2 0 -2 -4q-13 0 -26 6t-12 17q8 -1 22 -8.5t18 -8.5v-2zM631 545q6 0 2 -8q-6 0 -2 8zM639 543q5 0 10 -5t8 -6q0 -4 -4 -8q-20 5 -14 19zM705 500q-18 -7 -21 10q-4 0 -9 3.5t-5 8.5 q30 -6 35 -22zM705 500h8l-1 -4q-1 -4 -5 -4q-4 4 -2 8zM723 494q7 -2 17 -9.5t16 -9.5q5 -9 0 -14q-3 3 -12.5 8.5t-15.5 11t-5 13.5zM762 469q1 -1 4 -2.5t4.5 -2.5t4 -4t1.5 -5t-2 -6q-3 1 -7 4.5t-7 3.5q-2 5 2 12zM356 293q0 -7 -8.5 -22t-9.5 -23q-10 -10 -30 -38.5 t-36 -39.5q0 -1 -2.5 -4t-1.5 -8q-3 -1 -7 -6.5t-7 -6.5q-10 -16 -44 -59.5t-48 -71.5q-3 0 -6 -3.5t-6 -4.5q0 -1 -2 -5t-1 -7q-9 -8 -17 -19.5t-12.5 -19.5t-12.5 -24.5t-11 -22.5q0 -6 6.5 -10.5t5.5 -10.5q-10 -16 -34 2q0 7 -2 7q11 34 29.5 65t44.5 66t38 55q3 3 13 8 q17 32 73 96q1 3 4 7.5t4 7.5q47 51 80 92zM1622 1597q2 -2 3.5 -9.5t4.5 -8.5q0 -4 -4 -12q-27 0 -29 8q3 22 25 22zM1501 1563q-3 -1 -8 -4t-8 -4.5t-7 -0.5t-8 5q-2 10 1.5 14.5t9.5 7.5t8 6q15 0 12 -24z" />
<glyph unicode="&#xc5;" horiz-adv-x="1406" d="M573 569q2 0 2 4q3 0 7.5 -1t7.5 -1q17 20 110 123q-24 -2 -71 -7.5t-88.5 -9t-77.5 -3.5q-18 -3 -62.5 -4.5t-68.5 -5.5q44 -10 63 -21q-12 -7 -29.5 -1.5t-27.5 13.5q-3 -5 -14.5 -0.5t-14.5 2.5q-9 9 -10 11q-177 0 -258 22q-27 3 -54 9.5t-44 12t-48 17t-47 16.5 q-3 1 -6 6.5t-6 4.5q-3 2 2 12q11 -1 31 -5t33 -5q24 -8 41 -8q5 -2 35 -7.5t42 -13.5q2 0 4 3t5 3q22 -6 95 -19t103 -26q27 0 97.5 -1.5t107.5 -0.5q48 7 107 4q24 7 64 10.5t56 6.5q5 -3 7 -3t9 3t11 4q2 0 5.5 -2.5t4.5 -3.5q2 3 9.5 4.5t9.5 3.5q13 6 31 28t30 29 q48 64 170 182q3 3 7 8t7 8.5t7.5 7t9.5 5.5q68 77 135 129q44 48 76 70q6 12 8 14q179 155 326 250q1 -3 5 -5.5t5 -4.5q-1 -17 -5.5 -33.5t-12.5 -35.5t-11 -28q-34 -71 -133 -261t-147 -300q12 -6 54 2.5t60 3.5q57 14 95 11q-2 -7 -7.5 -9.5t-15 -2.5t-14.5 -1 q-63 -9 -119 -14q-4 -1 -27 -2.5t-35 -7.5q-2 0 -4 -3.5t-4 -4.5q-92 -225 -119 -306q-1 -7 -7.5 -37.5t-8.5 -41.5t-6.5 -37.5t-5.5 -42t-2 -38t0.5 -42t5.5 -39.5q6 -12 28 -47.5t31 -57.5q3 -4 24.5 -32.5t29.5 -46.5q0 -3 -4 -6.5t-5 -4.5q-49 17 -75.5 60.5 t-44.5 109.5q0 12 -3 21q-52 107 -182 217l-6 12q-12 0 -29 21q-16 5 -28 20q-26 5 -21 21q5 1 7 0.5t8.5 -5.5t7.5 -6q25 -15 53 -43q8 1 22 -13t21 -17q30 -38 57 -54q1 -5 7.5 -11t7.5 -11q16 -11 36.5 -40t30.5 -38q0 18 1 38t2.5 35.5t5.5 37.5t6 34.5t8 36.5t8 32.5 t10 34.5t9.5 31t10 32.5t9.5 29.5q9 11 19.5 41.5t19.5 40.5q3 22 21.5 59.5t23.5 57.5q-94 -8 -256.5 -30.5t-204.5 -27.5q-27 -23 -69.5 -71.5t-57.5 -63.5q2 -3 8.5 -6t11 -6.5t3.5 -7.5q-4 -3 -7.5 -1.5t-10 6t-9.5 5.5q-5 -2 -12 -10t-15 -8q-2 -10 -14 -23t-14 -23 q-12 -11 -25.5 -25.5t-22.5 -24.5t-24 -29t-22 -27h-9q-6 -19 -28.5 -44.5t-26.5 -31.5q-6 6 -12 6q0 7 4 11q29 32 96 113t105 122zM1501 1413q-31 -20 -88 -61.5t-88 -61.5q-1 -1 -2 -5t-2 -5q-124 -101 -195 -176q-10 -3 -23.5 -17t-19.5 -18q-22 -24 -65.5 -66 t-50.5 -49q-19 -16 -56.5 -56t-60.5 -58q0 -5 -4 -13q-14 -10 -36.5 -36t-37.5 -35q-1 -8 -11.5 -19.5t-10.5 -17.5q48 7 139.5 16.5t140.5 16.5q9 3 21 6q2 0 10.5 -1.5t11.5 -0.5q6 0 17 3.5t16 4.5q4 0 15 1t16 1q9 0 29 3t30 3q25 55 79 160.5t79 159.5q7 4 13.5 18 t12.5 18q13 36 48 102t49 105q2 1 4 5.5t4 5.5q1 11 10 32t8 33q0 2 -2 2zM-51 735h-4h4zM-31 729zM51 711q54 -13 68 -13q23 -6 28 2l-75 12.5t-99 12.5q6 -1 24 -6t30 -7t24 -1zM158 694q2 -2 7 -2t5 2q-12 6 -12 0zM152 694zM182 690h4q1 3 -2.5 3.5t-3.5 -1.5q2 0 2 -2z M1083 92q0 -2 3.5 -6.5t3.5 -5.5q0 -6 4 -6q0 -15 12 -27h2h-2q-1 5 -12 27q0 6 -4 6q0 12 -7 12zM1458 799q1 -7 -6 -9.5t-12 1.5v6q11 4 18 2zM410 639q3 -1 21.5 -5t23.5 -11q-2 0 -2 -5q-5 3 -16.5 3.5t-19 4t-7.5 13.5zM498 604q-8 -6 -21 0t-18 14v5q8 0 23 -6.5 t16 -12.5zM532 594q-2 -2 -2 -6q-9 -4 -24 6q3 8 11.5 7t14.5 -7zM575 573q-2 0 -2 -4q-13 0 -26 6t-12 17q8 -1 22 -8.5t18 -8.5v-2zM631 545q6 0 2 -8q-6 0 -2 8zM639 543q5 0 10 -5t8 -6q0 -4 -4 -8q-20 5 -14 19zM705 500q-18 -7 -21 10q-4 0 -9 3.5t-5 8.5 q30 -6 35 -22zM705 500h8l-1 -4q-1 -4 -5 -4q-4 4 -2 8zM723 494q7 -2 17 -9.5t16 -9.5q5 -9 0 -14q-3 3 -12.5 8.5t-15.5 11t-5 13.5zM762 469q1 -1 4 -2.5t4.5 -2.5t4 -4t1.5 -5t-2 -6q-3 1 -7 4.5t-7 3.5q-2 5 2 12zM356 293q0 -7 -8.5 -22t-9.5 -23q-10 -10 -30 -38.5 t-36 -39.5q0 -1 -2.5 -4t-1.5 -8q-3 -1 -7 -6.5t-7 -6.5q-10 -16 -44 -59.5t-48 -71.5q-3 0 -6 -3.5t-6 -4.5q0 -1 -2 -5t-1 -7q-9 -8 -17 -19.5t-12.5 -19.5t-12.5 -24.5t-11 -22.5q0 -6 6.5 -10.5t5.5 -10.5q-10 -16 -34 2q0 7 -2 7q11 34 29.5 65t44.5 66t38 55q3 3 13 8 q17 32 73 96q1 3 4 7.5t4 7.5q47 51 80 92zM1561 1688q0 3 3.5 1t4.5 1q15 -7 28 -43q0 -12 -4.5 -23t-8 -18t-14 -17t-14 -13t-18.5 -14t-16 -12q-28 -8 -43 15q-7 20 20 55q6 9 20.5 22.5t18.5 18.5l3.5 7t4 6.5t4 4.5t6.5 4q0 5 5 5zM1554 1638q-3 0 -7 4l-5 5 q-2 -5 -11 -13t-13 -14q-40 -47 -11 -53q10 -2 23.5 8.5t28.5 27.5t18 19q0 2 1.5 7.5t0.5 8.5q-4 2 -9 10.5t-9 10.5q-2 -2 -3 -11t-4 -10z" />
<glyph unicode="&#xc6;" horiz-adv-x="2242" d="M1845 1358q4 -13 -8 -33t-25 -33q-25 -28 -40 -41q-9 -18 -31.5 -44t-30.5 -40q8 0 35 11h10q2 1 12.5 6t16.5 6q3 1 10 1.5t12 1.5t9 3q2 0 5.5 3t4.5 3q3 1 14 1.5t16 2.5q8 2 25.5 9.5t30.5 9.5l39 4q22 9 41 12h14q3 1 12.5 5.5t14.5 4.5h22q3 1 15 5.5t22 5.5 q6 1 17 5t14 5q1 0 3 -2t3 -2q11 1 33 7t28 7q4 0 4 -6q84 22 146 0q4 -12 2 -23q-16 -27 -66 -49q-60 -39 -170 -84q-28 -17 -69 -30q-2 -1 -6 -4.5t-6 -5t-5.5 -3t-7.5 -0.5q16 23 49 27q3 2 19 12t22 13t19.5 8t25.5 6q3 6 13 9.5t12 10.5q8 -1 18.5 6t18.5 7q11 9 57 34 t62 50q-3 9 -19.5 10t-21.5 4q-27 0 -129 -12q-21 -4 -85 -17t-96 -18q-1 -2 -5 -4t-5 -4q-1 0 -4 1.5t-6 0.5q-21 -6 -87 -24t-108.5 -31t-81.5 -29q-4 -2 -10 -10t-10 -11q-2 3 3 9t5 8q-13 -4 -76 -29q-5 -24 -10 -29q-2 0 -3.5 4.5t-2.5 5.5q-16 -10 -39 -36.5 t-37 -36.5q0 -3 -3 -7.5t-3 -7.5q-112 -139 -162 -211q1 0 3 -1t3 -1q37 8 74 11q5 3 18 9t23 12t18 13h11q8 4 23 12.5t26 13.5t20 7q6 6 15.5 11.5t25 12.5t19.5 9q-1 -7 -10 -13t-11 -8q-9 0 -18.5 -8t-18.5 -8q-50 -34 -120 -63q-3 -13 -21 -13q-13 -8 -53 -28t-58 -33 q-1 0 -2 1t-2 1q-12 -6 -26 -25t-17 -22q-7 -14 -59 -102t-74 -140q16 -4 56 6t55 11q48 15 161.5 43.5t168.5 46.5h12q21 10 63.5 19.5t57.5 14.5q6 0 6 -2l10 9q23 3 107.5 18.5t128.5 17.5q10 -2 32.5 0.5t28.5 -2.5q3 1 7 5t7 4q6 -7 24.5 -8t22.5 -9q18 3 36.5 -4 t25.5 -20q-2 -8 -6 -11q-83 23 -117 21h-33q-6 3 -18.5 1.5t-20.5 0.5q-22 -4 -71.5 -11t-76.5 -11.5t-66 -13.5t-70 -19q-22 -3 -66.5 -15.5t-60.5 -15.5q-24 -12 -39 -12q-36 -11 -108.5 -31.5t-100.5 -28.5q-80 -19 -117 -30q-8 2 -20.5 -3t-20.5 -2q-8 -8 -14 -8 q-3 -10 -16.5 -45.5t-18.5 -58.5q-13 -53 -6 -129q6 -10 28 -45t31 -56q7 -12 26 -35.5t26 -37.5l16 -13q2 -1 4.5 1t5.5 1q11 -6 60 -18q1 1 6 -4q12 3 43 0.5t41 3.5q27 -1 77.5 10t63.5 13q14 9 35 12q8 5 28 11t27 11q15 1 41.5 13t40.5 14q48 27 84 35l4 8q8 0 8 -4 q9 9 34 19t32 14v-6q3 6 16.5 12.5t16.5 9.5q6 3 6 -4q13 9 67 35q1 0 6 -2q16 14 49 27t44 20q2 -3 0.5 -5t-4 -3.5t-5.5 -3.5t-4 -5q-22 -6 -55 -23.5t-53 -23.5q-59 -32 -97 -43q-44 -24 -132.5 -60t-110.5 -46q-12 2 -33 -12q-33 -6 -88 -27q-56 -8 -82 -14 q-74 -3 -100 -2q-71 6 -123 45q-61 36 -96 157q0 12 -3 21q-52 107 -182 217l-6 12q-12 0 -29 21q-16 5 -28 20q-26 5 -21 21q5 1 7 0.5t8.5 -5.5t7.5 -6q25 -15 53 -43q8 1 22 -13t21 -17q30 -38 57 -54q1 -5 7.5 -11t7.5 -11q16 -11 36.5 -40t30.5 -38q-2 66 21 176 q-114 -4 -129 53q-8 24 8 33q1 5 2.5 9t4 7.5t4 6t5 5.5t5 4.5t6.5 4.5t6 4q38 41 78 62q1 1 7.5 6t8.5 10q40 15 65 43l17 8q4 18 22 53t23 56q-94 -8 -256.5 -30.5t-204.5 -27.5q-27 -23 -69.5 -71.5t-57.5 -63.5q2 -3 8.5 -6t11 -6.5t3.5 -7.5q-4 -3 -7.5 -1.5t-10 6 t-9.5 5.5q-5 -2 -12 -10t-15 -8q-2 -10 -14 -23t-14 -23q-12 -11 -25.5 -25.5t-22.5 -24.5t-24 -29t-22 -27h-9q-6 -19 -28.5 -44.5t-26.5 -31.5q-6 6 -12 6q0 7 4 11q29 32 96 113t105 122l-5 10q-13 0 -26 6t-12 17q8 -1 22 -8.5t18 -8.5v-2q3 0 7.5 -1t7.5 -1 q17 20 110 123q-24 -2 -71 -7.5t-88.5 -9t-77.5 -3.5q-18 -3 -62.5 -4.5t-68.5 -5.5q44 -10 63 -21q-12 -7 -29.5 -1.5t-27.5 13.5q-3 -5 -14.5 -0.5t-14.5 2.5q-9 9 -10 11q-177 0 -258 22q-27 3 -54 9.5t-44 12t-48 17t-47 16.5q-3 1 -6 6.5t-6 4.5q-3 2 2 12q11 -1 31 -5 t33 -5q24 -8 41 -8q5 -2 35 -7.5t42 -13.5q2 0 4 3t5 3q22 -6 95 -19t103 -26q27 0 97.5 -1.5t107.5 -0.5q48 7 107 4q24 7 64 10.5t56 6.5q5 -3 7 -3t9 3t11 4q2 0 5.5 -2.5t4.5 -3.5q2 3 9.5 4.5t9.5 3.5q13 6 31 28t30 29q48 64 170 182q3 3 7 8t7 8.5t7.5 7t9.5 5.5 q68 77 135 129q44 48 76 70q6 12 8 14q179 155 326 250q1 -3 5 -5.5t5 -4.5q-1 -17 -5.5 -33.5t-12.5 -35.5t-11 -28q-34 -71 -133 -261t-147 -300q15 -4 26 -3t33.5 5.5t34.5 5.5q1 0 6 5q36 64 78 106q9 25 31 37q18 33 62.5 82.5t59.5 70.5q3 0 6.5 3t6.5 2q9 14 8 20 q2 1 5.5 5t8.5 3q33 36 95.5 98t82.5 82q15 6 37.5 29t40.5 29zM1501 1413q-31 -20 -88 -61.5t-88 -61.5q-1 -1 -2 -5t-2 -5q-124 -101 -195 -176q-10 -3 -23.5 -17t-19.5 -18q-22 -24 -65.5 -66t-50.5 -49q-19 -16 -56.5 -56t-60.5 -58q0 -5 -4 -13q-14 -10 -36.5 -36 t-37.5 -35q-1 -8 -11.5 -19.5t-10.5 -17.5q48 7 139.5 16.5t140.5 16.5l21 6q2 0 10.5 -1.5t11.5 -0.5q6 0 17 3.5t16 4.5q4 0 15 1t16 1q9 0 29 3t30 3q25 55 79 160.5t79 159.5q7 4 13.5 18t12.5 18q13 36 48 102t49 105q2 1 4 5.5t4 5.5q1 11 10 32t8 33q0 2 -2 2z M1106 557q8 9 17.5 34t11.5 30q-17 -5 -50 -27q-1 -1 -5 -2t-5 -2q-14 -9 -37.5 -29.5t-27.5 -23.5q-44 -38 -45 -39l-17 -25q-6 -7 -3.5 -14.5t4 -11.5t8.5 -9t11.5 -7t13 -5.5t11.5 -5.5q45 -4 72 0q11 45 41 137zM1200 666q-9 -11 -41 -29q-52 -127 -72 -193 q-4 -16 -4 -22l17 4q24 55 81.5 153t61.5 105q-4 -1 -18 -9.5t-25 -8.5zM356 293q0 -7 -8.5 -22t-9.5 -23q-10 -10 -30 -38.5t-36 -39.5q0 -1 -2.5 -4t-1.5 -8q-3 -1 -7 -6.5t-7 -6.5q-10 -16 -44 -59.5t-48 -71.5q-3 0 -6 -3.5t-6 -4.5q0 -1 -2 -5t-1 -7q-9 -8 -17 -19.5 t-12.5 -19.5t-12.5 -24.5t-11 -22.5q0 -6 6.5 -10.5t5.5 -10.5q-10 -16 -34 2q0 7 -2 7q11 34 29.5 65t44.5 66t38 55q3 3 13 8q17 32 73 96q1 3 4 7.5t4 7.5q47 51 80 92zM1276 768q-4 -1 -27 -2.5t-35 -7.5q-2 0 -4 -3.5t-4 -4.5l-37 -88q6 4 19 12.5t24 15t21 10.5 q1 0 14 13q9 0 21 8q4 7 20 21.5t19 27.5q-5 0 -15.5 -1t-15.5 -1zM1757 1272q-21 -25 -41 -37q-14 -18 -49 -49q-2 -4 -9 -11.5t-9 -11.5q-2 -2 -9.5 -7t-11.5 -9.5t-2 -9.5q8 4 34.5 11.5t39.5 18t18 29.5q2 0 4.5 -1.5t3.5 1.5q35 55 80 109q0 4 -4 4q-38 -33 -45 -37z M1321 772l-25 -39q12 6 40.5 22.5t43.5 22.5q2 1 4 -1t5 -1l4 6q-53 -8 -72 -10zM51 711q54 -13 68 -13q23 -6 28 2l-75 12.5t-99 12.5q6 -1 24 -6t30 -7t24 -1zM723 494q7 -2 17 -9.5t16 -9.5q5 -9 0 -14q-3 3 -12.5 8.5t-15.5 11t-5 13.5zM498 604q-8 -6 -21 0t-18 14v5 q8 0 23 -6.5t16 -12.5zM410 639q3 -1 21.5 -5t23.5 -11q-2 0 -2 -5q-5 3 -16.5 3.5t-19 4t-7.5 13.5zM705 500q-18 -7 -21 10q-4 0 -9 3.5t-5 8.5q30 -6 35 -22zM532 594q-2 -2 -2 -6q-9 -4 -24 6q3 8 11.5 7t14.5 -7zM1075 391l-12 -63q8 29 22 65q-2 0 -5 -1t-5 -1z M639 543q5 0 10 -5t8 -6q0 -4 -4 -8q-20 5 -14 19zM762 469q1 -1 4 -2.5t4.5 -2.5t4 -4t1.5 -5t-2 -6q-3 1 -7 4.5t-7 3.5q-2 5 2 12zM1458 799q1 -7 -6 -9.5t-12 1.5v6q11 4 18 2zM2054 219q3 -5 -3 -8.5t-15 -5.5q0 3 3 6t3 6q8 -2 12 2zM1083 92q0 -2 3.5 -6.5t3.5 -5.5 v-2q0 -2 2 -4h2v-8l10 -17q-2 10 -10 25q0 6 -4 6q0 12 -7 12zM1997 1079q2 1 3.5 -0.5t4.5 -1.5q0 -3 -4.5 -6t-5.5 -4q-5 1 -1.5 6t3.5 6zM1985 1069q0 -3 -3 -6l-4 -4q-6 2 -1 8q3 3 8 2zM705 500h8l-1 -4q-1 -4 -5 -4q-4 4 -2 8zM1888 1024q-4 -8 -10 -6q0 8 10 6z M1954 1055q0 -4 -1 -5t-3 1l-2 -3q-2 -2 -6 -1q1 3 3 4.5t5 2.5t4 1zM158 694q2 -2 7 -2t5 2q-12 6 -12 0zM631 545q6 0 2 -8q-6 0 -2 8zM1751 965q4 -1 3 -4q-1 -2 -1 -3q-6 0 -6 -2q-3 1 -2 2.5t3.5 3.5t2.5 3zM1767 971q0 -8 -8 -8q3 5 8 8zM1919 1040q0 -1 -1 -2 q-2 -6 -7 -4q6 6 8 6zM1872 1018q0 -6 -8 -6q6 6 8 6zM1737 952l4 2q1 -2 -3 -4q-2 -1 -2.5 -0.5t1.5 2.5zM1704 938h2v-4h-4v4h2zM182 690h4q1 3 -2.5 3.5t-3.5 -1.5q2 0 2 -2zM1968 1063q4 -1 0 -4q-2 -1 -2 -2q-1 1 2 6zM575 573q0 -4 -2 -4q0 4 2 4z" />
<glyph unicode="&#xc7;" horiz-adv-x="1077" d="M666 569q1 11 7 20t10 12t15 11q27 41 76 101q17 36 68 108q9 18 33.5 66.5t37 75.5t30.5 69.5t30 82t20 79.5q11 59 -5 111t-56 75q-23 11 -50 12t-56.5 -7.5t-47 -15.5t-43.5 -19q-5 -3 -24 -15.5t-31 -17.5q-15 -15 -49 -40.5t-49 -39.5q-8 -8 -43 -44t-54 -54 q-6 -9 -6 -17q-19 -8 -40.5 -38t-32.5 -37q-15 -25 -46 -70t-36 -53q-16 -23 -41.5 -65.5t-36.5 -59.5q-8 -20 -30.5 -62t-31.5 -67q-3 -3 -6 -11t-6 -10q-27 -67 -37 -94t-33.5 -93.5t-31.5 -110.5t-18 -106.5t-7.5 -122.5t14.5 -120q5 -10 14.5 -32.5t14.5 -32.5 q1 -1 7 -7.5t5 -13.5q9 -7 31 -26.5t35 -28.5q66 -18 123 -13q30 6 145 39q1 1 4.5 5.5t5.5 5.5q28 7 69 27.5t60 27.5q8 8 9 10q39 17 74.5 37.5t90.5 58t68 45.5q8 0 10 2q3 3 62 44q4 1 26.5 17t34.5 11q-4 -7 -16 -13.5t-14 -8.5q-3 -3 -15 -10.5t-16 -12.5 q-8 -6 -31.5 -19.5t-32.5 -23.5q-27 -16 -180 -117q-6 0 -14 -4q-99 -63 -217 -106q-44 -17 -89 -27t-100 -6.5t-90 29.5q-83 66 -98 180q-10 49 -10.5 105.5t5.5 103t19.5 104t24.5 95t28 88.5q1 3 4.5 8t4.5 6q0 2 1.5 6.5t0.5 9.5q11 20 30 67.5t33 69.5q2 14 14 33.5 t15 30.5q3 -1 4.5 3.5t5.5 2.5q3 14 15.5 35t15.5 35q13 16 37 55t41 57q2 4 7 12.5t9.5 14.5t9.5 10q2 9 12.5 21.5t12.5 21.5q12 11 36.5 41t41.5 43q5 16 26 36t27 32q12 8 34.5 32t39.5 33q1 5 7 10t7 7q3 1 8.5 6t9.5 6q12 13 28.5 25.5t38.5 28t34 24.5q22 7 53 26 q45 21 99 23t93 -25q47 -47 56 -106q3 -13 0.5 -40t-3.5 -36t-5.5 -35.5t-6.5 -36.5q-2 -1 -4.5 -5t-5.5 -5q2 -6 0 -14t-6.5 -18t-5.5 -15q-13 -39 -23 -49q1 -17 -10.5 -36t-11.5 -34q-15 -21 -46 -83.5t-55 -88.5q0 -5 -3.5 -10t-2.5 -10q-10 -14 -50.5 -73t-65.5 -89 q-3 -2 -17.5 -15.5t-25.5 -13.5zM362 -266q-3 -4 -10 -2.5t-8 0.5q-4 -6 -15 -17.5t-18.5 -23t-11.5 -25.5q0 -2 2 -3t2 -3q57 -16 66 -49q0 -17 -7.5 -32t-14 -22.5t-24.5 -23t-22 -18.5q-34 -38 -78 -50q-20 -4 -30.5 10t-6.5 32t19 24q5 -6 0.5 -21.5t1.5 -21.5 q25 2 44.5 12.5t39.5 28.5t31 25q2 5 14 23t10 34q-5 14 -33 24t-34 23q3 23 13.5 39t30.5 33.5t27 25.5q7 -2 11 -8.5t1 -13.5z" />
<glyph unicode="&#xc8;" horiz-adv-x="1347" d="M952 1358q4 -13 -7.5 -33t-24.5 -33q-22 -25 -41 -41q-9 -18 -31.5 -44t-30.5 -40q7 0 35 11h10q2 1 12.5 6t16.5 6q3 1 10 1.5t12 1.5t9 3q2 0 5.5 3t4.5 3q3 1 14.5 1.5t16.5 2.5q8 2 25 9.5t30 9.5q6 1 19.5 2t19.5 2q22 9 41 12h14q3 1 12.5 5.5t14.5 4.5h22 q3 1 15 5.5t22 5.5q6 1 17 5t14 5q1 0 3 -2t3 -2q11 1 33 7t28 7q4 0 4 -6q84 22 146 0q4 -12 2 -23q-16 -27 -66 -49q-60 -39 -170 -84q-28 -17 -69 -30q-2 -1 -6 -4.5t-6 -5t-5.5 -3t-7.5 -0.5q16 23 49 27q3 2 19 12t22 13t19.5 8t25.5 6q3 6 13 9.5t12 10.5q8 -1 18.5 6 t18.5 7q11 9 57 34t62 50q-3 9 -19.5 10t-21.5 4q-27 0 -129 -12q-21 -4 -85 -17t-96 -18q-1 -2 -5 -4t-5 -4q-1 0 -4 1.5t-6 0.5q-21 -6 -87 -24t-108.5 -31t-81.5 -29q-4 -2 -10 -10t-10 -11q-2 3 3 9t5 8q-13 -4 -76 -29q-5 -24 -10 -29q-2 0 -4 4.5t-2 5.5 q-16 -10 -39 -36.5t-37 -36.5q0 -3 -3 -7.5t-3 -7.5q-129 -160 -197 -264q12 6 40.5 22.5t43.5 22.5q2 1 4 -1t5 -1q11 13 41 28t41 25h10q8 4 23 12.5t26 13.5t20 7q6 6 15.5 11.5t25 12.5t19.5 9q-1 -7 -10 -13t-11 -8q-9 0 -18.5 -8t-18.5 -8q-63 -41 -127 -65 q-18 -13 -61.5 -36t-62.5 -36q-1 0 -2.5 1t-2.5 1q-12 -6 -26 -25t-17 -22q-7 -14 -59 -102t-74 -140q16 -4 56 6t55 11q48 15 161.5 43.5t168.5 46.5h12q21 10 63.5 19.5t57.5 14.5q6 0 6 -2q2 1 10 9q23 3 107.5 18.5t128.5 17.5q10 -2 32.5 0.5t28.5 -2.5q3 1 7 5t7 4 q6 -7 25 -8t23 -9q18 3 36 -4t25 -20q-3 -8 -6 -11q-83 23 -117 21h-33q-6 3 -18.5 1.5t-20.5 0.5q-22 -4 -71.5 -11t-76.5 -11.5t-66 -13.5t-70 -19q-22 -3 -66.5 -15.5t-60.5 -15.5q-24 -12 -39 -12q-36 -11 -108.5 -31.5t-100.5 -28.5q-80 -19 -117 -30q-8 2 -20.5 -3 t-20.5 -2q-8 -8 -14 -8q-3 -10 -16.5 -45.5t-18.5 -58.5q-21 -99 10 -197q2 -4 8 -11.5t7 -14.5q14 -24 16 -29q2 -3 14 -13t15 -18q8 -7 26 -17t25 -16q2 -1 4.5 1t5.5 1q11 -6 60 -18q1 1 6 -4q12 3 43 0.5t41 3.5q27 -1 77.5 10t63.5 13q14 9 35 12q8 5 28 11t27 11 q15 1 41.5 13t40.5 14q48 27 84 35q1 1 2 4t2 4q8 0 8 -4q9 9 34 19t32 14v-6q3 6 16.5 12.5t16.5 9.5q6 3 6 -4q13 9 67 35q1 0 6 -2q16 14 49 27t44 20q2 -3 0.5 -5t-4 -3.5t-5.5 -3.5t-4 -5q-22 -6 -55 -23.5t-53 -23.5q-60 -33 -96 -43q-44 -24 -132.5 -60t-111.5 -46 q-12 2 -33 -12q-33 -6 -88 -27q-56 -8 -82 -14q-74 -3 -100 -2q-96 6 -154 72.5t-67 170.5q-3 96 41 211q-56 -6 -102.5 4.5t-55.5 46.5q-8 24 8 33q1 5 2.5 9t4 7.5t4 6t5 5.5t5 4.5t6.5 4.5t6 4q38 41 78 62q1 1 7.5 6t8.5 10q41 15 66 43q20 8 53 30.5t51 30.5q1 0 14 13 q9 0 21 8q3 5 21 21.5t20 33.5q2 3 14 15q36 64 78 106q9 25 31 37q18 33 63 82.5t60 70.5q3 0 6 3t6 2q9 14 8 20q2 1 5.5 5t8.5 3q33 36 95.5 98t82.5 82q15 6 37.5 29t40.5 29zM864 1272q-21 -25 -41 -37q-14 -18 -49 -49q-2 -4 -9 -11.5t-9 -11.5q-2 -2 -9.5 -7 t-11.5 -9.5t-2 -9.5q8 4 34.5 11.5t39.5 18t18 29.5q2 0 5 -1.5t4 1.5q39 60 79 109q0 4 -4 4q-38 -33 -45 -37zM307 666q-9 -10 -32 -23.5t-31 -19.5q-14 -4 -51 -29q-1 -1 -5.5 -2t-5.5 -2q-14 -9 -37.5 -29.5t-27.5 -23.5q-44 -38 -45 -39q-3 -4 -17 -25 q-6 -7 -3.5 -14.5t4 -11.5t8.5 -9t11.5 -7t13 -5.5t11.5 -5.5q60 -4 107 6q24 55 81.5 153t61.5 105q-4 -1 -18 -9.5t-25 -8.5zM756 1106zM756 1106zM750 1100zM1104 1079q2 1 3.5 -0.5t4.5 -1.5q0 -3 -4.5 -6t-5.5 -4q-4 1 -1 6t3 6zM1092 1069q0 -3 -3 -6l-4 -4q-6 2 -1 8 q3 3 8 2zM1075 1063q4 -1 0 -4q-2 -1 -2 -2q-1 1 2 6zM1061 1055q0 -4 -1 -5t-3 1l-2 -3q-2 -2 -6 -1q1 3 3 4.5t5 2.5t4 1zM1026 1040q0 -1 -1 -2q-2 -6 -7 -4q6 6 8 6zM995 1024q-4 -8 -10 -6q0 8 10 6zM979 1018q0 -6 -8 -6q6 6 8 6zM874 971q0 -8 -8 -8q3 5 8 8z M858 965q4 -1 3 -4q-1 -2 -1 -3q-6 0 -6 -2q-3 1 -2 2.5t3.5 3.5t2.5 3zM844 952l4 2q2 -2 -4 -4q-1 -1 -1.5 -0.5t1.5 2.5zM836 948zM811 938h2v-4h-4v4h2zM1161 219q3 -5 -3 -8.5t-15 -5.5q0 3 3 6t3 6q8 -2 12 2zM1204 1456q-6 -1 -12.5 2t-15.5 10t-11 9q-4 3 -16 13 t-19 13q-4 7 -18 25t-20 31q0 6 6 8.5t10 -0.5q7 -9 30.5 -38t37.5 -44q3 -3 11 -7.5t12.5 -9t4.5 -12.5z" />
<glyph unicode="&#xc9;" horiz-adv-x="1347" d="M952 1358q4 -13 -7.5 -33t-24.5 -33q-22 -25 -41 -41q-9 -18 -31.5 -44t-30.5 -40q7 0 35 11h10q2 1 12.5 6t16.5 6q3 1 10 1.5t12 1.5t9 3q2 0 5.5 3t4.5 3q3 1 14.5 1.5t16.5 2.5q8 2 25 9.5t30 9.5q6 1 19.5 2t19.5 2q22 9 41 12h14q3 1 12.5 5.5t14.5 4.5h22 q3 1 15 5.5t22 5.5q6 1 17 5t14 5q1 0 3 -2t3 -2q11 1 33 7t28 7q4 0 4 -6q84 22 146 0q4 -12 2 -23q-16 -27 -66 -49q-60 -39 -170 -84q-28 -17 -69 -30q-2 -1 -6 -4.5t-6 -5t-5.5 -3t-7.5 -0.5q16 23 49 27q3 2 19 12t22 13t19.5 8t25.5 6q3 6 13 9.5t12 10.5q8 -1 18.5 6 t18.5 7q11 9 57 34t62 50q-3 9 -19.5 10t-21.5 4q-27 0 -129 -12q-21 -4 -85 -17t-96 -18q-1 -2 -5 -4t-5 -4q-1 0 -4 1.5t-6 0.5q-21 -6 -87 -24t-108.5 -31t-81.5 -29q-4 -2 -10 -10t-10 -11q-2 3 3 9t5 8q-13 -4 -76 -29q-5 -24 -10 -29q-2 0 -4 4.5t-2 5.5 q-16 -10 -39 -36.5t-37 -36.5q0 -3 -3 -7.5t-3 -7.5q-129 -160 -197 -264q12 6 40.5 22.5t43.5 22.5q2 1 4 -1t5 -1q11 13 41 28t41 25h10q8 4 23 12.5t26 13.5t20 7q6 6 15.5 11.5t25 12.5t19.5 9q-1 -7 -10 -13t-11 -8q-9 0 -18.5 -8t-18.5 -8q-63 -41 -127 -65 q-18 -13 -61.5 -36t-62.5 -36q-1 0 -2.5 1t-2.5 1q-12 -6 -26 -25t-17 -22q-7 -14 -59 -102t-74 -140q16 -4 56 6t55 11q48 15 161.5 43.5t168.5 46.5h12q21 10 63.5 19.5t57.5 14.5q6 0 6 -2q2 1 10 9q23 3 107.5 18.5t128.5 17.5q10 -2 32.5 0.5t28.5 -2.5q3 1 7 5t7 4 q6 -7 25 -8t23 -9q18 3 36 -4t25 -20q-3 -8 -6 -11q-83 23 -117 21h-33q-6 3 -18.5 1.5t-20.5 0.5q-22 -4 -71.5 -11t-76.5 -11.5t-66 -13.5t-70 -19q-22 -3 -66.5 -15.5t-60.5 -15.5q-24 -12 -39 -12q-36 -11 -108.5 -31.5t-100.5 -28.5q-80 -19 -117 -30q-8 2 -20.5 -3 t-20.5 -2q-8 -8 -14 -8q-3 -10 -16.5 -45.5t-18.5 -58.5q-21 -99 10 -197q2 -4 8 -11.5t7 -14.5q14 -24 16 -29q2 -3 14 -13t15 -18q8 -7 26 -17t25 -16q2 -1 4.5 1t5.5 1q11 -6 60 -18q1 1 6 -4q12 3 43 0.5t41 3.5q27 -1 77.5 10t63.5 13q14 9 35 12q8 5 28 11t27 11 q15 1 41.5 13t40.5 14q48 27 84 35q1 1 2 4t2 4q8 0 8 -4q9 9 34 19t32 14v-6q3 6 16.5 12.5t16.5 9.5q6 3 6 -4q13 9 67 35q1 0 6 -2q16 14 49 27t44 20q2 -3 0.5 -5t-4 -3.5t-5.5 -3.5t-4 -5q-22 -6 -55 -23.5t-53 -23.5q-60 -33 -96 -43q-44 -24 -132.5 -60t-111.5 -46 q-12 2 -33 -12q-33 -6 -88 -27q-56 -8 -82 -14q-74 -3 -100 -2q-96 6 -154 72.5t-67 170.5q-3 96 41 211q-56 -6 -102.5 4.5t-55.5 46.5q-8 24 8 33q1 5 2.5 9t4 7.5t4 6t5 5.5t5 4.5t6.5 4.5t6 4q38 41 78 62q1 1 7.5 6t8.5 10q41 15 66 43q20 8 53 30.5t51 30.5q1 0 14 13 q9 0 21 8q3 5 21 21.5t20 33.5q2 3 14 15q36 64 78 106q9 25 31 37q18 33 63 82.5t60 70.5q3 0 6 3t6 2q9 14 8 20q2 1 5.5 5t8.5 3q33 36 95.5 98t82.5 82q15 6 37.5 29t40.5 29zM864 1272q-21 -25 -41 -37q-14 -18 -49 -49q-2 -4 -9 -11.5t-9 -11.5q-2 -2 -9.5 -7 t-11.5 -9.5t-2 -9.5q8 4 34.5 11.5t39.5 18t18 29.5q2 0 5 -1.5t4 1.5q39 60 79 109q0 4 -4 4q-38 -33 -45 -37zM307 666q-9 -10 -32 -23.5t-31 -19.5q-14 -4 -51 -29q-1 -1 -5.5 -2t-5.5 -2q-14 -9 -37.5 -29.5t-27.5 -23.5q-44 -38 -45 -39q-3 -4 -17 -25 q-6 -7 -3.5 -14.5t4 -11.5t8.5 -9t11.5 -7t13 -5.5t11.5 -5.5q60 -4 107 6q24 55 81.5 153t61.5 105q-4 -1 -18 -9.5t-25 -8.5zM756 1106zM756 1106zM750 1100zM1104 1079q2 1 3.5 -0.5t4.5 -1.5q0 -3 -4.5 -6t-5.5 -4q-4 1 -1 6t3 6zM1092 1069q0 -3 -3 -6l-4 -4q-6 2 -1 8 q3 3 8 2zM1075 1063q4 -1 0 -4q-2 -1 -2 -2q-1 1 2 6zM1061 1055q0 -4 -1 -5t-3 1l-2 -3q-2 -2 -6 -1q1 3 3 4.5t5 2.5t4 1zM1026 1040q0 -1 -1 -2q-2 -6 -7 -4q6 6 8 6zM995 1024q-4 -8 -10 -6q0 8 10 6zM979 1018q0 -6 -8 -6q6 6 8 6zM874 971q0 -8 -8 -8q3 5 8 8z M858 965q4 -1 3 -4q-1 -2 -1 -3q-6 0 -6 -2q-3 1 -2 2.5t3.5 3.5t2.5 3zM844 952l4 2q2 -2 -4 -4q-1 -1 -1.5 -0.5t1.5 2.5zM836 948zM811 938h2v-4h-4v4h2zM1161 219q3 -5 -3 -8.5t-15 -5.5q0 3 3 6t3 6q8 -2 12 2zM1284 1552q-14 -10 -69.5 -44t-81.5 -58q1 -3 -3 -12 q-18 0 -24 6q-1 2 4 16q10 4 19 10t20 17l14 14q6 3 6 0q5 5 22 14.5t23 16.5q12 -2 19 8q9 -1 21 5t16 7q0 6 7 5t7 -5z" />
<glyph unicode="&#xca;" horiz-adv-x="1347" d="M952 1358q4 -13 -7.5 -33t-24.5 -33q-22 -25 -41 -41q-9 -18 -31.5 -44t-30.5 -40q7 0 35 11h10q2 1 12.5 6t16.5 6q3 1 10 1.5t12 1.5t9 3q2 0 5.5 3t4.5 3q3 1 14.5 1.5t16.5 2.5q8 2 25 9.5t30 9.5q6 1 19.5 2t19.5 2q22 9 41 12h14q3 1 12.5 5.5t14.5 4.5h22 q3 1 15 5.5t22 5.5q6 1 17 5t14 5q1 0 3 -2t3 -2q11 1 33 7t28 7q4 0 4 -6q84 22 146 0q4 -12 2 -23q-16 -27 -66 -49q-60 -39 -170 -84q-28 -17 -69 -30q-2 -1 -6 -4.5t-6 -5t-5.5 -3t-7.5 -0.5q16 23 49 27q3 2 19 12t22 13t19.5 8t25.5 6q3 6 13 9.5t12 10.5q8 -1 18.5 6 t18.5 7q11 9 57 34t62 50q-3 9 -19.5 10t-21.5 4q-27 0 -129 -12q-21 -4 -85 -17t-96 -18q-1 -2 -5 -4t-5 -4q-1 0 -4 1.5t-6 0.5q-21 -6 -87 -24t-108.5 -31t-81.5 -29q-4 -2 -10 -10t-10 -11q-2 3 3 9t5 8q-13 -4 -76 -29q-5 -24 -10 -29q-2 0 -4 4.5t-2 5.5 q-16 -10 -39 -36.5t-37 -36.5q0 -3 -3 -7.5t-3 -7.5q-129 -160 -197 -264q12 6 40.5 22.5t43.5 22.5q2 1 4 -1t5 -1q11 13 41 28t41 25h10q8 4 23 12.5t26 13.5t20 7q6 6 15.5 11.5t25 12.5t19.5 9q-1 -7 -10 -13t-11 -8q-9 0 -18.5 -8t-18.5 -8q-63 -41 -127 -65 q-18 -13 -61.5 -36t-62.5 -36q-1 0 -2.5 1t-2.5 1q-12 -6 -26 -25t-17 -22q-7 -14 -59 -102t-74 -140q16 -4 56 6t55 11q48 15 161.5 43.5t168.5 46.5h12q21 10 63.5 19.5t57.5 14.5q6 0 6 -2q2 1 10 9q23 3 107.5 18.5t128.5 17.5q10 -2 32.5 0.5t28.5 -2.5q3 1 7 5t7 4 q6 -7 25 -8t23 -9q18 3 36 -4t25 -20q-3 -8 -6 -11q-83 23 -117 21h-33q-6 3 -18.5 1.5t-20.5 0.5q-22 -4 -71.5 -11t-76.5 -11.5t-66 -13.5t-70 -19q-22 -3 -66.5 -15.5t-60.5 -15.5q-24 -12 -39 -12q-36 -11 -108.5 -31.5t-100.5 -28.5q-80 -19 -117 -30q-8 2 -20.5 -3 t-20.5 -2q-8 -8 -14 -8q-3 -10 -16.5 -45.5t-18.5 -58.5q-21 -99 10 -197q2 -4 8 -11.5t7 -14.5q14 -24 16 -29q2 -3 14 -13t15 -18q8 -7 26 -17t25 -16q2 -1 4.5 1t5.5 1q11 -6 60 -18q1 1 6 -4q12 3 43 0.5t41 3.5q27 -1 77.5 10t63.5 13q14 9 35 12q8 5 28 11t27 11 q15 1 41.5 13t40.5 14q48 27 84 35q1 1 2 4t2 4q8 0 8 -4q9 9 34 19t32 14v-6q3 6 16.5 12.5t16.5 9.5q6 3 6 -4q13 9 67 35q1 0 6 -2q16 14 49 27t44 20q2 -3 0.5 -5t-4 -3.5t-5.5 -3.5t-4 -5q-22 -6 -55 -23.5t-53 -23.5q-60 -33 -96 -43q-44 -24 -132.5 -60t-111.5 -46 q-12 2 -33 -12q-33 -6 -88 -27q-56 -8 -82 -14q-74 -3 -100 -2q-96 6 -154 72.5t-67 170.5q-3 96 41 211q-56 -6 -102.5 4.5t-55.5 46.5q-8 24 8 33q1 5 2.5 9t4 7.5t4 6t5 5.5t5 4.5t6.5 4.5t6 4q38 41 78 62q1 1 7.5 6t8.5 10q41 15 66 43q20 8 53 30.5t51 30.5q1 0 14 13 q9 0 21 8q3 5 21 21.5t20 33.5q2 3 14 15q36 64 78 106q9 25 31 37q18 33 63 82.5t60 70.5q3 0 6 3t6 2q9 14 8 20q2 1 5.5 5t8.5 3q33 36 95.5 98t82.5 82q15 6 37.5 29t40.5 29zM864 1272q-21 -25 -41 -37q-14 -18 -49 -49q-2 -4 -9 -11.5t-9 -11.5q-2 -2 -9.5 -7 t-11.5 -9.5t-2 -9.5q8 4 34.5 11.5t39.5 18t18 29.5q2 0 5 -1.5t4 1.5q39 60 79 109q0 4 -4 4q-38 -33 -45 -37zM307 666q-9 -10 -32 -23.5t-31 -19.5q-14 -4 -51 -29q-1 -1 -5.5 -2t-5.5 -2q-14 -9 -37.5 -29.5t-27.5 -23.5q-44 -38 -45 -39q-3 -4 -17 -25 q-6 -7 -3.5 -14.5t4 -11.5t8.5 -9t11.5 -7t13 -5.5t11.5 -5.5q60 -4 107 6q24 55 81.5 153t61.5 105q-4 -1 -18 -9.5t-25 -8.5zM756 1106zM756 1106zM750 1100zM1104 1079q2 1 3.5 -0.5t4.5 -1.5q0 -3 -4.5 -6t-5.5 -4q-4 1 -1 6t3 6zM1092 1069q0 -3 -3 -6l-4 -4q-6 2 -1 8 q3 3 8 2zM1075 1063q4 -1 0 -4q-2 -1 -2 -2q-1 1 2 6zM1061 1055q0 -4 -1 -5t-3 1l-2 -3q-2 -2 -6 -1q1 3 3 4.5t5 2.5t4 1zM1026 1040q0 -1 -1 -2q-2 -6 -7 -4q6 6 8 6zM995 1024q-4 -8 -10 -6q0 8 10 6zM979 1018q0 -6 -8 -6q6 6 8 6zM874 971q0 -8 -8 -8q3 5 8 8z M858 965q4 -1 3 -4q-1 -2 -1 -3q-6 0 -6 -2q-3 1 -2 2.5t3.5 3.5t2.5 3zM844 952l4 2q2 -2 -4 -4q-1 -1 -1.5 -0.5t1.5 2.5zM836 948zM811 938h2v-4h-4v4h2zM1161 219q3 -5 -3 -8.5t-15 -5.5q0 3 3 6t3 6q8 -2 12 2zM1292 1448q-23 3 -29.5 28t-3 52.5t-6.5 48.5 q-37 -18 -87 -72t-58 -61q-1 -3 0 -5t2.5 -2.5t2.5 -1.5t1 -3q-9 -4 -19.5 -1t-13.5 9q0 3 2 5.5t4.5 3.5t5.5 2.5l5 2.5q16 14 40.5 43.5t41.5 42.5q3 6 11.5 14t10.5 11q9 4 22 14.5t19 13.5q14 2 22.5 -5.5t10.5 -21t2.5 -29.5t-1 -31.5t0.5 -28.5q1 -4 7.5 -12.5 t6.5 -16.5z" />
<glyph unicode="&#xcb;" horiz-adv-x="1347" d="M952 1358q4 -13 -7.5 -33t-24.5 -33q-22 -25 -41 -41q-9 -18 -31.5 -44t-30.5 -40q7 0 35 11h10q2 1 12.5 6t16.5 6q3 1 10 1.5t12 1.5t9 3q2 0 5.5 3t4.5 3q3 1 14.5 1.5t16.5 2.5q8 2 25 9.5t30 9.5q6 1 19.5 2t19.5 2q22 9 41 12h14q3 1 12.5 5.5t14.5 4.5h22 q3 1 15 5.5t22 5.5q6 1 17 5t14 5q1 0 3 -2t3 -2q11 1 33 7t28 7q4 0 4 -6q84 22 146 0q4 -12 2 -23q-16 -27 -66 -49q-60 -39 -170 -84q-28 -17 -69 -30q-2 -1 -6 -4.5t-6 -5t-5.5 -3t-7.5 -0.5q16 23 49 27q3 2 19 12t22 13t19.5 8t25.5 6q3 6 13 9.5t12 10.5q8 -1 18.5 6 t18.5 7q11 9 57 34t62 50q-3 9 -19.5 10t-21.5 4q-27 0 -129 -12q-21 -4 -85 -17t-96 -18q-1 -2 -5 -4t-5 -4q-1 0 -4 1.5t-6 0.5q-21 -6 -87 -24t-108.5 -31t-81.5 -29q-4 -2 -10 -10t-10 -11q-2 3 3 9t5 8q-13 -4 -76 -29q-5 -24 -10 -29q-2 0 -4 4.5t-2 5.5 q-16 -10 -39 -36.5t-37 -36.5q0 -3 -3 -7.5t-3 -7.5q-129 -160 -197 -264q12 6 40.5 22.5t43.5 22.5q2 1 4 -1t5 -1q11 13 41 28t41 25h10q8 4 23 12.5t26 13.5t20 7q6 6 15.5 11.5t25 12.5t19.5 9q-1 -7 -10 -13t-11 -8q-9 0 -18.5 -8t-18.5 -8q-63 -41 -127 -65 q-18 -13 -61.5 -36t-62.5 -36q-1 0 -2.5 1t-2.5 1q-12 -6 -26 -25t-17 -22q-7 -14 -59 -102t-74 -140q16 -4 56 6t55 11q48 15 161.5 43.5t168.5 46.5h12q21 10 63.5 19.5t57.5 14.5q6 0 6 -2q2 1 10 9q23 3 107.5 18.5t128.5 17.5q10 -2 32.5 0.5t28.5 -2.5q3 1 7 5t7 4 q6 -7 25 -8t23 -9q18 3 36 -4t25 -20q-3 -8 -6 -11q-83 23 -117 21h-33q-6 3 -18.5 1.5t-20.5 0.5q-22 -4 -71.5 -11t-76.5 -11.5t-66 -13.5t-70 -19q-22 -3 -66.5 -15.5t-60.5 -15.5q-24 -12 -39 -12q-36 -11 -108.5 -31.5t-100.5 -28.5q-80 -19 -117 -30q-8 2 -20.5 -3 t-20.5 -2q-8 -8 -14 -8q-3 -10 -16.5 -45.5t-18.5 -58.5q-21 -99 10 -197q2 -4 8 -11.5t7 -14.5q14 -24 16 -29q2 -3 14 -13t15 -18q8 -7 26 -17t25 -16q2 -1 4.5 1t5.5 1q11 -6 60 -18q1 1 6 -4q12 3 43 0.5t41 3.5q27 -1 77.5 10t63.5 13q14 9 35 12q8 5 28 11t27 11 q15 1 41.5 13t40.5 14q48 27 84 35q1 1 2 4t2 4q8 0 8 -4q9 9 34 19t32 14v-6q3 6 16.5 12.5t16.5 9.5q6 3 6 -4q13 9 67 35q1 0 6 -2q16 14 49 27t44 20q2 -3 0.5 -5t-4 -3.5t-5.5 -3.5t-4 -5q-22 -6 -55 -23.5t-53 -23.5q-60 -33 -96 -43q-44 -24 -132.5 -60t-111.5 -46 q-12 2 -33 -12q-33 -6 -88 -27q-56 -8 -82 -14q-74 -3 -100 -2q-96 6 -154 72.5t-67 170.5q-3 96 41 211q-56 -6 -102.5 4.5t-55.5 46.5q-8 24 8 33q1 5 2.5 9t4 7.5t4 6t5 5.5t5 4.5t6.5 4.5t6 4q38 41 78 62q1 1 7.5 6t8.5 10q41 15 66 43q20 8 53 30.5t51 30.5q1 0 14 13 q9 0 21 8q3 5 21 21.5t20 33.5q2 3 14 15q36 64 78 106q9 25 31 37q18 33 63 82.5t60 70.5q3 0 6 3t6 2q9 14 8 20q2 1 5.5 5t8.5 3q33 36 95.5 98t82.5 82q15 6 37.5 29t40.5 29zM864 1272q-21 -25 -41 -37q-14 -18 -49 -49q-2 -4 -9 -11.5t-9 -11.5q-2 -2 -9.5 -7 t-11.5 -9.5t-2 -9.5q8 4 34.5 11.5t39.5 18t18 29.5q2 0 5 -1.5t4 1.5q39 60 79 109q0 4 -4 4q-38 -33 -45 -37zM307 666q-9 -10 -32 -23.5t-31 -19.5q-14 -4 -51 -29q-1 -1 -5.5 -2t-5.5 -2q-14 -9 -37.5 -29.5t-27.5 -23.5q-44 -38 -45 -39q-3 -4 -17 -25 q-6 -7 -3.5 -14.5t4 -11.5t8.5 -9t11.5 -7t13 -5.5t11.5 -5.5q60 -4 107 6q24 55 81.5 153t61.5 105q-4 -1 -18 -9.5t-25 -8.5zM756 1106zM756 1106zM750 1100zM1104 1079q2 1 3.5 -0.5t4.5 -1.5q0 -3 -4.5 -6t-5.5 -4q-4 1 -1 6t3 6zM1092 1069q0 -3 -3 -6l-4 -4q-6 2 -1 8 q3 3 8 2zM1075 1063q4 -1 0 -4q-2 -1 -2 -2q-1 1 2 6zM1061 1055q0 -4 -1 -5t-3 1l-2 -3q-2 -2 -6 -1q1 3 3 4.5t5 2.5t4 1zM1026 1040q0 -1 -1 -2q-2 -6 -7 -4q6 6 8 6zM995 1024q-4 -8 -10 -6q0 8 10 6zM979 1018q0 -6 -8 -6q6 6 8 6zM874 971q0 -8 -8 -8q3 5 8 8z M858 965q4 -1 3 -4q-1 -2 -1 -3q-6 0 -6 -2q-3 1 -2 2.5t3.5 3.5t2.5 3zM844 952l4 2q2 -2 -4 -4q-1 -1 -1.5 -0.5t1.5 2.5zM836 948zM811 938h2v-4h-4v4h2zM1161 219q3 -5 -3 -8.5t-15 -5.5q0 3 3 6t3 6q8 -2 12 2zM1227 1452q2 -2 3.5 -9.5t4.5 -8.5q0 -5 -4 -13 q-27 0 -29 9q3 22 25 22zM1106 1417q-3 -1 -8 -4t-8 -4.5t-7 -0.5t-8 5q-2 10 1.5 15t9.5 8t8 6q16 0 12 -25z" />
<glyph unicode="&#xcc;" horiz-adv-x="849" d="M1300 1167q-8 0 -18 25q-9 13 -27 22t-44 17.5t-40 15.5q-3 0 -4 -3.5t-4 -2.5q-40 7 -80 10t-90 1t-74.5 -3.5t-87.5 -8t-75 -7.5q-13 -2 -69 -11.5t-73.5 -13t-64 -12t-70.5 -14t-61.5 -14.5t-68 -18t-60.5 -20q144 -41 168 -180q13 -32 18.5 -69.5t5 -73t-1.5 -78.5 q-4 -5 -5 -13t-0.5 -19t-0.5 -17q12 5 21 31q0 3 2.5 5t3.5 3q20 45 63.5 120t59.5 107q-10 -10 -27.5 -41t-32.5 -41q-3 5 2 11.5t4 13.5q9 13 31.5 46t39 55.5t34.5 41.5q1 6 7 15.5t7 15.5q9 9 25 39t28 41q6 -12 -2 -30.5t-8 -22.5q-36 -56 -98.5 -168.5t-93.5 -161.5 q-46 -94 -93 -172q1 -6 -2 -14.5t-2 -14.5q-5 -7 -7.5 -28.5t-8.5 -28.5q-1 -19 -12.5 -48t-14.5 -46q-1 -1 -4 -7.5t-8 -7.5q1 -1 2 -3q3 -3 2 -7t-4 -14t-5 -16t-6 -13.5t-9 -11.5q-3 -27 -19 -71t-20 -62q-9 -17 -26 -66t-30 -72q0 -11 -8 -23.5t-8 -25.5q29 7 99.5 32 t111.5 34q2 2 8.5 4t9.5 4q23 2 74 18q20 3 57 11.5t67 13.5t58 4q41 14 78 -2q-2 -8 -17 -9t-18 -3q-36 -2 -74 -6.5t-67 -9.5t-70.5 -15t-64 -15.5t-68.5 -20t-62 -20t-67.5 -23t-64.5 -21.5q-10 -15 -35 -71t-49 -77q-2 1 -9.5 -1.5t-9.5 1.5q-6 5 -10 12.5t-5.5 14 t-1 18t1.5 18t3.5 20t3.5 18.5q-33 -10 -166 -61t-211 -64q-26 0 -57 22q-4 9 -5 18.5t0.5 16.5t6.5 16t8.5 13.5t11 14t9.5 11.5q-1 -7 -7.5 -21t-11 -24.5t-2.5 -23t13 -21.5q4 -2 19 -3t19 -3q72 21 99 25q13 8 48 20.5t48 20.5q6 0 12 -3q30 21 66 27q34 23 76 29 q3 4 28 14q14 48 19 55q0 5 2 12t2 11q6 14 30.5 72t35.5 83t31.5 67.5t39.5 74.5q0 1 1.5 4t0.5 8q14 24 55 104t68 119q4 11 12.5 30.5t14.5 37t10 35.5q8 81 10 112q-4 6 0 27q-2 3 -2.5 16t-3.5 17q1 16 -0.5 31t-6 34t-6.5 28t-9.5 32.5t-8.5 27.5q-19 36 -47 64 q-40 40 -129 63q-69 -18 -250 -78t-291 -81q-47 4 -56 17q-4 5 -5 11q44 31 154 64q0 -3 -2 -6t-1 -6q-13 -3 -41 -16t-45 -15q-3 -3 -16 -9t-16 -12q23 -8 71.5 3t59.5 12q12 0 22 10q67 17 183 55t172 53q-1 2 -9.5 1t-9.5 4q-3 0 -9.5 -2t-11.5 -2t-7 4q-24 -8 -46 -5 q-4 0 -11.5 -3t-11 -3.5t-7.5 4.5q-28 -19 -72 -14q2 7 13 8t14 4q2 0 4.5 -1t3.5 -1q30 13 137 19q50 -3 88 6q3 1 9.5 5t9.5 5q5 -3 20 0q2 0 2.5 3.5t1.5 4.5q39 3 88 21q7 -2 16.5 1.5t16.5 2.5q2 2 9 3.5t9 4.5q79 13 131 25q4 -1 27.5 4t32.5 2q51 15 67 12 q19 6 55.5 10.5t43.5 5.5q5 0 11 -1t11 -1q64 15 240 15q4 -6 23 -3t26 1q52 -3 125 -25q65 -28 63 -76zM475 729zM164 -25q7 1 69 23q24 51 64.5 154t54.5 137q9 33 40.5 124.5t39.5 145.5q-22 -43 -70 -135.5t-75.5 -147.5t-63 -139.5t-59.5 -161.5zM158 -55 q-1 -5 -6 -27.5t-5 -29.5t3 -25q14 1 24.5 19.5t15.5 21.5q3 13 15 32t14 33q-7 -3 -20 -7t-23.5 -8t-17.5 -9zM-14 1112q1 1 2.5 1t1.5 1q4 -1 3 -4.5t-3 -5.5q-1 0 -1 1.5t-0.5 3.5t-2.5 3zM-14 1112l-4 -8q-5 -2 -20 -5.5t-21 -8.5l-4 8q-10 -10 -13 -11v3 q-29 -14 -41 -11q-4 0 -12 -8q-7 2 -15.5 -1.5t-12 -5.5t-7.5 5h6q11 9 42 18t40 13q6 0 12 1.5t11.5 3.5t7.5 3q4 -4 15.5 0t15.5 4zM-174 1065q0 -8 -8 -8q-1 3 0.5 5.5t4 3t3.5 -0.5zM748 1411q-6 -1 -12.5 2t-15.5 10t-11 9q-4 3 -16 13t-19 13q-5 8 -19 25t-20 30 q0 6 5.5 9t10.5 0q7 -9 30.5 -38t37.5 -44q3 -3 11 -7t13 -9t5 -13z" />
<glyph unicode="&#xcd;" horiz-adv-x="849" d="M1300 1167q-8 0 -18 25q-9 13 -27 22t-44 17.5t-40 15.5q-3 0 -4 -3.5t-4 -2.5q-40 7 -80 10t-90 1t-74.5 -3.5t-87.5 -8t-75 -7.5q-13 -2 -69 -11.5t-73.5 -13t-64 -12t-70.5 -14t-61.5 -14.5t-68 -18t-60.5 -20q144 -41 168 -180q13 -32 18.5 -69.5t5 -73t-1.5 -78.5 q-4 -5 -5 -13t-0.5 -19t-0.5 -17q12 5 21 31q0 3 2.5 5t3.5 3q20 45 63.5 120t59.5 107q-10 -10 -27.5 -41t-32.5 -41q-3 5 2 11.5t4 13.5q9 13 31.5 46t39 55.5t34.5 41.5q1 6 7 15.5t7 15.5q9 9 25 39t28 41q6 -12 -2 -30.5t-8 -22.5q-36 -56 -98.5 -168.5t-93.5 -161.5 q-46 -94 -93 -172q1 -6 -2 -14.5t-2 -14.5q-5 -7 -7.5 -28.5t-8.5 -28.5q-1 -19 -12.5 -48t-14.5 -46q-1 -1 -4 -7.5t-8 -7.5q1 -1 2 -3q3 -3 2 -7t-4 -14t-5 -16t-6 -13.5t-9 -11.5q-3 -27 -19 -71t-20 -62q-9 -17 -26 -66t-30 -72q0 -11 -8 -23.5t-8 -25.5q29 7 99.5 32 t111.5 34q2 2 8.5 4t9.5 4q23 2 74 18q20 3 57 11.5t67 13.5t58 4q41 14 78 -2q-2 -8 -17 -9t-18 -3q-36 -2 -74 -6.5t-67 -9.5t-70.5 -15t-64 -15.5t-68.5 -20t-62 -20t-67.5 -23t-64.5 -21.5q-10 -15 -35 -71t-49 -77q-2 1 -9.5 -1.5t-9.5 1.5q-6 5 -10 12.5t-5.5 14 t-1 18t1.5 18t3.5 20t3.5 18.5q-33 -10 -166 -61t-211 -64q-26 0 -57 22q-4 9 -5 18.5t0.5 16.5t6.5 16t8.5 13.5t11 14t9.5 11.5q-1 -7 -7.5 -21t-11 -24.5t-2.5 -23t13 -21.5q4 -2 19 -3t19 -3q72 21 99 25q13 8 48 20.5t48 20.5q6 0 12 -3q30 21 66 27q34 23 76 29 q3 4 28 14q14 48 19 55q0 5 2 12t2 11q6 14 30.5 72t35.5 83t31.5 67.5t39.5 74.5q0 1 1.5 4t0.5 8q14 24 55 104t68 119q4 11 12.5 30.5t14.5 37t10 35.5q8 81 10 112q-4 6 0 27q-2 3 -2.5 16t-3.5 17q1 16 -0.5 31t-6 34t-6.5 28t-9.5 32.5t-8.5 27.5q-19 36 -47 64 q-40 40 -129 63q-69 -18 -250 -78t-291 -81q-47 4 -56 17q-4 5 -5 11q44 31 154 64q0 -3 -2 -6t-1 -6q-13 -3 -41 -16t-45 -15q-3 -3 -16 -9t-16 -12q23 -8 71.5 3t59.5 12q12 0 22 10q67 17 183 55t172 53q-1 2 -9.5 1t-9.5 4q-3 0 -9.5 -2t-11.5 -2t-7 4q-24 -8 -46 -5 q-4 0 -11.5 -3t-11 -3.5t-7.5 4.5q-28 -19 -72 -14q2 7 13 8t14 4q2 0 4.5 -1t3.5 -1q30 13 137 19q50 -3 88 6q3 1 9.5 5t9.5 5q5 -3 20 0q2 0 2.5 3.5t1.5 4.5q39 3 88 21q7 -2 16.5 1.5t16.5 2.5q2 2 9 3.5t9 4.5q79 13 131 25q4 -1 27.5 4t32.5 2q51 15 67 12 q19 6 55.5 10.5t43.5 5.5q5 0 11 -1t11 -1q64 15 240 15q4 -6 23 -3t26 1q52 -3 125 -25q65 -28 63 -76zM475 729zM164 -25q7 1 69 23q24 51 64.5 154t54.5 137q9 33 40.5 124.5t39.5 145.5q-22 -43 -70 -135.5t-75.5 -147.5t-63 -139.5t-59.5 -161.5zM158 -55 q-1 -5 -6 -27.5t-5 -29.5t3 -25q14 1 24.5 19.5t15.5 21.5q3 13 15 32t14 33q-7 -3 -20 -7t-23.5 -8t-17.5 -9zM-14 1112q1 1 2.5 1t1.5 1q4 -1 3 -4.5t-3 -5.5q-1 0 -1 1.5t-0.5 3.5t-2.5 3zM-14 1112l-4 -8q-5 -2 -20 -5.5t-21 -8.5l-4 8q-10 -10 -13 -11v3 q-29 -14 -41 -11q-4 0 -12 -8q-7 2 -15.5 -1.5t-12 -5.5t-7.5 5h6q11 9 42 18t40 13q6 0 12 1.5t11.5 3.5t7.5 3q4 -4 15.5 0t15.5 4zM-174 1065q0 -8 -8 -8q-1 3 0.5 5.5t4 3t3.5 -0.5zM756 1499q-14 -10 -70 -44t-82 -58q2 -5 -2 -13q-17 0 -24 7q-1 2 4 16q10 4 19 10 t20 17l14 14q6 3 6 0q5 5 22 14.5t23 16.5q12 -2 19 8q9 -1 20.5 5t15.5 7q0 5 7.5 4t7.5 -4z" />
<glyph unicode="&#xce;" horiz-adv-x="849" d="M1300 1167q-8 0 -18 25q-9 13 -27 22t-44 17.5t-40 15.5q-3 0 -4 -3.5t-4 -2.5q-40 7 -80 10t-90 1t-74.5 -3.5t-87.5 -8t-75 -7.5q-13 -2 -69 -11.5t-73.5 -13t-64 -12t-70.5 -14t-61.5 -14.5t-68 -18t-60.5 -20q144 -41 168 -180q13 -32 18.5 -69.5t5 -73t-1.5 -78.5 q-4 -5 -5 -13t-0.5 -19t-0.5 -17q12 5 21 31q0 3 2.5 5t3.5 3q20 45 63.5 120t59.5 107q-10 -10 -27.5 -41t-32.5 -41q-3 5 2 11.5t4 13.5q9 13 31.5 46t39 55.5t34.5 41.5q1 6 7 15.5t7 15.5q9 9 25 39t28 41q6 -12 -2 -30.5t-8 -22.5q-36 -56 -98.5 -168.5t-93.5 -161.5 q-46 -94 -93 -172q1 -6 -2 -14.5t-2 -14.5q-5 -7 -7.5 -28.5t-8.5 -28.5q-1 -19 -12.5 -48t-14.5 -46q-1 -1 -4 -7.5t-8 -7.5q1 -1 2 -3q3 -3 2 -7t-4 -14t-5 -16t-6 -13.5t-9 -11.5q-3 -27 -19 -71t-20 -62q-9 -17 -26 -66t-30 -72q0 -11 -8 -23.5t-8 -25.5q29 7 99.5 32 t111.5 34q2 2 8.5 4t9.5 4q23 2 74 18q20 3 57 11.5t67 13.5t58 4q41 14 78 -2q-2 -8 -17 -9t-18 -3q-36 -2 -74 -6.5t-67 -9.5t-70.5 -15t-64 -15.5t-68.5 -20t-62 -20t-67.5 -23t-64.5 -21.5q-10 -15 -35 -71t-49 -77q-2 1 -9.5 -1.5t-9.5 1.5q-6 5 -10 12.5t-5.5 14 t-1 18t1.5 18t3.5 20t3.5 18.5q-33 -10 -166 -61t-211 -64q-26 0 -57 22q-4 9 -5 18.5t0.5 16.5t6.5 16t8.5 13.5t11 14t9.5 11.5q-1 -7 -7.5 -21t-11 -24.5t-2.5 -23t13 -21.5q4 -2 19 -3t19 -3q72 21 99 25q13 8 48 20.5t48 20.5q6 0 12 -3q30 21 66 27q34 23 76 29 q3 4 28 14q14 48 19 55q0 5 2 12t2 11q6 14 30.5 72t35.5 83t31.5 67.5t39.5 74.5q0 1 1.5 4t0.5 8q14 24 55 104t68 119q4 11 12.5 30.5t14.5 37t10 35.5q8 81 10 112q-4 6 0 27q-2 3 -2.5 16t-3.5 17q1 16 -0.5 31t-6 34t-6.5 28t-9.5 32.5t-8.5 27.5q-19 36 -47 64 q-40 40 -129 63q-69 -18 -250 -78t-291 -81q-47 4 -56 17q-4 5 -5 11q44 31 154 64q0 -3 -2 -6t-1 -6q-13 -3 -41 -16t-45 -15q-3 -3 -16 -9t-16 -12q23 -8 71.5 3t59.5 12q12 0 22 10q67 17 183 55t172 53q-1 2 -9.5 1t-9.5 4q-3 0 -9.5 -2t-11.5 -2t-7 4q-24 -8 -46 -5 q-4 0 -11.5 -3t-11 -3.5t-7.5 4.5q-28 -19 -72 -14q2 7 13 8t14 4q2 0 4.5 -1t3.5 -1q30 13 137 19q50 -3 88 6q3 1 9.5 5t9.5 5q5 -3 20 0q2 0 2.5 3.5t1.5 4.5q39 3 88 21q7 -2 16.5 1.5t16.5 2.5q2 2 9 3.5t9 4.5q79 13 131 25q4 -1 27.5 4t32.5 2q51 15 67 12 q19 6 55.5 10.5t43.5 5.5q5 0 11 -1t11 -1q64 15 240 15q4 -6 23 -3t26 1q52 -3 125 -25q65 -28 63 -76zM475 729zM164 -25q7 1 69 23q24 51 64.5 154t54.5 137q9 33 40.5 124.5t39.5 145.5q-22 -43 -70 -135.5t-75.5 -147.5t-63 -139.5t-59.5 -161.5zM158 -55 q-1 -5 -6 -27.5t-5 -29.5t3 -25q14 1 24.5 19.5t15.5 21.5q3 13 15 32t14 33q-7 -3 -20 -7t-23.5 -8t-17.5 -9zM-14 1112q1 1 2.5 1t1.5 1q4 -1 3 -4.5t-3 -5.5q-1 0 -1 1.5t-0.5 3.5t-2.5 3zM-14 1112l-4 -8q-5 -2 -20 -5.5t-21 -8.5l-4 8q-10 -10 -13 -11v3 q-29 -14 -41 -11q-4 0 -12 -8q-7 2 -15.5 -1.5t-12 -5.5t-7.5 5h6q11 9 42 18t40 13q6 0 12 1.5t11.5 3.5t7.5 3q4 -4 15.5 0t15.5 4zM-174 1065q0 -8 -8 -8q-1 3 0.5 5.5t4 3t3.5 -0.5zM889 1378q-23 3 -29.5 28t-3 52.5t-6.5 48.5q-37 -18 -87 -72t-58 -61q-1 -3 0 -5 t2.5 -2.5t2.5 -1.5t1 -3q-9 -4 -19.5 -1t-13.5 9q0 3 2 5.5t4 3.5l5 2.5l5 2.5q16 14 40.5 43t41.5 43q3 6 12 14t11 11q9 4 22 14.5t19 14.5q14 2 22.5 -6t10.5 -21t2 -29.5t-1.5 -32t0.5 -28.5q2 -5 8.5 -13t6.5 -16z" />
<glyph unicode="&#xcf;" horiz-adv-x="849" d="M1300 1167q-8 0 -18 25q-9 13 -27 22t-44 17.5t-40 15.5q-3 0 -4 -3.5t-4 -2.5q-40 7 -80 10t-90 1t-74.5 -3.5t-87.5 -8t-75 -7.5q-13 -2 -69 -11.5t-73.5 -13t-64 -12t-70.5 -14t-61.5 -14.5t-68 -18t-60.5 -20q144 -41 168 -180q13 -32 18.5 -69.5t5 -73t-1.5 -78.5 q-4 -5 -5 -13t-0.5 -19t-0.5 -17q12 5 21 31q0 3 2.5 5t3.5 3q20 45 63.5 120t59.5 107q-10 -10 -27.5 -41t-32.5 -41q-3 5 2 11.5t4 13.5q9 13 31.5 46t39 55.5t34.5 41.5q1 6 7 15.5t7 15.5q9 9 25 39t28 41q6 -12 -2 -30.5t-8 -22.5q-36 -56 -98.5 -168.5t-93.5 -161.5 q-46 -94 -93 -172q1 -6 -2 -14.5t-2 -14.5q-5 -7 -7.5 -28.5t-8.5 -28.5q-1 -19 -12.5 -48t-14.5 -46q-1 -1 -4 -7.5t-8 -7.5q1 -1 2 -3q3 -3 2 -7t-4 -14t-5 -16t-6 -13.5t-9 -11.5q-3 -27 -19 -71t-20 -62q-9 -17 -26 -66t-30 -72q0 -11 -8 -23.5t-8 -25.5q29 7 99.5 32 t111.5 34q2 2 8.5 4t9.5 4q23 2 74 18q20 3 57 11.5t67 13.5t58 4q41 14 78 -2q-2 -8 -17 -9t-18 -3q-36 -2 -74 -6.5t-67 -9.5t-70.5 -15t-64 -15.5t-68.5 -20t-62 -20t-67.5 -23t-64.5 -21.5q-10 -15 -35 -71t-49 -77q-2 1 -9.5 -1.5t-9.5 1.5q-6 5 -10 12.5t-5.5 14 t-1 18t1.5 18t3.5 20t3.5 18.5q-33 -10 -166 -61t-211 -64q-26 0 -57 22q-4 9 -5 18.5t0.5 16.5t6.5 16t8.5 13.5t11 14t9.5 11.5q-1 -7 -7.5 -21t-11 -24.5t-2.5 -23t13 -21.5q4 -2 19 -3t19 -3q72 21 99 25q13 8 48 20.5t48 20.5q6 0 12 -3q30 21 66 27q34 23 76 29 q3 4 28 14q14 48 19 55q0 5 2 12t2 11q6 14 30.5 72t35.5 83t31.5 67.5t39.5 74.5q0 1 1.5 4t0.5 8q14 24 55 104t68 119q4 11 12.5 30.5t14.5 37t10 35.5q8 81 10 112q-4 6 0 27q-2 3 -2.5 16t-3.5 17q1 16 -0.5 31t-6 34t-6.5 28t-9.5 32.5t-8.5 27.5q-19 36 -47 64 q-40 40 -129 63q-69 -18 -250 -78t-291 -81q-47 4 -56 17q-4 5 -5 11q44 31 154 64q0 -3 -2 -6t-1 -6q-13 -3 -41 -16t-45 -15q-3 -3 -16 -9t-16 -12q23 -8 71.5 3t59.5 12q12 0 22 10q67 17 183 55t172 53q-1 2 -9.5 1t-9.5 4q-3 0 -9.5 -2t-11.5 -2t-7 4q-24 -8 -46 -5 q-4 0 -11.5 -3t-11 -3.5t-7.5 4.5q-28 -19 -72 -14q2 7 13 8t14 4q2 0 4.5 -1t3.5 -1q30 13 137 19q50 -3 88 6q3 1 9.5 5t9.5 5q5 -3 20 0q2 0 2.5 3.5t1.5 4.5q39 3 88 21q7 -2 16.5 1.5t16.5 2.5q2 2 9 3.5t9 4.5q79 13 131 25q4 -1 27.5 4t32.5 2q51 15 67 12 q19 6 55.5 10.5t43.5 5.5q5 0 11 -1t11 -1q64 15 240 15q4 -6 23 -3t26 1q52 -3 125 -25q65 -28 63 -76zM475 729zM164 -25q7 1 69 23q24 51 64.5 154t54.5 137q9 33 40.5 124.5t39.5 145.5q-22 -43 -70 -135.5t-75.5 -147.5t-63 -139.5t-59.5 -161.5zM158 -55 q-1 -5 -6 -27.5t-5 -29.5t3 -25q14 1 24.5 19.5t15.5 21.5q3 13 15 32t14 33q-7 -3 -20 -7t-23.5 -8t-17.5 -9zM-14 1112q1 1 2.5 1t1.5 1q4 -1 3 -4.5t-3 -5.5q-1 0 -1 1.5t-0.5 3.5t-2.5 3zM-14 1112l-4 -8q-5 -2 -20 -5.5t-21 -8.5l-4 8q-10 -10 -13 -11v3 q-29 -14 -41 -11q-4 0 -12 -8q-7 2 -15.5 -1.5t-12 -5.5t-7.5 5h6q11 9 42 18t40 13q6 0 12 1.5t11.5 3.5t7.5 3q4 -4 15.5 0t15.5 4zM-174 1065q0 -8 -8 -8q-1 3 0.5 5.5t4 3t3.5 -0.5zM870 1427q2 -2 4 -9.5t5 -8.5q0 -2 -5 -12q-26 0 -28 8q3 22 24 22zM750 1393 q-3 -1 -8 -4t-8 -4.5t-7 -0.5t-8 5q-2 10 1 14.5t9 7.5t8 6q16 0 13 -24z" />
<glyph unicode="&#xd0;" horiz-adv-x="1605" d="M1157 657q1 -3 -0.5 -4.5t-3.5 -2t-4.5 -0.5t-6 -0.5t-5.5 -0.5q-14 3 -54 -2q-8 -1 -25.5 0t-25.5 0q-22 -3 -65.5 -3t-53.5 -1q-22 -1 -46.5 -3t-54.5 -5t-46 -4q-45 -119 -59 -142q-30 -72 -64.5 -142.5t-89.5 -174t-72 -137.5q35 27 78.5 53t100.5 56t85 46 q19 8 55 31t58 31q2 3 8.5 7t7.5 5q1 0 4.5 1.5t6.5 0.5q20 17 64.5 45.5t64.5 44.5q21 7 28 21q4 0 8.5 3.5t8.5 2.5q12 13 41 33.5t41 34.5q14 2 26 22q13 4 31 21.5t31 21.5q8 9 26 25.5t23 21.5q97 97 135 142q60 71 97.5 167t23.5 191l-14 51q-5 11 -12 22t-12 17.5 t-15.5 19t-14.5 17.5q-26 26 -36 31q-3 2 -9.5 4t-9.5 4q-2 1 -5 5t-5 5q-58 28 -117 41q-8 2 -39.5 4.5t-44.5 9.5q-8 -3 -61 -0.5t-56 2.5q-187 -17 -346 -77q-13 -7 -49.5 -24.5t-53.5 -26.5t-45.5 -24.5t-51 -30.5t-43.5 -32q-15 -4 -36.5 -21t-31.5 -22 q-44 -34 -180 -161q-17 -22 -78 -97q-59 -95 -82 -151q-14 -71 -12 -99q2 -36 28 -86q44 -59 162 -96q82 -16 209 -26q63 0 90 -5q1 -4 -1.5 -6t-7 -2t-8.5 0.5t-8.5 1t-5.5 0.5q-73 -1 -128.5 2t-120 15.5t-108.5 34t-78 61t-44 94.5q-1 38 4 71t18.5 64t23.5 49.5t31.5 52 t29.5 46.5q12 6 14 8q2 6 8 15.5t8 15.5q14 12 48 50t57 54q19 26 76 68q25 25 78.5 61.5t66.5 46.5q14 6 55.5 32t69.5 34q4 8 25 12q90 50 274 92q45 9 162 17q72 6 196 -19q190 -39 244 -188l12 -60q0 -38 -4 -104q-8 -38 -55 -148q-22 -27 -25 -38q-1 0 -4 -4.5t-8 -4.5 q-2 -10 -13.5 -23.5t-14.5 -23.5q-10 -7 -27.5 -29t-32.5 -30q-71 -83 -131 -125q-64 -58 -209 -164q-42 -28 -121.5 -78t-105.5 -67q-24 -11 -74 -38.5t-78 -39.5q-17 -11 -52.5 -31.5t-53.5 -32.5q-10 -8 -29 -21.5t-33.5 -25.5t-27.5 -26q-6 -10 -17.5 -28.5t-20 -33 t-14.5 -28.5q-5 -7 -21.5 -42t-33.5 -44q-8 0 -16 12q5 34 20.5 64.5t30 47t41.5 43.5q29 59 45 82q9 22 14 27q173 334 238 479q10 38 24 66q-92 -6 -182 -15q-147 -16 -229 19q0 10 2 14q5 -1 54 -10t75 -4q3 1 4 0.5t3 -2t3 -2.5q5 3 29.5 3.5t30.5 4.5q5 0 7 -3l3 -3 q7 4 25 5.5t28 -1.5q13 4 68 4q50 8 90 8q1 4 10 17q2 17 15.5 41.5t15.5 29.5q3 3 11 18.5t16.5 22t19.5 0.5q-3 -7 -11.5 -16.5t-11.5 -13.5q-7 -18 -22 -41q-6 -18 -6 -21l-19 -35h51q25 12 31 0l18 6l95 5q4 -2 9.5 -2.5t8.5 -1t4 -3.5q2 3 5.5 4t8.5 1.5t7 1.5 q20 1 145 -5z" />
<glyph unicode="&#xd1;" horiz-adv-x="1310" d="M799 162q2 10 -2 22q15 27 29.5 59t32 75t26.5 63q1 5 6 8.5t6 5.5v13q3 4 8 14t8 14q6 22 24 62.5t24 64.5q2 1 4.5 5t5.5 5v15q2 3 9 14t9.5 15.5t5.5 14t4 19.5q61 132 131 322q3 1 6.5 6t6.5 6q-1 9 5.5 19.5t6.5 19.5q16 32 41 94.5t33 79.5q1 3 5 1.5t5 -1.5 q2 8 2 25q22 44 27 65q11 19 31 65.5t34 67.5q12 39 49 107q15 44 39 78q14 41 51 104t48 86q16 16 22 41q5 3 14 15t17 14q27 -5 23.5 -41t-21.5 -47q0 43 4 59q-5 1 -9.5 -2.5t-7 -7t-6 -10.5l-4.5 -9q-4 -6 -14.5 -22t-15.5 -24t-12 -21.5t-11 -26.5q-3 -1 -6.5 -5 t-5.5 -5q-2 -12 -12.5 -28t-12.5 -25q-26 -41 -68 -130.5t-67 -129.5v-13q-9 -11 -21 -42.5t-22 -43.5q-5 -23 -23 -61t-22 -62q-17 -25 -40.5 -84.5t-39.5 -85.5q-15 -44 -47.5 -123t-46.5 -118q-3 -5 -8 -8q-19 -68 -47 -117q-2 -3 -1 -7.5t-1 -7.5q-96 -213 -144 -329 q0 -2 -8 -6q-33 -88 -57 -121zM799 162q0 -12 -8 -29.5t-9 -28.5q-10 -20 -42.5 -79.5t-47.5 -94.5q-25 -36 -33 -63q-12 -17 -36.5 -52t-36.5 -53q-55 -51 -86 -67q-25 -8 -72 4q-63 37 -92 160q-18 120 2 344q8 112 20 180q0 2 -1.5 6.5t-0.5 9.5q1 7 3.5 19t3 18t-0.5 19 q32 276 74 463q0 18 10.5 50.5t8.5 57.5q25 81 16 148q-13 -7 -25.5 -30.5t-19.5 -29.5q-15 -41 -43 -92q-1 -8 -16 -43q-3 -6 -7 -16.5t-6.5 -16.5t-6.5 -12t-9 -10q0 -18 -13 -47.5t-14 -47.5q31 60 45 97q16 22 64 116q4 2 10.5 11.5t10.5 13.5t14 0q-2 -12 -19 -25 q-6 -11 -18 -34.5t-19 -37t-18.5 -32.5t-22.5 -33q-4 -27 -14 -37q-18 -40 -27 -49q0 -19 -12 -31q-5 -18 -21.5 -53t-19.5 -53l-12 -18q-5 -26 -27.5 -79t-27.5 -87q-3 -4 -7.5 -14t-7.5 -13q-22 -102 -43 -156q-3 -39 -22 -73v-15q-8 -21 -26.5 -84.5t-31.5 -93.5 q0 -20 -10.5 -49t-11.5 -43q-8 -14 -21.5 -62.5t-33.5 -64.5q-12 4 -21 10q1 25 4.5 46.5t9.5 45t9 39.5q2 1 4 4.5t4 4.5q0 25 12 49v10q7 14 18 55t25 60q-2 2 -2 3.5t1 4.5t1 6q16 27 10 39q27 46 35 94q10 12 19.5 45t19.5 45q6 26 26.5 73t26.5 75q20 39 49.5 127.5 t47.5 124.5q2 22 15.5 54t16.5 50q15 33 88 203q7 9 27.5 48.5t40.5 51.5q8 -8 16 -10q-1 -2 0 -4t2 -3l2.5 -2.5l2.5 -2.5q2 -88 -35 -236q-6 -42 -23 -140.5t-27.5 -173t-15.5 -149.5q-5 -14 -6.5 -40t-5.5 -38q0 -23 -8 -55q-1 -32 -8.5 -105t-8.5 -114q-1 -19 -4 -60.5 t-3.5 -62.5t1.5 -61q6 -130 70 -205q29 -14 37 -21q6 2 14.5 2.5t11.5 1.5q7 2 18.5 8.5t18.5 8.5q27 21 33 24q110 133 168 275l6.5 6.5t7.5 5.5q9 35 29 55q9 41 33 62q0 -2 4 -2zM133 340q1 3 3.5 8.5t3 8.5t-0.5 8q-1 -3 -3.5 -8.5t-3 -8.5t0.5 -8zM102 264 q0 -2 -3.5 -2.5t-4.5 -1.5q2 -4 2 -16q-28 -72 -94 -303q14 16 25.5 59.5t23.5 60.5v19q21 47 48.5 143t33.5 113q-1 0 -2 1t-2 1q-5 -12 -14 -37.5t-13 -36.5zM852 1546q5 0 8.5 -5.5t5.5 -6.5q0 -4 0.5 -16.5t1 -17.5t2 -14.5t4 -14t6.5 -9.5t10 -6t15 0q15 5 19 4 q2 1 4 3l3.5 3.5t4.5 2.5t6 1q12 5 38.5 24.5t41.5 23.5q3 1 8.5 8.5t11.5 7.5q6 -5 2.5 -13.5t-12.5 -7.5q-4 -7 -19.5 -16t-19.5 -16q-12 -5 -31 -18.5t-36.5 -21t-36.5 -7.5q-35 12 -39 36q0 2 -2 21t-4 27q-4 -3 -16.5 -13t-19 -16t-11 -17.5t-0.5 -25.5q-4 -4 -21 4 q0 10 -2 14q5 10 10.5 19t14.5 18.5t14 14.5t17 15.5t16 14.5h6z" />
</font>
</defs>
</svg>
