<?xml version="1.0" standalone="no"?>
<!DOCTYPE svg PUBLIC "-//W3C//DTD SVG 1.1//EN" "http://www.w3.org/Graphics/SVG/1.1/DTD/svg11.dtd" >
<svg xmlns="http://www.w3.org/2000/svg" xmlns:xlink="http://www.w3.org/1999/xlink" version="1.1">
<metadata></metadata>
<defs>
<font id="sarabunbold_italic" horiz-adv-x="0" >
<font-face units-per-em="2048" ascent="1638" descent="-410" />
<missing-glyph horiz-adv-x="477" />
<glyph unicode="fi" horiz-adv-x="1259" d="M82 846l31 178h168l20 123q27 152 129 236.5t264 84.5q78 0 147.5 -24.5t102.5 -63.5l-119 -155q-20 20 -51 33.5t-63 13.5q-57 0 -98.5 -39t-53.5 -107l-18 -102h288l-30 -178h-289l-150 -846h-260l148 846h-166zM798 0l181 1024h260l-181 -1024h-260zM985 1266 q0 82 55 133t143 51q63 0 103.5 -35t40.5 -88q0 -82 -55.5 -133t-141.5 -51q-63 0 -104 34.5t-41 88.5z" />
<glyph unicode="fl" horiz-adv-x="1337" d="M82 846l31 178h168l20 123q27 152 129 236.5t264 84.5q78 0 147.5 -24.5t102.5 -63.5l-119 -155q-20 20 -51 33.5t-63 13.5q-57 0 -98.5 -39t-53.5 -107l-18 -102h288l-30 -178h-289l-150 -846h-260l148 846h-166zM802 182q0 33 7 70l225 1268h260l-225 -1270 q-2 -8 -2 -25q0 -63 82 -63q45 0 120 26l15 -139q-104 -70 -254 -69q-113 0 -170.5 52t-57.5 150z" />
<glyph unicode="&#xe24;&#xe45;" horiz-adv-x="1857" d="M78 176q0 14 4 43l45 256q14 72 63.5 132.5t118.5 90.5q-86 23 -203 37q16 135 98.5 240.5t212.5 165t288 59.5q111 0 197.5 -29.5t144.5 -85.5q137 115 346 115q186 0 292.5 -76.5t106.5 -210.5q0 -29 -6 -63l-238 -1362h-262l238 1346q2 12 2 34q0 59 -39 93t-113 34 q-88 0 -149.5 -54t-81.5 -144q0 -12 -2 -19l-226 -1290h-262l224 1262q4 18 4 51q0 88 -57.5 141t-153.5 53t-180 -41t-123 -106q143 -33 223 -86l-15 -74q-78 -27 -125 -78t-59 -123l-12 -67h10q84 0 137.5 -48t53.5 -126q0 -119 -80 -192.5t-205 -73.5q-100 0 -158.5 53 t-58.5 143zM258 182q0 -33 21.5 -53t56.5 -20q47 0 78.5 30.5t31.5 79.5q0 33 -21.5 52.5t-55.5 19.5q-49 0 -80 -31t-31 -78z" />
<glyph unicode="&#xe26;&#xe45;" horiz-adv-x="1904" d="M-33 156q0 117 72 190.5t186 73.5q27 0 45 -8q-4 33 -4 51q0 74 34 138.5t85 96.5q-98 25 -203 37q16 135 95 241.5t205 165t282 58.5q109 0 194.5 -27.5t141.5 -80.5q133 109 340 108q184 0 291.5 -75.5t107.5 -211.5q0 -29 -6 -63l-238 -1362h-262l238 1346q4 25 4 34 q0 61 -40 94t-114 33q-82 0 -143 -49t-84 -133q0 -10 -4 -35l-227 -1290h-261l222 1262q6 31 6 57q0 88 -53.5 138t-147.5 50q-88 0 -167 -36.5t-122 -110.5q66 -16 130.5 -40t101.5 -46l-15 -74q-86 -31 -123.5 -81t-37.5 -144v-55q0 -221 -81 -324.5t-245 -103.5 q-90 0 -146.5 49t-56.5 127zM102 182q0 -33 22.5 -53t57.5 -20q47 0 78 31.5t31 78.5q0 33 -21.5 53.5t-56.5 20.5q-49 0 -80 -31t-31 -80z" />
<glyph />
<glyph />
<glyph unicode=" "  horiz-adv-x="477" />
<glyph unicode="&#x09;" horiz-adv-x="477" />
<glyph unicode="&#xa0;" horiz-adv-x="477" />
<glyph unicode="!" horiz-adv-x="524" d="M6 123q0 96 62.5 156.5t162.5 60.5q72 0 117 -41t45 -104q0 -96 -62.5 -155.5t-162.5 -59.5q-72 0 -117 39.5t-45 103.5zM125 449l143 985h314l-205 -985h-252z" />
<glyph unicode="&#x22;" horiz-adv-x="829" d="M164 918l74 536h276l-117 -536h-233zM575 918l72 536h277l-115 -536h-234z" />
<glyph unicode="#" horiz-adv-x="1447" d="M63 375l37 211h193l78 262h-185l37 211h211l113 375h278l-112 -375h315l113 375h278l-112 -375h149l-37 -211h-176l-78 -262h168l-37 -211h-194l-113 -375h-278l112 375h-315l-113 -375h-278l112 375h-166zM571 586h316l78 262h-316z" />
<glyph unicode="$" horiz-adv-x="1107" d="M6 233l201 164q51 -82 135 -132t170 -50q113 0 179.5 51t66.5 137q0 51 -46 96.5t-171 112.5q-178 96 -259 195.5t-81 218.5q0 168 112.5 279.5t304.5 140.5l23 129h225l-22 -129q113 -18 196.5 -74.5t122.5 -140.5l-211 -139q-80 127 -229 127q-102 0 -162.5 -44.5 t-60.5 -117.5q0 -49 58 -97.5t216 -128.5q148 -75 215.5 -166.5t67.5 -213.5q0 -199 -125 -322t-348 -145l-25 -146h-225l26 152q-119 23 -211 86t-143 157z" />
<glyph unicode="%" horiz-adv-x="1982" d="M168 934q0 143 59.5 262t160.5 188.5t224 69.5q137 0 219 -89t82 -237q0 -143 -59 -261.5t-160.5 -188.5t-222.5 -70q-139 0 -221 89t-82 237zM303 -27l1133 1461h301l-1133 -1461h-301zM412 952q0 -63 24.5 -102t65.5 -39q45 0 83 41t61.5 110.5t23.5 147.5 q0 63 -24.5 102t-65.5 39q-45 0 -83 -41t-61.5 -109.5t-23.5 -148.5zM1143 307q0 143 59.5 262t160.5 188.5t224 69.5q137 0 219 -89t82 -236q0 -143 -59.5 -262t-160.5 -188.5t-224 -69.5q-137 0 -219 89t-82 236zM1386 326q0 -63 25 -102.5t66 -39.5q45 0 82.5 41 t61.5 111t24 147q0 63 -25 102.5t-66 39.5q-45 0 -83.5 -42t-61.5 -111t-23 -146z" />
<glyph unicode="&#x26;" horiz-adv-x="1427" d="M47 340q0 145 93 271t259 206q-57 127 -57 227q0 117 59.5 210.5t162 146.5t229.5 53q150 0 239.5 -74.5t89.5 -195.5q0 -129 -91 -244t-267 -207q88 -125 244 -278q78 111 114 239h252q-50 -221 -200 -401q78 -72 133 -123l-197 -190l-145 131q-207 -131 -447 -131 q-215 0 -343 97t-128 263zM352 391q0 -82 60.5 -128t167.5 -46q119 0 223 55q-182 188 -289 342l-18 29q-68 -55 -106 -119.5t-38 -132.5zM610 1079q0 -84 64 -198q86 63 134 134.5t48 135.5q0 43 -25.5 66.5t-68.5 23.5q-66 0 -109 -45t-43 -117z" />
<glyph unicode="'" horiz-adv-x="419" d="M164 918l74 536h276l-117 -536h-233z" />
<glyph unicode="(" horiz-adv-x="724" d="M92 444q0 215 61.5 424t174 382t262.5 286h268q-135 -100 -244.5 -277.5t-171 -391.5t-61.5 -425q0 -184 48 -331.5t136 -235.5h-268q-205 209 -205 569z" />
<glyph unicode=")" horiz-adv-x="724" d="M-66 -125q136 98 244.5 275.5t171 392.5t62.5 426q0 184 -48.5 331.5t-136.5 235.5h269q205 -207 204 -571q0 -328 -135 -624t-362 -466h-269z" />
<glyph unicode="*" horiz-adv-x="917" d="M139 1026l31 186l283 -16l-142 227l197 103l84 -260l174 260l164 -103l-223 -227l286 16l-32 -186l-281 18l141 -227l-196 -104l-84 262l-176 -262l-162 104l223 227z" />
<glyph unicode="+" horiz-adv-x="1263" d="M82 438l37 197h409l78 438h250l-78 -438h412l-35 -197h-412l-77 -438h-250l78 438h-412z" />
<glyph unicode="," horiz-adv-x="595" d="M-31 -258q57 41 111.5 105.5t89.5 134.5q-6 -2 -20 -2q-49 0 -80 34.5t-31 87.5q0 96 63.5 156.5t163.5 60.5q70 0 114 -46t44 -119q0 -137 -101.5 -291t-259.5 -254z" />
<glyph unicode="-" horiz-adv-x="696" d="M37 455l33 180h600l-31 -180h-602z" />
<glyph unicode="." horiz-adv-x="595" d="M59 119q0 94 57.5 153.5t149.5 59.5q63 0 104.5 -39t41.5 -100q0 -92 -58.5 -151.5t-148.5 -59.5q-64 0 -105 38.5t-41 98.5z" />
<glyph unicode="/" horiz-adv-x="958" d="M-150 -88l1055 1573h266l-1054 -1573h-267z" />
<glyph unicode="0" horiz-adv-x="1157" d="M66 479q0 287 83.5 508t234.5 344t345 123q127 0 225.5 -63.5t153.5 -177t55 -257.5q0 -287 -84 -509t-234.5 -344.5t-342.5 -122.5q-127 0 -226.5 63t-154.5 177t-55 259zM356 455q0 -117 47.5 -189.5t118.5 -72.5q103 0 182.5 100t123.5 279.5t44 408.5 q0 115 -46 187.5t-117 72.5q-102 0 -183.5 -99.5t-125.5 -277.5t-44 -409z" />
<glyph unicode="1" horiz-adv-x="1157" d="M150 0l38 219h232l155 885l-292 -158l45 262l407 226h193l-213 -1215h229l-39 -219h-755z" />
<glyph unicode="2" horiz-adv-x="1157" d="M25 0l36 213q223 139 398.5 298t273.5 307.5t98 256.5q0 70 -40.5 108t-114.5 38q-92 0 -186.5 -49.5t-163.5 -135.5l-131 170q90 119 225 183.5t291 64.5q199 0 310.5 -88t111.5 -242q0 -186 -166 -407t-512 -498h575l-39 -219h-966z" />
<glyph unicode="3" horiz-adv-x="1157" d="M35 205l172 160q47 -68 128 -109t165 -41q121 0 195.5 69.5t74.5 178.5q0 84 -65.5 133t-184.5 49h-123l37 209h121q76 0 139.5 32t100 86t36.5 120q0 61 -43 94t-124 33q-90 0 -179.5 -39t-160.5 -111l-107 162q90 104 225.5 162.5t286.5 58.5q119 0 210 -39 t142.5 -108.5t51.5 -159.5q0 -123 -76 -223.5t-215 -159.5q109 -39 165 -114t56 -177q0 -141 -75 -253t-207 -174t-298 -62q-164 0 -283.5 59t-164.5 164z" />
<glyph unicode="4" horiz-adv-x="1157" d="M-10 223l37 205l790 1006h313l-174 -977h152l-41 -234h-149l-41 -223h-295l41 223h-633zM307 457h357l100 577z" />
<glyph unicode="5" horiz-adv-x="1157" d="M20 203l160 186q59 -86 137 -131t168 -45q86 0 156 46t108.5 126t38.5 180q0 90 -47 139.5t-131 49.5q-61 0 -123.5 -36t-103.5 -95h-244l215 811h846l-43 -234h-584l-84 -311q35 35 104 58.5t132 23.5q168 0 266.5 -102.5t98.5 -274.5q0 -176 -81 -316.5t-223.5 -219 t-320.5 -78.5q-148 0 -271.5 61t-173.5 162z" />
<glyph unicode="6" horiz-adv-x="1157" d="M68 418q0 246 149.5 479t395 389t515.5 178l-12 -221q-176 -31 -321.5 -115t-239.5 -208q23 12 58.5 20t68.5 8q188 0 296.5 -102.5t108.5 -282.5q0 -168 -73.5 -301t-205.5 -207.5t-298 -74.5q-131 0 -231.5 55t-155.5 154.5t-55 228.5zM365 401q0 -86 46 -136t124 -50 q71 0 129.5 42t93.5 113.5t35 157.5t-46.5 135.5t-123.5 49.5q-70 0 -129.5 -42t-94 -114t-34.5 -156z" />
<glyph unicode="7" horiz-adv-x="1157" d="M213 1200l41 234h975l-33 -191q-244 -219 -411 -545.5t-232 -697.5h-295q80 375 211 663.5t365 536.5h-621z" />
<glyph unicode="8" horiz-adv-x="1157" d="M39 340q0 137 84 253t219 167q-59 27 -97 98.5t-38 161.5q0 127 66.5 225t186.5 153.5t273 55.5q121 0 216 -42t147.5 -116.5t52.5 -171.5q0 -119 -68.5 -221t-177.5 -143q80 -33 128 -115t48 -182q0 -141 -73.5 -251t-205.5 -171t-302 -61q-136 0 -240 46t-161.5 126.5 t-57.5 187.5zM340 387q0 -78 52 -126t134 -48q117 0 191 77t74 197q0 76 -51.5 124t-133.5 48q-117 0 -191.5 -75.5t-74.5 -196.5zM494 1001q0 -61 40.5 -100t106.5 -39q92 0 150.5 61.5t58.5 157.5q0 61 -41 100.5t-104 39.5q-94 0 -152.5 -61.5t-58.5 -158.5z" />
<glyph unicode="9" horiz-adv-x="1157" d="M117 193q184 33 340.5 120.5t238.5 202.5q-80 -29 -143 -29q-184 0 -295 107.5t-111 286.5q0 162 75 293t207 204.5t296 73.5q131 0 230.5 -54.5t154.5 -154.5t55 -231q0 -258 -139 -487.5t-378.5 -378t-524.5 -177.5zM438 897q0 -90 45 -142.5t121 -52.5 q70 0 131.5 45.5t97 122t35.5 164.5q0 86 -46 135.5t-126 49.5q-70 0 -129 -43t-94 -117t-35 -162z" />
<glyph unicode=":" horiz-adv-x="595" d="M59 119q0 94 57.5 152.5t149.5 58.5q63 0 104.5 -38t41.5 -99q0 -94 -58.5 -153.5t-148.5 -59.5q-64 0 -105 38.5t-41 100.5zM180 809q0 94 58.5 152.5t148.5 58.5q66 0 107 -38t41 -99q0 -94 -58.5 -152.5t-148.5 -58.5q-66 0 -107 39t-41 98z" />
<glyph unicode=";" horiz-adv-x="595" d="M-35 -258q57 39 111.5 103.5t89.5 136.5q-8 -2 -21 -2q-49 0 -79.5 34.5t-30.5 87.5q0 96 63.5 156.5t163.5 60.5q70 0 114 -46t44 -119q0 -137 -101.5 -291t-259.5 -254zM180 809q0 94 58.5 152.5t148.5 58.5q66 0 107 -38t41 -99q0 -94 -58.5 -152.5t-148.5 -58.5 q-66 0 -107 39t-41 98z" />
<glyph unicode="&#x3c;" horiz-adv-x="1263" d="M119 543l18 108l1135 541l-41 -223l-789 -375l656 -375l-37 -219z" />
<glyph unicode="=" horiz-adv-x="1263" d="M61 197l37 213h1030l-36 -213h-1031zM139 639l37 213h1030l-37 -213h-1030z" />
<glyph unicode="&#x3e;" horiz-adv-x="1263" d="M23 0l38 223l789 375l-655 375l38 219l943 -541l-19 -108z" />
<glyph unicode="?" horiz-adv-x="964" d="M172 1231q76 106 198 164.5t267 58.5q182 0 285.5 -79t103.5 -218q0 -92 -36 -170t-87 -137t-135 -139q-98 -94 -146.5 -160t-48.5 -141v-39h-245v10q0 84 29.5 152.5t71.5 120t114 124.5q94 94 141 165t47 163q0 66 -40 100.5t-113 34.5q-74 0 -153 -48t-140 -130z M254 106q0 84 55.5 136.5t143.5 52.5q63 0 103 -35t40 -92q0 -84 -55.5 -136t-143.5 -52q-63 0 -103 34.5t-40 91.5z" />
<glyph unicode="@" horiz-adv-x="1648" d="M39 268q0 264 126 483.5t342 347.5t474 128q182 0 320.5 -68.5t213 -192.5t74.5 -286q0 -172 -67.5 -316.5t-183 -229.5t-255.5 -87h-61l-31 123q-63 -59 -150 -96t-163 -37q-117 0 -186.5 61.5t-69.5 163.5q0 96 53 173t148.5 120t212.5 43h157l6 29q2 8 2 26 q0 51 -34.5 83t-92.5 32q-72 0 -148.5 -31.5t-127.5 -83.5l-74 103q70 70 176.5 114.5t202.5 44.5q123 0 195.5 -68.5t72.5 -180.5q0 -31 -6 -66l-43 -250q-4 -18 -4 -55q0 -66 19 -96q70 16 129 82.5t95 163t36 202.5q0 119 -54.5 209t-155 140.5t-233.5 50.5 q-195 0 -358.5 -99.5t-257.5 -270.5t-94 -374q0 -129 53 -226t152.5 -151.5t230.5 -54.5q92 0 191.5 24.5t162.5 63.5l45 -145q-76 -55 -199.5 -89t-246.5 -34q-178 0 -312.5 71.5t-208 202.5t-73.5 303zM608 289q0 -49 31 -79t86 -30q76 0 144.5 46t76.5 98l25 143h-150 q-92 0 -152.5 -50t-60.5 -128z" />
<glyph unicode="A" horiz-adv-x="1312" d="M-59 0l747 1434h260l244 -1434h-295l-31 238h-491l-113 -238h-321zM487 473h349l-76 569z" />
<glyph unicode="B" horiz-adv-x="1241" d="M49 0l252 1434h461q217 0 334.5 -79t117.5 -222q0 -121 -61 -208t-190 -151l-2 -6q196 -80 196 -270q0 -235 -136 -366.5t-382 -131.5h-590zM385 227h238q106 0 174.5 71t68.5 185q0 164 -237 164h-170zM496 862h196q94 0 156.5 57.5t62.5 151.5q0 63 -49 99t-147 36 h-158z" />
<glyph unicode="C" horiz-adv-x="1269" d="M84 551q0 262 98.5 467t275.5 320.5t402 115.5q176 0 306 -68.5t175 -183.5l-194 -147q-39 80 -114 122t-175 42q-139 0 -247.5 -85t-170 -235.5t-61.5 -343.5q0 -162 78 -251t221 -89q217 0 350 164l148 -148q-171 -251 -499 -251h-3q-180 0 -313.5 69.5t-205 198.5 t-71.5 303z" />
<glyph unicode="D" horiz-adv-x="1314" d="M49 0l252 1434h492q248 0 377.5 -126t129.5 -368q0 -457 -195.5 -698.5t-565.5 -241.5h-490zM387 236h193q127 0 224 83.5t149.5 237.5t52.5 356q0 145 -58.5 215t-181.5 70h-211z" />
<glyph unicode="E" horiz-adv-x="1169" d="M49 0l252 1434h952l-41 -236h-657l-57 -328h585l-41 -235h-587l-68 -399h655l-41 -236h-952z" />
<glyph unicode="F" horiz-adv-x="1175" d="M49 0l252 1434h963l-41 -236h-668l-68 -383h623l-41 -235h-623l-102 -580h-295z" />
<glyph unicode="G" horiz-adv-x="1337" d="M80 516q0 274 98 487.5t274.5 332t403.5 118.5q182 0 315.5 -69.5t169.5 -182.5l-192 -147q-37 80 -112.5 122t-182.5 42q-137 0 -245.5 -88.5t-170 -245t-61.5 -357.5q0 -164 68.5 -247.5t201.5 -83.5q135 0 254 65l53 307h-309l37 209h600l-135 -778h-223l-13 72 q-131 -92 -307 -92q-160 0 -278.5 65.5t-182 187t-63.5 283.5z" />
<glyph unicode="H" horiz-adv-x="1417" d="M49 0l252 1434h295l-102 -586h548l105 586h293l-252 -1434h-293l109 612h-551l-109 -612h-295z" />
<glyph unicode="I" horiz-adv-x="661" d="M94 0l252 1434h293l-252 -1434h-293z" />
<glyph unicode="J" horiz-adv-x="1007" d="M-55 137l149 189q45 -51 109.5 -81t132.5 -30q100 0 155.5 65.5t81.5 213.5l164 940h295l-172 -973q-43 -248 -172 -364.5t-360 -116.5q-119 0 -221.5 41.5t-161.5 115.5z" />
<glyph unicode="K" horiz-adv-x="1343" d="M49 0l254 1434h295l-111 -623l584 623h346l-559 -568l356 -866h-311l-266 641l-219 -221l-74 -420h-295z" />
<glyph unicode="L" horiz-adv-x="1157" d="M49 0l252 1434h295l-211 -1198h676l-41 -236h-971z" />
<glyph unicode="M" horiz-adv-x="1671" d="M49 0l254 1434h297l193 -1108l579 1108h322l-254 -1434h-291l149 848l-452 -848h-207l-152 834l-147 -834h-291z" />
<glyph unicode="N" horiz-adv-x="1431" d="M49 0l252 1434h285l409 -936l166 936h293l-252 -1434h-272l-420 952l-168 -952h-293z" />
<glyph unicode="O" horiz-adv-x="1413" d="M82 541q0 264 97 472t271.5 324.5t395.5 116.5q166 0 293 -70.5t196.5 -197.5t69.5 -293q0 -264 -97.5 -472t-271.5 -324.5t-395 -116.5q-166 0 -293 70.5t-196.5 197.5t-69.5 293zM381 563q0 -156 78 -253t203 -97q129 0 230 84t158.5 234.5t57.5 340.5q0 156 -78 252.5 t-203 96.5q-129 0 -230 -84t-158.5 -233.5t-57.5 -340.5z" />
<glyph unicode="P" horiz-adv-x="1208" d="M49 0l252 1434h459q221 0 343 -94.5t122 -264.5q0 -274 -160 -428.5t-442 -154.5h-193l-86 -492h-295zM471 725h197q117 0 190.5 85t73.5 218q0 84 -50.5 127t-144.5 43h-182z" />
<glyph unicode="Q" horiz-adv-x="1413" d="M82 541q0 264 97 472t271.5 324.5t395.5 116.5q166 0 293 -70.5t196.5 -197.5t69.5 -293q0 -229 -74 -416.5t-208 -311.5t-310 -165q164 -57 418 -66l-82 -200q-201 10 -405.5 90t-305.5 180l17 2q-172 51 -272.5 193.5t-100.5 341.5zM381 563q0 -156 78 -253t203 -97 q129 0 230 84t158.5 234.5t57.5 340.5q0 156 -78 252.5t-203 96.5q-129 0 -230 -84t-158.5 -233.5t-57.5 -340.5z" />
<glyph unicode="R" horiz-adv-x="1220" d="M49 0l252 1434h487q215 0 330 -88.5t115 -251.5q0 -338 -309 -447v-4q33 -27 49 -52.5t24 -60.5l119 -530h-313l-86 436q-14 66 -49 87.5t-131 21.5h-97l-96 -545h-295zM481 778h181q125 0 199.5 75t74.5 196q0 149 -202 149h-3h-176z" />
<glyph unicode="S" horiz-adv-x="1124" d="M6 233l201 164q51 -82 135 -132t170 -50q113 0 179.5 51t66.5 137q0 51 -46 96.5t-171 112.5q-178 96 -259 195.5t-81 218.5q0 127 66.5 224.5t188.5 150.5t281 53q150 0 263.5 -60.5t162.5 -162.5l-211 -139q-80 127 -229 127q-102 0 -162.5 -44.5t-60.5 -117.5 q0 -49 58 -97.5t216 -128.5q147 -76 215 -167t68 -213q0 -219 -152.5 -345t-419.5 -126q-161 0 -288 67.5t-191 185.5z" />
<glyph unicode="T" horiz-adv-x="1208" d="M156 1217l39 217h1146l-38 -217h-426l-215 -1217h-295l215 1217h-426z" />
<glyph unicode="U" horiz-adv-x="1355" d="M117 410q0 76 14 149l154 875h295l-154 -871q-12 -63 -12 -119q0 -229 213 -229q129 0 210 88t111 260l154 871h295l-154 -875q-102 -579 -641 -579h-2q-235 0 -359 109.5t-124 320.5z" />
<glyph unicode="V" horiz-adv-x="1325" d="M193 1434h301l137 -1059l512 1059h313l-751 -1434h-267z" />
<glyph unicode="W" horiz-adv-x="1789" d="M213 1434h309l-12 -949l403 949h279l70 -945l321 945h318l-555 -1434h-275l-74 1067l-450 -1067h-285z" />
<glyph unicode="X" horiz-adv-x="1341" d="M-37 0l578 733l-305 701h319l182 -461l346 461h349l-551 -701l317 -733h-309l-205 489l-371 -489h-350z" />
<glyph unicode="Y" horiz-adv-x="1286" d="M193 1434h311l194 -564l392 564h327l-616 -861l-101 -573h-294l100 573z" />
<glyph unicode="Z" horiz-adv-x="1212" d="M-37 0l25 143l891 1055h-646l41 236h1018l-24 -148l-881 -1050h723l-43 -236h-1104z" />
<glyph unicode="[" horiz-adv-x="679" d="M-37 -215l293 1649h512l-37 -205h-223l-217 -1239h223l-37 -205h-514z" />
<glyph unicode="\" horiz-adv-x="788" d="M129 1485h266l502 -1573h-266z" />
<glyph unicode="]" horiz-adv-x="679" d="M-53 -215l37 205h225l217 1239h-223l37 205h512l-291 -1649h-514z" />
<glyph unicode="^" horiz-adv-x="1226" d="M59 457l611 977h215l264 -977h-256l-166 684l-405 -684h-263z" />
<glyph unicode="_" horiz-adv-x="733" d="M-205 -653l35 196h733l-35 -196h-733z" />
<glyph unicode="`" horiz-adv-x="819" d="M317 1497h252l129 -360h-209z" />
<glyph unicode="a" horiz-adv-x="1142" d="M45 383q0 193 66.5 343.5t185.5 234t272 83.5q106 0 184 -38.5t111 -110.5h4l41 129h219l-133 -752q-37 -215 -43 -272h-245q12 84 22 135h-4q-61 -72 -146 -113.5t-173 -41.5q-166 0 -263.5 108.5t-97.5 294.5zM307 401q0 -106 44 -163.5t128 -57.5q109 0 184.5 62.5 t94.5 165.5l37 210q4 29 4 46q0 82 -56.5 134t-144.5 52q-82 0 -148.5 -58.5t-104.5 -161t-38 -229.5z" />
<glyph unicode="b" horiz-adv-x="1142" d="M10 0q25 102 53 272l222 1248h260l-107 -600h4q120 124 305 124h3q164 0 259 -99t95 -273q0 -197 -69.5 -354.5t-190.5 -247.5t-271 -90q-90 0 -172 44t-114 111h-4q-4 -16 -9 -45l-18 -90h-246zM344 360q0 -82 54.5 -131t146.5 -49q82 0 149.5 60.5t106.5 165t39 231.5 q0 104 -45 158.5t-131 54.5q-100 0 -180.5 -66.5t-96.5 -165.5l-39 -210q-4 -33 -4 -48z" />
<glyph unicode="c" horiz-adv-x="1007" d="M43 393q0 190 76 339t213 230.5t315 81.5q145 0 247.5 -54t141.5 -150l-180 -138q-29 66 -87 104t-132 38q-92 0 -168 -55.5t-119 -153.5t-43 -219q0 -113 55.5 -174.5t157.5 -61.5q76 0 145.5 38t122.5 104l134 -138q-76 -100 -186.5 -152t-250.5 -52q-204 0 -323 110.5 t-119 302.5z" />
<glyph unicode="d" horiz-adv-x="1142" d="M45 383q0 190 67.5 340.5t188.5 235.5t274 85q190 0 269 -124h4l106 600h260l-219 -1248l-22 -143q-18 -115 -21 -129h-245q12 80 22 135h-4q-61 -72 -146 -113.5t-173 -41.5q-166 0 -263.5 108.5t-97.5 294.5zM307 401q0 -106 44 -163.5t128 -57.5q109 0 184.5 62.5 t94.5 165.5l37 210q4 29 4 46q0 82 -56.5 134t-144.5 52q-82 0 -148.5 -58.5t-104.5 -161t-38 -229.5z" />
<glyph unicode="e" horiz-adv-x="1110" d="M51 391q0 190 76 339t212 231.5t310 82.5q193 0 302.5 -108.5t109.5 -296.5q0 -68 -14 -137l-19 -86h-713q2 -106 56.5 -161.5t158.5 -55.5q90 0 163 30.5t149 102.5l119 -135q-78 -100 -205 -158.5t-267 -58.5q-201 0 -319.5 110.5t-118.5 300.5zM340 594h475v12 q1 12 1 24q0 94 -44 144q-49 57 -151 57q-96 0 -172 -62t-109 -175z" />
<glyph unicode="f" horiz-adv-x="772" d="M82 846l31 178h168l20 123q27 152 129 236.5t264 84.5q78 0 147.5 -24.5t102.5 -63.5l-119 -155q-20 20 -51 33.5t-63 13.5q-57 0 -98.5 -39t-53.5 -107l-18 -102h288l-30 -178h-289l-150 -846h-260l148 846h-166z" />
<glyph unicode="g" horiz-adv-x="1136" d="M-43 -373l119 178q66 -37 145.5 -58t153.5 -21q272 0 334 350l4 26q-97 -108 -284 -108h-3q-178 0 -279.5 103.5t-101.5 285.5q0 195 65.5 345.5t184.5 233t272 82.5q109 0 186.5 -38.5t110.5 -110.5h4l41 129h217l-172 -983q-45 -260 -193.5 -392t-398.5 -132 q-121 0 -227 28.5t-178 81.5zM307 410q0 -104 48 -158.5t143 -54.5q106 0 175.5 64.5t90.5 182.5l22 131q7 43 7 78q0 96 -48.5 146.5t-138.5 50.5q-88 0 -155.5 -57.5t-105.5 -156.5t-38 -226z" />
<glyph unicode="h" horiz-adv-x="1161" d="M8 0l268 1520h263l-109 -617q53 66 141 103.5t189 37.5q154 0 243 -89t89 -240q0 -43 -11 -101l-108 -614h-262l104 596q8 53 8 76q0 84 -41 131t-116 47q-113 0 -193 -79t-104 -214l-99 -557h-262z" />
<glyph unicode="i" horiz-adv-x="559" d="M59 0l181 1024h260l-181 -1024h-260zM246 1266q0 82 55 133t143 51q63 0 103.5 -35t40.5 -88q0 -82 -55.5 -133t-141.5 -51q-63 0 -104 34.5t-41 88.5z" />
<glyph unicode="j" horiz-adv-x="571" d="M-293 -395l45 182q61 -6 131 -6q88 0 137.5 40t63.5 126l190 1077h263l-191 -1073q-33 -188 -139.5 -279.5t-294.5 -91.5q-51 0 -108.5 7t-96.5 18zM274 1268q0 80 56.5 131t144.5 51q63 0 103 -35t40 -90q0 -82 -55 -132t-143 -50q-64 0 -105 34.5t-41 90.5z" />
<glyph unicode="k" horiz-adv-x="1091" d="M12 0l269 1520h262l-154 -844l420 348h328l-443 -371l301 -653h-286l-220 483l-151 -127l-64 -356h-262z" />
<glyph unicode="l" horiz-adv-x="616" d="M63 182q0 33 7 70l225 1268h260l-225 -1270q-2 -8 -2 -25q0 -63 82 -63q45 0 120 26l15 -139q-103 -69 -250 -69h-4q-113 0 -170.5 52t-57.5 150z" />
<glyph unicode="m" horiz-adv-x="1732" d="M8 0l133 752l17 104q20 113 22 168h230q-2 -68 -21 -178h4q45 94 136.5 146t205.5 52q111 0 182.5 -49t81.5 -131q57 86 147.5 133t194.5 47q147 0 230.5 -82.5t83.5 -228.5q0 -43 -10 -100l-111 -633h-260l104 604q6 37 6 68q0 78 -38.5 120t-110.5 42 q-88 0 -149.5 -62.5t-79.5 -169.5l-107 -602h-258l107 596q6 41 6 72q0 80 -38 123t-108 43q-88 0 -151.5 -64.5t-81.5 -173.5l-107 -596h-260z" />
<glyph unicode="n" horiz-adv-x="1153" d="M6 0l135 754l9 51q27 162 28 219h246q-4 -88 -21 -178h5q55 94 149 146t213 52q150 0 225.5 -82.5t75.5 -240.5q0 -72 -14 -146l-103 -575h-260l103 578q8 43 8 90q0 166 -152 166q-109 0 -187.5 -75t-98.5 -200l-99 -559h-262z" />
<glyph unicode="o" horiz-adv-x="1185" d="M53 397q0 190 78 338t218 228.5t325 80.5q211 0 335 -112.5t124 -304.5q0 -190 -78 -338t-219.5 -228.5t-323.5 -80.5q-211 0 -335 112.5t-124 304.5zM315 420q0 -115 59.5 -180.5t162.5 -65.5q94 0 169.5 55.5t118.5 153.5t43 221q0 115 -58 180.5t-163 65.5 q-94 0 -170 -55.5t-119 -153.5t-43 -221z" />
<glyph unicode="p" horiz-adv-x="1157" d="M-70 -496l222 1248q23 137 38 272h246q-4 -59 -16 -135h4q99 155 321 155h3q164 0 261 -107.5t97 -287.5q0 -193 -64.5 -345t-181.5 -238t-266 -86q-98 0 -175 32.5t-114 91.5h-6l-106 -600h-263zM348 365q0 -82 58.5 -136.5t148.5 -54.5q82 0 147.5 58.5t102.5 163 t37 233.5q0 104 -45 159.5t-129 55.5q-106 0 -183 -62.5t-96 -165.5l-37 -210q-4 -29 -4 -41z" />
<glyph unicode="q" horiz-adv-x="1157" d="M51 391q0 193 65.5 341.5t184.5 230t270 81.5q104 0 185.5 -39.5t111.5 -107.5h4l27 127h248q-31 -125 -57 -272l-220 -1248h-262l107 611h-6q-49 -66 -127 -100.5t-172 -34.5q-162 0 -260.5 113.5t-98.5 297.5zM315 397q0 -109 46.5 -166t130.5 -57q100 0 179 66.5 t95 165.5l39 210q4 33 4 46q0 82 -55.5 132t-147.5 50q-82 0 -148.5 -57.5t-104.5 -160t-38 -229.5z" />
<glyph unicode="r" horiz-adv-x="813" d="M20 0l138 774q31 178 37 250h247q-2 -92 -22 -180l-4 -21h8q57 102 164.5 161.5t236.5 59.5q25 0 60 -6l-35 -207q-8 4 -49 5q-98 0 -192.5 -53.5t-161 -142.5t-85.5 -191l-79 -449h-263z" />
<glyph unicode="s" horiz-adv-x="903" d="M-4 174l184 113q27 -51 78 -82t113 -31q82 0 132 34t50 91q0 39 -35 70.5t-115 64.5q-147 61 -215.5 133t-68.5 162q0 145 110.5 230t300.5 85q121 0 214.5 -45t132.5 -125l-170 -112q-57 88 -181 88q-68 0 -106.5 -26.5t-38.5 -71.5q0 -33 35 -57.5t143 -69.5 q135 -57 197.5 -124t62.5 -151q0 -109 -58.5 -193.5t-162.5 -130.5t-240 -46q-133 0 -234 54t-128 140z" />
<glyph unicode="t" horiz-adv-x="860" d="M82 829l35 195h186l45 264l266 74h9l-58 -338h297l-35 -195h-297l-86 -483q-4 -37 -4 -49q0 -121 140 -121q80 0 153 25l-18 -178q-98 -43 -252 -43q-139 0 -216 65.5t-77 185.5q0 35 6 74l92 524h-186z" />
<glyph unicode="u" horiz-adv-x="1148" d="M74 299q0 72 14 145l100 580h263l-101 -580q-10 -61 -10 -98q0 -80 35 -118t106 -38q106 0 191.5 82t107.5 207l94 545h263l-133 -764q-16 -82 -31 -260h-248q2 98 14 180h-4q-55 -94 -152.5 -147t-211.5 -53q-146 0 -221.5 80.5t-75.5 238.5z" />
<glyph unicode="v" horiz-adv-x="1081" d="M117 1024h262l119 -705l368 705h279l-582 -1024h-225z" />
<glyph unicode="w" horiz-adv-x="1447" d="M117 1024h268l16 -637l293 637h232l69 -637l240 637h276l-442 -1024h-229l-72 743l-338 -743h-231z" />
<glyph unicode="x" horiz-adv-x="1064" d="M-63 0l462 520l-254 504h281l135 -303l242 303h297l-428 -504l276 -520h-282l-156 334l-272 -334h-301z" />
<glyph unicode="y" horiz-adv-x="1034" d="M-150 -371l37 207q23 -8 60 -14t65 -6q88 0 164 62.5t152 197.5l-213 948h270l111 -657l319 657h283l-580 -1071q-188 -346 -504 -346q-80 0 -164 22z" />
<glyph unicode="z" horiz-adv-x="974" d="M-47 0l22 139l668 688h-516l35 197h837l-22 -127l-658 -700h558l-35 -197h-889z" />
<glyph unicode="{" horiz-adv-x="716" d="M70 539l26 145q59 2 100.5 36t51.5 85l57 325q59 324 397 324h125l-34 -207h-119q-33 0 -53.5 -20.5t-28.5 -57.5l-64 -366q-27 -137 -178 -193q115 -47 115 -151q0 -12 -4 -41l-66 -367q-2 -8 -2 -22q0 -25 14.5 -40.5t41.5 -15.5h118l-37 -206h-124q-291 -1 -291 239 q0 43 8 84l57 326l2 18q0 43 -29.5 70.5t-82.5 34.5z" />
<glyph unicode="|" horiz-adv-x="526" d="M-14 -328l311 1762h260l-311 -1762h-260z" />
<glyph unicode="}" horiz-adv-x="716" d="M-76 -233l37 206h119q31 0 51.5 20.5t28.5 57.5l63 367q27 141 183 192q-59 25 -88 62t-29 90q0 12 4 41l63 366q2 8 2 23q0 55 -53 55h-119l35 207h125q145 0 219 -60.5t74 -179.5q0 -43 -8 -84l-58 -325q-2 -8 -2 -23q0 -43 30 -69.5t83 -28.5l-27 -145 q-61 -8 -103 -41t-50 -82l-55 -326q-27 -160 -128.5 -241.5t-271.5 -81.5h-125z" />
<glyph unicode="~" horiz-adv-x="1263" d="M88 367l12 67q25 131 123.5 213t229.5 82q55 0 113.5 -23.5t129.5 -66.5q61 -33 90 -46t56 -13q45 0 78.5 42t44.5 107h225l-10 -63q-23 -131 -120 -215t-229 -84q-57 0 -116.5 24.5t-134.5 67.5q-51 29 -84 43t-56 14q-41 0 -76.5 -41t-50.5 -108h-225z" />
<glyph unicode="&#xa1;" horiz-adv-x="524" d="M-57 -410l204 985h252l-143 -985h-313zM133 829q0 94 62.5 154.5t160.5 60.5q72 0 117 -39.5t45 -103.5q0 -96 -62.5 -156.5t-162.5 -60.5q-70 0 -115 41t-45 104z" />
<glyph unicode="&#xa2;" horiz-adv-x="1001" d="M68 537q0 176 65.5 316t184 226t274.5 105l33 184h161l-32 -184q115 -14 194.5 -66.5t112.5 -134.5l-180 -137q-29 66 -87.5 103.5t-131.5 37.5q-92 0 -168 -55t-119 -153.5t-43 -219.5q0 -113 55 -174t158 -61q76 0 145.5 37.5t122.5 103.5l133 -137 q-137 -180 -379 -203l-32 -182h-162l33 188q-158 27 -248 133.5t-90 272.5z" />
<glyph unicode="&#xa3;" horiz-adv-x="1128" d="M8 0l31 166q113 45 196.5 141t100.5 191q8 49 10 108h-190l30 174h162q4 197 14 260q33 188 167.5 301t324.5 113q94 0 182 -37t135 -98l-127 -193q-37 43 -90 70t-106 27q-80 0 -135.5 -53.5t-71.5 -141.5q-12 -76 -12 -248h323l-30 -174h-295q-4 -63 -9 -90 q-33 -193 -188 -305h541l-37 -211h-926z" />
<glyph unicode="&#xa4;" horiz-adv-x="1292" d="M18 254l132 115q-49 92 -50 225q0 111 50.5 219.5t109.5 173.5l-92 115l197 162l100 -119q68 41 147.5 62.5t155.5 21.5q74 0 150.5 -22.5t132.5 -61.5l145 119l135 -179l-131 -98q25 -39 37 -95t12 -118q0 -113 -47 -225.5t-110 -179.5l94 -115l-195 -160l-106 117 q-68 -39 -151 -61.5t-159 -22.5q-71 0 -145 22.5t-131 61.5l-141 -119zM356 610q0 -115 72 -185.5t190 -70.5q103 0 189 53.5t137 144.5t51 198q0 117 -70.5 187.5t-191.5 70.5q-102 0 -188 -54.5t-137.5 -145.5t-51.5 -198z" />
<glyph unicode="&#xa5;" horiz-adv-x="1306" d="M109 279l32 188h361l18 106l-16 43h-338l35 191h233l-227 627h311l195 -564l391 564h328l-449 -625h229l-34 -193h-332l-31 -43l-18 -106h356l-33 -188h-356l-49 -279h-295l49 279h-360z" />
<glyph unicode="&#xa6;" horiz-adv-x="526" d="M-14 -328l141 803h260l-141 -803h-260zM156 631l141 803h260l-141 -803h-260z" />
<glyph unicode="&#xa7;" horiz-adv-x="1118" d="M-8 -16l188 161q57 -76 130 -113.5t151 -37.5q90 0 151.5 46t61.5 112q0 51 -47 86.5t-154 87.5q-18 10 -55 26q-117 57 -173.5 92t-89 81t-32.5 114q0 156 143 266q-68 72 -67 162q0 109 68.5 198t187 139t266.5 50q154 0 256 -54t141 -155l-170 -112q-33 51 -99.5 78.5 t-146.5 27.5q-90 0 -148 -39t-58 -96q0 -47 47 -86t188 -109q145 -72 228 -144.5t83 -178.5q1 -129 -122 -242q53 -57 53 -143q0 -121 -71 -217.5t-194.5 -150.5t-279.5 -54q-150 0 -265.5 55t-170.5 150zM383 692q0 -33 41 -61.5t151 -85.5l87 -45l90 -47q45 59 45 92 t-50.5 71.5t-201.5 112.5q-63 31 -113 57q-49 -45 -49 -94z" />
<glyph unicode="&#xa8;" horiz-adv-x="819" d="M189 1247q0 72 45 116t119 44q51 0 82.5 -30.5t31.5 -80.5q0 -70 -45 -114.5t-116 -44.5q-52 0 -84.5 30.5t-32.5 79.5zM621 1247q0 72 45 116t119 44q49 0 81.5 -30.5t32.5 -80.5q0 -70 -46 -114.5t-117 -44.5q-52 0 -83.5 30.5t-31.5 79.5z" />
<glyph unicode="&#xa9;" horiz-adv-x="1658" d="M104 567q0 246 118 450t320.5 320.5t450.5 116.5q190 0 333.5 -73.5t221.5 -207t78 -307.5q0 -248 -117.5 -450.5t-320.5 -319t-451 -116.5q-190 0 -333.5 73.5t-221.5 206.5t-78 307zM293 598q0 -135 58.5 -238.5t165 -161t247.5 -57.5q188 0 343 92.5t244 251t89 351.5 q0 135 -58.5 239.5t-165 160.5t-247.5 56q-188 0 -343 -92t-244 -250.5t-89 -351.5zM494 623q0 150 61 270.5t167.5 190t240.5 69.5q96 0 168.5 -46t91.5 -118l-123 -106q-51 102 -166 102q-68 0 -123 -45t-87 -123t-32 -172q0 -84 38 -135t104 -51q59 0 109 27.5t101 82.5 l84 -112q-47 -68 -137 -116t-186 -48q-143 0 -227 90t-84 240z" />
<glyph unicode="&#xaa;" horiz-adv-x="741" d="M135 915q0 117 83 182.5t228 65.5h132l4 27q4 25 4 31q0 39 -25.5 60.5t-73.5 21.5q-106 0 -188 -82l-78 108q119 119 305 119q127 0 194.5 -50t67.5 -145q0 -35 -4 -53l-53 -301q-12 -100 -10 -147h-184q-2 23 -2 79q-29 -41 -86.5 -66.5t-122.5 -25.5 q-84 0 -137.5 49.5t-53.5 126.5zM334 936q0 -31 19.5 -48.5t52.5 -17.5q53 0 91 36t50 87l10 51h-84q-66 0 -102.5 -28.5t-36.5 -79.5z" />
<glyph unicode="&#xab;" horiz-adv-x="1198" d="M70 532l379 410h282l-373 -410l230 -409h-283zM547 532l379 410h282l-372 -410l229 -409h-283z" />
<glyph unicode="&#xac;" horiz-adv-x="1259" d="M115 655l32 181h1088l-102 -588h-259l72 407h-831z" />
<glyph unicode="&#xad;" horiz-adv-x="696" d="M37 455l33 180h600l-31 -180h-602z" />
<glyph unicode="&#xae;" horiz-adv-x="1085" d="M168 915q0 150 71.5 273t195.5 194.5t274 71.5q174 0 279.5 -98.5t105.5 -259.5q0 -150 -72 -273t-194.5 -194.5t-272.5 -71.5q-176 0 -281.5 98.5t-105.5 259.5zM283 936q0 -123 76.5 -198.5t205.5 -75.5q117 0 211 54t148.5 148t54.5 211q0 123 -77 199t-206 76 q-117 0 -211 -54.5t-148 -148.5t-54 -211zM401 758l88 502h201q74 0 113 -31t39 -90q0 -74 -35 -124t-100 -69l67 -188h-119l-63 178h-49l-31 -178h-111zM559 1030h70q104 0 104 92q0 25 -20.5 34t-63.5 9h-65z" />
<glyph unicode="&#xaf;" horiz-adv-x="819" d="M164 1176l24 135h723l-22 -135h-725z" />
<glyph unicode="&#xb0;" horiz-adv-x="659" d="M158 1122q0 92 45 168t122.5 120t172.5 44q109 0 174 -60.5t65 -160.5q0 -92 -45 -168t-121.5 -120t-171.5 -44q-110 0 -175.5 60.5t-65.5 160.5zM299 1147q0 -53 33 -84t90 -31q74 0 124 50.5t50 125.5q0 53 -33 84t-90 31q-74 0 -124 -50t-50 -126z" />
<glyph unicode="&#xb1;" horiz-adv-x="1263" d="M23 0l30 182h1043l-33 -182h-1040zM117 627l30 182h412l59 340h250l-59 -340h412l-33 -182h-412l-59 -338h-250l59 338h-409z" />
<glyph unicode="&#xb2;" horiz-adv-x="880" d="M80 426l31 166q139 84 258.5 190.5t189.5 206.5t70 168q0 37 -27 58.5t-74 21.5q-111 0 -221 -123l-115 137q68 92 170.5 142.5t221.5 50.5q150 0 232.5 -62.5t82.5 -173.5q0 -123 -103.5 -264t-326.5 -326h358l-32 -192h-715z" />
<glyph unicode="&#xb3;" horiz-adv-x="880" d="M94 569l152 139q41 -45 91 -70.5t101 -25.5q61 0 103.5 41t42.5 100q0 47 -36 75t-93 28h-113l31 178h112q57 0 97.5 39t40.5 92q0 33 -26 52.5t-71 19.5q-49 0 -108.5 -25.5t-110.5 -71.5l-96 146q72 76 172 117t211 41q135 0 218 -62.5t83 -165.5q0 -76 -46 -144.5 t-130 -115.5q59 -31 93 -87t34 -122q0 -98 -54.5 -176t-150.5 -122t-217 -44q-115 0 -201 44t-129 120z" />
<glyph unicode="&#xb4;" horiz-adv-x="819" d="M330 1137l254 360h252l-299 -360h-207z" />
<glyph unicode="&#xb5;" horiz-adv-x="1148" d="M-66 -418l254 1442h263l-103 -580q-8 -47 -8 -92q0 -82 36 -122t109 -40q106 0 189.5 84t105.5 207l94 543h263l-133 -764q-18 -125 -31 -260h-246l-2 49q0 47 8 96h-4q-55 -84 -120.5 -124.5t-164.5 -40.5q-100 0 -170 57l-79 -455h-261z" />
<glyph unicode="&#xb6;" horiz-adv-x="1114" d="M154 872q0 172 78.5 299t227 195t351.5 68h281l-287 -1624h-133l270 1529h-131l-270 -1529h-119l131 737h-12q-184 0 -285.5 85t-101.5 240z" />
<glyph unicode="&#xb7;" horiz-adv-x="595" d="M125 500q0 92 58.5 151.5t148.5 59.5q63 0 104 -39t41 -101q0 -92 -57.5 -151.5t-149.5 -59.5q-63 0 -104 39t-41 101z" />
<glyph unicode="&#xb8;" horiz-adv-x="819" d="M16 -483l62 131q25 -14 59.5 -23.5t65.5 -9.5q39 0 66.5 21.5t27.5 52.5q0 27 -35 43t-90 12l-57 74l151 209h178l-118 -162q72 0 115.5 -42t43.5 -108q0 -102 -78.5 -171.5t-203.5 -69.5q-51 0 -104.5 12t-82.5 31z" />
<glyph unicode="&#xb9;" horiz-adv-x="880" d="M168 426l33 192h155l92 518l-196 -104l41 233l295 164h178l-143 -811h153l-35 -192h-573z" />
<glyph unicode="&#xba;" horiz-adv-x="798" d="M141 1018q0 127 52.5 224t146.5 151.5t215 54.5q143 0 225 -75t82 -204q0 -127 -52 -224t-146.5 -151.5t-217.5 -54.5q-141 0 -223 75t-82 204zM346 1030q0 -70 31 -109.5t88 -39.5q82 0 137 81.5t55 200.5q0 70 -30.5 107t-87.5 37q-82 0 -137.5 -79t-55.5 -198z" />
<glyph unicode="&#xbb;" horiz-adv-x="1198" d="M-4 123l373 409l-228 410h281l235 -410l-378 -409h-283zM473 123l375 409l-230 410h283l234 -410l-379 -409h-283z" />
<glyph unicode="&#xbc;" horiz-adv-x="2093" d="M195 549l28 170h139l82 463l-174 -95l35 207l262 148h158l-127 -723h135l-28 -170h-510zM467 -78l1063 1551h215l-1065 -1551h-213zM1196 127l29 158l477 606h248l-107 -598h88l-28 -166h-88l-23 -127h-238l23 127h-381zM1415 293h193l55 321z" />
<glyph unicode="&#xbd;" horiz-adv-x="2093" d="M195 549l28 170h139l82 463l-174 -95l35 207l262 148h158l-127 -723h135l-28 -170h-510zM406 -78l1062 1551h215l-1062 -1551h-215zM1241 0l27 147q125 74 230.5 168.5t168 183.5t62.5 150q0 35 -24 53.5t-67 18.5q-96 0 -194 -111l-103 123q59 82 150.5 127t196.5 45 q133 0 207.5 -55t74.5 -156q0 -109 -91 -234.5t-292 -289.5h320l-31 -170h-635z" />
<glyph unicode="&#xbe;" horiz-adv-x="2093" d="M150 678l135 125q35 -41 80 -63.5t90 -22.5q55 0 92 35.5t37 89.5q0 41 -32 66.5t-83 25.5h-100l28 158h99q51 0 86.5 34.5t35.5 81.5q0 29 -23.5 46.5t-62.5 17.5q-43 0 -97 -23.5t-97 -62.5l-86 129q63 68 153.5 104.5t188.5 36.5q119 0 192.5 -56.5t73.5 -146.5 q0 -70 -41 -130t-114 -101q51 -27 80.5 -77t29.5 -109q0 -86 -48 -156t-133 -109t-192 -39q-104 0 -180 39t-112 107zM428 -78l1065 1551h213l-1063 -1551h-215zM1161 127l29 158l479 606h246l-105 -598h86l-28 -166h-88l-23 -127h-237l22 127h-381zM1380 293h193l55 321z " />
<glyph unicode="&#xbf;" horiz-adv-x="964" d="M-59 -135q0 92 32.5 165.5t80.5 129t126 129.5q92 88 141.5 151.5t63.5 143.5q6 61 6 69h246v-10q0 -84 -29.5 -152.5t-71.5 -121t-112 -123.5q-94 -94 -141 -165t-47 -163q0 -63 39.5 -99t111.5 -36q74 0 151.5 47t143.5 131l111 -162q-76 -106 -202 -167.5t-269 -61.5 q-181 0 -281 78t-100 217zM375 856q0 80 57 134t141 54q66 0 105 -34.5t39 -91.5q0 -78 -57.5 -133.5t-141.5 -55.5q-63 0 -103 36t-40 91z" />
<glyph unicode="&#xc0;" horiz-adv-x="1312" d="M-59 0l747 1434h260l244 -1434h-295l-31 238h-491l-113 -238h-321zM487 473h349l-76 569zM571 1878h254l115 -331h-209z" />
<glyph unicode="&#xc1;" horiz-adv-x="1312" d="M-59 0l747 1434h260l244 -1434h-295l-31 238h-491l-113 -238h-321zM487 473h349l-76 569zM735 1547l234 331h254l-279 -331h-209z" />
<glyph unicode="&#xc2;" horiz-adv-x="1312" d="M-59 0l747 1434h260l244 -1434h-295l-31 238h-491l-113 -238h-321zM487 473h349l-76 569zM489 1547l334 331h150l217 -331h-217l-94 159l-150 -159h-240z" />
<glyph unicode="&#xc3;" horiz-adv-x="1312" d="M-59 0l747 1434h260l244 -1434h-295l-31 238h-491l-113 -238h-321zM487 473h349l-76 569zM491 1547q19 123 91.5 190.5t164.5 67.5q41 0 74 -14.5t76 -43.5q29 -18 48.5 -28.5t37.5 -10.5q55 0 74 105h164q-18 -133 -88 -199.5t-168 -66.5q-41 0 -77 15t-81 44 q-55 37 -80 37q-23 0 -43.5 -26.5t-28.5 -69.5h-164z" />
<glyph unicode="&#xc4;" horiz-adv-x="1312" d="M-59 0l747 1434h260l244 -1434h-295l-31 238h-491l-113 -238h-321zM487 473h349l-76 569zM508 1657q0 72 45 116t119 44q51 0 82.5 -30.5t31.5 -80.5q0 -70 -45 -114.5t-116 -44.5q-52 0 -84.5 30.5t-32.5 79.5zM940 1657q0 72 45 116t119 44q49 0 81.5 -30.5t32.5 -80.5 q0 -70 -46 -114.5t-117 -44.5q-52 0 -83.5 30.5t-31.5 79.5z" />
<glyph unicode="&#xc5;" horiz-adv-x="1312" d="M-59 0l747 1434h260l244 -1434h-295l-31 238h-491l-113 -238h-321zM487 473h349l-76 569zM655 1640q0 109 72 176.5t184 67.5q82 0 133.5 -46t51.5 -120q0 -106 -72 -175t-184 -69q-82 0 -133.5 46.5t-51.5 119.5zM772 1657q0 -37 23.5 -59.5t60.5 -22.5q53 0 88 34.5 t35 92.5q0 37 -23.5 59.5t-62.5 22.5q-53 0 -87 -35t-34 -92z" />
<glyph unicode="&#xc6;" horiz-adv-x="1693" d="M-59 0l890 1434h947l-41 -236h-549l-60 -336h482l-39 -231h-484l-69 -395h549l-41 -236h-842l35 201h-334l-119 -201h-325zM516 422h242l102 584z" />
<glyph unicode="&#xc7;" horiz-adv-x="1269" d="M84 551q0 262 98.5 467t275.5 320.5t402 115.5q176 0 306 -68.5t175 -183.5l-194 -147q-39 80 -114 122t-175 42q-139 0 -247.5 -85t-170 -235.5t-61.5 -343.5q0 -162 78 -251t221 -89q217 0 350 164l148 -148q-160 -236 -455 -249l-86 -117q76 0 121 -37t45 -96 q0 -96 -80 -162t-199 -66q-51 0 -103 12.5t-81 30.5l47 113q57 -25 131 -25q43 0 70.5 21.5t27.5 54.5q0 29 -33.5 42.5t-91.5 10.5l-47 68l115 156q-221 33 -347 181t-126 382z" />
<glyph unicode="&#xc8;" horiz-adv-x="1169" d="M49 0l252 1434h952l-41 -236h-657l-57 -328h585l-41 -235h-587l-68 -399h655l-41 -236h-952zM534 1878h254l115 -331h-209z" />
<glyph unicode="&#xc9;" horiz-adv-x="1169" d="M49 0l252 1434h952l-41 -236h-657l-57 -328h585l-41 -235h-587l-68 -399h655l-41 -236h-952zM698 1547l234 331h254l-279 -331h-209z" />
<glyph unicode="&#xca;" horiz-adv-x="1169" d="M49 0l252 1434h952l-41 -236h-657l-57 -328h585l-41 -235h-587l-68 -399h655l-41 -236h-952zM452 1547l334 331h150l217 -331h-217l-94 159l-150 -159h-240z" />
<glyph unicode="&#xcb;" horiz-adv-x="1169" d="M49 0l252 1434h952l-41 -236h-657l-57 -328h585l-41 -235h-587l-68 -399h655l-41 -236h-952zM471 1657q0 72 45 116t119 44q51 0 82.5 -30.5t31.5 -80.5q0 -70 -45 -114.5t-116 -44.5q-52 0 -84.5 30.5t-32.5 79.5zM903 1657q0 72 45 116t119 44q49 0 81.5 -30.5 t32.5 -80.5q0 -70 -46 -114.5t-117 -44.5q-52 0 -83.5 30.5t-31.5 79.5z" />
<glyph unicode="&#xcc;" horiz-adv-x="661" d="M94 0l252 1434h293l-252 -1434h-293zM245 1878h254l115 -331h-209z" />
<glyph unicode="&#xcd;" horiz-adv-x="661" d="M94 0l252 1434h293l-252 -1434h-293zM409 1547l234 331h254l-279 -331h-209z" />
<glyph unicode="&#xce;" horiz-adv-x="661" d="M94 0l252 1434h293l-252 -1434h-293zM163 1547l334 331h150l217 -331h-217l-94 159l-150 -159h-240z" />
<glyph unicode="&#xcf;" horiz-adv-x="661" d="M94 0l252 1434h293l-252 -1434h-293zM182 1657q0 72 45 116t119 44q51 0 82.5 -30.5t31.5 -80.5q0 -70 -45 -114.5t-116 -44.5q-52 0 -84.5 30.5t-32.5 79.5zM614 1657q0 72 45 116t119 44q49 0 81.5 -30.5t32.5 -80.5q0 -70 -46 -114.5t-117 -44.5q-52 0 -83.5 30.5 t-31.5 79.5z" />
<glyph unicode="&#xd0;" horiz-adv-x="1327" d="M33 586l37 213h133l110 635h492q246 0 376 -126t130 -368q0 -457 -194.5 -698.5t-565.5 -241.5h-490l103 586h-131zM397 236h193q127 0 224 83.5t150.5 237.5t53.5 356q0 145 -58.5 215t-181.5 70h-211l-69 -399h325l-39 -213h-325z" />
<glyph unicode="&#xd1;" horiz-adv-x="1431" d="M49 0l252 1434h285l409 -936l166 936h293l-252 -1434h-272l-420 952l-168 -952h-293zM548 1547q19 123 91.5 190.5t164.5 67.5q41 0 74 -14.5t76 -43.5q29 -18 48.5 -28.5t37.5 -10.5q55 0 74 105h164q-18 -133 -88 -199.5t-168 -66.5q-41 0 -77 15t-81 44q-55 37 -80 37 q-23 0 -43.5 -26.5t-28.5 -69.5h-164z" />
<glyph unicode="&#xd2;" horiz-adv-x="1413" d="M82 541q0 264 97 472t271.5 324.5t395.5 116.5q166 0 293 -70.5t196.5 -197.5t69.5 -293q0 -264 -97.5 -472t-271.5 -324.5t-395 -116.5q-166 0 -293 70.5t-196.5 197.5t-69.5 293zM381 563q0 -156 78 -253t203 -97q129 0 230 84t158.5 234.5t57.5 340.5q0 156 -78 252.5 t-203 96.5q-129 0 -230 -84t-158.5 -233.5t-57.5 -340.5zM600 1878h254l115 -331h-209z" />
<glyph unicode="&#xd3;" horiz-adv-x="1413" d="M82 541q0 264 97 472t271.5 324.5t395.5 116.5q166 0 293 -70.5t196.5 -197.5t69.5 -293q0 -264 -97.5 -472t-271.5 -324.5t-395 -116.5q-166 0 -293 70.5t-196.5 197.5t-69.5 293zM381 563q0 -156 78 -253t203 -97q129 0 230 84t158.5 234.5t57.5 340.5q0 156 -78 252.5 t-203 96.5q-129 0 -230 -84t-158.5 -233.5t-57.5 -340.5zM764 1547l234 331h254l-279 -331h-209z" />
<glyph unicode="&#xd4;" horiz-adv-x="1413" d="M82 541q0 264 97 472t271.5 324.5t395.5 116.5q166 0 293 -70.5t196.5 -197.5t69.5 -293q0 -264 -97.5 -472t-271.5 -324.5t-395 -116.5q-166 0 -293 70.5t-196.5 197.5t-69.5 293zM381 563q0 -156 78 -253t203 -97q129 0 230 84t158.5 234.5t57.5 340.5q0 156 -78 252.5 t-203 96.5q-129 0 -230 -84t-158.5 -233.5t-57.5 -340.5zM518 1547l334 331h150l217 -331h-217l-94 159l-150 -159h-240z" />
<glyph unicode="&#xd5;" horiz-adv-x="1413" d="M82 541q0 264 97 472t271.5 324.5t395.5 116.5q166 0 293 -70.5t196.5 -197.5t69.5 -293q0 -264 -97.5 -472t-271.5 -324.5t-395 -116.5q-166 0 -293 70.5t-196.5 197.5t-69.5 293zM381 563q0 -156 78 -253t203 -97q129 0 230 84t158.5 234.5t57.5 340.5q0 156 -78 252.5 t-203 96.5q-129 0 -230 -84t-158.5 -233.5t-57.5 -340.5zM520 1547q19 123 91.5 190.5t164.5 67.5q41 0 74 -14.5t76 -43.5q29 -18 48.5 -28.5t37.5 -10.5q55 0 74 105h164q-18 -133 -88 -199.5t-168 -66.5q-41 0 -77 15t-81 44q-55 37 -80 37q-23 0 -43.5 -26.5 t-28.5 -69.5h-164z" />
<glyph unicode="&#xd6;" horiz-adv-x="1413" d="M82 541q0 264 97 472t271.5 324.5t395.5 116.5q166 0 293 -70.5t196.5 -197.5t69.5 -293q0 -264 -97.5 -472t-271.5 -324.5t-395 -116.5q-166 0 -293 70.5t-196.5 197.5t-69.5 293zM381 563q0 -156 78 -253t203 -97q129 0 230 84t158.5 234.5t57.5 340.5q0 156 -78 252.5 t-203 96.5q-129 0 -230 -84t-158.5 -233.5t-57.5 -340.5zM537 1657q0 72 45 116t119 44q51 0 82.5 -30.5t31.5 -80.5q0 -70 -45 -114.5t-116 -44.5q-52 0 -84.5 30.5t-32.5 79.5zM969 1657q0 72 45 116t119 44q49 0 81.5 -30.5t32.5 -80.5q0 -70 -46 -114.5t-117 -44.5 q-52 0 -83.5 30.5t-31.5 79.5z" />
<glyph unicode="&#xd7;" horiz-adv-x="1263" d="M47 152l432 387l-297 383l189 149l293 -373l423 373l138 -149l-430 -383l295 -387l-191 -148l-293 375l-422 -375z" />
<glyph unicode="&#xd8;" horiz-adv-x="1413" d="M27 -88l180 256q-125 152 -125 373q0 264 97 472t271.5 324.5t395.5 116.5q131 0 235 -43l52 74h235l-125 -178q78 -74 120 -180.5t42 -233.5q0 -264 -97.5 -472t-271.5 -324.5t-395 -116.5q-162 0 -291 69l-96 -137h-227zM381 563q0 -64 16 -125l535 762q-51 20 -105 21 q-129 0 -230 -84t-158.5 -233.5t-57.5 -340.5zM504 266q70 -53 158 -53q129 0 230 84t158.5 234.5t57.5 340.5q0 106 -39 191z" />
<glyph unicode="&#xd9;" horiz-adv-x="1355" d="M117 410q0 76 14 149l154 875h295l-154 -871q-12 -63 -12 -119q0 -229 213 -229q129 0 210 88t111 260l154 871h295l-154 -875q-102 -580 -643 -579q-235 0 -359 109.5t-124 320.5zM592 1878h254l115 -331h-209z" />
<glyph unicode="&#xda;" horiz-adv-x="1355" d="M117 410q0 76 14 149l154 875h295l-154 -871q-12 -63 -12 -119q0 -229 213 -229q129 0 210 88t111 260l154 871h295l-154 -875q-102 -580 -643 -579q-235 0 -359 109.5t-124 320.5zM756 1547l234 331h254l-279 -331h-209z" />
<glyph unicode="&#xdb;" horiz-adv-x="1355" d="M117 410q0 76 14 149l154 875h295l-154 -871q-12 -63 -12 -119q0 -229 213 -229q129 0 210 88t111 260l154 871h295l-154 -875q-102 -580 -643 -579q-235 0 -359 109.5t-124 320.5zM510 1547l334 331h150l217 -331h-217l-94 159l-150 -159h-240z" />
<glyph unicode="&#xdc;" horiz-adv-x="1355" d="M117 410q0 76 14 149l154 875h295l-154 -871q-12 -63 -12 -119q0 -229 213 -229q129 0 210 88t111 260l154 871h295l-154 -875q-102 -580 -643 -579q-235 0 -359 109.5t-124 320.5zM529 1657q0 72 45 116t119 44q51 0 82.5 -30.5t31.5 -80.5q0 -70 -45 -114.5t-116 -44.5 q-52 0 -84.5 30.5t-32.5 79.5zM961 1657q0 72 45 116t119 44q49 0 81.5 -30.5t32.5 -80.5q0 -70 -46 -114.5t-117 -44.5q-52 0 -83.5 30.5t-31.5 79.5z" />
<glyph unicode="&#xdd;" horiz-adv-x="1286" d="M193 1434h311l194 -564l392 564h327l-616 -861l-101 -573h-294l100 573zM715 1547l234 331h254l-279 -331h-209z" />
<glyph unicode="&#xde;" horiz-adv-x="1175" d="M49 0l252 1434h293l-31 -189h135q217 0 339 -94t122 -262q0 -262 -158.5 -411.5t-437.5 -149.5h-162l-59 -328h-293zM442 561h166q115 0 187.5 80t72.5 207q0 82 -50 124t-146 42h-152z" />
<glyph unicode="&#xdf;" horiz-adv-x="1177" d="M2 0l174 991q41 221 174 342t346 121q182 0 291 -75.5t109 -200.5q0 -84 -31 -145.5t-72 -99.5t-104 -83q-55 -37 -81 -63.5t-26 -59.5q0 -29 28 -52.5t116 -68.5q82 -43 125 -107.5t43 -142.5q0 -111 -52.5 -196.5t-147.5 -132.5t-216 -47q-125 0 -214 51t-120 149 l180 107q53 -113 154 -113q61 0 107 47t46 113q0 43 -30.5 71.5t-100.5 57.5q-86 37 -130 97.5t-44 133.5q0 68 23.5 115t56.5 78t90 71q70 49 105 88t35 103q0 53 -37 82t-107 29q-211 0 -260 -279l-172 -981h-258z" />
<glyph unicode="&#xe0;" horiz-adv-x="1142" d="M45 383q0 193 66.5 343.5t185.5 234t272 83.5q106 0 184 -38.5t111 -110.5h4l41 129h219l-133 -752q-37 -215 -43 -272h-245q12 84 22 135h-4q-61 -72 -146 -113.5t-173 -41.5q-166 0 -263.5 108.5t-97.5 294.5zM307 401q0 -106 44 -163.5t128 -57.5q109 0 184.5 62.5 t94.5 165.5l37 210q4 29 4 46q0 82 -56.5 134t-144.5 52q-82 0 -148.5 -58.5t-104.5 -161t-38 -229.5zM391 1468h254l115 -331h-209z" />
<glyph unicode="&#xe1;" horiz-adv-x="1142" d="M45 383q0 193 66.5 343.5t185.5 234t272 83.5q106 0 184 -38.5t111 -110.5h4l41 129h219l-133 -752q-37 -215 -43 -272h-245q12 84 22 135h-4q-61 -72 -146 -113.5t-173 -41.5q-166 0 -263.5 108.5t-97.5 294.5zM307 401q0 -106 44 -163.5t128 -57.5q109 0 184.5 62.5 t94.5 165.5l37 210q4 29 4 46q0 82 -56.5 134t-144.5 52q-82 0 -148.5 -58.5t-104.5 -161t-38 -229.5zM555 1137l234 331h254l-279 -331h-209z" />
<glyph unicode="&#xe2;" horiz-adv-x="1142" d="M45 383q0 193 66.5 343.5t185.5 234t272 83.5q106 0 184 -38.5t111 -110.5h4l41 129h219l-133 -752q-37 -215 -43 -272h-245q12 84 22 135h-4q-61 -72 -146 -113.5t-173 -41.5q-166 0 -263.5 108.5t-97.5 294.5zM307 401q0 -106 44 -163.5t128 -57.5q109 0 184.5 62.5 t94.5 165.5l37 210q4 29 4 46q0 82 -56.5 134t-144.5 52q-82 0 -148.5 -58.5t-104.5 -161t-38 -229.5zM309 1137l334 331h150l217 -331h-217l-94 159l-150 -159h-240z" />
<glyph unicode="&#xe3;" horiz-adv-x="1142" d="M45 383q0 193 66.5 343.5t185.5 234t272 83.5q106 0 184 -38.5t111 -110.5h4l41 129h219l-133 -752q-37 -215 -43 -272h-245q12 84 22 135h-4q-61 -72 -146 -113.5t-173 -41.5q-166 0 -263.5 108.5t-97.5 294.5zM307 401q0 -106 44 -163.5t128 -57.5q109 0 184.5 62.5 t94.5 165.5l37 210q4 29 4 46q0 82 -56.5 134t-144.5 52q-82 0 -148.5 -58.5t-104.5 -161t-38 -229.5zM311 1137q19 123 91.5 190.5t164.5 67.5q41 0 74 -14.5t76 -43.5q29 -18 48.5 -28.5t37.5 -10.5q55 0 74 105h164q-18 -133 -88 -199.5t-168 -66.5q-41 0 -77 15t-81 44 q-55 37 -80 37q-23 0 -43.5 -26.5t-28.5 -69.5h-164z" />
<glyph unicode="&#xe4;" horiz-adv-x="1142" d="M45 383q0 193 66.5 343.5t185.5 234t272 83.5q106 0 184 -38.5t111 -110.5h4l41 129h219l-133 -752q-37 -215 -43 -272h-245q12 84 22 135h-4q-61 -72 -146 -113.5t-173 -41.5q-166 0 -263.5 108.5t-97.5 294.5zM307 401q0 -106 44 -163.5t128 -57.5q109 0 184.5 62.5 t94.5 165.5l37 210q4 29 4 46q0 82 -56.5 134t-144.5 52q-82 0 -148.5 -58.5t-104.5 -161t-38 -229.5zM328 1247q0 72 45 116t119 44q51 0 82.5 -30.5t31.5 -80.5q0 -70 -45 -114.5t-116 -44.5q-52 0 -84.5 30.5t-32.5 79.5zM760 1247q0 72 45 116t119 44q49 0 81.5 -30.5 t32.5 -80.5q0 -70 -46 -114.5t-117 -44.5q-52 0 -83.5 30.5t-31.5 79.5z" />
<glyph unicode="&#xe5;" horiz-adv-x="1142" d="M45 383q0 193 66.5 343.5t185.5 234t272 83.5q106 0 184 -38.5t111 -110.5h4l41 129h219l-133 -752q-37 -215 -43 -272h-245q12 84 22 135h-4q-61 -72 -146 -113.5t-173 -41.5q-166 0 -263.5 108.5t-97.5 294.5zM307 401q0 -106 44 -163.5t128 -57.5q109 0 184.5 62.5 t94.5 165.5l37 210q4 29 4 46q0 82 -56.5 134t-144.5 52q-82 0 -148.5 -58.5t-104.5 -161t-38 -229.5zM475 1294q0 109 72 176.5t184 67.5q82 0 133.5 -46t51.5 -120q0 -106 -72 -175t-184 -69q-82 0 -133.5 46.5t-51.5 119.5zM592 1311q0 -37 23.5 -59.5t60.5 -22.5 q53 0 88 34.5t35 92.5q0 37 -23.5 59.5t-62.5 22.5q-53 0 -87 -35t-34 -92z" />
<glyph unicode="&#xe6;" horiz-adv-x="1675" d="M14 258q0 174 128 264t368 90h174l10 62q4 33 4 43q0 127 -145 127q-186 0 -322 -123l-90 156q193 168 443 167q215 0 311 -114q139 115 328 114q190 0 297.5 -101t107.5 -288q0 -59 -12 -127l-17 -90h-686v-30q0 -209 201 -209q84 0 152.5 30.5t144.5 102.5l115 -135 q-74 -100 -194 -158.5t-257 -58.5q-106 0 -191 34.5t-141 100.5q-76 -63 -174 -99t-202 -36q-168 0 -260.5 76.5t-92.5 201.5zM270 274q0 -47 33 -72.5t94 -25.5q90 0 159 51.5t81 126.5l16 84h-155q-106 0 -167 -40t-61 -124zM946 612h440v15q5 94 -40.5 149t-143.5 55 q-84 0 -151.5 -59t-104.5 -160z" />
<glyph unicode="&#xe7;" horiz-adv-x="1007" d="M43 393q0 190 76 339t213 230.5t315 81.5q145 0 247.5 -54t141.5 -150l-180 -138q-29 66 -87 104t-132 38q-92 0 -168 -55.5t-119 -153.5t-43 -219q0 -113 55.5 -174.5t157.5 -61.5q76 0 145.5 38t122.5 104l134 -138q-131 -172 -355 -200l-90 -119q76 0 122 -37t46 -96 q0 -96 -81 -162t-199 -66q-51 0 -103.5 12.5t-81.5 30.5l47 113q57 -25 131 -25q43 0 72 21.5t29 54.5q0 27 -34 42.5t-93 10.5l-47 68l112 154q-166 23 -260 130t-94 277z" />
<glyph unicode="&#xe8;" horiz-adv-x="1110" d="M51 391q0 190 76 339t212 231.5t310 82.5q193 0 302.5 -108.5t109.5 -296.5q0 -68 -14 -137l-19 -86h-713q2 -106 56.5 -161.5t158.5 -55.5q90 0 163 30.5t149 102.5l119 -135q-78 -100 -205 -158.5t-267 -58.5q-201 0 -319.5 110.5t-118.5 300.5zM340 594h475v12 q6 111 -43 168t-151 57q-96 0 -172 -62t-109 -175zM403 1468h254l115 -331h-209z" />
<glyph unicode="&#xe9;" horiz-adv-x="1110" d="M51 391q0 190 76 339t212 231.5t310 82.5q193 0 302.5 -108.5t109.5 -296.5q0 -68 -14 -137l-19 -86h-713q2 -106 56.5 -161.5t158.5 -55.5q90 0 163 30.5t149 102.5l119 -135q-78 -100 -205 -158.5t-267 -58.5q-201 0 -319.5 110.5t-118.5 300.5zM340 594h475v12 q6 111 -43 168t-151 57q-96 0 -172 -62t-109 -175zM567 1137l234 331h254l-279 -331h-209z" />
<glyph unicode="&#xea;" horiz-adv-x="1110" d="M51 391q0 190 76 339t212 231.5t310 82.5q193 0 302.5 -108.5t109.5 -296.5q0 -68 -14 -137l-19 -86h-713q2 -106 56.5 -161.5t158.5 -55.5q90 0 163 30.5t149 102.5l119 -135q-78 -100 -205 -158.5t-267 -58.5q-201 0 -319.5 110.5t-118.5 300.5zM321 1137l334 331h150 l217 -331h-217l-94 159l-150 -159h-240zM340 594h475v12q6 111 -43 168t-151 57q-96 0 -172 -62t-109 -175z" />
<glyph unicode="&#xeb;" horiz-adv-x="1110" d="M51 391q0 190 76 339t212 231.5t310 82.5q193 0 302.5 -108.5t109.5 -296.5q0 -68 -14 -137l-19 -86h-713q2 -106 56.5 -161.5t158.5 -55.5q90 0 163 30.5t149 102.5l119 -135q-78 -100 -205 -158.5t-267 -58.5q-201 0 -319.5 110.5t-118.5 300.5zM340 594h475v12 q6 111 -43 168t-151 57q-96 0 -172 -62t-109 -175zM340 1247q0 72 45 116t119 44q51 0 82.5 -30.5t31.5 -80.5q0 -70 -45 -114.5t-116 -44.5q-52 0 -84.5 30.5t-32.5 79.5zM772 1247q0 72 45 116t119 44q49 0 81.5 -30.5t32.5 -80.5q0 -70 -46 -114.5t-117 -44.5 q-52 0 -83.5 30.5t-31.5 79.5z" />
<glyph unicode="&#xec;" horiz-adv-x="571" d="M68 0l180 1024h258l-180 -1024h-258zM129 1468h254l115 -331h-209z" />
<glyph unicode="&#xed;" horiz-adv-x="571" d="M68 0l180 1024h258l-180 -1024h-258zM293 1137l234 331h254l-279 -331h-209z" />
<glyph unicode="&#xee;" horiz-adv-x="571" d="M47 1137l334 331h150l217 -331h-217l-94 159l-150 -159h-240zM68 0l180 1024h258l-180 -1024h-258z" />
<glyph unicode="&#xef;" horiz-adv-x="571" d="M66 1247q0 72 45 116t119 44q51 0 82.5 -30.5t31.5 -80.5q0 -70 -45 -114.5t-116 -44.5q-52 0 -84.5 30.5t-32.5 79.5zM68 0l180 1024h258l-180 -1024h-258zM498 1247q0 72 45 116t119 44q49 0 81.5 -30.5t32.5 -80.5q0 -70 -46 -114.5t-117 -44.5q-52 0 -83.5 30.5 t-31.5 79.5z" />
<glyph unicode="&#xf0;" horiz-adv-x="1046" d="M39 344q0 154 72.5 285t195.5 208.5t266 77.5q74 0 138 -36q-37 121 -121 211l-287 -168l-72 139l230 133q-96 57 -197 74l49 155q199 -23 344 -114l273 157l67 -141l-209 -121q103 -102 157 -238.5t54 -293.5q0 -197 -74.5 -354.5t-206.5 -247.5t-296 -90 q-174 0 -278.5 99t-104.5 265zM301 371q0 -88 43 -138.5t119 -50.5q74 0 134 45t94 124t34 175q0 90 -44 140.5t-124 50.5q-70 0 -129 -46t-93 -126t-34 -174z" />
<glyph unicode="&#xf1;" horiz-adv-x="1153" d="M6 0l135 754l9 51q27 162 28 219h246q-4 -88 -21 -178h5q55 94 149 146t213 52q150 0 225.5 -82.5t75.5 -240.5q0 -72 -14 -146l-103 -575h-260l103 578q8 43 8 90q0 166 -152 166q-109 0 -187.5 -75t-98.5 -200l-99 -559h-262zM333 1137q19 123 91.5 190.5t164.5 67.5 q41 0 74 -14.5t76 -43.5q29 -18 48.5 -28.5t37.5 -10.5q55 0 74 105h164q-18 -133 -88 -199.5t-168 -66.5q-41 0 -77 15t-81 44q-55 37 -80 37q-23 0 -43.5 -26.5t-28.5 -69.5h-164z" />
<glyph unicode="&#xf2;" horiz-adv-x="1185" d="M53 397q0 190 78 338t218 228.5t325 80.5q211 0 335 -112.5t124 -304.5q0 -190 -78 -338t-219.5 -228.5t-323.5 -80.5q-211 0 -335 112.5t-124 304.5zM315 420q0 -115 59.5 -180.5t162.5 -65.5q94 0 169.5 55.5t118.5 153.5t43 221q0 115 -58 180.5t-163 65.5 q-94 0 -170 -55.5t-119 -153.5t-43 -221zM434 1468h254l115 -331h-209z" />
<glyph unicode="&#xf3;" horiz-adv-x="1185" d="M53 397q0 190 78 338t218 228.5t325 80.5q211 0 335 -112.5t124 -304.5q0 -190 -78 -338t-219.5 -228.5t-323.5 -80.5q-211 0 -335 112.5t-124 304.5zM315 420q0 -115 59.5 -180.5t162.5 -65.5q94 0 169.5 55.5t118.5 153.5t43 221q0 115 -58 180.5t-163 65.5 q-94 0 -170 -55.5t-119 -153.5t-43 -221zM598 1137l234 331h254l-279 -331h-209z" />
<glyph unicode="&#xf4;" horiz-adv-x="1185" d="M53 397q0 190 78 338t218 228.5t325 80.5q211 0 335 -112.5t124 -304.5q0 -190 -78 -338t-219.5 -228.5t-323.5 -80.5q-211 0 -335 112.5t-124 304.5zM315 420q0 -115 59.5 -180.5t162.5 -65.5q94 0 169.5 55.5t118.5 153.5t43 221q0 115 -58 180.5t-163 65.5 q-94 0 -170 -55.5t-119 -153.5t-43 -221zM352 1137l334 331h150l217 -331h-217l-94 159l-150 -159h-240z" />
<glyph unicode="&#xf5;" horiz-adv-x="1185" d="M53 397q0 190 78 338t218 228.5t325 80.5q211 0 335 -112.5t124 -304.5q0 -190 -78 -338t-219.5 -228.5t-323.5 -80.5q-211 0 -335 112.5t-124 304.5zM315 420q0 -115 59.5 -180.5t162.5 -65.5q94 0 169.5 55.5t118.5 153.5t43 221q0 115 -58 180.5t-163 65.5 q-94 0 -170 -55.5t-119 -153.5t-43 -221zM354 1137q19 123 91.5 190.5t164.5 67.5q41 0 74 -14.5t76 -43.5q29 -18 48.5 -28.5t37.5 -10.5q55 0 74 105h164q-18 -133 -88 -199.5t-168 -66.5q-41 0 -77 15t-81 44q-55 37 -80 37q-23 0 -43.5 -26.5t-28.5 -69.5h-164z" />
<glyph unicode="&#xf6;" horiz-adv-x="1185" d="M53 397q0 190 78 338t218 228.5t325 80.5q211 0 335 -112.5t124 -304.5q0 -190 -78 -338t-219.5 -228.5t-323.5 -80.5q-211 0 -335 112.5t-124 304.5zM315 420q0 -115 59.5 -180.5t162.5 -65.5q94 0 169.5 55.5t118.5 153.5t43 221q0 115 -58 180.5t-163 65.5 q-94 0 -170 -55.5t-119 -153.5t-43 -221zM371 1247q0 72 45 116t119 44q51 0 82.5 -30.5t31.5 -80.5q0 -70 -45 -114.5t-116 -44.5q-52 0 -84.5 30.5t-32.5 79.5zM803 1247q0 72 45 116t119 44q49 0 81.5 -30.5t32.5 -80.5q0 -70 -46 -114.5t-117 -44.5q-52 0 -83.5 30.5 t-31.5 79.5z" />
<glyph unicode="&#xf7;" horiz-adv-x="1263" d="M82 438l37 197h1071l-35 -197h-1073zM410 139q0 74 55 124t133 50q61 0 98 -31.5t37 -84.5q0 -76 -53 -127.5t-133 -51.5q-62 0 -99.5 34t-37.5 87zM541 879q0 76 55 126t133 50q61 0 98 -33t37 -86q0 -76 -54 -126t-132 -50q-62 0 -99.5 32.5t-37.5 86.5z" />
<glyph unicode="&#xf8;" horiz-adv-x="1185" d="M53 397q0 190 78 338t218 228.5t325 80.5q96 0 176 -24l53 76h189l-105 -148q70 -55 108 -137t38 -184q0 -190 -78 -338t-219.5 -228.5t-323.5 -80.5q-104 0 -190 28l-70 -96h-180l118 168q-137 115 -137 317zM315 420q0 -72 25 -127l383 547q-37 10 -76 10 q-94 0 -170 -55.5t-119 -153.5t-43 -221zM449 188q47 -14 88 -14q94 0 169.5 55.5t118.5 153.5t43 221q0 76 -28 137z" />
<glyph unicode="&#xf9;" horiz-adv-x="1148" d="M74 299q0 72 14 145l100 580h263l-101 -580q-10 -61 -10 -98q0 -80 35 -118t106 -38q106 0 191.5 82t107.5 207l94 545h263l-133 -764q-16 -82 -31 -260h-248q2 98 14 180h-4q-55 -94 -152.5 -147t-211.5 -53q-146 0 -221.5 80.5t-75.5 238.5zM432 1468h254l115 -331 h-209z" />
<glyph unicode="&#xfa;" horiz-adv-x="1148" d="M74 299q0 72 14 145l100 580h263l-101 -580q-10 -61 -10 -98q0 -80 35 -118t106 -38q106 0 191.5 82t107.5 207l94 545h263l-133 -764q-16 -82 -31 -260h-248q2 98 14 180h-4q-55 -94 -152.5 -147t-211.5 -53q-146 0 -221.5 80.5t-75.5 238.5zM596 1137l234 331h254 l-279 -331h-209z" />
<glyph unicode="&#xfb;" horiz-adv-x="1148" d="M74 299q0 72 14 145l100 580h263l-101 -580q-10 -61 -10 -98q0 -80 35 -118t106 -38q106 0 191.5 82t107.5 207l94 545h263l-133 -764q-16 -82 -31 -260h-248q2 98 14 180h-4q-55 -94 -152.5 -147t-211.5 -53q-146 0 -221.5 80.5t-75.5 238.5zM350 1137l334 331h150 l217 -331h-217l-94 159l-150 -159h-240z" />
<glyph unicode="&#xfc;" horiz-adv-x="1148" d="M74 299q0 72 14 145l100 580h263l-101 -580q-10 -61 -10 -98q0 -80 35 -118t106 -38q106 0 191.5 82t107.5 207l94 545h263l-133 -764q-16 -82 -31 -260h-248q2 98 14 180h-4q-55 -94 -152.5 -147t-211.5 -53q-146 0 -221.5 80.5t-75.5 238.5zM369 1247q0 72 45 116 t119 44q51 0 82.5 -30.5t31.5 -80.5q0 -70 -45 -114.5t-116 -44.5q-52 0 -84.5 30.5t-32.5 79.5zM801 1247q0 72 45 116t119 44q49 0 81.5 -30.5t32.5 -80.5q0 -70 -46 -114.5t-117 -44.5q-52 0 -83.5 30.5t-31.5 79.5z" />
<glyph unicode="&#xfd;" horiz-adv-x="1034" d="M-150 -371l37 207q23 -8 60 -14t65 -6q88 0 164 62.5t152 197.5l-213 948h270l111 -657l319 657h283l-580 -1071q-188 -346 -504 -346q-80 0 -164 22zM528 1137l234 331h254l-279 -331h-209z" />
<glyph unicode="&#xfe;" horiz-adv-x="1110" d="M-70 -455l349 1975h258l-103 -574q45 45 122 71.5t161 26.5q162 0 254 -103t92 -286q0 -193 -69.5 -347t-192.5 -241t-279 -87q-80 0 -147.5 21.5t-95.5 57.5l-91 -514h-258zM340 367q0 -90 43 -141.5t123 -51.5t148.5 62.5t108.5 169t40 229.5q0 104 -44 159.5 t-128 55.5q-96 0 -166 -66.5t-90 -177.5l-27 -157q-8 -57 -8 -82z" />
<glyph unicode="&#xff;" horiz-adv-x="1034" d="M-150 -371l37 207q23 -8 60 -14t65 -6q88 0 164 62.5t152 197.5l-213 948h270l111 -657l319 657h283l-580 -1071q-188 -346 -504 -346q-80 0 -164 22zM301 1247q0 72 45 116t119 44q51 0 82.5 -30.5t31.5 -80.5q0 -70 -45 -114.5t-116 -44.5q-52 0 -84.5 30.5t-32.5 79.5 zM733 1247q0 72 45 116t119 44q49 0 81.5 -30.5t32.5 -80.5q0 -70 -46 -114.5t-117 -44.5q-52 0 -83.5 30.5t-31.5 79.5z" />
<glyph unicode="&#x100;" horiz-adv-x="1312" d="M-59 0l747 1434h260l244 -1434h-295l-31 238h-491l-113 -238h-321zM487 473h349l-76 569zM493 1581l31 170h701l-29 -170h-703z" />
<glyph unicode="&#x101;" horiz-adv-x="1142" d="M45 383q0 193 66.5 343.5t185.5 234t272 83.5q106 0 184 -38.5t111 -110.5h4l41 129h219l-133 -752q-37 -215 -43 -272h-245q12 84 22 135h-4q-61 -72 -146 -113.5t-173 -41.5q-166 0 -263.5 108.5t-97.5 294.5zM307 401q0 -106 44 -163.5t128 -57.5q109 0 184.5 62.5 t94.5 165.5l37 210q4 29 4 46q0 82 -56.5 134t-144.5 52q-82 0 -148.5 -58.5t-104.5 -161t-38 -229.5zM313 1171l31 170h701l-29 -170h-703z" />
<glyph unicode="&#x102;" horiz-adv-x="1312" d="M-59 0l747 1434h260l244 -1434h-295l-31 238h-491l-113 -238h-321zM487 473h349l-76 569zM555 1792q0 33 6 66h170q-2 -10 -2 -31q0 -55 35 -86t98 -31q74 0 122 39t62 109h181q-27 -152 -122 -231.5t-251 -79.5q-141 0 -220 64.5t-79 180.5z" />
<glyph unicode="&#x103;" horiz-adv-x="1142" d="M45 383q0 193 66.5 343.5t185.5 234t272 83.5q106 0 184 -38.5t111 -110.5h4l41 129h219l-133 -752q-37 -215 -43 -272h-245q12 84 22 135h-4q-61 -72 -146 -113.5t-173 -41.5q-166 0 -263.5 108.5t-97.5 294.5zM307 401q0 -106 44 -163.5t128 -57.5q109 0 184.5 62.5 t94.5 165.5l37 210q4 29 4 46q0 82 -56.5 134t-144.5 52q-82 0 -148.5 -58.5t-104.5 -161t-38 -229.5zM375 1382q0 33 6 66h170q-2 -10 -2 -31q0 -55 35 -86t98 -31q74 0 122 39t62 109h181q-27 -152 -122 -231.5t-251 -79.5q-141 0 -220 64.5t-79 180.5z" />
<glyph unicode="&#x104;" horiz-adv-x="1312" d="M-59 0l747 1434h260l244 -1434h-45q-109 -66 -167 -130.5t-58 -115.5q0 -29 23.5 -45t64.5 -16t131 33l16 -123q-45 -39 -107.5 -60.5t-125.5 -21.5q-96 0 -147.5 42t-51.5 120q0 98 61.5 178t182.5 139h-72l-31 238h-491l-113 -238h-321zM487 473h349l-76 569z" />
<glyph unicode="&#x105;" horiz-adv-x="1142" d="M45 383q0 193 66.5 343.5t185.5 234t272 83.5q106 0 184 -38.5t111 -110.5h4l41 129h219l-133 -752q-37 -215 -43 -272h-8q-106 -68 -164.5 -131.5t-58.5 -114.5q0 -29 22.5 -45t63.5 -16t133 33l16 -123q-47 -39 -109.5 -60.5t-125.5 -21.5q-94 0 -146.5 42t-52.5 120 q0 98 62.5 179t183.5 138h-61q12 84 22 135h-4q-61 -72 -146 -113.5t-173 -41.5q-166 0 -263.5 108.5t-97.5 294.5zM307 401q0 -106 44 -163.5t128 -57.5q109 0 184.5 62.5t94.5 165.5l37 210q4 29 4 46q0 82 -56.5 134t-144.5 52q-82 0 -148.5 -58.5t-104.5 -161 t-38 -229.5z" />
<glyph unicode="&#x106;" horiz-adv-x="1269" d="M84 551q0 262 98.5 467t275.5 320.5t402 115.5q176 0 306 -68.5t175 -183.5l-194 -147q-39 80 -114 122t-175 42q-139 0 -247.5 -85t-170 -235.5t-61.5 -343.5q0 -162 78 -251t221 -89q217 0 350 164l148 -148q-172 -252 -502 -251q-180 0 -313.5 69.5t-205 198.5 t-71.5 303zM811 1547l234 331h254l-279 -331h-209z" />
<glyph unicode="&#x107;" horiz-adv-x="1007" d="M43 393q0 190 76 339t213 230.5t315 81.5q145 0 247.5 -54t141.5 -150l-180 -138q-29 66 -87 104t-132 38q-92 0 -168 -55.5t-119 -153.5t-43 -219q0 -113 55.5 -174.5t157.5 -61.5q76 0 145.5 38t122.5 104l134 -138q-76 -100 -186.5 -152t-250.5 -52q-204 0 -323 110.5 t-119 302.5zM586 1137l234 331h254l-279 -331h-209z" />
<glyph unicode="&#x108;" horiz-adv-x="1269" d="M84 551q0 262 98.5 467t275.5 320.5t402 115.5q176 0 306 -68.5t175 -183.5l-194 -147q-39 80 -114 122t-175 42q-139 0 -247.5 -85t-170 -235.5t-61.5 -343.5q0 -162 78 -251t221 -89q217 0 350 164l148 -148q-172 -252 -502 -251q-180 0 -313.5 69.5t-205 198.5 t-71.5 303zM565 1547l334 331h150l217 -331h-217l-94 159l-150 -159h-240z" />
<glyph unicode="&#x109;" horiz-adv-x="1007" d="M43 393q0 190 76 339t213 230.5t315 81.5q145 0 247.5 -54t141.5 -150l-180 -138q-29 66 -87 104t-132 38q-92 0 -168 -55.5t-119 -153.5t-43 -219q0 -113 55.5 -174.5t157.5 -61.5q76 0 145.5 38t122.5 104l134 -138q-76 -100 -186.5 -152t-250.5 -52q-204 0 -323 110.5 t-119 302.5zM340 1137l334 331h150l217 -331h-217l-94 159l-150 -159h-240z" />
<glyph unicode="&#x10a;" horiz-adv-x="1269" d="M84 551q0 262 98.5 467t275.5 320.5t402 115.5q176 0 306 -68.5t175 -183.5l-194 -147q-39 80 -114 122t-175 42q-139 0 -247.5 -85t-170 -235.5t-61.5 -343.5q0 -162 78 -251t221 -89q217 0 350 164l148 -148q-172 -252 -502 -251q-180 0 -313.5 69.5t-205 198.5 t-71.5 303zM799 1657q0 70 46 115t118 45q51 0 82.5 -30.5t31.5 -80.5q0 -72 -45 -115.5t-116 -43.5q-52 0 -84.5 30.5t-32.5 79.5z" />
<glyph unicode="&#x10b;" horiz-adv-x="1007" d="M43 393q0 190 76 339t213 230.5t315 81.5q145 0 247.5 -54t141.5 -150l-180 -138q-29 66 -87 104t-132 38q-92 0 -168 -55.5t-119 -153.5t-43 -219q0 -113 55.5 -174.5t157.5 -61.5q76 0 145.5 38t122.5 104l134 -138q-76 -100 -186.5 -152t-250.5 -52q-204 0 -323 110.5 t-119 302.5zM574 1247q0 70 46 115t118 45q51 0 82.5 -30.5t31.5 -80.5q0 -72 -45 -115.5t-116 -43.5q-52 0 -84.5 30.5t-32.5 79.5z" />
<glyph unicode="&#x10c;" horiz-adv-x="1269" d="M84 551q0 262 98.5 467t275.5 320.5t402 115.5q176 0 306 -68.5t175 -183.5l-194 -147q-39 80 -114 122t-175 42q-139 0 -247.5 -85t-170 -235.5t-61.5 -343.5q0 -162 78 -251t221 -89q217 0 350 164l148 -148q-172 -252 -502 -251q-180 0 -313.5 69.5t-205 198.5 t-71.5 303zM623 1878h221l92 -159l152 159h235l-334 -331h-149z" />
<glyph unicode="&#x10d;" horiz-adv-x="1007" d="M43 393q0 190 76 339t213 230.5t315 81.5q145 0 247.5 -54t141.5 -150l-180 -138q-29 66 -87 104t-132 38q-92 0 -168 -55.5t-119 -153.5t-43 -219q0 -113 55.5 -174.5t157.5 -61.5q76 0 145.5 38t122.5 104l134 -138q-76 -100 -186.5 -152t-250.5 -52q-204 0 -323 110.5 t-119 302.5zM398 1468h221l92 -159l152 159h235l-334 -331h-149z" />
<glyph unicode="&#x10e;" horiz-adv-x="1314" d="M49 0l252 1434h492q248 0 377.5 -126t129.5 -368q0 -457 -195.5 -698.5t-565.5 -241.5h-490zM387 236h193q127 0 224 83.5t149.5 237.5t52.5 356q0 145 -58.5 215t-181.5 70h-211zM547 1878h221l92 -159l152 159h235l-334 -331h-149z" />
<glyph unicode="&#x10f;" horiz-adv-x="1519" d="M45 383q0 190 67.5 340.5t188.5 235.5t274 85q190 0 269 -124h4l106 600h260l-219 -1248l-22 -143q-18 -115 -21 -129h-245q12 80 22 135h-4q-61 -72 -146 -113.5t-173 -41.5q-166 0 -263.5 108.5t-97.5 294.5zM307 401q0 -106 44 -163.5t128 -57.5q109 0 184.5 62.5 t94.5 165.5l37 210q4 29 4 46q0 82 -56.5 134t-144.5 52q-82 0 -148.5 -58.5t-104.5 -161t-38 -229.5zM1346 1160q10 12 46 48t65 77q-47 6 -77 36.5t-30 75.5q0 76 47 122t123 46q59 0 98 -36t39 -93q0 -84 -62.5 -183.5t-160.5 -170.5z" />
<glyph unicode="&#x110;" horiz-adv-x="1327" d="M33 586l37 213h133l110 635h492q246 0 376 -126t130 -368q0 -457 -194.5 -698.5t-565.5 -241.5h-490l103 586h-131zM397 236h193q127 0 224 83.5t150.5 237.5t53.5 356q0 145 -58.5 215t-181.5 70h-211l-69 -399h325l-39 -213h-325z" />
<glyph unicode="&#x111;" horiz-adv-x="1200" d="M45 383q0 190 67.5 340.5t188.5 235.5t274 85q190 0 269 -124h4l49 276h-287l33 178h285l26 146h260l-24 -146h121l-31 -178h-123l-162 -924l-22 -143q-18 -115 -21 -129h-245q12 80 22 135h-4q-61 -72 -146 -113.5t-173 -41.5q-166 0 -263.5 108.5t-97.5 294.5zM307 401 q0 -106 44 -163.5t128 -57.5q109 0 184.5 62.5t94.5 165.5l37 210q4 30 4 46q0 82 -56.5 134t-144.5 52q-82 0 -148.5 -58.5t-104.5 -161t-38 -229.5z" />
<glyph unicode="&#x112;" horiz-adv-x="1169" d="M49 0l252 1434h952l-41 -236h-657l-57 -328h585l-41 -235h-587l-68 -399h655l-41 -236h-952zM456 1581l31 170h701l-29 -170h-703z" />
<glyph unicode="&#x113;" horiz-adv-x="1110" d="M51 391q0 190 76 339t212 231.5t310 82.5q193 0 302.5 -108.5t109.5 -296.5q0 -68 -14 -137l-19 -86h-713q2 -106 56.5 -161.5t158.5 -55.5q90 0 163 30.5t149 102.5l119 -135q-78 -100 -205 -158.5t-267 -58.5q-201 0 -319.5 110.5t-118.5 300.5zM325 1171l31 170h701 l-29 -170h-703zM340 594h475v12q6 111 -43 168t-151 57q-96 0 -172 -62t-109 -175z" />
<glyph unicode="&#x114;" horiz-adv-x="1169" d="M49 0l252 1434h952l-41 -236h-657l-57 -328h585l-41 -235h-587l-68 -399h655l-41 -236h-952zM518 1792q0 33 6 66h170q-2 -10 -2 -31q0 -55 35 -86t98 -31q74 0 122 39t62 109h181q-27 -152 -122 -231.5t-251 -79.5q-141 0 -220 64.5t-79 180.5z" />
<glyph unicode="&#x115;" horiz-adv-x="1110" d="M51 391q0 190 76 339t212 231.5t310 82.5q193 0 302.5 -108.5t109.5 -296.5q0 -68 -14 -137l-19 -86h-713q2 -106 56.5 -161.5t158.5 -55.5q90 0 163 30.5t149 102.5l119 -135q-78 -100 -205 -158.5t-267 -58.5q-201 0 -319.5 110.5t-118.5 300.5zM340 594h475v12 q6 111 -43 168t-151 57q-96 0 -172 -62t-109 -175zM387 1382q0 33 6 66h170q-2 -10 -2 -31q0 -55 35 -86t98 -31q74 0 122 39t62 109h181q-27 -152 -122 -231.5t-251 -79.5q-141 0 -220 64.5t-79 180.5z" />
<glyph unicode="&#x116;" horiz-adv-x="1169" d="M49 0l252 1434h952l-41 -236h-657l-57 -328h585l-41 -235h-587l-68 -399h655l-41 -236h-952zM686 1657q0 70 46 115t118 45q51 0 82.5 -30.5t31.5 -80.5q0 -72 -45 -115.5t-116 -43.5q-52 0 -84.5 30.5t-32.5 79.5z" />
<glyph unicode="&#x117;" horiz-adv-x="1110" d="M51 391q0 190 76 339t212 231.5t310 82.5q193 0 302.5 -108.5t109.5 -296.5q0 -68 -14 -137l-19 -86h-713q2 -106 56.5 -161.5t158.5 -55.5q90 0 163 30.5t149 102.5l119 -135q-78 -100 -205 -158.5t-267 -58.5q-201 0 -319.5 110.5t-118.5 300.5zM340 594h475v12 q6 111 -43 168t-151 57q-96 0 -172 -62t-109 -175zM555 1247q0 70 46 115t118 45q51 0 82.5 -30.5t31.5 -80.5q0 -72 -45 -115.5t-116 -43.5q-52 0 -84.5 30.5t-32.5 79.5z" />
<glyph unicode="&#x118;" horiz-adv-x="1169" d="M49 0l252 1434h952l-41 -236h-657l-57 -328h585l-41 -235h-587l-68 -399h655l-41 -236q-109 -66 -167 -130.5t-58 -115.5q0 -29 23.5 -45t64.5 -16t131 33l17 -123q-45 -39 -107.5 -60.5t-126.5 -21.5q-96 0 -147 42t-51 120q0 98 61 178t182 139h-774z" />
<glyph unicode="&#x119;" horiz-adv-x="1110" d="M51 391q0 190 76 339t212 231.5t310 82.5q193 0 302.5 -108.5t109.5 -296.5q0 -68 -14 -137l-19 -86h-713q2 -106 56.5 -161.5t158.5 -55.5q90 0 163 30.5t149 102.5l119 -135q-70 -90 -181 -148q-129 -102 -129 -182q0 -29 23.5 -45.5t64.5 -16.5q33 0 131 35l17 -123 q-47 -39 -109.5 -61.5t-126.5 -22.5q-94 0 -145 43t-51 121q0 100 65 183h-31q-201 0 -319.5 110.5t-118.5 300.5zM340 594h475v12q6 111 -43 168t-151 57q-96 0 -172 -62t-109 -175z" />
<glyph unicode="&#x11a;" horiz-adv-x="1169" d="M49 0l252 1434h952l-41 -236h-657l-57 -328h585l-41 -235h-587l-68 -399h655l-41 -236h-952zM512 1878h221l92 -159l152 159h235l-334 -331h-149z" />
<glyph unicode="&#x11b;" horiz-adv-x="1110" d="M51 391q0 190 76 339t212 231.5t310 82.5q193 0 302.5 -108.5t109.5 -296.5q0 -68 -14 -137l-19 -86h-713q2 -106 56.5 -161.5t158.5 -55.5q90 0 163 30.5t149 102.5l119 -135q-78 -100 -205 -158.5t-267 -58.5q-201 0 -319.5 110.5t-118.5 300.5zM340 594h475v12 q6 111 -43 168t-151 57q-96 0 -172 -62t-109 -175zM379 1468h221l92 -159l152 159h235l-334 -331h-149z" />
<glyph unicode="&#x11c;" horiz-adv-x="1337" d="M80 516q0 274 98 487.5t274.5 332t403.5 118.5q182 0 315.5 -69.5t169.5 -182.5l-192 -147q-37 80 -112.5 122t-182.5 42q-137 0 -245.5 -88.5t-170 -245t-61.5 -357.5q0 -164 68.5 -247.5t201.5 -83.5q135 0 254 65l53 307h-309l37 209h600l-135 -778h-223l-13 72 q-131 -92 -307 -92q-160 0 -278.5 65.5t-182 187t-63.5 283.5zM544 1547l334 331h150l217 -331h-217l-94 159l-150 -159h-240z" />
<glyph unicode="&#x11d;" horiz-adv-x="1136" d="M-43 -373l119 178q66 -37 145.5 -58t153.5 -21q272 0 334 350l4 26q-98 -109 -287 -108q-178 0 -279.5 103.5t-101.5 285.5q0 195 65.5 345.5t184.5 233t272 82.5q109 0 186.5 -38.5t110.5 -110.5h4l41 129h217l-172 -983q-45 -260 -193.5 -392t-398.5 -132 q-121 0 -227 28.5t-178 81.5zM303 1137l334 331h150l217 -331h-217l-94 159l-150 -159h-240zM307 410q0 -104 48 -158.5t143 -54.5q106 0 175.5 64.5t90.5 182.5l22 131q7 43 7 78q0 96 -48.5 146.5t-138.5 50.5q-88 0 -155.5 -57.5t-105.5 -156.5t-38 -226z" />
<glyph unicode="&#x11e;" horiz-adv-x="1337" d="M80 516q0 274 98 487.5t274.5 332t403.5 118.5q182 0 315.5 -69.5t169.5 -182.5l-192 -147q-37 80 -112.5 122t-182.5 42q-137 0 -245.5 -88.5t-170 -245t-61.5 -357.5q0 -164 68.5 -247.5t201.5 -83.5q135 0 254 65l53 307h-309l37 209h600l-135 -778h-223l-13 72 q-131 -92 -307 -92q-160 0 -278.5 65.5t-182 187t-63.5 283.5zM610 1792q0 33 6 66h170q-2 -10 -2 -31q0 -55 35 -86t98 -31q74 0 122 39t62 109h181q-27 -152 -122 -231.5t-251 -79.5q-141 0 -220 64.5t-79 180.5z" />
<glyph unicode="&#x11f;" horiz-adv-x="1136" d="M-43 -373l119 178q66 -37 145.5 -58t153.5 -21q272 0 334 350l4 26q-98 -109 -287 -108q-178 0 -279.5 103.5t-101.5 285.5q0 195 65.5 345.5t184.5 233t272 82.5q109 0 186.5 -38.5t110.5 -110.5h4l41 129h217l-172 -983q-45 -260 -193.5 -392t-398.5 -132 q-121 0 -227 28.5t-178 81.5zM307 410q0 -104 48 -158.5t143 -54.5q106 0 175.5 64.5t90.5 182.5l22 131q7 43 7 78q0 96 -48.5 146.5t-138.5 50.5q-88 0 -155.5 -57.5t-105.5 -156.5t-38 -226zM369 1382q0 33 6 66h170q-2 -10 -2 -31q0 -55 35 -86t98 -31q74 0 122 39 t62 109h181q-27 -152 -122 -231.5t-251 -79.5q-141 0 -220 64.5t-79 180.5z" />
<glyph unicode="&#x120;" horiz-adv-x="1337" d="M80 516q0 274 98 487.5t274.5 332t403.5 118.5q182 0 315.5 -69.5t169.5 -182.5l-192 -147q-37 80 -112.5 122t-182.5 42q-137 0 -245.5 -88.5t-170 -245t-61.5 -357.5q0 -164 68.5 -247.5t201.5 -83.5q135 0 254 65l53 307h-309l37 209h600l-135 -778h-223l-13 72 q-131 -92 -307 -92q-160 0 -278.5 65.5t-182 187t-63.5 283.5zM778 1657q0 70 46 115t118 45q51 0 82.5 -30.5t31.5 -80.5q0 -72 -45 -115.5t-116 -43.5q-52 0 -84.5 30.5t-32.5 79.5z" />
<glyph unicode="&#x121;" horiz-adv-x="1136" d="M-43 -373l119 178q66 -37 145.5 -58t153.5 -21q272 0 334 350l4 26q-98 -109 -287 -108q-178 0 -279.5 103.5t-101.5 285.5q0 195 65.5 345.5t184.5 233t272 82.5q109 0 186.5 -38.5t110.5 -110.5h4l41 129h217l-172 -983q-45 -260 -193.5 -392t-398.5 -132 q-121 0 -227 28.5t-178 81.5zM307 410q0 -104 48 -158.5t143 -54.5q106 0 175.5 64.5t90.5 182.5l22 131q7 43 7 78q0 96 -48.5 146.5t-138.5 50.5q-88 0 -155.5 -57.5t-105.5 -156.5t-38 -226zM537 1247q0 70 46 115t118 45q51 0 82.5 -30.5t31.5 -80.5q0 -72 -45 -115.5 t-116 -43.5q-52 0 -84.5 30.5t-32.5 79.5z" />
<glyph unicode="&#x122;" horiz-adv-x="1337" d="M80 516q0 274 98 487.5t274.5 332t403.5 118.5q182 0 315.5 -69.5t169.5 -182.5l-192 -147q-37 80 -112.5 122t-182.5 42q-137 0 -245.5 -88.5t-170 -245t-61.5 -357.5q0 -164 68.5 -247.5t201.5 -83.5q135 0 254 65l53 307h-309l37 209h600l-135 -778h-223l-13 72 q-131 -92 -307 -92q-160 0 -278.5 65.5t-182 187t-63.5 283.5zM409 -553q10 12 46 48t65 77q-47 4 -77 35t-30 76q0 76 47 123t123 47q60 0 98.5 -37t38.5 -95q0 -84 -61 -182t-162 -172z" />
<glyph unicode="&#x123;" horiz-adv-x="1136" d="M-43 -373l119 178q66 -37 145.5 -58t153.5 -21q272 0 334 350l4 26q-98 -109 -287 -108q-178 0 -279.5 103.5t-101.5 285.5q0 195 65.5 345.5t184.5 233t272 82.5q109 0 186.5 -38.5t110.5 -110.5h4l41 129h217l-172 -983q-45 -260 -193.5 -392t-398.5 -132 q-121 0 -227 28.5t-178 81.5zM307 410q0 -104 48 -158.5t143 -54.5q106 0 175.5 64.5t90.5 182.5l22 131q7 43 7 78q0 96 -48.5 146.5t-138.5 50.5q-88 0 -155.5 -57.5t-105.5 -156.5t-38 -226zM533 1268q0 84 61 182t160 172l88 -80q-76 -76 -111 -125q49 -6 79 -35.5 t30 -74.5q0 -76 -48 -123t-124 -47q-59 0 -97 36.5t-38 94.5z" />
<glyph unicode="&#x124;" horiz-adv-x="1417" d="M49 0l252 1434h295l-102 -586h548l105 586h293l-252 -1434h-293l109 612h-551l-109 -612h-295zM542 1547l334 331h150l217 -331h-217l-94 159l-150 -159h-240z" />
<glyph unicode="&#x125;" horiz-adv-x="1161" d="M8 0l268 1520h263l-109 -617q53 66 141 103.5t189 37.5q154 0 243 -89t89 -240q0 -43 -11 -101l-108 -614h-262l104 596q8 53 8 76q0 84 -41 131t-116 47q-113 0 -193 -79t-104 -214l-99 -557h-262zM301 1633l334 331h150l217 -331h-217l-94 159l-150 -159h-240z" />
<glyph unicode="&#x126;" horiz-adv-x="1452" d="M68 0l178 1016h-123l33 184h123l40 234h293l-41 -234h551l41 234h295l-41 -234h123l-33 -184h-123l-178 -1016h-295l109 612h-551l-109 -612h-292zM510 848h551l29 168h-551z" />
<glyph unicode="&#x127;" horiz-adv-x="1161" d="M8 0l211 1196h-121l31 178h121l26 146h263l-27 -146h270l-30 -178h-271l-51 -293q53 66 141 103.5t189 37.5q153 0 242.5 -89t89.5 -240q0 -43 -11 -101l-108 -614h-262l104 596q8 53 8 76q0 84 -41 131t-116 47q-113 0 -193 -79t-104 -214l-99 -557h-262z" />
<glyph unicode="&#x128;" horiz-adv-x="661" d="M94 0l252 1434h293l-252 -1434h-293zM165 1547q19 123 91.5 190.5t164.5 67.5q41 0 74 -14.5t76 -43.5q29 -18 48.5 -28.5t37.5 -10.5q55 0 74 105h164q-18 -133 -88 -199.5t-168 -66.5q-41 0 -77 15t-81 44q-55 37 -80 37q-23 0 -43.5 -26.5t-28.5 -69.5h-164z" />
<glyph unicode="&#x129;" horiz-adv-x="571" d="M49 1137q19 123 91.5 190.5t164.5 67.5q41 0 74 -14.5t76 -43.5q29 -18 48.5 -28.5t37.5 -10.5q55 0 74 105h164q-18 -133 -88 -199.5t-168 -66.5q-41 0 -77 15t-81 44q-55 37 -80 37q-23 0 -43.5 -26.5t-28.5 -69.5h-164zM68 0l180 1024h258l-180 -1024h-258z" />
<glyph unicode="&#x12a;" horiz-adv-x="661" d="M94 0l252 1434h293l-252 -1434h-293zM167 1581l31 170h701l-29 -170h-703z" />
<glyph unicode="&#x12b;" horiz-adv-x="571" d="M51 1171l31 170h701l-29 -170h-703zM68 0l180 1024h258l-180 -1024h-258z" />
<glyph unicode="&#x12c;" horiz-adv-x="661" d="M94 0l252 1434h293l-252 -1434h-293zM229 1792q0 33 6 66h170q-2 -10 -2 -31q0 -55 35 -86t98 -31q74 0 122 39t62 109h181q-27 -152 -122 -231.5t-251 -79.5q-141 0 -220 64.5t-79 180.5z" />
<glyph unicode="&#x12d;" horiz-adv-x="571" d="M68 0l180 1024h258l-180 -1024h-258zM113 1382q0 33 6 66h170q-2 -10 -2 -31q0 -55 35 -86t98 -31q74 0 122 39t62 109h181q-27 -152 -122 -231.5t-251 -79.5q-141 0 -220 64.5t-79 180.5z" />
<glyph unicode="&#x12e;" horiz-adv-x="661" d="M-70 -317q0 98 61.5 178t182.5 139h-80l252 1434h293l-252 -1434h-35q-108 -66 -166.5 -130.5t-58.5 -115.5q0 -29 23.5 -45t64.5 -16t131 33l16 -123q-45 -39 -107 -60.5t-126 -21.5q-96 0 -147.5 42t-51.5 120z" />
<glyph unicode="&#x12f;" horiz-adv-x="559" d="M-133 -317q0 201 244 317h-52l181 1024h260l-181 -1024h-30q-109 -66 -167.5 -130.5t-58.5 -115.5q0 -29 24 -45t65 -16t131 33l16 -123q-45 -39 -107.5 -60.5t-125.5 -21.5q-96 0 -147.5 42t-51.5 120zM246 1266q0 82 55 133t143 51q64 0 104 -35t40 -88 q0 -82 -55.5 -133t-141.5 -51q-63 0 -104 34.5t-41 88.5z" />
<glyph unicode="&#x130;" horiz-adv-x="661" d="M94 0l252 1434h293l-252 -1434h-293zM397 1657q0 70 46 115t118 45q51 0 82.5 -30.5t31.5 -80.5q0 -72 -45 -115.5t-116 -43.5q-52 0 -84.5 30.5t-32.5 79.5z" />
<glyph unicode="&#x131;" horiz-adv-x="571" d="M68 0l180 1024h258l-180 -1024h-258z" />
<glyph unicode="&#x132;" horiz-adv-x="1669" d="M94 0l252 1434h293l-252 -1434h-293zM607 137l149 189q45 -51 109.5 -81t132.5 -30q100 0 155.5 65.5t81.5 213.5l164 940h295l-172 -973q-43 -248 -172 -364.5t-360 -116.5q-119 0 -221.5 41.5t-161.5 115.5z" />
<glyph unicode="&#x133;" horiz-adv-x="1128" d="M59 0l181 1024h260l-181 -1024h-260zM246 1266q0 82 55 133t143 51q63 0 103.5 -35t40.5 -88q0 -82 -55.5 -133t-141.5 -51q-63 0 -104 34.5t-41 88.5zM266 -395l45 182q61 -6 131 -6q88 0 137.5 40t63.5 126l190 1077h263l-191 -1073q-33 -188 -139.5 -279.5 t-294.5 -91.5q-51 0 -108.5 7t-96.5 18zM833 1268q0 80 56.5 131t144.5 51q63 0 103 -35t40 -90q0 -82 -55 -132t-143 -50q-64 0 -105 34.5t-41 90.5z" />
<glyph unicode="&#x134;" horiz-adv-x="1007" d="M-55 137l149 189q45 -51 109.5 -81t132.5 -30q100 0 155.5 65.5t81.5 213.5l164 940h295l-172 -973q-43 -248 -172 -364.5t-360 -116.5q-119 0 -221.5 41.5t-161.5 115.5zM378 1547l334 331h150l217 -331h-217l-94 159l-150 -159h-240z" />
<glyph unicode="&#x135;" horiz-adv-x="567" d="M-293 -395l45 182q55 -6 129 -6q150 0 176 166l191 1077h260l-191 -1073q-33 -180 -133 -275.5t-284 -95.5q-111 0 -193 25zM51 1137l334 331h150l217 -331h-217l-94 159l-150 -159h-240z" />
<glyph unicode="&#x136;" horiz-adv-x="1343" d="M49 0l254 1434h295l-111 -623l584 623h346l-559 -568l356 -866h-311l-266 641l-219 -221l-74 -420h-295zM387 -553q10 12 46 48t65 77q-47 4 -77 35t-30 76q0 76 47 123t123 47q60 0 98.5 -37t38.5 -95q0 -84 -61 -182t-162 -172z" />
<glyph unicode="&#x137;" horiz-adv-x="1091" d="M12 0l269 1520h262l-154 -844l420 348h328l-443 -371l301 -653h-286l-220 483l-151 -127l-64 -356h-262zM252 -553q10 12 46 48t65 77q-47 4 -77 35t-30 76q0 76 47 123t123 47q60 0 98.5 -37t38.5 -95q0 -84 -61 -182t-162 -172z" />
<glyph unicode="&#x138;" horiz-adv-x="1091" d="M12 0l181 1024h262l-76 -430l438 430h320l-430 -393l288 -631h-295l-198 440l-180 -164l-48 -276h-262z" />
<glyph unicode="&#x139;" horiz-adv-x="1157" d="M49 0l252 1434h295l-211 -1198h676l-41 -236h-971zM366 1547l234 331h254l-279 -331h-209z" />
<glyph unicode="&#x13a;" horiz-adv-x="616" d="M63 182q0 33 7 70l225 1268h260l-225 -1270q-2 -8 -2 -25q0 -63 82 -63q45 0 120 26l15 -139q-104 -70 -254 -69q-113 0 -170.5 52t-57.5 150zM342 1633l234 331h254l-279 -331h-209z" />
<glyph unicode="&#x13b;" horiz-adv-x="1157" d="M49 0l252 1434h295l-211 -1198h676l-41 -236h-971zM319 -553q10 12 46 48t65 77q-47 4 -77 35t-30 76q0 76 47 123t123 47q60 0 98.5 -37t38.5 -95q0 -84 -61 -182t-162 -172z" />
<glyph unicode="&#x13c;" horiz-adv-x="616" d="M63 182q0 33 7 70l225 1268h260l-225 -1270q-2 -8 -2 -25q0 -63 82 -63q45 0 120 26l15 -139q-104 -70 -254 -69q-113 0 -170.5 52t-57.5 150zM84 -553q10 12 46 48t65 77q-47 4 -77 35t-30 76q0 76 47 123t123 47q60 0 98.5 -37t38.5 -95q0 -84 -61 -182t-162 -172z" />
<glyph unicode="&#x13d;" horiz-adv-x="1157" d="M49 0l252 1434h295l-211 -1198h676l-41 -236h-971zM903 1049q10 12 46 48t65 77q-47 6 -77 36.5t-30 75.5q0 76 47 122t123 46q59 0 98 -36t39 -93q0 -84 -62.5 -183.5t-160.5 -170.5z" />
<glyph unicode="&#x13e;" horiz-adv-x="794" d="M63 182q0 33 7 70l225 1268h260l-225 -1270q-2 -8 -2 -25q0 -63 82 -63q45 0 120 26l15 -139q-104 -70 -254 -69q-113 0 -170.5 52t-57.5 150zM670 1119q10 12 46 48t65 77q-47 6 -77 36.5t-30 75.5q0 76 47 122t123 46q59 0 98 -36t39 -93q0 -84 -62.5 -183.5 t-160.5 -170.5z" />
<glyph unicode="&#x13f;" horiz-adv-x="1157" d="M49 0l252 1434h295l-211 -1198h676l-41 -236h-971zM604 674q0 92 58.5 151.5t148.5 59.5q63 0 104 -39t41 -101q0 -92 -57.5 -151.5t-149.5 -59.5q-63 0 -104 39t-41 101z" />
<glyph unicode="&#x140;" horiz-adv-x="839" d="M63 182q0 33 7 70l225 1268h260l-225 -1270q-2 -8 -2 -25q0 -63 82 -63q45 0 120 26l15 -139q-104 -70 -254 -69q-113 0 -170.5 52t-57.5 150zM479 656q0 92 58.5 151.5t148.5 59.5q63 0 104 -39t41 -101q0 -92 -57.5 -151.5t-149.5 -59.5q-63 0 -104 39t-41 101z" />
<glyph unicode="&#x141;" horiz-adv-x="1157" d="M-2 469l41 229l143 56l119 680h295l-98 -555l342 133l-43 -238l-340 -129l-72 -409h676l-41 -236h-971l92 524z" />
<glyph unicode="&#x142;" horiz-adv-x="667" d="M49 578l35 190l102 41l127 711h260l-106 -602l205 79l-33 -186l-205 -82l-86 -479q-2 -8 -2 -25q0 -63 82 -63q45 0 121 26l14 -139q-104 -70 -254 -69q-113 0 -170 52t-57 150q0 33 6 70l66 366z" />
<glyph unicode="&#x143;" horiz-adv-x="1431" d="M49 0l252 1434h285l409 -936l166 936h293l-252 -1434h-272l-420 952l-168 -952h-293zM792 1547l234 331h254l-279 -331h-209z" />
<glyph unicode="&#x144;" horiz-adv-x="1153" d="M6 0l135 754l9 51q27 162 28 219h246q-4 -88 -21 -178h5q55 94 149 146t213 52q150 0 225.5 -82.5t75.5 -240.5q0 -72 -14 -146l-103 -575h-260l103 578q8 43 8 90q0 166 -152 166q-109 0 -187.5 -75t-98.5 -200l-99 -559h-262zM577 1137l234 331h254l-279 -331h-209z " />
<glyph unicode="&#x145;" horiz-adv-x="1431" d="M49 0l252 1434h285l409 -936l166 936h293l-252 -1434h-272l-420 952l-168 -952h-293zM422 -553q10 12 46 48t65 77q-47 4 -77 35t-30 76q0 76 47 123t123 47q60 0 98.5 -37t38.5 -95q0 -84 -61 -182t-162 -172z" />
<glyph unicode="&#x146;" horiz-adv-x="1153" d="M6 0l135 754l9 51q27 162 28 219h246q-4 -88 -21 -178h5q55 94 149 146t213 52q150 0 225.5 -82.5t75.5 -240.5q0 -72 -14 -146l-103 -575h-260l103 578q8 43 8 90q0 166 -152 166q-109 0 -187.5 -75t-98.5 -200l-99 -559h-262zM278 -553q10 12 46 48t65 77q-47 4 -77 35 t-30 76q0 76 47 123t123 47q60 0 98.5 -37t38.5 -95q0 -84 -61 -182t-162 -172z" />
<glyph unicode="&#x147;" horiz-adv-x="1431" d="M49 0l252 1434h285l409 -936l166 936h293l-252 -1434h-272l-420 952l-168 -952h-293zM606 1878h221l92 -159l152 159h235l-334 -331h-149z" />
<glyph unicode="&#x148;" horiz-adv-x="1153" d="M6 0l135 754l9 51q27 162 28 219h246q-4 -88 -21 -178h5q55 94 149 146t213 52q150 0 225.5 -82.5t75.5 -240.5q0 -72 -14 -146l-103 -575h-260l103 578q8 43 8 90q0 166 -152 166q-109 0 -187.5 -75t-98.5 -200l-99 -559h-262zM391 1468h221l92 -159l152 159h235 l-334 -331h-149z" />
<glyph unicode="&#x149;" horiz-adv-x="1398" d="M160 1049q10 12 46 48t65 77q-47 6 -77 36.5t-30 75.5q0 76 47 122t123 46q59 0 98 -36t39 -93q0 -84 -62.5 -183.5t-160.5 -170.5zM252 0l135 754l9 51q27 162 28 219h246q-4 -88 -21 -178h5q55 94 149 146t213 52q150 0 225.5 -82.5t75.5 -240.5q0 -72 -14 -146 l-103 -575h-260l103 578q8 43 8 90q0 166 -152 166q-109 0 -187.5 -75t-98.5 -200l-99 -559h-262z" />
<glyph unicode="&#x14a;" horiz-adv-x="1431" d="M49 0l252 1434h285l409 -938l166 938h293l-274 -1567q-35 -207 -161 -315.5t-329 -108.5q-94 0 -170 26.5t-125 75.5l125 183q96 -74 182 -74q147 0 187 215l29 162l-408 923l-168 -954h-293z" />
<glyph unicode="&#x14b;" horiz-adv-x="1155" d="M6 0l135 754l9 51q27 162 28 219h246q-4 -88 -21 -178h5q55 94 149 146t213 52q150 0 225.5 -82.5t75.5 -240.5q0 -72 -14 -146l-109 -626q-63 -369 -422 -369q-109 0 -192 25l45 182q66 -6 129 -6q74 0 116 41t58 125l115 631q8 43 8 90q0 166 -152 166 q-109 0 -187.5 -75t-98.5 -200l-99 -559h-262z" />
<glyph unicode="&#x14c;" horiz-adv-x="1413" d="M82 541q0 264 97 472t271.5 324.5t395.5 116.5q166 0 293 -70.5t196.5 -197.5t69.5 -293q0 -264 -97.5 -472t-271.5 -324.5t-395 -116.5q-166 0 -293 70.5t-196.5 197.5t-69.5 293zM381 563q0 -156 78 -253t203 -97q129 0 230 84t158.5 234.5t57.5 340.5q0 156 -78 252.5 t-203 96.5q-129 0 -230 -84t-158.5 -233.5t-57.5 -340.5zM522 1581l31 170h701l-29 -170h-703z" />
<glyph unicode="&#x14d;" horiz-adv-x="1185" d="M53 397q0 190 78 338t218 228.5t325 80.5q211 0 335 -112.5t124 -304.5q0 -190 -78 -338t-219.5 -228.5t-323.5 -80.5q-211 0 -335 112.5t-124 304.5zM315 420q0 -115 59.5 -180.5t162.5 -65.5q94 0 169.5 55.5t118.5 153.5t43 221q0 115 -58 180.5t-163 65.5 q-94 0 -170 -55.5t-119 -153.5t-43 -221zM356 1171l31 170h701l-29 -170h-703z" />
<glyph unicode="&#x14e;" horiz-adv-x="1413" d="M82 541q0 264 97 472t271.5 324.5t395.5 116.5q166 0 293 -70.5t196.5 -197.5t69.5 -293q0 -264 -97.5 -472t-271.5 -324.5t-395 -116.5q-166 0 -293 70.5t-196.5 197.5t-69.5 293zM381 563q0 -156 78 -253t203 -97q129 0 230 84t158.5 234.5t57.5 340.5q0 156 -78 252.5 t-203 96.5q-129 0 -230 -84t-158.5 -233.5t-57.5 -340.5zM584 1792q0 33 6 66h170q-2 -10 -2 -31q0 -55 35 -86t98 -31q74 0 122 39t62 109h181q-27 -152 -122 -231.5t-251 -79.5q-141 0 -220 64.5t-79 180.5z" />
<glyph unicode="&#x14f;" horiz-adv-x="1185" d="M53 397q0 190 78 338t218 228.5t325 80.5q211 0 335 -112.5t124 -304.5q0 -190 -78 -338t-219.5 -228.5t-323.5 -80.5q-211 0 -335 112.5t-124 304.5zM315 420q0 -115 59.5 -180.5t162.5 -65.5q94 0 169.5 55.5t118.5 153.5t43 221q0 115 -58 180.5t-163 65.5 q-94 0 -170 -55.5t-119 -153.5t-43 -221zM418 1382q0 33 6 66h170q-2 -10 -2 -31q0 -55 35 -86t98 -31q74 0 122 39t62 109h181q-27 -152 -122 -231.5t-251 -79.5q-141 0 -220 64.5t-79 180.5z" />
<glyph unicode="&#x150;" horiz-adv-x="1413" d="M82 541q0 264 97 472t271.5 324.5t395.5 116.5q166 0 293 -70.5t196.5 -197.5t69.5 -293q0 -264 -97.5 -472t-271.5 -324.5t-395 -116.5q-166 0 -293 70.5t-196.5 197.5t-69.5 293zM381 563q0 -156 78 -253t203 -97q129 0 230 84t158.5 234.5t57.5 340.5q0 156 -78 252.5 t-203 96.5q-129 0 -230 -84t-158.5 -233.5t-57.5 -340.5zM547 1547l234 331h253l-278 -331h-209zM905 1547l234 331h254l-279 -331h-209z" />
<glyph unicode="&#x151;" horiz-adv-x="1185" d="M53 397q0 190 78 338t218 228.5t325 80.5q211 0 335 -112.5t124 -304.5q0 -190 -78 -338t-219.5 -228.5t-323.5 -80.5q-211 0 -335 112.5t-124 304.5zM315 420q0 -115 59.5 -180.5t162.5 -65.5q94 0 169.5 55.5t118.5 153.5t43 221q0 115 -58 180.5t-163 65.5 q-94 0 -170 -55.5t-119 -153.5t-43 -221zM401 1128l220 314h237l-260 -314h-197zM737 1128l219 314h238l-260 -314h-197z" />
<glyph unicode="&#x152;" horiz-adv-x="1816" d="M78 492q0 279 87 497.5t242.5 340.5t354.5 122q168 0 285 -98l14 80h842l-43 -236h-549l-60 -338h484l-37 -213h-484l-71 -411h549l-43 -236h-842l12 70q-135 -88 -291 -88q-215 0 -332.5 133t-117.5 377zM371 492q0 -139 50 -209t152 -70q115 0 211.5 123t139.5 319 l16 101q12 84 12 174q0 143 -51 217t-151 74q-104 0 -191.5 -97.5t-137.5 -264.5t-50 -367z" />
<glyph unicode="&#x153;" horiz-adv-x="1773" d="M51 373q0 205 69.5 356.5t200 233t306.5 81.5q236 0 327 -143q76 70 172.5 106.5t202.5 36.5q189 0 292 -99t103 -283q0 -61 -12 -134l-14 -90h-688v-30q0 -209 200 -209q84 0 152 30.5t145 102.5l117 -135q-74 -100 -195.5 -158.5t-259.5 -58.5q-106 0 -193 39.5 t-142 113.5q-143 -154 -369 -153q-197 0 -305.5 103t-108.5 290zM311 389q0 -104 45 -159.5t131 -55.5q97 0 169.5 90t99.5 236l6 39q6 53 6 104q0 207 -164 207q-82 0 -149.5 -60.5t-105.5 -165t-38 -235.5zM1044 612h441v11q0 209 -185 208q-84 0 -152.5 -59t-103.5 -160z " />
<glyph unicode="&#x154;" horiz-adv-x="1220" d="M49 0l252 1434h487q215 0 330 -88.5t115 -251.5q0 -338 -309 -447v-4q33 -27 49 -52.5t24 -60.5l119 -530h-313l-86 436q-14 66 -49 87.5t-131 21.5h-97l-96 -545h-295zM481 778h181q125 0 199.5 75t74.5 196q0 150 -205 149h-176zM690 1547l234 331h254l-279 -331h-209z " />
<glyph unicode="&#x155;" horiz-adv-x="813" d="M20 0l138 774q31 178 37 250h247q-2 -92 -22 -180l-4 -21h8q57 102 164.5 161.5t236.5 59.5q25 0 60 -6l-35 -207q-8 4 -49 5q-98 0 -192.5 -53.5t-161 -142.5t-85.5 -191l-79 -449h-263zM414 1137l234 331h254l-279 -331h-209z" />
<glyph unicode="&#x156;" horiz-adv-x="1220" d="M49 0l252 1434h487q215 0 330 -88.5t115 -251.5q0 -338 -309 -447v-4q33 -27 49 -52.5t24 -60.5l119 -530h-313l-86 436q-14 66 -49 87.5t-131 21.5h-97l-96 -545h-295zM319 -553q10 12 46 48t65 77q-47 4 -77 35t-30 76q0 76 47 123t123 47q60 0 98.5 -37t38.5 -95 q0 -84 -61 -182t-162 -172zM481 778h181q125 0 199.5 75t74.5 196q0 150 -205 149h-176z" />
<glyph unicode="&#x157;" horiz-adv-x="813" d="M-45 -553q10 12 46 48t65 77q-47 4 -77 35t-30 76q0 76 47 123t123 47q60 0 98.5 -37t38.5 -95q0 -84 -61 -182t-162 -172zM20 0l138 774q31 178 37 250h247q-2 -92 -22 -180l-4 -21h8q57 102 164.5 161.5t236.5 59.5q25 0 60 -6l-35 -207q-8 4 -49 5q-98 0 -192.5 -53.5 t-161 -142.5t-85.5 -191l-79 -449h-263z" />
<glyph unicode="&#x158;" horiz-adv-x="1220" d="M49 0l252 1434h487q215 0 330 -88.5t115 -251.5q0 -338 -309 -447v-4q33 -27 49 -52.5t24 -60.5l119 -530h-313l-86 436q-14 66 -49 87.5t-131 21.5h-97l-96 -545h-295zM481 778h181q125 0 199.5 75t74.5 196q0 150 -205 149h-176zM502 1878h221l92 -159l152 159h235 l-334 -331h-149z" />
<glyph unicode="&#x159;" horiz-adv-x="813" d="M20 0l138 774q31 178 37 250h247q-2 -92 -22 -180l-4 -21h8q57 102 164.5 161.5t236.5 59.5q25 0 60 -6l-35 -207q-8 4 -49 5q-98 0 -192.5 -53.5t-161 -142.5t-85.5 -191l-79 -449h-263zM226 1468h221l92 -159l152 159h235l-334 -331h-149z" />
<glyph unicode="&#x15a;" horiz-adv-x="1124" d="M6 233l201 164q51 -82 135 -132t170 -50q113 0 179.5 51t66.5 137q0 51 -46 96.5t-171 112.5q-178 96 -259 195.5t-81 218.5q0 127 66.5 224.5t188.5 150.5t281 53q150 0 263.5 -60.5t162.5 -162.5l-211 -139q-80 127 -229 127q-102 0 -162.5 -44.5t-60.5 -117.5 q0 -49 58 -97.5t216 -128.5q147 -76 215 -167t68 -213q0 -219 -152.5 -345t-419.5 -126q-161 0 -288 67.5t-191 185.5zM645 1547l234 331h254l-279 -331h-209z" />
<glyph unicode="&#x15b;" horiz-adv-x="903" d="M-4 174l184 113q27 -51 78 -82t113 -31q82 0 132 34t50 91q0 39 -35 70.5t-115 64.5q-147 61 -215.5 133t-68.5 162q0 145 110.5 230t300.5 85q121 0 214.5 -45t132.5 -125l-170 -112q-57 88 -181 88q-68 0 -106.5 -26.5t-38.5 -71.5q0 -33 35 -57.5t143 -69.5 q135 -57 197.5 -124t62.5 -151q0 -109 -58.5 -193.5t-162.5 -130.5t-240 -46q-133 0 -234 54t-128 140zM461 1137l234 331h254l-279 -331h-209z" />
<glyph unicode="&#x15c;" horiz-adv-x="1124" d="M6 233l201 164q51 -82 135 -132t170 -50q113 0 179.5 51t66.5 137q0 51 -46 96.5t-171 112.5q-178 96 -259 195.5t-81 218.5q0 127 66.5 224.5t188.5 150.5t281 53q150 0 263.5 -60.5t162.5 -162.5l-211 -139q-80 127 -229 127q-102 0 -162.5 -44.5t-60.5 -117.5 q0 -49 58 -97.5t216 -128.5q147 -76 215 -167t68 -213q0 -219 -152.5 -345t-419.5 -126q-161 0 -288 67.5t-191 185.5zM399 1547l334 331h150l217 -331h-217l-94 159l-150 -159h-240z" />
<glyph unicode="&#x15d;" horiz-adv-x="903" d="M-4 174l184 113q27 -51 78 -82t113 -31q82 0 132 34t50 91q0 39 -35 70.5t-115 64.5q-147 61 -215.5 133t-68.5 162q0 145 110.5 230t300.5 85q121 0 214.5 -45t132.5 -125l-170 -112q-57 88 -181 88q-68 0 -106.5 -26.5t-38.5 -71.5q0 -33 35 -57.5t143 -69.5 q135 -57 197.5 -124t62.5 -151q0 -109 -58.5 -193.5t-162.5 -130.5t-240 -46q-133 0 -234 54t-128 140zM215 1137l334 331h150l217 -331h-217l-94 159l-150 -159h-240z" />
<glyph unicode="&#x15e;" horiz-adv-x="1124" d="M6 233l201 164q51 -82 135 -132t170 -50q113 0 179.5 51t66.5 137q0 51 -46 96.5t-171 112.5q-178 96 -259 195.5t-81 218.5q0 127 66.5 224.5t188.5 150.5t281 53q150 0 263.5 -60.5t162.5 -162.5l-211 -139q-80 127 -229 127q-102 0 -162.5 -44.5t-60.5 -117.5 q0 -49 58 -97.5t216 -128.5q148 -75 215.5 -166.5t67.5 -213.5q0 -205 -133 -329t-369 -140l-88 -117q76 0 121 -37t45 -96q0 -96 -80 -162t-199 -66q-51 0 -103 12.5t-81 30.5l47 113q57 -25 131 -25q43 0 70.5 21.5t27.5 54.5q0 29 -33.5 42.5t-90.5 10.5l-48 68l113 154 q-129 18 -228.5 82.5t-152.5 164.5z" />
<glyph unicode="&#x15f;" horiz-adv-x="903" d="M-4 174l184 113q27 -51 78 -82t113 -31q82 0 132 34t50 91q0 39 -35 70.5t-115 64.5q-147 61 -215.5 133t-68.5 162q0 145 110.5 230t300.5 85q121 0 214.5 -45t132.5 -125l-170 -112q-57 88 -181 88q-68 0 -106.5 -26.5t-38.5 -71.5q0 -33 35 -57.5t143 -69.5 q135 -58 197.5 -124.5t62.5 -150.5q0 -147 -101.5 -245.5t-273.5 -120.5l-90 -119q76 0 121 -37t45 -96q0 -96 -80 -162t-198 -66q-51 0 -104.5 12.5t-82.5 30.5l49 113q57 -25 132 -25q43 0 70.5 21.5t27.5 54.5q0 27 -34 42.5t-91 10.5l-49 68l114 154q-106 16 -182 66 t-96 122z" />
<glyph unicode="&#x160;" horiz-adv-x="1124" d="M6 233l201 164q51 -82 135 -132t170 -50q113 0 179.5 51t66.5 137q0 51 -46 96.5t-171 112.5q-178 96 -259 195.5t-81 218.5q0 127 66.5 224.5t188.5 150.5t281 53q150 0 263.5 -60.5t162.5 -162.5l-211 -139q-80 127 -229 127q-102 0 -162.5 -44.5t-60.5 -117.5 q0 -49 58 -97.5t216 -128.5q147 -76 215 -167t68 -213q0 -219 -152.5 -345t-419.5 -126q-161 0 -288 67.5t-191 185.5zM457 1878h221l92 -159l152 159h235l-334 -331h-149z" />
<glyph unicode="&#x161;" horiz-adv-x="903" d="M-4 174l184 113q27 -51 78 -82t113 -31q82 0 132 34t50 91q0 39 -35 70.5t-115 64.5q-147 61 -215.5 133t-68.5 162q0 145 110.5 230t300.5 85q121 0 214.5 -45t132.5 -125l-170 -112q-57 88 -181 88q-68 0 -106.5 -26.5t-38.5 -71.5q0 -33 35 -57.5t143 -69.5 q135 -57 197.5 -124t62.5 -151q0 -109 -58.5 -193.5t-162.5 -130.5t-240 -46q-133 0 -234 54t-128 140zM273 1468h221l92 -159l152 159h235l-334 -331h-149z" />
<glyph unicode="&#x162;" horiz-adv-x="1208" d="M156 1217l39 217h1146l-38 -217h-426l-215 -1217h-58l-100 -135q76 0 121 -37t45 -96q0 -96 -80 -162t-199 -66q-51 0 -104.5 12.5t-81.5 30.5l49 113q57 -25 131 -25q43 0 70.5 21.5t27.5 54.5q0 27 -33.5 42.5t-91.5 10.5l-49 68l125 168h-67l215 1217h-426z" />
<glyph unicode="&#x163;" horiz-adv-x="860" d="M82 829l35 195h186l45 264l266 74h9l-58 -338h297l-35 -195h-297l-86 -483q-4 -37 -4 -49q0 -121 140 -121q80 0 153 25l-18 -178q-82 -35 -195 -41l-86 -117q76 0 122 -37t46 -96q0 -96 -81 -162t-199 -66q-51 0 -103.5 12.5t-81.5 30.5l47 113q57 -25 131 -25 q43 0 72 21.5t29 54.5q0 27 -34 42.5t-93 10.5l-47 68l116 160q-90 23 -139 83t-49 156q0 35 6 74l92 524h-186z" />
<glyph unicode="&#x164;" horiz-adv-x="1208" d="M156 1217l39 217h1146l-38 -217h-426l-215 -1217h-295l215 1217h-426zM496 1878h221l92 -159l152 159h235l-334 -331h-149z" />
<glyph unicode="&#x165;" horiz-adv-x="1105" d="M82 829l35 195h186l45 264l266 74h9l-58 -338h297l-35 -195h-297l-86 -483q-4 -37 -4 -49q0 -121 140 -121q80 0 153 25l-18 -178q-98 -43 -252 -43q-139 0 -216 65.5t-77 185.5q0 35 6 74l92 524h-186zM930 1129q10 12 46 48t65 77q-47 6 -77 36.5t-30 75.5q0 76 47 122 t123 46q59 0 98 -36t39 -93q0 -84 -62.5 -183.5t-160.5 -170.5z" />
<glyph unicode="&#x166;" horiz-adv-x="1208" d="M156 1217l39 217h1146l-38 -217h-426l-76 -429h309l-35 -196h-309l-104 -592h-295l104 592h-307l35 196h307l76 429h-426z" />
<glyph unicode="&#x167;" horiz-adv-x="860" d="M49 459l31 168h153l35 202h-186l35 195h186l45 264l266 74h9l-58 -338h297l-35 -195h-297l-36 -202h213l-31 -168h-211l-21 -113q-4 -37 -4 -49q0 -121 140 -121q80 0 153 25l-18 -178q-98 -43 -252 -43q-139 0 -216 65.5t-77 185.5q0 35 6 74l27 154h-154z" />
<glyph unicode="&#x168;" horiz-adv-x="1355" d="M117 410q0 76 14 149l154 875h295l-154 -871q-12 -63 -12 -119q0 -229 213 -229q129 0 210 88t111 260l154 871h295l-154 -875q-102 -580 -643 -579q-235 0 -359 109.5t-124 320.5zM512 1547q19 123 91.5 190.5t164.5 67.5q41 0 74 -14.5t76 -43.5q29 -18 48.5 -28.5 t37.5 -10.5q55 0 74 105h164q-18 -133 -88 -199.5t-168 -66.5q-41 0 -77 15t-81 44q-55 37 -80 37q-23 0 -43.5 -26.5t-28.5 -69.5h-164z" />
<glyph unicode="&#x169;" horiz-adv-x="1148" d="M74 299q0 72 14 145l100 580h263l-101 -580q-10 -61 -10 -98q0 -80 35 -118t106 -38q106 0 191.5 82t107.5 207l94 545h263l-133 -764q-16 -82 -31 -260h-248q2 98 14 180h-4q-55 -94 -152.5 -147t-211.5 -53q-146 0 -221.5 80.5t-75.5 238.5zM352 1137 q19 123 91.5 190.5t164.5 67.5q41 0 74 -14.5t76 -43.5q29 -18 48.5 -28.5t37.5 -10.5q55 0 74 105h164q-18 -133 -88 -199.5t-168 -66.5q-41 0 -77 15t-81 44q-55 37 -80 37q-23 0 -43.5 -26.5t-28.5 -69.5h-164z" />
<glyph unicode="&#x16a;" horiz-adv-x="1355" d="M117 410q0 76 14 149l154 875h295l-154 -871q-12 -63 -12 -119q0 -229 213 -229q129 0 210 88t111 260l154 871h295l-154 -875q-102 -580 -643 -579q-235 0 -359 109.5t-124 320.5zM514 1581l31 170h701l-29 -170h-703z" />
<glyph unicode="&#x16b;" horiz-adv-x="1148" d="M74 299q0 72 14 145l100 580h263l-101 -580q-10 -61 -10 -98q0 -80 35 -118t106 -38q106 0 191.5 82t107.5 207l94 545h263l-133 -764q-16 -82 -31 -260h-248q2 98 14 180h-4q-55 -94 -152.5 -147t-211.5 -53q-146 0 -221.5 80.5t-75.5 238.5zM354 1171l31 170h701 l-29 -170h-703z" />
<glyph unicode="&#x16c;" horiz-adv-x="1355" d="M117 410q0 76 14 149l154 875h295l-154 -871q-12 -63 -12 -119q0 -229 213 -229q129 0 210 88t111 260l154 871h295l-154 -875q-102 -580 -643 -579q-235 0 -359 109.5t-124 320.5zM576 1792q0 33 6 66h170q-2 -10 -2 -31q0 -55 35 -86t98 -31q74 0 122 39t62 109h181 q-27 -152 -122 -231.5t-251 -79.5q-141 0 -220 64.5t-79 180.5z" />
<glyph unicode="&#x16d;" horiz-adv-x="1148" d="M74 299q0 72 14 145l100 580h263l-101 -580q-10 -61 -10 -98q0 -80 35 -118t106 -38q106 0 191.5 82t107.5 207l94 545h263l-133 -764q-16 -82 -31 -260h-248q2 98 14 180h-4q-55 -94 -152.5 -147t-211.5 -53q-146 0 -221.5 80.5t-75.5 238.5zM416 1382q0 33 6 66h170 q-2 -10 -2 -31q0 -55 35 -86t98 -31q74 0 122 39t62 109h181q-27 -152 -122 -231.5t-251 -79.5q-141 0 -220 64.5t-79 180.5z" />
<glyph unicode="&#x16e;" horiz-adv-x="1355" d="M117 410q0 76 14 149l154 875h295l-154 -871q-12 -63 -12 -119q0 -229 213 -229q129 0 210 88t111 260l154 871h295l-154 -875q-102 -580 -643 -579q-235 0 -359 109.5t-124 320.5zM676 1704q0 109 72 176.5t184 67.5q82 0 133.5 -46t51.5 -120q0 -106 -72 -175t-184 -69 q-82 0 -133.5 46.5t-51.5 119.5zM793 1721q0 -37 23.5 -59.5t60.5 -22.5q53 0 88 34.5t35 92.5q0 37 -23.5 59.5t-62.5 22.5q-53 0 -87 -35t-34 -92z" />
<glyph unicode="&#x16f;" horiz-adv-x="1148" d="M74 299q0 72 14 145l100 580h263l-101 -580q-10 -61 -10 -98q0 -80 35 -118t106 -38q106 0 191.5 82t107.5 207l94 545h263l-133 -764q-16 -82 -31 -260h-248q2 98 14 180h-4q-55 -94 -152.5 -147t-211.5 -53q-146 0 -221.5 80.5t-75.5 238.5zM516 1294q0 109 72 176.5 t184 67.5q82 0 133.5 -46t51.5 -120q0 -106 -72 -175t-184 -69q-82 0 -133.5 46.5t-51.5 119.5zM633 1311q0 -37 23.5 -59.5t60.5 -22.5q53 0 88 34.5t35 92.5q0 37 -23.5 59.5t-62.5 22.5q-53 0 -87 -35t-34 -92z" />
<glyph unicode="&#x170;" horiz-adv-x="1355" d="M117 410q0 76 14 149l154 875h295l-154 -871q-12 -63 -12 -119q0 -229 213 -229q129 0 210 88t111 260l154 871h295l-154 -875q-102 -580 -643 -579q-235 0 -359 109.5t-124 320.5zM539 1547l234 331h253l-278 -331h-209zM897 1547l234 331h254l-279 -331h-209z" />
<glyph unicode="&#x171;" horiz-adv-x="1148" d="M74 299q0 72 14 145l100 580h263l-101 -580q-10 -61 -10 -98q0 -80 35 -118t106 -38q106 0 191.5 82t107.5 207l94 545h263l-133 -764q-16 -82 -31 -260h-248q2 98 14 180h-4q-55 -94 -152.5 -147t-211.5 -53q-146 0 -221.5 80.5t-75.5 238.5zM379 1137l234 331h253 l-278 -331h-209zM737 1137l234 331h254l-279 -331h-209z" />
<glyph unicode="&#x172;" horiz-adv-x="1355" d="M117 408q0 78 14 151l154 875h295l-154 -871q-12 -63 -12 -119q0 -229 213 -229q129 0 210 88t111 260l154 871h295l-154 -875q-92 -522 -538 -573q-96 -63 -148.5 -123t-52.5 -109q0 -29 23.5 -45t64.5 -16q39 0 131 33l16 -123q-47 -39 -109.5 -60.5t-125.5 -21.5 q-94 0 -145.5 42t-51.5 120q0 90 53.5 166.5t157.5 134.5q-197 18 -299 125.5t-102 298.5z" />
<glyph unicode="&#x173;" horiz-adv-x="1148" d="M74 299q0 72 14 145l100 580h263l-101 -580q-10 -61 -10 -98q0 -80 35 -118t106 -38q106 0 191.5 82t107.5 207l94 545h263l-133 -764q-16 -82 -31 -260h-37q-106 -68 -164.5 -131.5t-58.5 -114.5q0 -29 22.5 -45t63.5 -16t133 33l14 -123q-45 -39 -107.5 -60.5 t-125.5 -21.5q-96 0 -147.5 42t-51.5 120q0 98 62.5 179t183.5 138h-35q2 98 14 180h-4q-55 -94 -152.5 -147t-211.5 -53q-145 0 -221 80.5t-76 238.5z" />
<glyph unicode="&#x174;" horiz-adv-x="1789" d="M213 1434h309l-12 -949l403 949h279l70 -945l321 945h318l-555 -1434h-275l-74 1067l-450 -1067h-285zM727 1547l334 331h150l217 -331h-217l-94 159l-150 -159h-240z" />
<glyph unicode="&#x175;" horiz-adv-x="1447" d="M117 1024h268l16 -637l293 637h232l69 -637l240 637h276l-442 -1024h-229l-72 743l-338 -743h-231zM485 1137l334 331h150l217 -331h-217l-94 159l-150 -159h-240z" />
<glyph unicode="&#x176;" horiz-adv-x="1286" d="M193 1434h311l194 -564l392 564h327l-616 -861l-101 -573h-294l100 573zM469 1547l334 331h150l217 -331h-217l-94 159l-150 -159h-240z" />
<glyph unicode="&#x177;" horiz-adv-x="1034" d="M-150 -371l37 207q23 -8 60 -14t65 -6q88 0 164 62.5t152 197.5l-213 948h270l111 -657l319 657h283l-580 -1071q-188 -346 -504 -346q-80 0 -164 22zM282 1137l334 331h150l217 -331h-217l-94 159l-150 -159h-240z" />
<glyph unicode="&#x178;" horiz-adv-x="1286" d="M193 1434h311l194 -564l392 564h327l-616 -861l-101 -573h-294l100 573zM488 1657q0 72 45 116t119 44q51 0 82.5 -30.5t31.5 -80.5q0 -70 -45 -114.5t-116 -44.5q-52 0 -84.5 30.5t-32.5 79.5zM920 1657q0 72 45 116t119 44q49 0 81.5 -30.5t32.5 -80.5 q0 -70 -46 -114.5t-117 -44.5q-52 0 -83.5 30.5t-31.5 79.5z" />
<glyph unicode="&#x179;" horiz-adv-x="1212" d="M-37 0l25 143l891 1055h-646l41 236h1018l-24 -148l-881 -1050h723l-43 -236h-1104zM684 1547l234 331h254l-279 -331h-209z" />
<glyph unicode="&#x17a;" horiz-adv-x="974" d="M-47 0l22 139l668 688h-516l35 197h837l-22 -127l-658 -700h558l-35 -197h-889zM493 1137l234 331h254l-279 -331h-209z" />
<glyph unicode="&#x17b;" horiz-adv-x="1212" d="M-37 0l25 143l891 1055h-646l41 236h1018l-24 -148l-881 -1050h723l-43 -236h-1104zM672 1657q0 70 46 115t118 45q51 0 82.5 -30.5t31.5 -80.5q0 -72 -45 -115.5t-116 -43.5q-52 0 -84.5 30.5t-32.5 79.5z" />
<glyph unicode="&#x17c;" horiz-adv-x="974" d="M-47 0l22 139l668 688h-516l35 197h837l-22 -127l-658 -700h558l-35 -197h-889zM481 1247q0 70 46 115t118 45q51 0 82.5 -30.5t31.5 -80.5q0 -72 -45 -115.5t-116 -43.5q-52 0 -84.5 30.5t-32.5 79.5z" />
<glyph unicode="&#x17d;" horiz-adv-x="1212" d="M-37 0l25 143l891 1055h-646l41 236h1018l-24 -148l-881 -1050h723l-43 -236h-1104zM496 1878h221l92 -159l152 159h235l-334 -331h-149z" />
<glyph unicode="&#x17e;" horiz-adv-x="974" d="M-47 0l22 139l668 688h-516l35 197h837l-22 -127l-658 -700h558l-35 -197h-889zM305 1468h221l92 -159l152 159h235l-334 -331h-149z" />
<glyph unicode="&#x18f;" horiz-adv-x="1400" d="M74 524q0 78 16 176l23 123h983q2 16 2 51q0 168 -77 257.5t-222 89.5q-121 0 -231.5 -57.5t-198.5 -170.5l-150 176q96 133 257 208t347 75q267 0 418.5 -148.5t151.5 -410.5q0 -264 -97.5 -471t-273.5 -323.5t-401 -116.5q-260 0 -403.5 142t-143.5 400zM354 479 q0 -125 75 -195.5t208 -70.5q147 0 261 107.5t165 289.5l-692 -2l-4 -18q-12 -57 -13 -111z" />
<glyph unicode="&#x192;" horiz-adv-x="993" d="M-80 -193l385 1008h-180l35 209h225l57 150q49 127 144.5 203.5t283.5 76.5q76 0 145.5 -22.5t102.5 -55.5l-125 -176q-16 20 -49 31.5t-70 11.5q-123 0 -174 -135l-30 -84h274l-37 -209h-317l-381 -1008h-289z" />
<glyph unicode="&#x1a0;" horiz-adv-x="1511" d="M82 541q0 264 97 472t271.5 324.5t395.5 116.5q199 0 340 -100.5t192 -272.5q61 49 93 105.5t49 140.5l18 107h217l-18 -107q-25 -135 -114 -244.5t-218 -164.5v-25q0 -264 -97.5 -472t-271.5 -324.5t-395 -116.5q-166 0 -293 70.5t-196.5 197.5t-69.5 293zM381 563 q0 -156 78 -253t203 -97q129 0 230 84t158.5 234.5t57.5 340.5q0 156 -78 252.5t-203 96.5q-129 0 -230 -84t-158.5 -233.5t-57.5 -340.5z" />
<glyph unicode="&#x1a1;" horiz-adv-x="1333" d="M53 397q0 190 78 338t218 228.5t325 80.5q186 0 306 -90t146 -247q49 45 77 98t42 129l19 106h217l-19 -106q-25 -137 -115 -248t-221 -164q-20 -164 -102 -285.5t-214 -189t-298 -67.5q-211 0 -335 112.5t-124 304.5zM315 420q0 -115 59.5 -180.5t162.5 -65.5 q94 0 169.5 55.5t118.5 153.5t43 221q0 115 -58 180.5t-163 65.5q-94 0 -170 -55.5t-119 -153.5t-43 -221z" />
<glyph unicode="&#x1af;" horiz-adv-x="1521" d="M117 410q0 76 14 149l154 875h295l-154 -871q-12 -63 -12 -119q0 -229 213 -229q129 0 210 88t111 260l154 871h295l-70 -394q94 57 139 122t64 165l18 107h217l-18 -107q-29 -164 -153 -288t-294 -158l-57 -322q-102 -580 -643 -579q-236 0 -359.5 109.5t-123.5 320.5z " />
<glyph unicode="&#x1b0;" horiz-adv-x="1329" d="M74 299q0 72 14 145l100 580h263l-101 -580q-10 -61 -10 -98q0 -80 35 -118t106 -38q106 0 191.5 82t107.5 207l94 545h263l-66 -373q80 53 119 113.5t55 155.5l19 106h217l-19 -106q-27 -158 -143.5 -279t-276.5 -162l-38 -219q-16 -82 -31 -260h-248q2 98 14 180h-4 q-55 -94 -152.5 -147t-211.5 -53q-145 0 -221 80.5t-76 238.5z" />
<glyph unicode="&#x1cd;" horiz-adv-x="1312" d="M-59 0l747 1434h260l244 -1434h-295l-31 238h-491l-113 -238h-321zM487 473h349l-76 569zM547 1878h221l92 -159l152 159h235l-334 -331h-149z" />
<glyph unicode="&#x1ce;" horiz-adv-x="1142" d="M45 383q0 193 66.5 343.5t185.5 234t272 83.5q106 0 184 -38.5t111 -110.5h4l41 129h219l-133 -752q-37 -215 -43 -272h-245q12 84 22 135h-4q-61 -72 -146 -113.5t-173 -41.5q-166 0 -263.5 108.5t-97.5 294.5zM307 401q0 -106 44 -163.5t128 -57.5q109 0 184.5 62.5 t94.5 165.5l37 210q4 29 4 46q0 82 -56.5 134t-144.5 52q-82 0 -148.5 -58.5t-104.5 -161t-38 -229.5zM369 1468h221l92 -159l152 159h235l-334 -331h-149z" />
<glyph unicode="&#x1cf;" horiz-adv-x="661" d="M94 0l252 1434h293l-252 -1434h-293zM221 1878h221l92 -159l152 159h235l-334 -331h-149z" />
<glyph unicode="&#x1d0;" horiz-adv-x="571" d="M68 0l180 1024h258l-180 -1024h-258zM105 1468h221l92 -159l152 159h235l-334 -331h-149z" />
<glyph unicode="&#x1d1;" horiz-adv-x="1413" d="M82 541q0 264 97 472t271.5 324.5t395.5 116.5q166 0 293 -70.5t196.5 -197.5t69.5 -293q0 -264 -97.5 -472t-271.5 -324.5t-395 -116.5q-166 0 -293 70.5t-196.5 197.5t-69.5 293zM381 563q0 -156 78 -253t203 -97q129 0 230 84t158.5 234.5t57.5 340.5q0 156 -78 252.5 t-203 96.5q-129 0 -230 -84t-158.5 -233.5t-57.5 -340.5zM576 1878h221l92 -159l152 159h235l-334 -331h-149z" />
<glyph unicode="&#x1d2;" horiz-adv-x="1185" d="M53 397q0 190 78 338t218 228.5t325 80.5q211 0 335 -112.5t124 -304.5q0 -190 -78 -338t-219.5 -228.5t-323.5 -80.5q-211 0 -335 112.5t-124 304.5zM315 420q0 -115 59.5 -180.5t162.5 -65.5q94 0 169.5 55.5t118.5 153.5t43 221q0 115 -58 180.5t-163 65.5 q-94 0 -170 -55.5t-119 -153.5t-43 -221zM412 1468h221l92 -159l152 159h235l-334 -331h-149z" />
<glyph unicode="&#x1d3;" horiz-adv-x="1355" d="M117 410q0 76 14 149l154 875h295l-154 -871q-12 -63 -12 -119q0 -229 213 -229q129 0 210 88t111 260l154 871h295l-154 -875q-102 -580 -643 -579q-235 0 -359 109.5t-124 320.5zM570 1878h221l92 -159l152 159h235l-334 -331h-149z" />
<glyph unicode="&#x1d4;" horiz-adv-x="1148" d="M74 299q0 72 14 145l100 580h263l-101 -580q-10 -61 -10 -98q0 -80 35 -118t106 -38q106 0 191.5 82t107.5 207l94 545h263l-133 -764q-16 -82 -31 -260h-248q2 98 14 180h-4q-55 -94 -152.5 -147t-211.5 -53q-146 0 -221.5 80.5t-75.5 238.5zM408 1468h221l92 -159 l152 159h235l-334 -331h-149z" />
<glyph unicode="&#x1d5;" horiz-adv-x="1355" d="M117 410q0 76 14 149l154 875h295l-154 -871q-12 -63 -12 -119q0 -229 213 -229q129 0 210 88t111 260l154 871h295l-154 -875q-102 -580 -643 -579q-235 0 -359 109.5t-124 320.5zM522 1657q0 72 45.5 116t118.5 44q49 0 82 -30.5t33 -80.5q0 -70 -46 -114.5t-118 -44.5 q-51 0 -83 30.5t-32 79.5zM613 1926l18 135h610l-20 -135h-608zM953 1657q0 70 46 115t117 45q51 0 83 -30.5t32 -80.5q0 -72 -45 -115.5t-117 -43.5q-51 0 -83.5 30.5t-32.5 79.5z" />
<glyph unicode="&#x1d6;" horiz-adv-x="1148" d="M74 299q0 72 14 145l100 580h263l-101 -580q-10 -61 -10 -98q0 -80 35 -118t106 -38q106 0 191.5 82t107.5 207l94 545h263l-133 -764q-16 -82 -31 -260h-248q2 98 14 180h-4q-55 -94 -152.5 -147t-211.5 -53q-146 0 -221.5 80.5t-75.5 238.5zM362 1247q0 72 45.5 116 t118.5 44q49 0 82 -30.5t33 -80.5q0 -70 -46 -114.5t-118 -44.5q-51 0 -83 30.5t-32 79.5zM453 1516l18 135h610l-20 -135h-608zM793 1247q0 70 46 115t117 45q51 0 83 -30.5t32 -80.5q0 -72 -45 -115.5t-117 -43.5q-51 0 -83.5 30.5t-32.5 79.5z" />
<glyph unicode="&#x1d7;" horiz-adv-x="1355" d="M117 410q0 76 14 149l154 875h295l-154 -871q-12 -63 -12 -119q0 -229 213 -229q129 0 210 88t111 260l154 871h295l-154 -875q-102 -580 -643 -579q-235 0 -359 109.5t-124 320.5zM529 1657q0 72 45 116t119 44q51 0 82.5 -30.5t31.5 -80.5q0 -70 -45 -114.5t-116 -44.5 q-52 0 -84.5 30.5t-32.5 79.5zM830 1899l135 223h203l-166 -223h-172zM961 1657q0 72 45 116t119 44q49 0 81.5 -30.5t32.5 -80.5q0 -70 -46 -114.5t-117 -44.5q-52 0 -83.5 30.5t-31.5 79.5z" />
<glyph unicode="&#x1d8;" horiz-adv-x="1148" d="M74 299q0 72 14 145l100 580h263l-101 -580q-10 -61 -10 -98q0 -80 35 -118t106 -38q106 0 191.5 82t107.5 207l94 545h263l-133 -764q-16 -82 -31 -260h-248q2 98 14 180h-4q-55 -94 -152.5 -147t-211.5 -53q-146 0 -221.5 80.5t-75.5 238.5zM369 1247q0 72 45 116 t119 44q51 0 82.5 -30.5t31.5 -80.5q0 -70 -45 -114.5t-116 -44.5q-52 0 -84.5 30.5t-32.5 79.5zM670 1489l135 223h203l-166 -223h-172zM801 1247q0 72 45 116t119 44q49 0 81.5 -30.5t32.5 -80.5q0 -70 -46 -114.5t-117 -44.5q-52 0 -83.5 30.5t-31.5 79.5z" />
<glyph unicode="&#x1d9;" horiz-adv-x="1355" d="M117 410q0 76 14 149l154 875h295l-154 -871q-12 -63 -12 -119q0 -229 213 -229q129 0 210 88t111 260l154 871h295l-154 -875q-102 -580 -643 -579q-235 0 -359 109.5t-124 320.5zM529 1657q0 72 45 116t119 44q51 0 82.5 -30.5t31.5 -80.5q0 -70 -45 -114.5t-116 -44.5 q-52 0 -84.5 30.5t-32.5 79.5zM639 2122h199l96 -143l146 143h205l-295 -266h-148zM961 1657q0 72 45 116t119 44q49 0 81.5 -30.5t32.5 -80.5q0 -70 -46 -114.5t-117 -44.5q-52 0 -83.5 30.5t-31.5 79.5z" />
<glyph unicode="&#x1da;" horiz-adv-x="1148" d="M74 299q0 72 14 145l100 580h263l-101 -580q-10 -61 -10 -98q0 -80 35 -118t106 -38q106 0 191.5 82t107.5 207l94 545h263l-133 -764q-16 -82 -31 -260h-248q2 98 14 180h-4q-55 -94 -152.5 -147t-211.5 -53q-146 0 -221.5 80.5t-75.5 238.5zM369 1247q0 72 45 116 t119 44q51 0 82.5 -30.5t31.5 -80.5q0 -70 -45 -114.5t-116 -44.5q-52 0 -84.5 30.5t-32.5 79.5zM479 1712h199l96 -143l146 143h205l-295 -266h-148zM801 1247q0 72 45 116t119 44q49 0 81.5 -30.5t32.5 -80.5q0 -70 -46 -114.5t-117 -44.5q-52 0 -83.5 30.5t-31.5 79.5z " />
<glyph unicode="&#x1db;" horiz-adv-x="1355" d="M117 410q0 76 14 149l154 875h295l-154 -871q-12 -63 -12 -119q0 -229 213 -229q129 0 210 88t111 260l154 871h295l-154 -875q-102 -580 -643 -579q-235 0 -359 109.5t-124 320.5zM529 1657q0 72 45 116t119 44q51 0 82.5 -30.5t31.5 -80.5q0 -70 -45 -114.5t-116 -44.5 q-52 0 -84.5 30.5t-32.5 79.5zM746 2122h203l59 -223h-172zM961 1657q0 72 45 116t119 44q49 0 81.5 -30.5t32.5 -80.5q0 -70 -46 -114.5t-117 -44.5q-52 0 -83.5 30.5t-31.5 79.5z" />
<glyph unicode="&#x1dc;" horiz-adv-x="1148" d="M74 299q0 72 14 145l100 580h263l-101 -580q-10 -61 -10 -98q0 -80 35 -118t106 -38q106 0 191.5 82t107.5 207l94 545h263l-133 -764q-16 -82 -31 -260h-248q2 98 14 180h-4q-55 -94 -152.5 -147t-211.5 -53q-146 0 -221.5 80.5t-75.5 238.5zM369 1247q0 72 45 116 t119 44q51 0 82.5 -30.5t31.5 -80.5q0 -70 -45 -114.5t-116 -44.5q-52 0 -84.5 30.5t-32.5 79.5zM586 1712h203l59 -223h-172zM801 1247q0 72 45 116t119 44q49 0 81.5 -30.5t32.5 -80.5q0 -70 -46 -114.5t-117 -44.5q-52 0 -83.5 30.5t-31.5 79.5z" />
<glyph unicode="&#x1e6;" horiz-adv-x="1337" d="M80 516q0 274 98 487.5t274.5 332t403.5 118.5q182 0 315.5 -69.5t169.5 -182.5l-192 -147q-37 80 -112.5 122t-182.5 42q-137 0 -245.5 -88.5t-170 -245t-61.5 -357.5q0 -164 68.5 -247.5t201.5 -83.5q135 0 254 65l53 307h-309l37 209h600l-135 -778h-223l-13 72 q-131 -92 -307 -92q-160 0 -278.5 65.5t-182 187t-63.5 283.5zM604 1878h221l92 -159l152 159h235l-334 -331h-149z" />
<glyph unicode="&#x1e7;" horiz-adv-x="1136" d="M-43 -373l119 178q66 -37 145.5 -58t153.5 -21q272 0 334 350l4 26q-98 -109 -287 -108q-178 0 -279.5 103.5t-101.5 285.5q0 195 65.5 345.5t184.5 233t272 82.5q109 0 186.5 -38.5t110.5 -110.5h4l41 129h217l-172 -983q-45 -260 -193.5 -392t-398.5 -132 q-121 0 -227 28.5t-178 81.5zM307 410q0 -104 48 -158.5t143 -54.5q106 0 175.5 64.5t90.5 182.5l22 131q7 43 7 78q0 96 -48.5 146.5t-138.5 50.5q-88 0 -155.5 -57.5t-105.5 -156.5t-38 -226zM361 1468h221l92 -159l152 159h235l-334 -331h-149z" />
<glyph unicode="&#x1fa;" horiz-adv-x="1312" d="M-59 0l747 1434h260l244 -1434h-295l-31 238h-491l-113 -238h-321zM487 473h349l-76 569zM655 1640q0 109 71 176.5t183 67.5q82 0 133.5 -46t51.5 -120q0 -109 -72 -176t-184 -67q-82 0 -132.5 46t-50.5 119zM772 1657q0 -37 23.5 -59.5t60.5 -22.5q53 0 87 35t34 92 q0 37 -23.5 59.5t-60.5 22.5q-53 0 -87 -35t-34 -92zM840 1937l153 224h221l-184 -224h-190z" />
<glyph unicode="&#x1fb;" horiz-adv-x="1142" d="M45 383q0 193 66.5 343.5t185.5 234t272 83.5q106 0 184 -38.5t111 -110.5h4l41 129h219l-133 -752q-37 -215 -43 -272h-245q12 84 22 135h-4q-61 -72 -146 -113.5t-173 -41.5q-166 0 -263.5 108.5t-97.5 294.5zM307 401q0 -106 44 -163.5t128 -57.5q109 0 184.5 62.5 t94.5 165.5l37 210q4 29 4 46q0 82 -56.5 134t-144.5 52q-82 0 -148.5 -58.5t-104.5 -161t-38 -229.5zM475 1294q0 106 71.5 175t184.5 69q82 0 133 -46t51 -120q0 -109 -71.5 -176.5t-184.5 -67.5q-81 0 -132.5 46.5t-51.5 119.5zM592 1311q0 -37 23.5 -59.5t62.5 -22.5 q53 0 87 34.5t34 92.5q0 37 -23.5 59.5t-60.5 22.5q-53 0 -88 -35t-35 -92zM641 1616l152 223h221l-185 -223h-188z" />
<glyph unicode="&#x1fc;" horiz-adv-x="1693" d="M-59 0l890 1434h947l-41 -236h-549l-60 -336h482l-39 -231h-484l-69 -395h549l-41 -236h-842l35 201h-334l-119 -201h-325zM516 422h242l102 584zM1055 1547l234 331h254l-279 -331h-209z" />
<glyph unicode="&#x1fd;" horiz-adv-x="1675" d="M14 258q0 174 128 264t368 90h174l10 62q4 33 4 43q0 127 -145 127q-186 0 -322 -123l-90 156q193 168 443 167q215 0 311 -114q139 115 328 114q190 0 297.5 -101t107.5 -288q0 -59 -12 -127l-17 -90h-686v-30q0 -209 201 -209q84 0 152.5 30.5t144.5 102.5l115 -135 q-74 -100 -194 -158.5t-257 -58.5q-106 0 -191 34.5t-141 100.5q-76 -63 -174 -99t-202 -36q-168 0 -260.5 76.5t-92.5 201.5zM270 274q0 -47 33 -72.5t94 -25.5q90 0 159 51.5t81 126.5l16 84h-155q-106 0 -167 -40t-61 -124zM844 1137l234 331h254l-279 -331h-209z M946 612h440v15q5 94 -40.5 149t-143.5 55q-84 0 -151.5 -59t-104.5 -160z" />
<glyph unicode="&#x1fe;" horiz-adv-x="1413" d="M27 -88l180 256q-125 152 -125 373q0 264 97 472t271.5 324.5t395.5 116.5q131 0 235 -43l52 74h235l-125 -178q78 -74 120 -180.5t42 -233.5q0 -264 -97.5 -472t-271.5 -324.5t-395 -116.5q-162 0 -291 69l-96 -137h-227zM381 563q0 -64 16 -125l535 762q-51 20 -105 21 q-129 0 -230 -84t-158.5 -233.5t-57.5 -340.5zM504 266q70 -53 158 -53q129 0 230 84t158.5 234.5t57.5 340.5q0 106 -39 191zM764 1547l234 331h254l-279 -331h-209z" />
<glyph unicode="&#x1ff;" horiz-adv-x="1185" d="M53 397q0 190 78 338t218 228.5t325 80.5q96 0 176 -24l53 76h189l-105 -148q70 -55 108 -137t38 -184q0 -190 -78 -338t-219.5 -228.5t-323.5 -80.5q-104 0 -190 28l-70 -96h-180l118 168q-137 115 -137 317zM315 420q0 -72 25 -127l383 547q-37 10 -76 10 q-94 0 -170 -55.5t-119 -153.5t-43 -221zM449 188q47 -14 88 -14q94 0 169.5 55.5t118.5 153.5t43 221q0 76 -28 137zM598 1137l234 331h254l-279 -331h-209z" />
<glyph unicode="&#x218;" horiz-adv-x="1124" d="M6 233l201 164q51 -82 135 -132t170 -50q113 0 179.5 51t66.5 137q0 51 -46 96.5t-171 112.5q-178 96 -259 195.5t-81 218.5q0 127 66.5 224.5t188.5 150.5t281 53q150 0 263.5 -60.5t162.5 -162.5l-211 -139q-80 127 -229 127q-102 0 -162.5 -44.5t-60.5 -117.5 q0 -49 58 -97.5t216 -128.5q147 -76 215 -167t68 -213q0 -219 -152.5 -345t-419.5 -126q-161 0 -288 67.5t-191 185.5zM274 -553q10 12 46 48t65 77q-47 4 -77 35t-30 76q0 76 47 123t123 47q60 0 98.5 -37t38.5 -95q0 -84 -61 -182t-162 -172z" />
<glyph unicode="&#x219;" horiz-adv-x="903" d="M-4 174l184 113q27 -51 78 -82t113 -31q82 0 132 34t50 91q0 39 -35 70.5t-115 64.5q-147 61 -215.5 133t-68.5 162q0 145 110.5 230t300.5 85q121 0 214.5 -45t132.5 -125l-170 -112q-57 88 -181 88q-68 0 -106.5 -26.5t-38.5 -71.5q0 -33 35 -57.5t143 -69.5 q135 -57 197.5 -124t62.5 -151q0 -109 -58.5 -193.5t-162.5 -130.5t-240 -46q-133 0 -234 54t-128 140zM162 -553q10 12 46 48t65 77q-47 4 -77 35t-30 76q0 76 47 123t123 47q60 0 98.5 -37t38.5 -95q0 -84 -61 -182t-162 -172z" />
<glyph unicode="&#x21a;" horiz-adv-x="1208" d="M156 1217l39 217h1146l-38 -217h-426l-215 -1217h-295l215 1217h-426zM311 -553q10 12 46 48t65 77q-47 4 -77 35t-30 76q0 76 47 123t123 47q60 0 98.5 -37t38.5 -95q0 -84 -61 -182t-162 -172z" />
<glyph unicode="&#x21b;" horiz-adv-x="860" d="M82 829l35 195h186l45 264l266 74h9l-58 -338h297l-35 -195h-297l-86 -483q-4 -37 -4 -49q0 -121 140 -121q80 0 153 25l-18 -178q-98 -43 -252 -43q-139 0 -216 65.5t-77 185.5q0 35 6 74l92 524h-186zM242 -553q10 12 46 48t65 77q-47 4 -77 35t-30 76q0 76 47 123 t123 47q60 0 98.5 -37t38.5 -95q0 -84 -61 -182t-162 -172z" />
<glyph unicode="&#x237;" horiz-adv-x="567" d="M-293 -395l45 182q55 -6 129 -6q150 0 176 166l191 1077h260l-191 -1073q-33 -180 -133 -275.5t-284 -95.5q-111 0 -193 25z" />
<glyph unicode="&#x251;" horiz-adv-x="1110" d="M45 377q0 193 65.5 345t182.5 237t264 85q188 0 256 -124h4l19 104h258l-131 -752l-13 -71q-6 -37 -17 -101.5t-13 -99.5h-244q10 82 20 135h-4q-55 -72 -136 -113.5t-167 -41.5q-160 0 -252 107.5t-92 289.5zM305 393q0 -104 40 -158.5t118 -54.5q98 0 172 61.5 t92 166.5l37 210q4 33 4 48q0 80 -52 132t-134 52q-78 0 -141.5 -59.5t-99.5 -164t-36 -233.5z" />
<glyph unicode="&#x259;" horiz-adv-x="1110" d="M47 385q0 68 14 137l17 86h715q-2 106 -56.5 161.5t-161.5 55.5q-88 0 -160.5 -30.5t-148.5 -100.5l-119 133q78 100 204 158.5t265 58.5q203 0 321 -110.5t118 -300.5t-76 -339t-211 -231.5t-309 -82.5q-193 0 -302.5 109.5t-109.5 295.5zM293 418q-6 -111 43 -168 t151 -57q97 0 172.5 62t108.5 175h-475v-12z" />
<glyph unicode="&#x2bb;" horiz-adv-x="409" d="M195 1268q0 84 61 182t160 172l88 -80q-76 -76 -111 -125q49 -6 79 -35.5t30 -74.5q0 -76 -48 -123t-124 -47q-59 0 -97 36.5t-38 94.5z" />
<glyph unicode="&#x2bc;" horiz-adv-x="409" d="M211 1135q10 12 46 48t65 77q-47 6 -77 36.5t-30 75.5q0 76 47 122t123 46q59 0 98 -36t39 -93q0 -84 -62.5 -183.5t-160.5 -170.5z" />
<glyph unicode="&#x2be;" d="M109 1128l18 105q53 0 87 35t34 90q0 37 -23.5 60.5t-60.5 23.5l18 96q80 0 131.5 -49t51.5 -127q0 -104 -71 -169t-185 -65z" />
<glyph unicode="&#x2bf;" d="M-76 1307q0 102 72 166.5t184 64.5l-16 -102q-53 0 -87 -35t-34 -90q0 -39 23.5 -61.5t60.5 -22.5l-18 -99q-82 0 -133.5 49.5t-51.5 129.5z" />
<glyph unicode="&#x2c6;" horiz-adv-x="819" d="M170 1137l334 331h149l217 -331h-219l-92 159l-151 -159h-238z" />
<glyph unicode="&#x2c7;" horiz-adv-x="819" d="M229 1468h224l94 -159l149 159h234l-334 -331h-150z" />
<glyph unicode="&#x2c8;" d="M4 1188l64 368h231l-63 -368h-232z" />
<glyph unicode="&#x2c9;" horiz-adv-x="1075" d="M246 1245l33 178h839l-31 -178h-841z" />
<glyph unicode="&#x2ca;" d="M-113 1272l275 221q72 59 149 59q47 0 76 -23.5t29 -64.5q0 -94 -131 -161l-326 -164z" />
<glyph unicode="&#x2cb;" d="M-84 1421q0 57 42 94t103 37q37 0 71 -15t58 -42l195 -223l-119 -133l-268 164q-82 51 -82 118z" />
<glyph unicode="&#x2cc;" d="M-285 -451l64 369h233l-65 -369h-232z" />
<glyph unicode="&#x2d8;" horiz-adv-x="819" d="M238 1378q0 33 6 70h170q-2 -10 -2 -31q0 -55 34.5 -86t98.5 -31q74 0 121 39t61 109h180q-29 -152 -124 -231.5t-253 -79.5q-141 0 -216.5 62.5t-75.5 178.5z" />
<glyph unicode="&#x2d9;" horiz-adv-x="819" d="M403 1247q0 70 46.5 115t117.5 45q51 0 83 -30.5t32 -80.5q0 -72 -45 -115.5t-117 -43.5q-51 0 -84 30.5t-33 79.5z" />
<glyph unicode="&#x2da;" horiz-adv-x="819" d="M307 1307q0 123 82 200.5t209 77.5q94 0 151.5 -52t57.5 -136q0 -125 -81 -202t-210 -77q-92 0 -150.5 52.5t-58.5 136.5zM455 1329q0 -37 23.5 -60.5t60.5 -23.5q55 0 89 36t34 93q0 37 -24 59.5t-63 22.5q-53 0 -86.5 -35t-33.5 -92z" />
<glyph unicode="&#x2db;" horiz-adv-x="819" d="M39 -317q0 207 270 325h180q-125 -72 -189 -136.5t-64 -117.5q0 -29 23.5 -45t64.5 -16q39 0 131 33l16 -123q-47 -39 -109.5 -60.5t-125.5 -21.5q-95 0 -146 42t-51 120z" />
<glyph unicode="&#x2dc;" horiz-adv-x="819" d="M188 1137q21 123 90.5 190.5t161.5 67.5q41 0 73 -14.5t75 -43.5q31 -20 48 -29.5t36 -9.5q55 0 73 105h152q-23 -135 -91.5 -200.5t-156.5 -65.5q-43 0 -75.5 15t-77.5 44q-51 37 -80 37q-20 0 -41 -27.5t-31 -68.5h-156z" />
<glyph unicode="&#x2dd;" horiz-adv-x="819" d="M125 1137l270 360h252l-313 -360h-209zM489 1137l271 360h254l-316 -360h-209z" />
<glyph unicode="&#x300;" d="M-158 1468h254l115 -331h-209z" />
<glyph unicode="&#x301;" d="M6 1137l234 331h254l-279 -331h-209z" />
<glyph unicode="&#x302;" d="M-240 1137l334 331h150l217 -331h-217l-94 159l-150 -159h-240z" />
<glyph unicode="&#x303;" d="M-238 1137q19 123 91.5 190.5t164.5 67.5q41 0 74 -14.5t76 -43.5q29 -18 48.5 -28.5t37.5 -10.5q55 0 74 105h164q-18 -133 -88 -199.5t-168 -66.5q-41 0 -77 15t-81 44q-55 37 -80 37q-23 0 -43.5 -26.5t-28.5 -69.5h-164z" />
<glyph unicode="&#x304;" d="M-236 1171l31 170h701l-29 -170h-703z" />
<glyph unicode="&#x306;" d="M-174 1382q0 33 6 66h170q-2 -10 -2 -31q0 -55 35 -86t98 -31q74 0 122 39t62 109h181q-27 -152 -122 -231.5t-251 -79.5q-141 0 -220 64.5t-79 180.5z" />
<glyph unicode="&#x307;" d="M-6 1247q0 70 46 115t118 45q51 0 82.5 -30.5t31.5 -80.5q0 -72 -45 -115.5t-116 -43.5q-52 0 -84.5 30.5t-32.5 79.5z" />
<glyph unicode="&#x308;" d="M-221 1247q0 72 45 116t119 44q51 0 82.5 -30.5t31.5 -80.5q0 -70 -45 -114.5t-116 -44.5q-52 0 -84.5 30.5t-32.5 79.5zM211 1247q0 72 45 116t119 44q49 0 81.5 -30.5t32.5 -80.5q0 -70 -46 -114.5t-117 -44.5q-52 0 -83.5 30.5t-31.5 79.5z" />
<glyph unicode="&#x309;" d="M-86 1466q49 70 125 108t156 38q98 0 153 -45t55 -117q0 -68 -28.5 -107.5t-81.5 -82.5q-43 -37 -64.5 -61.5t-27.5 -61.5h-187q11 59 40.5 95t78.5 75q41 33 59.5 55t18.5 57q0 20 -15.5 31.5t-43.5 11.5q-78 0 -150 -102z" />
<glyph unicode="&#x30a;" d="M-74 1294q0 109 72 176.5t184 67.5q82 0 133.5 -46t51.5 -120q0 -106 -72 -175t-184 -69q-82 0 -133.5 46.5t-51.5 119.5zM43 1311q0 -37 23.5 -59.5t60.5 -22.5q53 0 88 34.5t35 92.5q0 37 -23.5 59.5t-62.5 22.5q-53 0 -87 -35t-34 -92z" />
<glyph unicode="&#x30b;" d="M-211 1137l234 331h253l-278 -331h-209zM147 1137l234 331h254l-279 -331h-209z" />
<glyph unicode="&#x30c;" d="M-180 1468h221l92 -159l152 159h235l-334 -331h-149z" />
<glyph unicode="&#x31b;" d="M-195 631l27 141q117 66 169 133.5t73 177.5l18 107h217l-18 -107q-20 -115 -89 -213t-172.5 -161.5t-224.5 -77.5z" />
<glyph unicode="&#x323;" d="M-281 -307q0 72 45.5 116t118.5 44q51 0 83 -31t32 -80q0 -70 -45 -115t-117 -45q-51 0 -84 31t-33 80z" />
<glyph unicode="&#x324;" d="M-498 -307q0 72 45 116t119 44q49 0 82 -31t33 -80q0 -70 -46 -115t-118 -45q-51 0 -83 31t-32 80zM-59 -307q0 72 45 116t118 44q51 0 83 -31t32 -80q0 -70 -45 -115t-117 -45q-51 0 -83.5 31t-32.5 80z" />
<glyph unicode="&#x326;" d="M-293 -553q10 12 46 48t65 77q-47 4 -77 35t-30 76q0 76 47 123t123 47q60 0 98.5 -37t38.5 -95q0 -84 -61 -182t-162 -172z" />
<glyph unicode="&#x327;" d="M-399 -453l49 113q57 -25 131 -25q43 0 70.5 21.5t27.5 54.5q0 27 -33.5 42.5t-91.5 10.5l-49 68l145 195h170l-120 -162q76 0 121 -37t45 -96q0 -96 -80 -162t-199 -66q-51 0 -104.5 12.5t-81.5 30.5z" />
<glyph unicode="&#x328;" d="M-414 -317q0 102 70 187t203 142h151l-2 -12q-106 -68 -164.5 -131.5t-58.5 -114.5q0 -29 22.5 -45t63.5 -16t133 33l16 -123q-45 -39 -108.5 -60.5t-126.5 -21.5q-96 0 -147.5 42t-51.5 120z" />
<glyph unicode="&#x32e;" d="M-455 -215q0 31 6 68h168q-2 -10 -2 -31q0 -57 34 -87t97 -30q74 0 122 39t63 109h182q-27 -152 -124 -232t-255 -80q-139 0 -215 63.5t-76 180.5z" />
<glyph unicode="&#x331;" d="M-496 -317l29 170h700l-28 -170h-701z" />
<glyph unicode="&#x394;" horiz-adv-x="1343" d="M-72 0l21 117l813 1317h147l344 -1317l-20 -117h-1305zM299 209h676l-193 817z" />
<glyph unicode="&#x3a9;" horiz-adv-x="1589" d="M-23 0l39 217h299q-82 76 -126 190.5t-44 251.5q0 233 101.5 413.5t283 281t416.5 100.5q186 0 322.5 -61.5t209 -176t72.5 -270.5q0 -205 -105.5 -407.5t-270.5 -321.5h296l-38 -217h-639l41 227q111 27 206 128.5t151 244.5t56 293q0 156 -86 241t-239 85 q-145 0 -257 -76t-172.5 -213t-60.5 -320q0 -156 59.5 -255t167.5 -126l-41 -229h-641z" />
<glyph unicode="&#x3bc;" horiz-adv-x="1148" d="M-66 -418l254 1442h263l-103 -580q-8 -47 -8 -92q0 -82 36 -122t109 -40q106 0 189.5 84t105.5 207l94 543h263l-133 -764q-18 -125 -31 -260h-246l-2 49q0 47 8 96h-4q-55 -84 -120.5 -124.5t-164.5 -40.5q-100 0 -170 57l-79 -455h-261z" />
<glyph unicode="&#x3c0;" horiz-adv-x="1357" d="M92 827l37 197h1262l-35 -197h-185l-98 -551q-2 -8 -2 -22q0 -59 68 -59q39 0 98 16l-33 -184q-104 -47 -207 -47q-94 0 -149 40.5t-55 124.5q0 14 4 48l112 634h-370l-148 -829h-260l145 829h-184z" />
<glyph unicode="&#xe01;" horiz-adv-x="1222" d="M45 0l84 475q14 74 63.5 134.5t118.5 88.5q-78 23 -202 37q16 135 98 240.5t211 165t287 59.5q133 0 233 -44t154.5 -123t54.5 -183q0 -35 -6 -72l-137 -778h-263l131 750q4 18 5 53q0 88 -56.5 140t-152.5 52q-94 0 -178 -41t-123 -106q68 -14 128 -38t95 -48l-12 -74 q-78 -27 -125 -78t-60 -123l-86 -487h-262z" />
<glyph unicode="&#xe02;" horiz-adv-x="1294" d="M80 799q0 119 55 210t156.5 141t236.5 50q162 0 258.5 -65.5t96.5 -178.5q0 -102 -32 -167.5t-95 -143.5q-47 -59 -72 -100t-35 -96l-28 -160q-2 -8 -3 -23q0 -41 28 -61.5t79 -20.5q59 0 94 27t43 78l158 891h262l-158 -889q-27 -152 -131 -231.5t-286 -79.5 q-166 0 -259.5 66.5t-93.5 184.5q0 29 6 60l25 139q10 68 43 117t88 106q63 68 95 122t32 138q0 57 -38 87t-103 30q-66 0 -113 -18q70 -2 113 -47t43 -111q0 -115 -75 -188.5t-194 -73.5q-86 0 -141 58.5t-55 148.5zM221 786q0 -33 20.5 -52t55.5 -19q49 0 79 30.5t30 77.5 q0 33 -20.5 52.5t-55.5 19.5q-49 0 -79 -30.5t-30 -78.5z" />
<glyph unicode="&#xe03;" horiz-adv-x="1343" d="M70 745q0 106 48 202.5t132 163.5t188 89l109 -104l147 104q102 -20 173 -89t71 -167q0 -104 -33 -169.5t-96 -139.5q-49 -57 -75.5 -99t-37.5 -102l-24 -145q-2 -8 -2 -25q0 -80 104 -80q59 0 95 27t44 78l156 891h262l-155 -889q-29 -152 -133.5 -231.5t-286.5 -79.5 q-166 0 -259.5 66.5t-93.5 184.5q0 29 7 60l20 123q12 70 45 122t90 119q66 76 98.5 134.5t32.5 140.5q0 66 -37 94l-133 -88l-112 86q-45 -23 -80 -84h12q78 0 127 -47t49 -123q0 -111 -71.5 -180.5t-186.5 -69.5q-86 0 -140 63.5t-54 163.5zM209 709q0 -33 20.5 -52.5 t55.5 -19.5q47 0 76.5 30.5t29.5 80.5q0 32 -20.5 51.5t-55.5 19.5q-47 0 -76.5 -30.5t-29.5 -79.5z" />
<glyph unicode="&#xe04;" horiz-adv-x="1277" d="M59 0l54 307q4 33 4 55q0 37 -8 132q-2 20 -6.5 72t-4.5 96q0 160 75 281.5t215 189t329 67.5q225 0 356 -89t131 -243q0 -33 -6 -69l-139 -799h-262l135 772q4 33 4 45q0 84 -61.5 131t-174.5 47q-147 0 -239 -70.5t-107 -199.5q-6 -45 -8 -99.5t-2 -70.5 q55 123 138 188.5t182 65.5q82 0 133 -43t51 -113q0 -102 -65.5 -166.5t-170.5 -64.5q-47 0 -86 17.5t-53 45.5q-41 -47 -73.5 -115.5t-43.5 -136.5l-43 -233h-254zM555 598q0 -29 19.5 -47.5t52.5 -18.5q43 0 70.5 29t27.5 74q0 29 -19.5 46t-50.5 17q-43 0 -71.5 -27.5 t-28.5 -72.5z" />
<glyph unicode="&#xe05;" horiz-adv-x="1286" d="M59 0l54 307q4 33 4 55q0 37 -8 132q-2 20 -6.5 72t-4.5 96q0 207 115 353t311 185l185 -141l235 141q123 -18 196.5 -105t73.5 -216q0 -45 -8 -84l-139 -795h-262l141 795q6 41 6 73q0 82 -49 123l-215 -119l-188 129q-66 -39 -99.5 -105.5t-46.5 -182.5 q-2 -18 -12 -150l-2 -45q59 119 141 182.5t178 63.5q82 0 133.5 -42t51.5 -110q0 -104 -65.5 -169.5t-172.5 -65.5q-45 0 -82 19.5t-53 47.5q-45 -49 -78 -114.5t-45 -130.5l-35 -199h-254zM551 553q0 -29 20.5 -47.5t49.5 -18.5q45 0 72.5 29t27.5 74q0 29 -19.5 46 t-50.5 17q-43 0 -71.5 -27.5t-28.5 -72.5z" />
<glyph unicode="&#xe06;" horiz-adv-x="1390" d="M70 745q0 104 47 200.5t131 164.5t186 90l105 -104l145 104q102 -18 173 -78.5t71 -158.5q0 -109 -33 -175.5t-94 -138.5q-43 -51 -65.5 -88t-30.5 -86l-7 -33q174 -41 260 -157l158 897h262l-209 -1182h-239q-18 72 -74.5 134.5t-134.5 98.5q-4 -113 -87 -183t-216 -70 q-100 0 -167 56t-67 144q0 119 72 191.5t190 77.5q12 57 40 99t79 99q63 72 95 130.5t32 146.5q0 68 -43 100l-129 -88l-106 86q-51 -31 -80 -84h12q78 0 127 -47t49 -123q0 -111 -71.5 -180.5t-186.5 -69.5q-88 0 -141 62.5t-53 164.5zM209 709q0 -33 20.5 -52.5 t55.5 -19.5q47 0 76.5 30.5t29.5 80.5q0 32 -20.5 51.5t-55.5 19.5q-47 0 -76.5 -30.5t-29.5 -79.5zM350 195q0 -33 20.5 -52.5t55.5 -19.5q49 0 80 30.5t31 79.5q0 33 -20.5 52.5t-55.5 19.5q-49 0 -80 -30.5t-31 -79.5z" />
<glyph unicode="&#xe07;" horiz-adv-x="987" d="M43 604l168 148l346 -461l82 469h-10q-84 0 -136.5 49t-52.5 127q0 117 80 190.5t205 73.5q98 0 156.5 -52t58.5 -138q0 -14 -4 -47l-170 -963h-260zM573 961q0 -33 21.5 -53.5t56.5 -20.5q49 0 79 30.5t30 79.5q0 33 -21.5 53.5t-54.5 20.5q-49 0 -80 -30.5t-31 -79.5z " />
<glyph unicode="&#xe08;" horiz-adv-x="1169" d="M96 834q16 111 92 193.5t198 127.5t273 45q201 0 324 -79t123 -212q0 -16 -4 -49l-111 -624q-23 -127 -107.5 -191.5t-238.5 -64.5q-129 0 -204.5 51t-73.5 143v162q-25 -4 -41 -4q-84 0 -138.5 49t-54.5 125q0 109 71.5 175.5t190.5 66.5q82 0 137.5 -45.5t57.5 -114.5 l2 -352q0 -27 16.5 -41.5t44.5 -14.5q66 0 78 62l105 587q2 8 2 27q0 63 -54.5 101t-146.5 38q-100 0 -177 -45t-106 -116h-258zM264 524q0 -29 20.5 -48t53.5 -19q47 0 75.5 29.5t28.5 74.5q0 29 -20.5 48.5t-52.5 19.5q-45 0 -75 -29t-30 -76z" />
<glyph unicode="&#xe09;" horiz-adv-x="1216" d="M68 500q0 106 70.5 173.5t185.5 67.5q84 0 135 -42t51 -109q0 -51 -14.5 -89t-40.5 -83q-35 -57 -41 -96l-15 -82q51 53 136.5 99t160.5 73q45 14 79 51t44 96l49 272q2 8 2 23q0 63 -57 102t-154 39q-106 0 -189 -45t-110 -119h-256q16 106 95.5 190.5t205 131.5 t277.5 47q133 0 235.5 -38t160 -106.5t57.5 -156.5q0 -18 -5 -51l-49 -279q-25 -121 -108 -188q35 -20 56.5 -60t21.5 -83q0 -115 -76 -186.5t-197 -71.5q-96 0 -156.5 50t-60.5 128v8q-115 -61 -199 -166h-245l41 242q12 55 45 98q-59 10 -97 53t-38 107zM197 522 q0 -29 20.5 -48t52.5 -19q45 0 74 29.5t29 74.5q0 29 -20.5 47.5t-53.5 18.5q-45 0 -73.5 -29t-28.5 -74zM713 180q0 -33 21.5 -53.5t53.5 -20.5q50 0 80.5 32t30.5 79q0 33 -21.5 52.5t-56.5 19.5q-47 0 -77.5 -31t-30.5 -78z" />
<glyph unicode="&#xe0a;" horiz-adv-x="1331" d="M80 799q0 119 55 210t156.5 141t236.5 50q154 0 247 -69.5t93 -184.5q0 -104 -29.5 -167.5t-86.5 -135.5q-45 -57 -69 -97t-34 -97l-28 -160l-3 -17q0 -41 33 -64.5t92 -23.5q66 0 107 27t49 78l78 430q4 33 4 43q0 41 -20.5 64.5t-67.5 37.5l22 127q86 35 134.5 94.5 t70.5 165.5h269q-29 -106 -100.5 -193t-141.5 -122q96 -39 96 -154q0 -31 -4 -49l-78 -442q-25 -150 -136.5 -230.5t-299.5 -80.5q-170 0 -269.5 67.5t-99.5 188.5q0 37 4 55l25 139q10 68 43 117t88 106q63 68 95 122t32 138q0 57 -38 87t-103 30q-66 0 -113 -18 q70 -2 113 -47t43 -111q0 -115 -75 -188.5t-194 -73.5q-86 0 -141 58.5t-55 148.5zM221 786q0 -33 20.5 -52t55.5 -19q49 0 80 30.5t31 79.5q0 31 -21.5 50.5t-56.5 19.5q-49 0 -79 -30.5t-30 -78.5z" />
<glyph unicode="&#xe0b;" horiz-adv-x="1366" d="M70 745q0 106 48 202.5t133 163.5t187 89l105 -104l145 104q104 -20 173 -81.5t69 -157.5q0 -113 -32 -180.5t-95 -147.5q-45 -55 -70.5 -97t-36.5 -102l-24 -145q-2 -8 -2 -23q0 -39 32.5 -60.5t83.5 -21.5q131 0 150 105l76 430q6 37 6 61q0 33 -15.5 52.5t-56.5 31.5 l23 127q82 35 123 93.5t65 166.5h268q-28 -106 -101 -193t-142 -122q98 -45 98 -156q0 -14 -4 -47l-78 -442q-53 -311 -430 -311q-170 0 -267.5 66.5t-97.5 186.5q0 27 7 58l20 123q12 70 44 121t91 120q66 78 96.5 133.5t30.5 135.5q0 70 -41 100l-129 -88l-108 86 q-45 -23 -80 -84h12q78 0 127 -47t49 -123q0 -111 -71.5 -180.5t-186.5 -69.5q-86 0 -140 63.5t-54 163.5zM209 709q0 -33 20.5 -52.5t55.5 -19.5q47 0 76.5 30.5t29.5 80.5q0 32 -20.5 51.5t-55.5 19.5q-47 0 -76.5 -30.5t-29.5 -79.5z" />
<glyph unicode="&#xe0c;" horiz-adv-x="1703" d="M37 160q0 45 17.5 89t47.5 79l27 147q12 72 60.5 132.5t121.5 90.5q-90 25 -202 37q16 137 95 242.5t203.5 164t278.5 58.5q195 0 308.5 -92t113.5 -250q0 -25 -8 -78l-64 -352q59 -16 122 -52t116 -85l156 891h262l-209 -1182h-232q-20 66 -71.5 123t-124.5 96 q-10 -109 -87 -174t-190 -65q-92 0 -150.5 53t-58.5 137q0 86 57.5 158.5t149.5 99.5l58 324q6 35 6 61q0 88 -49.5 135t-139.5 47q-92 0 -167.5 -38.5t-114.5 -108.5q150 -35 221 -86l-12 -74q-78 -27 -125 -78t-60 -123l-12 -69q61 -10 99 -56.5t38 -115.5 q0 -117 -76.5 -191.5t-199.5 -74.5q-90 0 -147.5 50t-57.5 130zM184 182q0 -33 21.5 -53t56.5 -20q47 0 79 31.5t32 78.5q0 33 -21.5 53.5t-56.5 20.5q-47 0 -79 -31t-32 -80zM713 197q0 -33 22.5 -53.5t57.5 -20.5q47 0 77.5 30.5t30.5 79.5q0 33 -21.5 52.5t-56.5 19.5 q-47 0 -78.5 -30.5t-31.5 -77.5z" />
<glyph unicode="&#xe0d;" horiz-adv-x="1738" d="M78 176q0 14 4 43l45 256q14 72 63.5 132.5t118.5 90.5q-100 25 -203 37q29 217 180.5 341t387.5 124q197 0 307.5 -89t110.5 -249q0 -27 -9 -84l-88 -489q-8 -49 30 -77t108 -28t117.5 28t56.5 77l157 891h262l-161 -912q-23 -133 -144 -210.5t-305 -77.5 q-172 0 -280.5 67.5t-108.5 181.5q0 12 4 41l86 480q6 35 6 63q0 86 -49 134t-135 48q-88 0 -160.5 -38.5t-111.5 -108.5q63 -14 123.5 -38t99.5 -48l-15 -74q-160 -59 -184 -201l-12 -67h10q84 0 137.5 -48t53.5 -126q0 -119 -80 -192.5t-205 -73.5q-100 0 -158.5 53 t-58.5 143zM258 182q0 -33 21.5 -53t56.5 -20q47 0 78.5 30.5t31.5 79.5q0 33 -21.5 52.5t-55.5 19.5q-49 0 -80 -31t-31 -78zM608 -358q0 104 65.5 168.5t172.5 64.5q78 0 127 -39t49 -102q0 -55 -21.5 -99.5t-58.5 -66.5q23 -6 45 -6q107 0 188.5 87t106.5 222h213 q-39 -215 -175 -336t-355 -121q-154 0 -255.5 64.5t-101.5 163.5zM735 -330q0 -28 17.5 -45.5t46.5 -17.5q41 0 66.5 26.5t25.5 67.5q0 27 -18.5 44t-47.5 17q-41 0 -65.5 -25.5t-24.5 -66.5z" />
<glyph unicode="&#xe0e;" horiz-adv-x="1273" d="M-70 -473q0 119 98.5 186.5t264.5 67.5q63 0 131 -23q20 41 42.5 66.5t53.5 46.5l125 -49q-31 -18 -51.5 -45t-40.5 -74q109 -63 164 -133l209 1180q6 31 6 55q0 88 -54.5 139t-148.5 51q-86 0 -165 -37.5t-122 -109.5q63 -14 129 -39t103 -47l-15 -74 q-88 -29 -125.5 -81t-37.5 -144v-55q0 -215 -80 -321.5t-244 -106.5q-90 0 -146.5 49t-56.5 127q0 117 72 190.5t184 73.5q27 0 45 -8q-4 33 -4 51q0 72 33 136.5t88 98.5q-66 20 -205 37q16 137 96 242.5t207 164t281 58.5q201 0 317.5 -93t116.5 -251q0 -25 -8 -78 l-252 -1425h-254q-20 61 -69.5 117.5t-114.5 99.5q-45 -104 -135.5 -165.5t-202.5 -61.5q-98 0 -166 50t-68 134zM102 -463q0 -29 22.5 -45t65.5 -16q54 0 100 40t79 113q-59 16 -115 17q-70 0 -111 -30t-41 -79zM104 182q0 -33 21.5 -53t56.5 -20q47 0 78 31.5t31 78.5 q0 33 -21.5 53.5t-54.5 20.5q-49 0 -80 -31t-31 -80z" />
<glyph unicode="&#xe0f;" horiz-adv-x="1273" d="M-133 -479q0 111 80 175t211 64q57 0 118 -20q51 98 150 145l100 -65q-104 -61 -135 -154q47 -45 80 -102l127 162l117 -164l209 1188q6 31 6 57q0 88 -55.5 138t-145.5 50q-86 0 -166 -37.5t-123 -109.5q70 -16 133.5 -39t98.5 -47l-15 -74q-86 -31 -123.5 -81 t-37.5 -144v-55q0 -217 -80 -322.5t-246 -105.5q-90 0 -146.5 49t-56.5 127q0 117 72 190.5t184 73.5q25 0 47 -8q-6 29 -6 51q0 70 34 135.5t87 99.5q-98 25 -205 37q16 137 96 242.5t207 164t281 58.5q203 0 318.5 -92t115.5 -250q0 -27 -8 -80l-252 -1425h-240l-118 188 l-138 -188q-51 94 -96 153q-39 -76 -109.5 -122t-154.5 -46q-100 0 -157.5 51.5t-57.5 131.5zM23 -473q0 -29 20 -45.5t57 -16.5q56 0 90.5 34t49.5 104q-43 25 -95 24q-55 0 -88.5 -27.5t-33.5 -72.5zM102 182q0 -33 21.5 -53t56.5 -20q47 0 79 31.5t32 78.5 q0 33 -21.5 53.5t-56.5 20.5q-49 0 -80 -31t-31 -80z" />
<glyph unicode="&#xe10;" horiz-adv-x="1173" d="M-164 -496q0 88 76 138.5t203 50.5q55 0 96 -15q23 70 51.5 117t77.5 72l121 -72q-45 -23 -74 -66.5t-61 -115.5q45 -39 90 -115l133 66l102 -74l15 84q-6 -2 -27 -2q-57 0 -92 31.5t-35 83.5q0 74 55.5 120t145.5 46q78 0 125 -33t47 -88q0 -12 -2 -21l-62 -346h-203 l-100 74l-156 -82q-55 104 -94 145q-43 -70 -104.5 -109.5t-157.5 -39.5q-78 0 -124 44t-46 107zM0 -477q0 -18 15.5 -29.5t41.5 -11.5q43 0 70 23.5t45 66.5q-33 12 -76 12t-69.5 -17.5t-26.5 -43.5zM86 457q0 113 76 184.5t196 71.5q86 0 137.5 -50.5t51.5 -132.5 q0 -12 -4 -45l-37 -217q-2 -6 -2 -16q0 -33 24.5 -50.5t63.5 -17.5q49 0 82 22.5t41 61.5l55 322q2 6 2 18q0 43 -51 64q-78 35 -261.5 71.5t-342.5 49.5q12 117 67.5 210t143.5 145t194 52q47 0 128 -12t153 -27q102 -18 123 -18q76 0 96 67l172 -41 q-29 -104 -102.5 -166.5t-184.5 -62.5q-45 0 -200 45q-55 16 -108.5 28.5t-80.5 12.5q-35 0 -62.5 -19.5t-41.5 -50.5q100 -10 249.5 -42.5t215.5 -57.5q80 -29 121.5 -75t41.5 -105q0 -20 -2 -31l-71 -407q-20 -119 -124 -188.5t-261 -69.5q-147 0 -240.5 60t-93.5 159 q0 14 4 39l10 55q-80 2 -129 47t-49 117zM217 487q0 -29 19.5 -48t52.5 -19q45 0 73.5 29.5t28.5 74.5q0 29 -19.5 48.5t-52.5 19.5q-45 0 -73.5 -30t-28.5 -75zM600 -297q0 -20 13.5 -32.5t33.5 -12.5q29 0 46.5 19.5t17.5 50.5q0 20 -12.5 33.5t-32.5 13.5 q-29 0 -47.5 -19.5t-18.5 -52.5z" />
<glyph unicode="&#xe11;" horiz-adv-x="1558" d="M70 745q0 106 46 202.5t127 163.5t185 89l109 -104l145 104q102 -18 162.5 -73.5t60.5 -147.5q0 -80 -25.5 -140.5t-76.5 -142.5q-43 -70 -66.5 -119t-34.5 -108q-10 -61 -21 -107.5t-34 -119.5l125 307l221 444q51 104 126 155.5t179 51.5q213 0 213 -186q0 -20 -8 -78 l-166 -936h-262l168 938q2 8 2 25q0 33 -28 32q-29 0 -52 -41l-530 -954h-277l72 414q14 74 45 134t88 148q53 82 79 134.5t26 107.5q0 51 -43 86l-111 -88l-100 86q-45 -23 -80 -84h12q78 0 127 -47t49 -123q0 -111 -71.5 -180.5t-184.5 -69.5q-88 0 -142 63.5t-54 163.5z M209 709q0 -33 20.5 -52.5t55.5 -19.5q47 0 76.5 30.5t29.5 80.5q0 32 -20.5 51.5t-55.5 19.5q-47 0 -76.5 -30.5t-29.5 -79.5z" />
<glyph unicode="&#xe12;" horiz-adv-x="1794" d="M61 0l54 297q2 12 2 45q0 35 -8 137q-10 150 -11 185q0 137 53.5 250.5t149.5 188.5t219 97l182 -141l230 141q123 -18 196.5 -108.5t73.5 -219.5q0 -37 -6 -77l-63 -367q59 -16 120.5 -52t110.5 -87l158 893h262l-209 -1182h-234q-20 68 -70 125t-122 96 q-10 -109 -87 -175t-192 -66q-90 0 -148 53t-58 135q0 86 58 157.5t148 100.5l66 369q8 57 8 75q0 78 -49 121l-211 -119l-184 129q-68 -41 -109 -127t-41 -196q0 -57 10 -133q2 -16 6.5 -58.5t4.5 -76.5q0 -8 -11 -97q31 29 105 82q14 10 33.5 23.5t42.5 32.5 q-49 8 -80 44.5t-31 90.5q0 98 66.5 159.5t173.5 61.5q74 0 120 -42t46 -110t-32 -122t-80 -96t-130 -103q-123 -90 -189.5 -161t-89.5 -173h-254zM547 604q0 -29 20.5 -47t48.5 -18q45 0 73 27.5t28 72.5q0 29 -19.5 47.5t-52.5 18.5q-43 0 -70.5 -28t-27.5 -73zM809 197 q0 -33 21.5 -53.5t56.5 -20.5q47 0 77.5 30.5t30.5 79.5q0 33 -20.5 52.5t-54.5 19.5q-49 0 -80 -30.5t-31 -77.5z" />
<glyph unicode="&#xe13;" horiz-adv-x="1810" d="M78 176q0 14 4 43l45 256q16 74 63.5 133.5t118.5 89.5q-90 23 -203 37q16 135 97.5 240.5t208.5 165t280 59.5q197 0 312.5 -93t115.5 -249q0 -25 -8 -78l-90 -512q80 90 192 138q106 49 150.5 87.5t52.5 92.5l105 596h262l-105 -590q-10 -60 -41.5 -108t-72.5 -70 q47 -20 76.5 -65.5t29.5 -92.5q0 -123 -79 -199.5t-203 -76.5q-88 0 -144.5 51t-56.5 133l4 41q-57 -29 -117.5 -83t-113.5 -122h-246l133 752q6 31 6 59q0 88 -51 136t-144 48q-96 0 -174.5 -40t-117.5 -107q139 -31 223 -86l-15 -74q-78 -27 -125 -78t-59 -123l-12 -67h10 q84 0 137.5 -48t53.5 -126q0 -119 -80 -192.5t-205 -73.5q-100 0 -158.5 53t-58.5 143zM258 182q0 -33 21.5 -53t56.5 -20q47 0 78.5 30.5t31.5 79.5q0 33 -21.5 52.5t-55.5 19.5q-49 0 -80 -31t-31 -78zM1333 182q0 -33 21.5 -53t54.5 -20q49 0 80 31.5t31 78.5 q0 33 -21.5 53.5t-54.5 20.5q-49 0 -80 -31t-31 -80z" />
<glyph unicode="&#xe14;" horiz-adv-x="1257" d="M61 0l54 303q4 25 4 47q0 35 -8 142q-10 154 -11 186q0 164 81 282.5t218.5 179t302.5 60.5q142 0 250.5 -44t169 -124t60.5 -186q0 -33 -6 -68l-140 -778h-260l135 764q4 29 4 43q0 86 -61 137t-166 51q-152 0 -241 -82t-89 -235q0 -39 2 -69.5t5 -51.5q8 -82 8 -123 q0 -33 -13 -115q31 31 125 103l60 45q-53 6 -88 45t-35 96q0 98 65.5 162t167.5 64q76 0 125 -44.5t49 -111.5q0 -66 -31.5 -121t-77.5 -99t-126 -108q-121 -96 -188.5 -171t-90.5 -179h-254zM541 629q0 -29 19.5 -47.5t49.5 -18.5q45 0 73 29t28 74q0 29 -19.5 46t-52.5 17 q-43 0 -70.5 -27.5t-27.5 -72.5z" />
<glyph unicode="&#xe15;" horiz-adv-x="1286" d="M61 0l54 303q2 12 2 43q0 33 -8 135q-10 150 -11 183q0 205 114 351t310 185l185 -141l237 141q123 -18 196.5 -105t73.5 -216q0 -27 -8 -84l-139 -795h-262l141 795q6 41 6 73q0 82 -49 123l-215 -119l-188 129q-70 -41 -110 -127t-40 -196q0 -61 10 -137q8 -90 9 -131 q0 -33 -11 -99q23 20 55.5 46t47.5 36q61 45 71 53q-47 8 -74.5 43t-27.5 86q0 98 65.5 160t172.5 62q74 0 121 -42t47 -112q0 -66 -32 -119t-78 -94t-128 -98q-123 -88 -191.5 -158t-91.5 -174h-254zM547 592q0 -29 19.5 -46.5t49.5 -17.5q45 0 73 28t28 73q0 29 -19.5 47 t-50.5 18q-45 0 -72.5 -28.5t-27.5 -73.5z" />
<glyph unicode="&#xe16;" horiz-adv-x="1224" d="M78 176q0 14 4 43l45 256q14 72 63.5 132.5t118.5 90.5q-82 20 -203 37q16 135 98.5 240.5t212.5 165t288 59.5q202 0 322 -95t120 -253q0 -37 -6 -74l-135 -778h-263l134 750q4 18 4 51q0 88 -57.5 141t-153.5 53t-180 -41t-123 -106q141 -31 223 -86l-15 -74 q-78 -27 -125 -78t-59 -123l-12 -67h10q84 0 137.5 -48t53.5 -126q0 -119 -80 -192.5t-205 -73.5q-100 0 -158.5 53t-58.5 143zM258 182q0 -33 21.5 -53t56.5 -20q47 0 78.5 30.5t31.5 79.5q0 33 -21.5 52.5t-55.5 19.5q-49 0 -80 -31t-31 -78z" />
<glyph unicode="&#xe17;" horiz-adv-x="1388" d="M106 936q0 117 80 190.5t205 73.5q98 0 156.5 -52t58.5 -138q0 -14 -4 -47l-82 -471q-8 -49 -21.5 -103.5t-37.5 -138.5l123 301l225 444q51 104 124 154.5t169 50.5q112 0 174.5 -54t62.5 -153q0 -27 -6 -61l-164 -932h-262l164 928q2 8 2 22q0 43 -33 43q-39 0 -59 -39 l-537 -954h-272l133 760h-10q-84 0 -136.5 49t-52.5 127zM240 961q0 -33 21.5 -53.5t53.5 -20.5q50 0 80.5 31.5t30.5 78.5q0 33 -21.5 53.5t-54.5 20.5q-49 0 -79.5 -30.5t-30.5 -79.5z" />
<glyph unicode="&#xe18;" horiz-adv-x="1196" d="M84 223q0 12 4 37l62 361h260l-58 -330q-10 -49 34 -77t132 -28t140.5 28t62.5 77l47 268q4 20 4 31q0 29 -27.5 47t-103.5 35q-86 18 -244.5 40.5t-271.5 26.5q27 215 147.5 338t298.5 123q57 0 103.5 -9t111.5 -28q88 -27 129 -26q80 0 109 67l172 -47 q-96 -227 -281 -227q-35 0 -70.5 8t-88.5 25q-53 16 -89 24t-73 8q-57 0 -100 -24.5t-54 -63.5q127 -10 258 -34.5t209 -51.5q74 -25 105.5 -59.5t31.5 -91.5q0 -12 -4 -49l-63 -361q-20 -129 -148.5 -203.5t-326.5 -74.5q-187 0 -302.5 65.5t-115.5 175.5z" />
<glyph unicode="&#xe19;" horiz-adv-x="1331" d="M106 936q0 117 80 190.5t205 73.5q98 0 156.5 -51t58.5 -137q0 -33 -4 -49l-123 -701q49 57 240 139q113 49 161 89t58 96l104 596h263l-105 -590q-12 -60 -43 -107t-72 -71q47 -20 77 -65.5t30 -92.5q0 -123 -79 -199.5t-206 -76.5q-88 0 -143 51t-55 133l4 45 q-84 -35 -163 -90.5t-130 -118.5h-248l133 760h-10q-84 0 -136.5 49t-52.5 127zM240 961q0 -33 21.5 -53.5t53.5 -20.5q50 0 80.5 31.5t30.5 78.5q0 33 -21.5 53.5t-54.5 20.5q-49 0 -79.5 -30.5t-30.5 -79.5zM854 182q0 -33 21.5 -53t54.5 -20q49 0 79.5 31.5t30.5 78.5 q0 33 -21.5 53.5t-55.5 20.5q-47 0 -78 -31t-31 -80z" />
<glyph unicode="&#xe1a;" horiz-adv-x="1333" d="M106 936q0 117 80 190.5t205 73.5q98 0 156.5 -51t58.5 -137q0 -33 -4 -49l-115 -658q-2 -6 -2 -18q0 -47 51.5 -75t141.5 -28q94 0 156.5 33t70.5 88l156 877h262l-164 -916q-23 -135 -154 -210.5t-346 -75.5q-205 0 -325.5 66.5t-120.5 180.5q0 14 4 39l88 494h-10 q-84 0 -136.5 49t-52.5 127zM240 961q0 -33 21.5 -53.5t53.5 -20.5q50 0 80.5 31.5t30.5 78.5q0 33 -21.5 53.5t-54.5 20.5q-49 0 -79.5 -30.5t-30.5 -79.5z" />
<glyph unicode="&#xe1b;" horiz-adv-x="1370" d="M106 936q0 117 80 190.5t205 73.5q98 0 156.5 -51t58.5 -137q0 -33 -4 -49l-115 -656q-2 -6 -2 -16q0 -49 55.5 -78t153.5 -29q104 0 171 33t77 90l242 1368h262l-250 -1409q-25 -135 -160 -210.5t-360 -75.5q-211 0 -337 67.5t-126 181.5q0 12 4 37l88 494h-10 q-84 0 -136.5 49t-52.5 127zM240 961q0 -33 21.5 -53.5t53.5 -20.5q50 0 80.5 31.5t30.5 78.5q0 33 -21.5 53.5t-54.5 20.5q-49 0 -79.5 -30.5t-30.5 -79.5z" />
<glyph unicode="&#xe1c;" horiz-adv-x="1329" d="M39 0l168 963q20 106 102 171.5t193 65.5q92 0 150.5 -50t58.5 -130q0 -115 -75 -187.5t-192 -72.5h-12l-67 -398l233 275h178l135 -275l146 818h262l-209 -1180h-248l-196 436l-351 -436h-276zM389 961q0 -33 21.5 -53.5t56.5 -20.5q47 0 79 31.5t32 78.5 q0 33 -21.5 53.5t-56.5 20.5q-49 0 -80 -30.5t-31 -79.5z" />
<glyph unicode="&#xe1d;" horiz-adv-x="1329" d="M39 0l168 963q20 106 102 171.5t193 65.5q92 0 150.5 -50t58.5 -130q0 -115 -75 -187.5t-192 -72.5h-12l-67 -398l233 275h178l135 -275l232 1313h262l-295 -1675h-248l-196 436l-351 -436h-276zM389 961q0 -33 21.5 -53.5t56.5 -20.5q47 0 79 31.5t32 78.5 q0 33 -21.5 53.5t-56.5 20.5q-49 0 -80 -30.5t-31 -79.5z" />
<glyph unicode="&#xe1e;" horiz-adv-x="1513" d="M106 936q0 117 80 190.5t205 73.5q98 0 156.5 -51t58.5 -137q0 -33 -4 -49l-76 -433q-12 -61 -39 -168l74 177l275 632h190l72 -632l12 -177q8 109 18 168l115 650h258l-209 -1180h-286l-117 874l-426 -874h-289l133 760h-12q-84 0 -136.5 49t-52.5 127zM240 961 q0 -33 21.5 -53.5t53.5 -20.5q50 0 80.5 31.5t30.5 78.5q0 33 -21.5 53.5t-54.5 20.5q-49 0 -79.5 -30.5t-30.5 -79.5z" />
<glyph unicode="&#xe1f;" horiz-adv-x="1513" d="M106 936q0 117 80 190.5t205 73.5q98 0 156.5 -51t58.5 -137q0 -33 -4 -49l-76 -433q-12 -61 -39 -168l74 177l275 632h190l72 -632l12 -177q8 109 18 168l203 1145h258l-297 -1675h-286l-117 874l-426 -874h-289l133 760h-12q-84 0 -136.5 49t-52.5 127zM240 961 q0 -33 21.5 -53.5t53.5 -20.5q50 0 80.5 31.5t30.5 78.5q0 33 -21.5 53.5t-54.5 20.5q-49 0 -79.5 -30.5t-30.5 -79.5z" />
<glyph unicode="&#xe20;" horiz-adv-x="1290" d="M-33 156q0 117 72 190.5t186 73.5q27 0 45 -8q-4 33 -4 51q0 74 33 137.5t86 97.5q-96 25 -203 37q16 135 96 240.5t209 165t285 59.5q203 0 322.5 -91t119.5 -251q0 -23 -8 -80l-135 -778h-262l133 750q4 18 4 55q0 90 -55 140t-154 50q-88 0 -172 -37.5t-125 -109.5 q66 -16 130.5 -40t101.5 -46l-15 -74q-86 -31 -123.5 -81t-37.5 -144v-55q0 -221 -81 -324.5t-245 -103.5q-90 0 -146.5 49t-56.5 127zM102 182q0 -33 22.5 -53t57.5 -20q47 0 78 31.5t31 78.5q0 33 -21.5 53.5t-56.5 20.5q-49 0 -80 -31t-31 -80z" />
<glyph unicode="&#xe21;" horiz-adv-x="1290" d="M12 174q0 117 76 192.5t201 84.5l53 309h-10q-84 0 -136.5 49t-52.5 125q0 119 79 192.5t206 73.5q100 0 157.5 -51t57.5 -137q0 -33 -4 -49l-94 -541q84 -31 169 -73t140 -87l162 920h260l-207 -1184h-227q-59 63 -140 115.5t-165 85.5q-18 -100 -101.5 -159.5 t-206.5 -59.5q-94 0 -155.5 55t-61.5 139zM162 197q0 -33 21.5 -53.5t56.5 -20.5q49 0 80.5 31.5t31.5 81.5q0 33 -22.5 52t-57.5 19q-47 0 -78.5 -30.5t-31.5 -79.5zM276 961q0 -33 21.5 -53.5t56.5 -20.5q47 0 78 31.5t31 78.5q0 33 -21.5 53.5t-56.5 20.5 q-47 0 -78 -30.5t-31 -79.5z" />
<glyph unicode="&#xe22;" horiz-adv-x="1202" d="M63 252q0 16 5 45l20 115q25 131 166 194q-104 57 -104 205q0 113 44 202t121.5 138t178.5 49q88 0 144 -46t56 -118q0 -109 -71.5 -177t-186.5 -68q-25 0 -43 6q-4 -53 20.5 -77t67.5 -24h221l-34 -188h-222q-37 0 -62.5 -24.5t-33.5 -63.5l-16 -98q-2 -8 -2 -25 q0 -53 52 -83t148 -30q104 0 169 36t75 102l154 858h260l-156 -883q-27 -150 -162 -233.5t-358 -83.5q-201 0 -326 73.5t-125 198.5zM377 979q0 -33 20.5 -52.5t55.5 -19.5q47 0 76.5 31t29.5 78q0 33 -20.5 52t-55.5 19q-47 0 -76.5 -30.5t-29.5 -77.5z" />
<glyph unicode="&#xe23;" horiz-adv-x="1019" d="M92 750q27 211 136.5 330.5t267.5 119.5q55 0 98 -9t94 -26q31 -10 60.5 -17t56.5 -7q31 0 60.5 19.5t43.5 49.5l172 -55q-45 -104 -116.5 -164.5t-149.5 -60.5q-35 0 -65.5 8t-75.5 25q-47 16 -80 24t-70 8q-45 0 -83 -24.5t-46 -63.5q238 -23 368 -88t130 -160 q0 -16 -2 -24l-74 -416q-18 -106 -100 -172.5t-195 -66.5q-90 0 -148.5 50t-58.5 130q0 115 75 187.5t192 72.5h8l31 172q10 59 -156 103t-373 55zM449 182q0 -33 21.5 -53t55.5 -20q47 0 78 31.5t31 78.5q0 33 -21.5 53.5t-56.5 20.5q-47 0 -77.5 -31t-30.5 -80z" />
<glyph unicode="&#xe24;" horiz-adv-x="1224" d="M78 176q0 14 4 43l45 256q14 72 63.5 132.5t118.5 90.5q-82 20 -203 37q16 135 98.5 240.5t212.5 165t288 59.5q133 0 233 -44t154.5 -123t54.5 -181q0 -37 -6 -74l-226 -1290h-262l224 1262q4 18 4 51q0 88 -57.5 141t-153.5 53t-180 -41t-123 -106q141 -31 223 -86 l-15 -74q-78 -27 -125 -78t-59 -123l-12 -67h10q84 0 137.5 -48t53.5 -126q0 -119 -80 -192.5t-205 -73.5q-100 0 -158.5 53t-58.5 143zM258 182q0 -33 21.5 -53t56.5 -20q47 0 78.5 30.5t31.5 79.5q0 33 -21.5 52.5t-55.5 19.5q-49 0 -80 -31t-31 -78z" />
<glyph unicode="&#xe25;" horiz-adv-x="1228" d="M76 170q0 33 4 49l43 242q29 152 160 247t317 95q86 0 162 -25.5t110 -66.5l25 131q2 8 2 20q0 61 -61.5 97t-165.5 36q-111 0 -195 -44t-110 -117h-254q27 168 183.5 267t393.5 99q215 0 342 -84t127 -225q0 -37 -4 -55l-145 -836h-262l79 449q2 8 2 24q0 63 -56 103 t-146 40q-96 0 -163 -42t-79 -111l-8 -43h8q84 0 137 -48t53 -126q0 -119 -79.5 -192.5t-204.5 -73.5q-98 0 -156.5 52t-58.5 138zM254 182q0 -33 21.5 -53t56.5 -20q47 0 78.5 31.5t31.5 78.5q0 33 -21.5 53.5t-55.5 20.5q-47 0 -79 -31t-32 -80z" />
<glyph unicode="&#xe26;" horiz-adv-x="1273" d="M-33 156q0 117 72 190.5t186 73.5q27 0 45 -8q-4 33 -4 51q0 74 34 138.5t85 96.5q-98 25 -203 37q16 135 95 241.5t205 165t282 58.5q201 0 317.5 -92t116.5 -250q0 -27 -8 -80l-227 -1290h-261l222 1262q6 31 6 57q0 88 -53.5 138t-147.5 50q-88 0 -167 -36.5 t-122 -110.5q66 -16 130.5 -40t101.5 -46l-15 -74q-86 -31 -123.5 -81t-37.5 -144v-55q0 -221 -81 -324.5t-245 -103.5q-90 0 -146.5 49t-56.5 127zM102 182q0 -33 22.5 -53t57.5 -20q47 0 78 31.5t31 78.5q0 33 -21.5 53.5t-56.5 20.5q-49 0 -80 -31t-31 -80z" />
<glyph unicode="&#xe27;" horiz-adv-x="1095" d="M82 799q27 186 170 293.5t360 107.5q197 0 306.5 -80t109.5 -223q0 -31 -6 -66l-109 -612q-20 -106 -102 -172.5t-195 -66.5q-92 0 -149 50t-57 130q0 115 74.5 187.5t191.5 72.5h10l72 397q4 29 4 41q0 68 -43 102.5t-127 34.5q-92 0 -157.5 -52t-92.5 -144h-260z M543 182q0 -33 21.5 -53t56.5 -20q49 0 78.5 30.5t29.5 79.5q0 33 -21.5 53.5t-54.5 20.5q-49 0 -79.5 -31t-30.5 -80z" />
<glyph unicode="&#xe28;" horiz-adv-x="1277" d="M59 0l54 307q4 33 4 55q0 37 -8 132q-2 20 -6.5 72t-4.5 96q0 160 75 281.5t214 189t328 67.5q154 0 272 -45q41 63 66 139h286q-49 -129 -186 -262q51 -70 51 -166q0 -33 -6 -67l-141 -799h-260l135 772q4 16 4 45q0 27 -4 39q-78 -49 -141 -84q57 -47 57 -117 q0 -102 -65.5 -167.5t-172.5 -65.5q-47 0 -85 17.5t-52 45.5q-41 -47 -73.5 -115.5t-43.5 -136.5l-43 -233h-254zM344 555q47 104 115.5 167.5t150.5 80.5q131 92 217 172q-57 20 -127 20q-147 0 -239 -70.5t-107 -199.5q-6 -45 -8 -99.5t-2 -70.5zM555 598 q0 -29 19.5 -47.5t52.5 -18.5q43 0 70.5 29t27.5 74q0 29 -19.5 46t-50.5 17q-43 0 -71.5 -27.5t-28.5 -72.5z" />
<glyph unicode="&#xe29;" horiz-adv-x="1470" d="M106 936q0 117 80 190.5t205 73.5q98 0 156.5 -51t58.5 -137q0 -33 -4 -49l-115 -658q-10 -55 49.5 -88t168.5 -33t177 32t79 89l20 121q-18 -2 -57 -2q-150 0 -242 62.5t-92 164.5q0 100 65.5 165t167.5 65q74 0 121 -40t47 -102q0 -49 -18.5 -89t-48.5 -62q29 -4 45 -4 q27 0 41 2l104 596h262l-82 -459q66 59 115 139l119 -108q-103 -160 -271 -248l-43 -240q-25 -135 -160.5 -210.5t-367.5 -75.5q-215 0 -344 67.5t-129 181.5q0 12 4 37l88 494h-10q-84 0 -136.5 49t-52.5 127zM240 961q0 -33 21.5 -53.5t53.5 -20.5q50 0 80.5 31.5 t30.5 78.5q0 33 -21.5 53.5t-54.5 20.5q-49 0 -79.5 -30.5t-30.5 -79.5zM713 678q0 -29 17.5 -46.5t43.5 -17.5q41 0 66.5 27t25.5 68q0 29 -18.5 46t-46.5 17q-39 0 -63.5 -26.5t-24.5 -67.5z" />
<glyph unicode="&#xe2a;" horiz-adv-x="1228" d="M76 170q0 33 4 49l43 238q20 123 118.5 205.5t241.5 109.5q176 113 289 213q-47 10 -100 10q-111 0 -195 -44t-110 -117h-254q27 166 183.5 266t393.5 100q143 0 254 -41q53 72 74 135h280q-38 -121 -188 -250q49 -63 49 -153q0 -37 -4 -55l-145 -836h-262l77 428 q2 8 2 27q0 66 -57 104.5t-145 38.5q-98 0 -163 -36t-79 -103l-6 -39h8q84 0 137 -48t53 -126q0 -119 -79.5 -192.5t-204.5 -73.5q-98 0 -156.5 52t-58.5 138zM254 182q0 -33 21.5 -53t56.5 -20q47 0 78.5 31.5t31.5 78.5q0 33 -21.5 53.5t-55.5 20.5q-47 0 -79 -31t-32 -80 zM698 776q113 -18 172 -84l27 150l2 20q0 10 -4 27q-88 -55 -197 -113z" />
<glyph unicode="&#xe2b;" horiz-adv-x="1320" d="M106 936q0 117 80 190.5t205 73.5q98 0 156.5 -51t58.5 -137q0 -33 -4 -49l-74 -420q-14 -82 -53 -207l275 385q35 43 63.5 69.5t60.5 40.5q-35 45 -34 109q0 115 73.5 187.5t190.5 72.5q84 0 137 -49t53 -127q0 -70 -28.5 -126t-81.5 -91q35 -45 35 -117q0 -14 -5 -47 l-112 -643h-262l108 610q2 10 2 27q0 37 -30 37q-29 0 -66 -51l-451 -623h-231l133 760h-10q-84 0 -136.5 49t-52.5 127zM240 961q0 -33 21.5 -53.5t53.5 -20.5q50 0 80.5 31.5t30.5 78.5q0 33 -21.5 53.5t-54.5 20.5q-49 0 -79.5 -30.5t-30.5 -79.5zM973 961 q0 -33 21.5 -53.5t56.5 -20.5q47 0 78.5 31.5t31.5 78.5q0 33 -21.5 53.5t-56.5 20.5q-47 0 -78.5 -30.5t-31.5 -79.5z" />
<glyph unicode="&#xe2c;" horiz-adv-x="1513" d="M106 936q0 117 80 190.5t205 73.5q98 0 156.5 -52t58.5 -138q0 -14 -4 -47l-82 -469q-10 -53 -43 -187l293 477h188l142 -477q10 104 22 187l54 311h-11q-84 0 -137 48t-53 126q0 119 79 192.5t206 73.5q41 0 67 -8q45 39 55 96h248q-39 -135 -164 -223q8 -23 9 -55 q0 -14 -5 -47l-178 -1008h-303l-155 563l-355 -563h-305l133 760h-12q-84 0 -136.5 49t-52.5 127zM240 961q0 -33 21.5 -53.5t53.5 -20.5q50 0 80.5 31.5t30.5 78.5q0 33 -21.5 53.5t-54.5 20.5q-49 0 -79.5 -30.5t-30.5 -79.5zM1108 1006q0 -33 21.5 -53.5t56.5 -20.5 q47 0 78.5 31.5t31.5 78.5q0 33 -21.5 53.5t-55.5 20.5q-49 0 -80 -30.5t-31 -79.5z" />
<glyph unicode="&#xe2d;" horiz-adv-x="1230" d="M125 834q18 109 98 191.5t204 128.5t275 46q138 0 242.5 -39t161.5 -108.5t57 -161.5q0 -37 -4 -55l-98 -549q-25 -145 -157 -226t-345 -81q-199 0 -314.5 70.5t-115.5 191.5q0 12 4 45l47 266q16 104 97 169.5t194 65.5q90 0 147.5 -48t57.5 -126q0 -115 -73 -185.5 t-189 -70.5h-11l-10 -57q-8 -53 43 -85t146 -32q98 0 156.5 35t66.5 98l90 508q2 8 2 27q0 66 -58.5 104.5t-156.5 38.5q-109 0 -192.5 -44t-110.5 -117h-254zM362 555q0 -33 20.5 -52.5t55.5 -19.5q47 0 77 30t30 79q0 31 -21.5 50.5t-54.5 19.5q-47 0 -77 -30t-30 -77z " />
<glyph unicode="&#xe2e;" horiz-adv-x="1196" d="M74 242q0 14 4 47l41 233q20 104 101 170t190 66q90 0 147 -49.5t57 -126.5q0 -113 -72.5 -183.5t-189.5 -70.5h-10l-4 -27q-8 -53 42 -85t146 -32q98 0 157.5 35t70.5 98l86 502q-129 -35 -279 -35q-176 0 -275.5 47.5t-99.5 131.5q0 109 125 173t336 64 q106 0 194.5 -26.5t147.5 -75.5q33 43 45 108h232q-33 -155 -170 -264q10 -31 10 -78q0 -37 -4 -55l-92 -520q-27 -145 -159 -227t-345 -82q-201 0 -316.5 70.5t-115.5 191.5zM299 522q0 -31 21.5 -51t54.5 -20q47 0 76.5 30.5t29.5 77.5q0 33 -20.5 52.5t-52.5 19.5 q-48 0 -78.5 -30t-30.5 -79zM414 987q-1 -43 157 -43q143 0 252 35q-53 74 -200 74q-90 0 -149.5 -18.5t-59.5 -47.5z" />
<glyph unicode="&#xe2f;" horiz-adv-x="1175" d="M115 926q0 123 78.5 198.5t207.5 75.5q92 0 150.5 -50t58.5 -130q0 -35 -12 -76q123 72 178 236h193q75 0 120.5 -40t45.5 -108q0 -10 -5 -39l-176 -993h-260l164 928v6q0 31 -31 33q-86 -113 -209.5 -181.5t-250.5 -68.5q-115 0 -183.5 58.5t-68.5 150.5zM268 961 q0 -33 21.5 -53.5t56.5 -20.5q47 0 78 31.5t31 78.5q0 33 -21.5 53.5t-56.5 20.5q-47 0 -78 -30.5t-31 -79.5z" />
<glyph unicode="&#xe30;" horiz-adv-x="1122" d="M45 272q0 121 82 197t211 76q90 0 147.5 -53.5t57.5 -137.5q0 -35 -12.5 -72.5t-34.5 -66.5q122 25 195 103.5t100 232.5h262q-29 -156 -117 -274.5t-221 -185t-289 -66.5q-172 0 -276.5 68.5t-104.5 178.5zM156 889q0 121 80.5 196.5t209.5 75.5q90 0 148.5 -53 t58.5 -135q0 -35 -13 -73t-36 -69q121 23 194.5 103t102.5 233h260q-29 -156 -117 -274.5t-220 -184t-287 -65.5q-175 0 -278 67.5t-103 178.5zM205 299q0 -33 20.5 -52.5t55.5 -19.5q47 0 77.5 32t30.5 79q0 33 -21.5 52.5t-56.5 19.5q-47 0 -76.5 -31t-29.5 -80zM313 918 q0 -33 20.5 -52.5t55.5 -19.5q47 0 78 30.5t31 77.5q0 33 -20.5 52.5t-55.5 19.5q-47 0 -78 -30.5t-31 -77.5z" />
<glyph unicode="&#xe31;" d="M-623 1620q0 115 74 185.5t193 70.5q84 0 136 -47t52 -123q0 -102 -61 -174q166 2 285.5 103.5t148.5 262.5h211q-29 -152 -121 -269.5t-231.5 -183t-307.5 -65.5t-273.5 66.5t-105.5 173.5zM-489 1649q0 -33 22.5 -53.5t56.5 -20.5q47 0 78 30.5t31 80.5q0 31 -21.5 50 t-56.5 19q-49 0 -79.5 -29.5t-30.5 -76.5z" />
<glyph unicode="&#xe32;" horiz-adv-x="1044" d="M82 799q20 186 152.5 293.5t345.5 107.5q186 0 292.5 -75.5t106.5 -209.5q0 -29 -6 -63l-150 -852h-260l148 836q2 12 2 32q0 59 -39 93t-111 34q-92 0 -153.5 -52t-77.5 -144h-250z" />
<glyph unicode="&#xe33;" horiz-adv-x="1044" d="M-342 1554q0 133 87 218.5t226 85.5q102 0 167 -57.5t65 -149.5q0 -133 -89 -217t-229 -84q-100 0 -163.5 57t-63.5 147zM-188 1579q0 -41 25.5 -66.5t70.5 -25.5q57 0 98 40t41 99q0 41 -26.5 66.5t-71.5 25.5q-57 0 -97 -39t-40 -100zM82 799q20 186 152.5 293.5 t345.5 107.5q186 0 292.5 -75.5t106.5 -209.5q0 -29 -6 -63l-150 -852h-260l148 836q2 12 2 32q0 59 -39 93t-111 34q-92 0 -153.5 -52t-77.5 -144h-250z" />
<glyph unicode="&#xe34;" d="M-956 1448q16 125 89.5 219t190.5 146.5t258 52.5q213 0 333 -114t120 -316q0 -47 -6 -101q-123 56 -343.5 92.5t-424.5 36.5q-119 0 -217 -16zM-698 1587q29 2 94 2q119 0 238.5 -16.5t209.5 -44.5q-24 90 -93.5 138t-174.5 48q-92 0 -167 -33.5t-107 -93.5z" />
<glyph unicode="&#xe35;" d="M-956 1448q16 125 89.5 219t190.5 146.5t258 52.5q180 0 293 -82l31 170h217l-88 -504q2 -53 -6 -115q-123 55 -343.5 92t-424.5 37q-119 0 -217 -16zM-698 1587q29 2 94 2q119 0 238.5 -16.5t209.5 -44.5q-25 90 -94 138t-174 48q-92 0 -167 -33.5t-107 -93.5z" />
<glyph unicode="&#xe36;" d="M-956 1448q16 125 89.5 219t190.5 146.5t258 52.5q133 0 234 -47q18 74 75.5 116.5t137.5 42.5q70 0 113.5 -41t43.5 -104q0 -86 -49 -144.5t-133 -70.5q31 -80 31 -182q0 -47 -6 -101q-123 55 -343.5 92t-424.5 37q-119 0 -217 -16zM-698 1587q29 2 94 2 q119 0 238.5 -16.5t209.5 -44.5q-25 90 -94 138t-174 48q-92 0 -167 -33.5t-107 -93.5zM-76 1782q0 -25 16.5 -41.5t43.5 -16.5q39 0 62.5 25t23.5 63q0 25 -16.5 41.5t-43.5 16.5q-39 0 -62.5 -24.5t-23.5 -63.5z" />
<glyph unicode="&#xe37;" d="M-956 1448q16 125 89.5 219t190.5 146.5t258 52.5q27 0 80 -4l16 92h166l-24 -137q59 -29 100 -70l37 207h166l-88 -504q2 -53 -6 -115q-123 55 -343.5 92t-424.5 37q-119 0 -217 -16zM-698 1587q29 2 94 2q119 0 238.5 -16.5t209.5 -44.5q-25 90 -94 138t-174 48 q-92 0 -167 -33.5t-107 -93.5z" />
<glyph unicode="&#xe38;" d="M-737 -360q0 104 72.5 170.5t187.5 66.5q94 0 149.5 -44t55.5 -116q0 -8 -4 -32l-72 -408h-209l39 215q-14 -6 -62 -6q-70 0 -113.5 43t-43.5 111zM-623 -334q0 -29 18.5 -47t51.5 -18q43 0 69.5 26.5t26.5 69.5q0 29 -18.5 47t-50.5 18q-43 0 -70 -26.5t-27 -69.5z" />
<glyph unicode="&#xe39;" d="M-1083 -342q0 96 66.5 157.5t172.5 61.5q80 0 129 -40t49 -105q0 -18 -2 -29l-34 -192q-6 -35 16 -55.5t65 -20.5t73 20.5t36 55.5l63 356h205l-71 -408q-14 -80 -97.5 -128t-216.5 -48q-114 0 -190 43t-76 113q0 12 2 20l12 62q-18 -6 -57 -6q-63 0 -104 39.5t-41 103.5 zM-977 -319q0 -27 17.5 -43.5t44.5 -16.5q41 0 66.5 25.5t25.5 66.5q0 27 -18.5 43.5t-47.5 16.5q-39 0 -63.5 -26t-24.5 -66z" />
<glyph unicode="&#xe3a;" d="M-557 -309q0 82 51 134t133 52q57 0 93 -35t36 -88q0 -82 -51 -133t-133 -51q-57 0 -93 34t-36 87z" />
<glyph unicode="&#xe3f;" horiz-adv-x="1234" d="M49 0l252 1434h356l25 141h225l-26 -148q162 -23 247.5 -98.5t85.5 -195.5q0 -121 -61 -208t-190 -151l-2 -6q196 -79 196 -272q0 -233 -136 -364.5t-382 -131.5h-10l-29 -162h-225l28 162h-354zM385 227h238q106 0 174.5 71t68.5 185q0 164 -237 164h-170zM496 862h196 q94 0 156.5 57.5t62.5 151.5q0 63 -49 99t-147 36h-158z" />
<glyph unicode="&#xe40;" horiz-adv-x="667" d="M92 172q0 14 4 47l168 961h262l-133 -760h8q84 0 137.5 -48t53.5 -126q0 -119 -80 -192.5t-205 -73.5q-98 0 -156.5 53t-58.5 139zM270 182q0 -33 21.5 -53t56.5 -20q47 0 79 31.5t32 78.5q0 33 -21.5 53.5t-56.5 20.5q-49 0 -80 -31t-31 -80z" />
<glyph unicode="&#xe41;" horiz-adv-x="1261" d="M92 172q0 14 4 47l168 961h262l-133 -760h8q84 0 137.5 -48t53.5 -126q0 -119 -80 -192.5t-205 -73.5q-98 0 -156.5 53t-58.5 139zM270 182q0 -33 21.5 -53t56.5 -20q47 0 79 31.5t32 78.5q0 33 -21.5 53.5t-56.5 20.5q-49 0 -80 -31t-31 -80zM686 172q0 14 4 47l168 961 h262l-133 -760h8q84 0 137.5 -48t53.5 -126q0 -119 -80 -192.5t-205 -73.5q-98 0 -156.5 53t-58.5 139zM864 182q0 -33 21.5 -53t56.5 -20q47 0 79 31.5t32 78.5q0 33 -21.5 53.5t-56.5 20.5q-49 0 -80 -31t-31 -80z" />
<glyph unicode="&#xe42;" horiz-adv-x="837" d="M96 1634q16 131 80 222.5t152 136.5t178 45q61 0 110.5 -16.5t104.5 -43.5q61 -33 90 -32q23 0 45.5 21.5t34.5 57.5l170 -32q-31 -100 -99.5 -168t-158.5 -68q-47 0 -82 11.5t-82 31.5q-39 16 -66.5 25.5t-58.5 9.5q-45 0 -81 -21.5t-52 -56.5q160 -43 239.5 -105.5 t79.5 -156.5q0 -14 -4 -43l-180 -1032h10q84 0 135.5 -49t51.5 -129q0 -117 -79 -189.5t-204 -72.5q-100 0 -158.5 53t-58.5 143q0 14 4 43l211 1198q2 6 2 21q0 82 -103.5 137t-230.5 59zM395 182q0 -33 21.5 -53t56.5 -20q47 0 78 31.5t31 78.5q0 33 -21.5 53.5 t-56.5 20.5q-49 0 -79 -31t-30 -80z" />
<glyph unicode="&#xe43;" horiz-adv-x="890" d="M88 1632q0 123 62.5 219.5t173 151.5t247.5 55q109 0 197 -34.5t139 -97t51 -142.5q0 -76 -22.5 -122t-71.5 -106q-51 -63 -79.5 -114t-43.5 -137l-155 -885h8q84 0 136 -49t52 -129q0 -117 -78.5 -189.5t-203.5 -72.5q-100 0 -158.5 53t-58.5 139q0 14 4 47l188 1069 q16 92 51 158.5t88 138.5q43 59 62.5 99t19.5 88q0 53 -43 81.5t-114 28.5q-45 0 -86 -15.5t-72 -41.5h14q70 0 115 -43t45 -111q0 -106 -73.5 -172.5t-190.5 -66.5q-90 0 -146.5 56t-56.5 144zM242 1614q0 -29 19.5 -47.5t47.5 -18.5q45 0 73 29t28 74q0 28 -19.5 46.5 t-50.5 18.5q-43 0 -70.5 -28.5t-27.5 -73.5zM463 182q0 -33 21.5 -53t56.5 -20q47 0 77.5 31.5t30.5 78.5q0 33 -21.5 53.5t-54.5 20.5q-49 0 -79.5 -31t-30.5 -80z" />
<glyph unicode="&#xe44;" horiz-adv-x="919" d="M129 1485q16 283 16 485l-2 101h211q4 -223 -12 -396l307 365h248l-285 -1620h11q84 0 136 -49t52 -125q0 -119 -79 -192.5t-206 -73.5q-100 0 -158.5 53t-58.5 139q0 14 4 47l271 1522l-269 -320zM492 182q0 -33 21.5 -53t53.5 -20q49 0 80 31.5t31 78.5 q0 33 -21.5 53.5t-56.5 20.5q-49 0 -78.5 -31t-29.5 -80z" />
<glyph unicode="&#xe45;" horiz-adv-x="630" d="M-332 799q20 186 152.5 293.5t345.5 107.5q188 0 293.5 -75.5t105.5 -209.5q0 -29 -6 -63l-240 -1364h-260l238 1348q2 12 2 32q0 59 -39 93t-110 34q-92 0 -154 -52t-78 -144h-250z" />
<glyph unicode="&#xe46;" horiz-adv-x="1363" d="M176 629q0 123 58.5 243.5t158 208.5t217.5 119l170 -135l199 135q276 -82 276 -299q0 -35 -6 -72l-235 -1341h-262l235 1341q2 12 2 37q0 74 -41 119l-200 -123l-175 123q-78 -41 -110 -133h14q98 0 158.5 -51t60.5 -133q0 -74 -39 -135.5t-106.5 -97.5t-149.5 -36 q-106 0 -165.5 60.5t-59.5 169.5zM344 604q0 -33 22.5 -52.5t57.5 -19.5q47 0 77.5 32t30.5 77q0 33 -21.5 53.5t-55.5 20.5q-45 0 -78 -32t-33 -79z" />
<glyph unicode="&#xe47;" d="M-838 1626q0 145 104.5 234.5t276.5 89.5h228q117 0 147 170h191q-29 -168 -117 -253t-232 -85h-245q-66 0 -108 -40t-42 -104q0 -41 12 -59q76 82 181 125q39 -61 104 -121q10 70 65.5 113t135.5 43q65 0 107 -35t42 -92q0 -94 -66.5 -152.5t-172.5 -58.5q-80 0 -155 38 t-122 101q-33 -18 -70.5 -54t-99.5 -104q-76 23 -120 89.5t-44 154.5zM-229 1561q0 -20 14 -35t37 -15q33 0 54.5 21.5t21.5 54.5q0 23 -15.5 37t-38.5 14q-33 0 -53 -21.5t-20 -55.5z" />
<glyph unicode="&#xe48;" d="M-225 1401l80 448h241l-80 -448h-241z" />
<glyph unicode="&#xe49;" d="M-598 1401l18 108q109 37 205 113h-8q-70 0 -113 39t-43 102q0 100 65.5 163t170.5 63q74 0 121 -43t47 -113q0 -63 -36 -138t-89 -122q127 35 237.5 148.5t139.5 242.5h213q-41 -164 -159 -292t-292 -199.5t-373 -71.5h-104zM-410 1788q0 -27 16.5 -42t43.5 -15 q39 0 63.5 23.5t24.5 62.5q0 27 -16.5 43t-45.5 16q-39 0 -62.5 -24.5t-23.5 -63.5z" />
<glyph unicode="&#xe4a;" d="M-799 1567q0 94 42 177t117 139t167 73l108 -90l142 88q94 -14 145 -65.5t51 -127.5q0 -109 -96 -202q86 55 137.5 148t77.5 247h205q-47 -262 -217 -407.5t-432 -145.5l22 119q53 29 92 88t39 116q0 66 -45 93l-137 -88l-108 83q-47 -25 -91 -77q66 0 107 -38t41 -98 q0 -88 -57.5 -143t-149.5 -55q-72 0 -116 46t-44 120zM-678 1552q0 -23 15.5 -37t39.5 -14q33 0 55.5 22.5t22.5 57.5q0 23 -15 36t-40 13q-35 0 -56.5 -21.5t-21.5 -56.5z" />
<glyph unicode="&#xe4b;" d="M-367 1561l29 172h180l27 157h227l-28 -157h178l-31 -172h-176l-29 -160h-225l27 160h-179z" />
<glyph unicode="&#xe4c;" d="M-467 1571q0 109 66.5 174t128 89t190.5 62q74 20 112 43t48 74h192q-16 -100 -85.5 -151.5t-225.5 -98.5q-23 -6 -41 -14q39 -43 39 -107q0 -106 -68.5 -173.5t-177.5 -67.5q-80 0 -129 47t-49 123zM-328 1585q0 -27 17.5 -45t46.5 -18q41 0 66.5 27.5t25.5 68.5 q0 27 -18.5 43t-47.5 16q-41 0 -65.5 -25.5t-24.5 -66.5z" />
<glyph unicode="&#xe4d;" d="M-342 1554q0 133 87 218.5t226 85.5q102 0 167 -57.5t65 -149.5q0 -133 -89 -217t-229 -84q-100 0 -163.5 57t-63.5 147zM-188 1579q0 -41 25.5 -66.5t70.5 -25.5q57 0 98 40t41 99q0 41 -26.5 66.5t-71.5 25.5q-57 0 -97 -39t-40 -100z" />
<glyph unicode="&#xe4e;" d="M-463 1550q0 84 65.5 146.5t170.5 79.5q-20 16 -31.5 41.5t-11.5 56.5q0 57 42 106.5t114.5 78t158.5 28.5q102 0 186 -45l-73 -135q-31 14 -70 23t-70 9q-45 0 -71.5 -18t-26.5 -51q0 -29 33 -47.5t113 -36.5l-72 -111q-57 23 -121 23q-61 0 -99 -25.5t-38 -68.5 q0 -33 29.5 -52.5t80.5 -19.5t105 20l-12 -118q-84 -39 -185 -39q-98 0 -157.5 43t-59.5 112z" />
<glyph unicode="&#xe4f;" horiz-adv-x="1282" d="M111 391q0 180 78.5 322.5t219 221.5t320.5 79q127 0 226.5 -52.5t154.5 -145.5t55 -214q0 -182 -77.5 -323.5t-219 -220t-321.5 -78.5q-127 0 -226.5 52t-154.5 145t-55 214zM248 420q0 -137 90 -222t233 -85q134 0 238 58t161.5 163.5t57.5 240.5t-89 220.5t-232 85.5 q-133 0 -237.5 -58.5t-163 -164t-58.5 -238.5zM340 436q0 158 97.5 256.5t252.5 98.5q109 0 178.5 -66t69.5 -168q0 -156 -98.5 -255t-253.5 -99q-109 0 -177.5 65.5t-68.5 167.5zM463 463q0 -61 41 -100t104 -39q90 0 147.5 58t57.5 150q0 59 -40 98.5t-103 39.5 q-90 0 -148.5 -58.5t-58.5 -148.5z" />
<glyph unicode="&#xe50;" horiz-adv-x="1363" d="M72 365q0 152 86 271.5t239.5 186t347.5 66.5q152 0 270 -49t184.5 -136.5t66.5 -199.5q0 -152 -86 -271.5t-240 -186t-348 -66.5q-152 0 -270.5 49t-184 137t-65.5 199zM326 393q0 -96 81.5 -156.5t215.5 -60.5q112 0 200 38t138.5 106.5t50.5 154.5q0 96 -82 157.5 t-215 61.5q-113 0 -201 -39t-138 -107.5t-50 -154.5z" />
<glyph unicode="&#xe51;" horiz-adv-x="1415" d="M66 326q0 164 87 291.5t243.5 199.5t357.5 72q164 0 288.5 -53.5t194.5 -150.5t70 -224q0 -133 -70 -276.5t-180 -231.5h-273q119 88 194 219t75 246q0 125 -88 200.5t-234 75.5q-119 0 -213 -45t-148.5 -125t-54.5 -178q0 -90 50.5 -145.5t134.5 -55.5q43 0 78.5 16.5 t58.5 47.5q-74 0 -120 43t-46 110q0 100 68.5 162t177.5 62q84 0 135 -49.5t51 -128.5q0 -113 -63.5 -211.5t-170 -157.5t-229.5 -59q-170 0 -272 94t-102 252zM600 381q0 -29 18.5 -47.5t49.5 -18.5q45 0 71.5 28t26.5 73q0 29 -19.5 46t-50.5 17q-43 0 -69.5 -26.5 t-26.5 -71.5z" />
<glyph unicode="&#xe52;" horiz-adv-x="1466" d="M106 334q0 35 7 72l96 550q6 33 -12.5 53.5t-59.5 24.5l39 211h115q94 0 142 -40t48 -115q0 -14 -4 -48l-112 -630q-4 -33 -5 -47q0 -96 86 -142.5t269 -46.5q223 0 331.5 105.5t108.5 318.5q0 57 -16.5 89t-48.5 32q-37 0 -65 -29.5t-40 -83.5h-108q0 51 -24 83t-65 32 q-37 0 -69.5 -25.5t-52.5 -68.5q27 10 51 10q70 0 113.5 -42t43.5 -108q0 -100 -68.5 -162.5t-176.5 -62.5q-84 0 -136.5 55.5t-52.5 143.5q0 117 46 215t125 154.5t175 56.5q53 0 97.5 -29t62.5 -78q31 51 83 79t112 28q116 0 178.5 -70.5t62.5 -202.5q0 -309 -176 -472.5 t-512 -163.5q-283 0 -435.5 92t-152.5 262zM586 440q0 -27 18.5 -44t46.5 -17q41 0 67.5 25.5t26.5 68.5q0 27 -18 44.5t-47 17.5q-41 0 -67.5 -26t-26.5 -69z" />
<glyph unicode="&#xe53;" horiz-adv-x="1452" d="M59 272q0 178 63.5 318.5t176.5 219.5t256 79q96 0 160.5 -34t85.5 -95q41 63 115.5 96t160.5 33q131 0 207 -63.5t76 -178.5q0 -31 -6 -65l-105 -582h-250l105 588q2 8 2 26q0 37 -22.5 58.5t-63.5 21.5q-45 0 -81 -31.5t-44 -80.5l-102 -582h-230l99 551q2 10 2 31 q0 53 -29 82.5t-80 29.5q-156 0 -217 -258q-4 -14 -12 -63q37 14 65 14q68 0 112 -45t44 -115q0 -109 -74 -178t-188 -69q-100 0 -163 79.5t-63 212.5zM246 168q0 -29 19.5 -47.5t49.5 -18.5q43 0 71 27t28 72q0 28 -19.5 46.5t-50.5 18.5q-45 0 -71.5 -27.5t-26.5 -70.5z " />
<glyph unicode="&#xe54;" horiz-adv-x="1409" d="M68 342q0 254 183 396.5t513 152.5q182 4 244.5 11t115.5 28q72 29 130.5 108.5t84.5 206.5h217q-41 -158 -97 -256t-129 -151.5t-173 -87.5q-66 -23 -158 -30t-266 -7q-186 -2 -298.5 -99.5t-112.5 -259.5q0 -92 54 -144t140 -52q45 0 143 12q20 2 86 8 q-102 23 -166.5 83.5t-64.5 135.5q0 104 71.5 171t184.5 67q82 0 131 -43t49 -113q0 -61 -32.5 -115.5t-86.5 -82.5q164 -35 270.5 -73t203.5 -110l-123 -151q-76 47 -146.5 69.5t-126.5 22.5q-33 0 -159 -23q-74 -12 -155 -24t-132 -12q-176 0 -285.5 99t-109.5 263z M647 424q0 -29 19.5 -46.5t50.5 -17.5q43 0 69.5 27t26.5 70q0 29 -18.5 47t-49.5 18q-43 0 -70.5 -26.5t-27.5 -71.5z" />
<glyph unicode="&#xe55;" horiz-adv-x="1409" d="M68 342q0 229 150.5 368.5t424.5 172.5q-14 39 -14 71q0 113 74.5 184.5t195.5 71.5q86 0 141.5 -50t55.5 -128q0 -63 -35 -123q39 10 63 21q72 29 130.5 108.5t84.5 206.5h217q-41 -158 -97 -256t-129 -151.5t-173 -87.5q-66 -23 -158 -30t-266 -7q-186 -2 -298.5 -99.5 t-112.5 -259.5q0 -92 54 -144t140 -52q45 0 143 12q20 2 86 8q-102 23 -166.5 83.5t-64.5 135.5q0 104 71.5 171t184.5 67q82 0 131 -43t49 -113q0 -61 -32.5 -115.5t-86.5 -82.5q164 -35 270.5 -73t203.5 -110l-123 -151q-76 47 -146.5 69.5t-126.5 22.5q-33 0 -159 -23 q-74 -12 -155 -24t-132 -12q-176 0 -285.5 99t-109.5 263zM647 424q0 -29 19.5 -46.5t50.5 -17.5q43 0 69.5 27t26.5 70q0 29 -18.5 47t-49.5 18q-43 0 -70.5 -26.5t-27.5 -71.5zM768 971q0 -33 21.5 -52.5t56.5 -19.5q49 0 79.5 29.5t30.5 79.5q0 33 -22.5 53t-56.5 20 q-50 0 -79.5 -30.5t-29.5 -79.5z" />
<glyph unicode="&#xe56;" horiz-adv-x="1378" d="M164 1245h254q39 -123 39 -309q0 -68 -6 -133q70 41 163 63.5t187 22.5q223 0 352 -103.5t129 -273.5q0 -156 -86 -276.5t-240.5 -188t-355.5 -67.5q-186 0 -304 70.5t-118 189.5q0 111 72 179t188 68q84 0 136.5 -45t52.5 -118q0 -39 -16.5 -83t-43.5 -73l35 -2 q195 0 311.5 88t116.5 235q0 96 -71.5 150.5t-198.5 54.5q-113 0 -212 -32.5t-173 -94.5h-168q14 106 14 236q0 137 -15.5 258t-41.5 184zM317 264q0 -29 19.5 -47t48.5 -18q45 0 72.5 26.5t27.5 71.5q0 29 -20.5 47t-48.5 18q-45 0 -72 -26.5t-27 -71.5z" />
<glyph unicode="&#xe57;" horiz-adv-x="1624" d="M59 274q0 176 60.5 316.5t167 219.5t241.5 79q66 0 120 -33t77 -98q98 131 229 131q123 0 191.5 -68.5t68.5 -195.5q0 -96 -32.5 -203t-71.5 -189q88 82 125 153t63 208q6 33 21 121q39 221 67.5 332.5t83.5 197.5h238q-55 -100 -89 -241.5t-75 -374.5 q-55 -305 -219 -467t-424 -180l-108 88q78 137 127 278t49 227q0 49 -17.5 78t-48.5 29q-35 0 -62.5 -29.5t-37.5 -89.5l-35 -194h-199l35 194q2 8 2 25q0 43 -23.5 68.5t-58.5 25.5q-66 0 -111.5 -58.5t-74.5 -187.5l-10 -61q27 10 55 10q74 0 120 -45t46 -117 q0 -106 -73 -174.5t-189 -68.5q-104 0 -166 74.5t-62 219.5zM246 166q0 -29 19.5 -47.5t49.5 -18.5q43 0 71 29t28 72q0 28 -19.5 46.5t-50.5 18.5q-43 0 -70.5 -28.5t-27.5 -71.5z" />
<glyph unicode="&#xe58;" horiz-adv-x="1400" d="M63 313q0 274 171.5 425t472.5 151q25 0 147 -10q53 -6 82 -7q90 0 154.5 62.5t89.5 187.5l22 123h240l-25 -131q-39 -211 -163 -333t-314 -122q-18 0 -125 9q-96 10 -141 10q-176 0 -265.5 -81t-89.5 -253q0 -74 19 -111q131 137 289 209q16 -80 59 -145.5t98.5 -101 t104.5 -35.5q20 0 31 2q-37 16 -57.5 51t-20.5 80q0 104 66.5 170.5t172.5 66.5q84 0 136.5 -47t52.5 -123q0 -104 -54.5 -191t-147.5 -138t-208 -51q-209 0 -344 204q-43 -33 -91 -84t-79 -100h-153q-63 51 -96.5 133t-33.5 180zM967 319q0 -29 19.5 -47t51.5 -18 q43 0 70 27.5t27 72.5q0 27 -19.5 45.5t-48.5 18.5q-45 0 -72.5 -26.5t-27.5 -72.5z" />
<glyph unicode="&#xe59;" horiz-adv-x="1433" d="M70 358q0 152 70.5 273t193.5 189.5t272 68.5q72 0 150 -25.5t121 -75.5q12 41 50 71t83 30q35 0 63.5 -15.5t61.5 -42.5q45 -37 69 -36q25 0 48.5 63.5t39 162.5t15.5 198l-2 26h202q-4 -150 -22 -262q-63 -358 -281 -358q-33 0 -56.5 10t-51.5 31q-35 27 -58 26 q-43 0 -65 -74q27 -154 96.5 -279.5t161.5 -213.5l-172 -148q-117 123 -205 288t-113 313q-8 45 -54 75.5t-109 30.5q-111 0 -183.5 -90t-72.5 -232q0 -41 12 -77q18 53 76.5 85.5t138.5 32.5q84 0 136 -46t52 -121q0 -113 -84 -184.5t-215 -71.5q-174 0 -271 99t-97 279z M428 178q0 -29 19.5 -47t50.5 -18q43 0 70.5 27.5t27.5 72.5q0 29 -19.5 46t-50.5 17q-45 0 -71.5 -26.5t-26.5 -71.5z" />
<glyph unicode="&#xe5a;" horiz-adv-x="1701" d="M115 926q0 123 78.5 198.5t207.5 75.5q92 0 150.5 -50t58.5 -130q0 -35 -12 -76q121 70 178 236h193q78 0 122 -40t44 -108q0 -10 -5 -39l-8 -47q129 80 181 234h192q78 0 122 -40t44 -108q0 -10 -4 -39l-176 -993h-260l163 928v10q0 27 -30 29q-109 -150 -267 -213 l-133 -754h-260l164 928v6q0 31 -31 33q-86 -115 -210.5 -182.5t-249.5 -67.5q-113 0 -182.5 57t-69.5 152zM268 961q0 -33 21.5 -53.5t56.5 -20.5q47 0 78 31.5t31 78.5q0 33 -21.5 53.5t-56.5 20.5q-47 0 -78 -30.5t-31 -79.5z" />
<glyph unicode="&#xe5b;" horiz-adv-x="2160" d="M125 434q0 180 70.5 326.5t192.5 230.5t271 84q143 0 225.5 -78.5t82.5 -216.5q0 -121 -43 -220t-119 -156.5t-168 -57.5q-78 0 -128 45t-50 117q0 102 65.5 165.5t167.5 63.5q47 0 84 -20q2 10 2 31q0 61 -39 96t-106 35q-80 0 -147.5 -55.5t-107.5 -150.5t-40 -210 q0 -117 64.5 -183.5t177.5 -66.5q109 0 209 59.5t170.5 163t93.5 228.5l34 196h230l39 -266l100 199h152l37 -189l92 162h139l57 -154h181l-27 -155h-252l-49 131l-125 -221h-123l-41 192l-113 -225h-159l-37 166q-76 -219 -251 -352.5t-390 -133.5q-193 0 -307.5 114 t-114.5 306zM586 526q0 -27 17.5 -43t45.5 -16q39 0 63.5 25.5t24.5 64.5q0 27 -17.5 43t-45.5 16q-39 0 -63.5 -24.5t-24.5 -65.5z" />
<glyph unicode="&#x1e0c;" horiz-adv-x="1314" d="M49 0l252 1434h492q248 0 377.5 -126t129.5 -368q0 -457 -195.5 -698.5t-565.5 -241.5h-490zM354 -307q0 72 45.5 116t118.5 44q51 0 83 -31t32 -80q0 -70 -45 -115t-117 -45q-51 0 -84 31t-33 80zM387 236h193q127 0 224 83.5t149.5 237.5t52.5 356q0 145 -58.5 215 t-181.5 70h-211z" />
<glyph unicode="&#x1e0d;" horiz-adv-x="1142" d="M45 383q0 190 67.5 340.5t188.5 235.5t274 85q190 0 269 -124h4l106 600h260l-219 -1248l-22 -143q-18 -115 -21 -129h-245q12 80 22 135h-4q-61 -72 -146 -113.5t-173 -41.5q-166 0 -263.5 108.5t-97.5 294.5zM307 401q0 -106 44 -163.5t128 -57.5q109 0 184.5 62.5 t94.5 165.5l37 210q4 29 4 46q0 82 -56.5 134t-144.5 52q-82 0 -148.5 -58.5t-104.5 -161t-38 -229.5zM311 -307q0 72 45.5 116t118.5 44q51 0 83 -31t32 -80q0 -70 -45 -115t-117 -45q-51 0 -84 31t-33 80z" />
<glyph unicode="&#x1e0e;" horiz-adv-x="1314" d="M49 0l252 1434h492q248 0 377.5 -126t129.5 -368q0 -457 -195.5 -698.5t-565.5 -241.5h-490zM139 -317l29 170h700l-28 -170h-701zM387 236h193q127 0 224 83.5t149.5 237.5t52.5 356q0 145 -58.5 215t-181.5 70h-211z" />
<glyph unicode="&#x1e0f;" horiz-adv-x="1142" d="M45 383q0 190 67.5 340.5t188.5 235.5t274 85q190 0 269 -124h4l106 600h260l-219 -1248l-22 -143q-18 -115 -21 -129h-245q12 80 22 135h-4q-61 -72 -146 -113.5t-173 -41.5q-166 0 -263.5 108.5t-97.5 294.5zM96 -317l29 170h700l-28 -170h-701zM307 401 q0 -106 44 -163.5t128 -57.5q109 0 184.5 62.5t94.5 165.5l37 210q4 29 4 46q0 82 -56.5 134t-144.5 52q-82 0 -148.5 -58.5t-104.5 -161t-38 -229.5z" />
<glyph unicode="&#x1e20;" horiz-adv-x="1337" d="M80 516q0 274 98 487.5t274.5 332t403.5 118.5q182 0 315.5 -69.5t169.5 -182.5l-192 -147q-37 80 -112.5 122t-182.5 42q-137 0 -245.5 -88.5t-170 -245t-61.5 -357.5q0 -164 68.5 -247.5t201.5 -83.5q135 0 254 65l53 307h-309l37 209h600l-135 -778h-223l-13 72 q-131 -92 -307 -92q-160 0 -278.5 65.5t-182 187t-63.5 283.5zM548 1581l31 170h701l-29 -170h-703z" />
<glyph unicode="&#x1e21;" horiz-adv-x="1136" d="M-43 -373l119 178q66 -37 145.5 -58t153.5 -21q272 0 334 350l4 26q-98 -109 -287 -108q-178 0 -279.5 103.5t-101.5 285.5q0 195 65.5 345.5t184.5 233t272 82.5q109 0 186.5 -38.5t110.5 -110.5h4l41 129h217l-172 -983q-45 -260 -193.5 -392t-398.5 -132 q-121 0 -227 28.5t-178 81.5zM307 410q0 -104 48 -158.5t143 -54.5q106 0 175.5 64.5t90.5 182.5l22 131q7 43 7 78q0 96 -48.5 146.5t-138.5 50.5q-88 0 -155.5 -57.5t-105.5 -156.5t-38 -226zM307 1171l31 170h701l-29 -170h-703z" />
<glyph unicode="&#x1e24;" horiz-adv-x="1417" d="M49 0l252 1434h295l-102 -586h548l105 586h293l-252 -1434h-293l109 612h-551l-109 -612h-295zM430 -307q0 72 45.5 116t118.5 44q51 0 83 -31t32 -80q0 -70 -45 -115t-117 -45q-51 0 -84 31t-33 80z" />
<glyph unicode="&#x1e25;" horiz-adv-x="1161" d="M8 0l268 1520h263l-109 -617q53 66 141 103.5t189 37.5q154 0 243 -89t89 -240q0 -43 -11 -101l-108 -614h-262l104 596q8 53 8 76q0 84 -41 131t-116 47q-113 0 -193 -79t-104 -214l-99 -557h-262zM299 -307q0 72 45.5 116t118.5 44q51 0 83 -31t32 -80q0 -70 -45 -115 t-117 -45q-51 0 -84 31t-33 80z" />
<glyph unicode="&#x1e2a;" horiz-adv-x="1417" d="M49 0l252 1434h295l-102 -586h548l105 586h293l-252 -1434h-293l109 612h-551l-109 -612h-295zM256 -215q0 31 6 68h168q-2 -10 -2 -31q0 -57 34 -87t97 -30q74 0 122 39t63 109h182q-27 -152 -124 -232t-255 -80q-139 0 -215 63.5t-76 180.5z" />
<glyph unicode="&#x1e2b;" horiz-adv-x="1161" d="M8 0l268 1520h263l-109 -617q53 66 141 103.5t189 37.5q154 0 243 -89t89 -240q0 -43 -11 -101l-108 -614h-262l104 596q8 53 8 76q0 84 -41 131t-116 47q-113 0 -193 -79t-104 -214l-99 -557h-262zM125 -215q0 31 6 68h168q-2 -10 -2 -31q0 -57 34 -87t97 -30 q74 0 122 39t63 109h182q-27 -152 -124 -232t-255 -80q-139 0 -215 63.5t-76 180.5z" />
<glyph unicode="&#x1e36;" horiz-adv-x="1157" d="M49 0l252 1434h295l-211 -1198h676l-41 -236h-971zM331 -307q0 72 45.5 116t118.5 44q51 0 83 -31t32 -80q0 -70 -45 -115t-117 -45q-51 0 -84 31t-33 80z" />
<glyph unicode="&#x1e37;" horiz-adv-x="616" d="M63 182q0 33 7 70l225 1268h260l-225 -1270q-2 -8 -2 -25q0 -63 82 -63q45 0 120 26l15 -139q-104 -70 -254 -69q-113 0 -170.5 52t-57.5 150zM96 -307q0 72 45.5 116t118.5 44q51 0 83 -31t32 -80q0 -70 -45 -115t-117 -45q-51 0 -84 31t-33 80z" />
<glyph unicode="&#x1e38;" horiz-adv-x="1157" d="M49 0l252 1434h295l-211 -1198h676l-41 -236h-971zM124 1581l31 170h701l-29 -170h-703zM331 -307q0 72 45.5 116t118.5 44q51 0 83 -31t32 -80q0 -70 -45 -115t-117 -45q-51 0 -84 31t-33 80z" />
<glyph unicode="&#x1e39;" horiz-adv-x="616" d="M63 182q0 33 7 70l225 1268h260l-225 -1270q-2 -8 -2 -25q0 -63 82 -63q45 0 120 26l15 -139q-104 -70 -254 -69q-113 0 -170.5 52t-57.5 150zM96 -307q0 72 45.5 116t118.5 44q51 0 83 -31t32 -80q0 -70 -45 -115t-117 -45q-51 0 -84 31t-33 80zM100 1667l31 170h701 l-29 -170h-703z" />
<glyph unicode="&#x1e3a;" horiz-adv-x="1157" d="M49 0l252 1434h295l-211 -1198h676l-41 -236h-971zM116 -317l29 170h700l-28 -170h-701z" />
<glyph unicode="&#x1e3b;" horiz-adv-x="616" d="M-119 -317l29 170h700l-28 -170h-701zM63 182q0 33 7 70l225 1268h260l-225 -1270q-2 -8 -2 -25q0 -63 82 -63q45 0 120 26l15 -139q-104 -70 -254 -69q-113 0 -170.5 52t-57.5 150z" />
<glyph unicode="&#x1e42;" horiz-adv-x="1671" d="M49 0l254 1434h297l193 -1108l579 1108h322l-254 -1434h-291l149 848l-452 -848h-207l-152 834l-147 -834h-291zM555 -307q0 72 45.5 116t118.5 44q51 0 83 -31t32 -80q0 -70 -45 -115t-117 -45q-51 0 -84 31t-33 80z" />
<glyph unicode="&#x1e43;" horiz-adv-x="1732" d="M8 0l133 752l17 104q20 113 22 168h230q-2 -68 -21 -178h4q45 94 136.5 146t205.5 52q111 0 182.5 -49t81.5 -131q57 86 147.5 133t194.5 47q147 0 230.5 -82.5t83.5 -228.5q0 -43 -10 -100l-111 -633h-260l104 604q6 37 6 68q0 78 -38.5 120t-110.5 42 q-88 0 -149.5 -62.5t-79.5 -169.5l-107 -602h-258l107 596q6 41 6 72q0 80 -38 123t-108 43q-88 0 -151.5 -64.5t-81.5 -173.5l-107 -596h-260zM579 -307q0 72 45.5 116t118.5 44q51 0 83 -31t32 -80q0 -70 -45 -115t-117 -45q-51 0 -84 31t-33 80z" />
<glyph unicode="&#x1e44;" horiz-adv-x="1431" d="M49 0l252 1434h285l409 -936l166 936h293l-252 -1434h-272l-420 952l-168 -952h-293zM780 1657q0 70 46 115t118 45q51 0 82.5 -30.5t31.5 -80.5q0 -72 -45 -115.5t-116 -43.5q-52 0 -84.5 30.5t-32.5 79.5z" />
<glyph unicode="&#x1e45;" horiz-adv-x="1153" d="M6 0l135 754l9 51q27 162 28 219h246q-4 -88 -21 -178h5q55 94 149 146t213 52q150 0 225.5 -82.5t75.5 -240.5q0 -72 -14 -146l-103 -575h-260l103 578q8 43 8 90q0 166 -152 166q-109 0 -187.5 -75t-98.5 -200l-99 -559h-262zM565 1247q0 70 46 115t118 45 q51 0 82.5 -30.5t31.5 -80.5q0 -72 -45 -115.5t-116 -43.5q-52 0 -84.5 30.5t-32.5 79.5z" />
<glyph unicode="&#x1e46;" horiz-adv-x="1431" d="M49 0l252 1434h285l409 -936l166 936h293l-252 -1434h-272l-420 952l-168 -952h-293zM434 -307q0 72 45.5 116t118.5 44q51 0 83 -31t32 -80q0 -70 -45 -115t-117 -45q-51 0 -84 31t-33 80z" />
<glyph unicode="&#x1e47;" horiz-adv-x="1153" d="M6 0l135 754l9 51q27 162 28 219h246q-4 -88 -21 -178h5q55 94 149 146t213 52q150 0 225.5 -82.5t75.5 -240.5q0 -72 -14 -146l-103 -575h-260l103 578q8 43 8 90q0 166 -152 166q-109 0 -187.5 -75t-98.5 -200l-99 -559h-262zM290 -307q0 72 45.5 116t118.5 44 q51 0 83 -31t32 -80q0 -70 -45 -115t-117 -45q-51 0 -84 31t-33 80z" />
<glyph unicode="&#x1e48;" horiz-adv-x="1431" d="M49 0l252 1434h285l409 -936l166 936h293l-252 -1434h-272l-420 952l-168 -952h-293zM219 -317l29 170h700l-28 -170h-701z" />
<glyph unicode="&#x1e49;" horiz-adv-x="1153" d="M6 0l135 754l9 51q27 162 28 219h246q-4 -88 -21 -178h5q55 94 149 146t213 52q150 0 225.5 -82.5t75.5 -240.5q0 -72 -14 -146l-103 -575h-260l103 578q8 43 8 90q0 166 -152 166q-109 0 -187.5 -75t-98.5 -200l-99 -559h-262zM75 -317l29 170h700l-28 -170h-701z" />
<glyph unicode="&#x1e5a;" horiz-adv-x="1220" d="M49 0l252 1434h487q215 0 330 -88.5t115 -251.5q0 -338 -309 -447v-4q33 -27 49 -52.5t24 -60.5l119 -530h-313l-86 436q-14 66 -49 87.5t-131 21.5h-97l-96 -545h-295zM331 -307q0 72 45.5 116t118.5 44q51 0 83 -31t32 -80q0 -70 -45 -115t-117 -45q-51 0 -84 31 t-33 80zM481 778h181q125 0 199.5 75t74.5 196q0 150 -205 149h-176z" />
<glyph unicode="&#x1e5b;" horiz-adv-x="813" d="M-33 -307q0 72 45.5 116t118.5 44q51 0 83 -31t32 -80q0 -70 -45 -115t-117 -45q-51 0 -84 31t-33 80zM20 0l138 774q31 178 37 250h247q-2 -92 -22 -180l-4 -21h8q57 102 164.5 161.5t236.5 59.5q25 0 60 -6l-35 -207q-8 4 -49 5q-98 0 -192.5 -53.5t-161 -142.5 t-85.5 -191l-79 -449h-263z" />
<glyph unicode="&#x1e5c;" horiz-adv-x="1220" d="M49 0l252 1434h487q215 0 330 -88.5t115 -251.5q0 -338 -309 -447v-4q33 -27 49 -52.5t24 -60.5l119 -530h-313l-86 436q-14 66 -49 87.5t-131 21.5h-97l-96 -545h-295zM331 -307q0 72 45.5 116t118.5 44q51 0 83 -31t32 -80q0 -70 -45 -115t-117 -45q-51 0 -84 31 t-33 80zM448 1581l31 170h701l-29 -170h-703zM481 778h181q125 0 199.5 75t74.5 196q0 150 -205 149h-176z" />
<glyph unicode="&#x1e5d;" horiz-adv-x="813" d="M-33 -307q0 72 45.5 116t118.5 44q51 0 83 -31t32 -80q0 -70 -45 -115t-117 -45q-51 0 -84 31t-33 80zM20 0l138 774q31 178 37 250h247q-2 -92 -22 -180l-4 -21h8q57 102 164.5 161.5t236.5 59.5q25 0 60 -6l-35 -207q-8 4 -49 5q-98 0 -192.5 -53.5t-161 -142.5 t-85.5 -191l-79 -449h-263zM172 1171l31 170h701l-29 -170h-703z" />
<glyph unicode="&#x1e5e;" horiz-adv-x="1220" d="M49 0l252 1434h487q215 0 330 -88.5t115 -251.5q0 -338 -309 -447v-4q33 -27 49 -52.5t24 -60.5l119 -530h-313l-86 436q-14 66 -49 87.5t-131 21.5h-97l-96 -545h-295zM116 -317l29 170h700l-28 -170h-701zM481 778h181q125 0 199.5 75t74.5 196q0 150 -205 149h-176z " />
<glyph unicode="&#x1e5f;" horiz-adv-x="813" d="M-95 -317l29 170h700l-28 -170h-701zM20 0l138 774q31 178 37 250h247q-2 -92 -22 -180l-4 -21h8q57 102 164.5 161.5t236.5 59.5q25 0 60 -6l-35 -207q-8 4 -49 5q-98 0 -192.5 -53.5t-161 -142.5t-85.5 -191l-79 -449h-263z" />
<glyph unicode="&#x1e60;" horiz-adv-x="1124" d="M6 233l201 164q51 -82 135 -132t170 -50q113 0 179.5 51t66.5 137q0 51 -46 96.5t-171 112.5q-178 96 -259 195.5t-81 218.5q0 127 66.5 224.5t188.5 150.5t281 53q150 0 263.5 -60.5t162.5 -162.5l-211 -139q-80 127 -229 127q-102 0 -162.5 -44.5t-60.5 -117.5 q0 -49 58 -97.5t216 -128.5q147 -76 215 -167t68 -213q0 -219 -152.5 -345t-419.5 -126q-161 0 -288 67.5t-191 185.5zM633 1657q0 70 46 115t118 45q51 0 82.5 -30.5t31.5 -80.5q0 -72 -45 -115.5t-116 -43.5q-52 0 -84.5 30.5t-32.5 79.5z" />
<glyph unicode="&#x1e61;" horiz-adv-x="903" d="M-4 174l184 113q27 -51 78 -82t113 -31q82 0 132 34t50 91q0 39 -35 70.5t-115 64.5q-147 61 -215.5 133t-68.5 162q0 145 110.5 230t300.5 85q121 0 214.5 -45t132.5 -125l-170 -112q-57 88 -181 88q-68 0 -106.5 -26.5t-38.5 -71.5q0 -33 35 -57.5t143 -69.5 q135 -57 197.5 -124t62.5 -151q0 -109 -58.5 -193.5t-162.5 -130.5t-240 -46q-133 0 -234 54t-128 140zM449 1247q0 70 46 115t118 45q51 0 82.5 -30.5t31.5 -80.5q0 -72 -45 -115.5t-116 -43.5q-52 0 -84.5 30.5t-32.5 79.5z" />
<glyph unicode="&#x1e62;" horiz-adv-x="1124" d="M6 233l201 164q51 -82 135 -132t170 -50q113 0 179.5 51t66.5 137q0 51 -46 96.5t-171 112.5q-178 96 -259 195.5t-81 218.5q0 127 66.5 224.5t188.5 150.5t281 53q150 0 263.5 -60.5t162.5 -162.5l-211 -139q-80 127 -229 127q-102 0 -162.5 -44.5t-60.5 -117.5 q0 -49 58 -97.5t216 -128.5q147 -76 215 -167t68 -213q0 -219 -152.5 -345t-419.5 -126q-161 0 -288 67.5t-191 185.5zM286 -307q0 72 45.5 116t118.5 44q51 0 83 -31t32 -80q0 -70 -45 -115t-117 -45q-51 0 -84 31t-33 80z" />
<glyph unicode="&#x1e63;" horiz-adv-x="903" d="M-4 174l184 113q27 -51 78 -82t113 -31q82 0 132 34t50 91q0 39 -35 70.5t-115 64.5q-147 61 -215.5 133t-68.5 162q0 145 110.5 230t300.5 85q121 0 214.5 -45t132.5 -125l-170 -112q-57 88 -181 88q-68 0 -106.5 -26.5t-38.5 -71.5q0 -33 35 -57.5t143 -69.5 q135 -57 197.5 -124t62.5 -151q0 -109 -58.5 -193.5t-162.5 -130.5t-240 -46q-133 0 -234 54t-128 140zM174 -307q0 72 45.5 116t118.5 44q51 0 83 -31t32 -80q0 -70 -45 -115t-117 -45q-51 0 -84 31t-33 80z" />
<glyph unicode="&#x1e6c;" horiz-adv-x="1208" d="M156 1217l39 217h1146l-38 -217h-426l-215 -1217h-295l215 1217h-426zM323 -307q0 72 45.5 116t118.5 44q51 0 83 -31t32 -80q0 -70 -45 -115t-117 -45q-51 0 -84 31t-33 80z" />
<glyph unicode="&#x1e6d;" horiz-adv-x="860" d="M82 829l35 195h186l45 264l266 74h9l-58 -338h297l-35 -195h-297l-86 -483q-4 -37 -4 -49q0 -121 140 -121q80 0 153 25l-18 -178q-98 -43 -252 -43q-139 0 -216 65.5t-77 185.5q0 35 6 74l92 524h-186zM254 -307q0 72 45.5 116t118.5 44q51 0 83 -31t32 -80 q0 -70 -45 -115t-117 -45q-51 0 -84 31t-33 80z" />
<glyph unicode="&#x1e6e;" horiz-adv-x="1208" d="M108 -317l29 170h700l-28 -170h-701zM156 1217l39 217h1146l-38 -217h-426l-215 -1217h-295l215 1217h-426z" />
<glyph unicode="&#x1e6f;" horiz-adv-x="860" d="M39 -317l29 170h700l-28 -170h-701zM82 829l35 195h186l45 264l266 74h9l-58 -338h297l-35 -195h-297l-86 -483q-4 -37 -4 -49q0 -121 140 -121q80 0 153 25l-18 -178q-98 -43 -252 -43q-139 0 -216 65.5t-77 185.5q0 35 6 74l92 524h-186z" />
<glyph unicode="&#x1e80;" horiz-adv-x="1789" d="M213 1434h309l-12 -949l403 949h279l70 -945l321 945h318l-555 -1434h-275l-74 1067l-450 -1067h-285zM809 1878h254l115 -331h-209z" />
<glyph unicode="&#x1e81;" horiz-adv-x="1447" d="M117 1024h268l16 -637l293 637h232l69 -637l240 637h276l-442 -1024h-229l-72 743l-338 -743h-231zM567 1468h254l115 -331h-209z" />
<glyph unicode="&#x1e82;" horiz-adv-x="1789" d="M213 1434h309l-12 -949l403 949h279l70 -945l321 945h318l-555 -1434h-275l-74 1067l-450 -1067h-285zM973 1547l234 331h254l-279 -331h-209z" />
<glyph unicode="&#x1e83;" horiz-adv-x="1447" d="M117 1024h268l16 -637l293 637h232l69 -637l240 637h276l-442 -1024h-229l-72 743l-338 -743h-231zM731 1137l234 331h254l-279 -331h-209z" />
<glyph unicode="&#x1e84;" horiz-adv-x="1789" d="M213 1434h309l-12 -949l403 949h279l70 -945l321 945h318l-555 -1434h-275l-74 1067l-450 -1067h-285zM746 1657q0 72 45 116t119 44q51 0 82.5 -30.5t31.5 -80.5q0 -70 -45 -114.5t-116 -44.5q-52 0 -84.5 30.5t-32.5 79.5zM1178 1657q0 72 45 116t119 44 q49 0 81.5 -30.5t32.5 -80.5q0 -70 -46 -114.5t-117 -44.5q-52 0 -83.5 30.5t-31.5 79.5z" />
<glyph unicode="&#x1e85;" horiz-adv-x="1447" d="M117 1024h268l16 -637l293 637h232l69 -637l240 637h276l-442 -1024h-229l-72 743l-338 -743h-231zM504 1247q0 72 45 116t119 44q51 0 82.5 -30.5t31.5 -80.5q0 -70 -45 -114.5t-116 -44.5q-52 0 -84.5 30.5t-32.5 79.5zM936 1247q0 72 45 116t119 44q49 0 81.5 -30.5 t32.5 -80.5q0 -70 -46 -114.5t-117 -44.5q-52 0 -83.5 30.5t-31.5 79.5z" />
<glyph unicode="&#x1e8e;" horiz-adv-x="1286" d="M193 1434h311l194 -564l392 564h327l-616 -861l-101 -573h-294l100 573zM703 1657q0 70 46 115t118 45q51 0 82.5 -30.5t31.5 -80.5q0 -72 -45 -115.5t-116 -43.5q-52 0 -84.5 30.5t-32.5 79.5z" />
<glyph unicode="&#x1e8f;" horiz-adv-x="1034" d="M-150 -371l37 207q23 -8 60 -14t65 -6q88 0 164 62.5t152 197.5l-213 948h270l111 -657l319 657h283l-580 -1071q-188 -346 -504 -346q-80 0 -164 22zM516 1247q0 70 46 115t118 45q51 0 82.5 -30.5t31.5 -80.5q0 -72 -45 -115.5t-116 -43.5q-52 0 -84.5 30.5t-32.5 79.5 z" />
<glyph unicode="&#x1e92;" horiz-adv-x="1212" d="M-37 0l25 143l891 1055h-646l41 236h1018l-24 -148l-881 -1050h723l-43 -236h-1104zM325 -307q0 72 45.5 116t118.5 44q51 0 83 -31t32 -80q0 -70 -45 -115t-117 -45q-51 0 -84 31t-33 80z" />
<glyph unicode="&#x1e93;" horiz-adv-x="974" d="M-47 0l22 139l668 688h-516l35 197h837l-22 -127l-658 -700h558l-35 -197h-889zM206 -307q0 72 45.5 116t118.5 44q51 0 83 -31t32 -80q0 -70 -45 -115t-117 -45q-51 0 -84 31t-33 80z" />
<glyph unicode="&#x1e97;" horiz-adv-x="860" d="M82 829l35 195h186l45 264l266 74h9l-58 -338h297l-35 -195h-297l-86 -483q-4 -37 -4 -49q0 -121 140 -121q80 0 153 25l-18 -178q-98 -43 -252 -43q-139 0 -216 65.5t-77 185.5q0 35 6 74l92 524h-186zM182 1585q0 72 45 116t119 44q51 0 82.5 -30.5t31.5 -80.5 q0 -70 -45 -114.5t-116 -44.5q-52 0 -84.5 30.5t-32.5 79.5zM614 1585q0 72 45 116t119 44q49 0 81.5 -30.5t32.5 -80.5q0 -70 -46 -114.5t-117 -44.5q-52 0 -83.5 30.5t-31.5 79.5z" />
<glyph unicode="&#x1e9e;" horiz-adv-x="1306" d="M49 0l252 1434h961l-29 -168l-322 -443q156 -33 243 -131t87 -237q0 -141 -58.5 -249t-165 -167t-247.5 -59q-135 0 -231.5 54t-120.5 144l176 115q49 -104 164 -105q88 0 147.5 72t59.5 178q0 94 -82 151.5t-271 82.5l23 127l270 399h-352l-211 -1198h-293z" />
<glyph unicode="&#x1ea0;" horiz-adv-x="1312" d="M-59 0l747 1434h260l244 -1434h-295l-31 238h-491l-113 -238h-321zM376 -307q0 72 45.5 116t118.5 44q51 0 83 -31t32 -80q0 -70 -45 -115t-117 -45q-51 0 -84 31t-33 80zM487 473h349l-76 569z" />
<glyph unicode="&#x1ea1;" horiz-adv-x="1142" d="M45 383q0 193 66.5 343.5t185.5 234t272 83.5q106 0 184 -38.5t111 -110.5h4l41 129h219l-133 -752q-37 -215 -43 -272h-245q12 84 22 135h-4q-61 -72 -146 -113.5t-173 -41.5q-166 0 -263.5 108.5t-97.5 294.5zM307 401q0 -106 44 -163.5t128 -57.5q109 0 184.5 62.5 t94.5 165.5l37 210q4 29 4 46q0 82 -56.5 134t-144.5 52q-82 0 -148.5 -58.5t-104.5 -161t-38 -229.5zM321 -307q0 72 45.5 116t118.5 44q51 0 83 -31t32 -80q0 -70 -45 -115t-117 -45q-51 0 -84 31t-33 80z" />
<glyph unicode="&#x1ea2;" horiz-adv-x="1312" d="M-59 0l747 1434h260l244 -1434h-295l-31 238h-491l-113 -238h-321zM487 473h349l-76 569zM643 1876q49 70 125 108t156 38q98 0 153 -45t55 -117q0 -68 -28.5 -107.5t-81.5 -82.5q-43 -37 -64.5 -61.5t-27.5 -61.5h-187q11 59 40.5 95t78.5 75q41 33 59.5 55t18.5 57 q0 20 -15.5 31.5t-43.5 11.5q-78 0 -150 -102z" />
<glyph unicode="&#x1ea3;" horiz-adv-x="1142" d="M45 383q0 193 66.5 343.5t185.5 234t272 83.5q106 0 184 -38.5t111 -110.5h4l41 129h219l-133 -752q-37 -215 -43 -272h-245q12 84 22 135h-4q-61 -72 -146 -113.5t-173 -41.5q-166 0 -263.5 108.5t-97.5 294.5zM307 401q0 -106 44 -163.5t128 -57.5q109 0 184.5 62.5 t94.5 165.5l37 210q4 29 4 46q0 82 -56.5 134t-144.5 52q-82 0 -148.5 -58.5t-104.5 -161t-38 -229.5zM463 1466q49 70 125 108t156 38q98 0 153 -45t55 -117q0 -68 -28.5 -107.5t-81.5 -82.5q-43 -37 -64.5 -61.5t-27.5 -61.5h-187q11 59 40.5 95t78.5 75q41 33 59.5 55 t18.5 57q0 20 -15.5 31.5t-43.5 11.5q-78 0 -150 -102z" />
<glyph unicode="&#x1ea4;" horiz-adv-x="1312" d="M-59 0l747 1434h260l244 -1434h-295l-31 238h-491l-113 -238h-321zM487 473h349l-76 569zM489 1547l334 331h150l217 -331h-217l-95 159l-149 -159h-240zM1104 1833l133 222h186l-168 -222h-151z" />
<glyph unicode="&#x1ea5;" horiz-adv-x="1142" d="M45 383q0 193 66.5 343.5t185.5 234t272 83.5q106 0 184 -38.5t111 -110.5h4l41 129h219l-133 -752q-37 -215 -43 -272h-245q12 84 22 135h-4q-61 -72 -146 -113.5t-173 -41.5q-166 0 -263.5 108.5t-97.5 294.5zM307 401q0 -106 44 -163.5t128 -57.5q109 0 184.5 62.5 t94.5 165.5l37 210q4 29 4 46q0 82 -56.5 134t-144.5 52q-82 0 -148.5 -58.5t-104.5 -161t-38 -229.5zM309 1137l334 331h150l217 -331h-217l-95 159l-149 -159h-240zM924 1423l133 222h186l-168 -222h-151z" />
<glyph unicode="&#x1ea6;" horiz-adv-x="1312" d="M-59 0l747 1434h260l244 -1434h-295l-31 238h-491l-113 -238h-321zM487 473h349l-76 569zM489 1547l334 331h150l217 -331h-217l-95 159l-149 -159h-240zM1079 2055h187l57 -222h-152z" />
<glyph unicode="&#x1ea7;" horiz-adv-x="1142" d="M45 383q0 193 66.5 343.5t185.5 234t272 83.5q106 0 184 -38.5t111 -110.5h4l41 129h219l-133 -752q-37 -215 -43 -272h-245q12 84 22 135h-4q-61 -72 -146 -113.5t-173 -41.5q-166 0 -263.5 108.5t-97.5 294.5zM307 401q0 -106 44 -163.5t128 -57.5q109 0 184.5 62.5 t94.5 165.5l37 210q4 29 4 46q0 82 -56.5 134t-144.5 52q-82 0 -148.5 -58.5t-104.5 -161t-38 -229.5zM309 1137l334 331h150l217 -331h-217l-95 159l-149 -159h-240zM899 1645h187l57 -222h-152z" />
<glyph unicode="&#x1ea8;" horiz-adv-x="1312" d="M-59 0l747 1434h260l244 -1434h-295l-31 238h-491l-113 -238h-321zM487 473h349l-76 569zM487 1547l334 331h150l217 -331h-217l-95 159l-149 -159h-240zM1085 2061q39 49 95.5 76.5t115.5 27.5q70 0 117 -33.5t47 -89.5q0 -53 -20.5 -80.5t-61.5 -58.5 q-35 -25 -55.5 -47.5t-26.5 -59.5h-141q10 56 35.5 84.5t66.5 53.5q29 20 43.5 35.5t14.5 39.5q0 14 -14.5 23.5t-34.5 9.5q-68 0 -113 -57z" />
<glyph unicode="&#x1ea9;" horiz-adv-x="1142" d="M45 383q0 193 66.5 343.5t185.5 234t272 83.5q106 0 184 -38.5t111 -110.5h4l41 129h219l-133 -752q-37 -215 -43 -272h-245q12 84 22 135h-4q-61 -72 -146 -113.5t-173 -41.5q-166 0 -263.5 108.5t-97.5 294.5zM307 401q0 -106 44 -163.5t128 -57.5q109 0 184.5 62.5 t94.5 165.5l37 210q4 29 4 46q0 82 -56.5 134t-144.5 52q-82 0 -148.5 -58.5t-104.5 -161t-38 -229.5zM309 1137l334 331h150l217 -331h-217l-95 159l-149 -159h-240zM907 1651q39 49 95.5 76.5t115.5 27.5q70 0 117 -33.5t47 -89.5q0 -53 -20.5 -80.5t-61.5 -58.5 q-35 -25 -55.5 -47.5t-26.5 -59.5h-141q10 56 35.5 84.5t66.5 53.5q29 20 43.5 35.5t14.5 39.5q0 14 -14.5 23.5t-34.5 9.5q-68 0 -113 -57z" />
<glyph unicode="&#x1eaa;" horiz-adv-x="1312" d="M-59 0l747 1434h260l244 -1434h-295l-31 238h-491l-113 -238h-321zM487 473h349l-76 569zM489 1547l334 331h150l217 -331h-217l-95 159l-149 -159h-240zM602 1952q70 207 227 207q35 0 66 -12.5t72 -36.5q55 -37 90 -37q57 0 84 84h127q-29 -102 -91.5 -158.5 t-150.5 -56.5q-37 0 -66.5 14.5t-66.5 40.5q-4 4 -21.5 15.5t-32 16.5t-26.5 5q-25 0 -49.5 -21.5t-38.5 -60.5h-123z" />
<glyph unicode="&#x1eab;" horiz-adv-x="1142" d="M45 383q0 193 66.5 343.5t185.5 234t272 83.5q106 0 184 -38.5t111 -110.5h4l41 129h219l-133 -752q-37 -215 -43 -272h-245q12 84 22 135h-4q-61 -72 -146 -113.5t-173 -41.5q-166 0 -263.5 108.5t-97.5 294.5zM307 401q0 -106 44 -163.5t128 -57.5q109 0 184.5 62.5 t94.5 165.5l37 210q4 29 4 46q0 82 -56.5 134t-144.5 52q-82 0 -148.5 -58.5t-104.5 -161t-38 -229.5zM309 1137l334 331h150l217 -331h-217l-95 159l-149 -159h-240zM422 1542q70 207 227 207q35 0 66 -12.5t72 -36.5q55 -37 90 -37q57 0 84 84h127q-29 -102 -91.5 -158.5 t-150.5 -56.5q-37 0 -66.5 14.5t-66.5 40.5q-4 4 -21.5 15.5t-32 16.5t-26.5 5q-25 0 -49.5 -21.5t-38.5 -60.5h-123z" />
<glyph unicode="&#x1eac;" horiz-adv-x="1312" d="M-59 0l747 1434h260l244 -1434h-295l-31 238h-491l-113 -238h-321zM376 -307q0 72 45.5 116t118.5 44q51 0 83 -31t32 -80q0 -70 -45 -115t-117 -45q-51 0 -84 31t-33 80zM487 473h349l-76 569zM489 1547l334 331h150l217 -331h-217l-94 159l-150 -159h-240z" />
<glyph unicode="&#x1ead;" horiz-adv-x="1142" d="M45 383q0 193 66.5 343.5t185.5 234t272 83.5q106 0 184 -38.5t111 -110.5h4l41 129h219l-133 -752q-37 -215 -43 -272h-245q12 84 22 135h-4q-61 -72 -146 -113.5t-173 -41.5q-166 0 -263.5 108.5t-97.5 294.5zM307 401q0 -106 44 -163.5t128 -57.5q109 0 184.5 62.5 t94.5 165.5l37 210q4 29 4 46q0 82 -56.5 134t-144.5 52q-82 0 -148.5 -58.5t-104.5 -161t-38 -229.5zM309 1137l334 331h150l217 -331h-217l-94 159l-150 -159h-240zM321 -307q0 72 45.5 116t118.5 44q51 0 83 -31t32 -80q0 -70 -45 -115t-117 -45q-51 0 -84 31t-33 80z " />
<glyph unicode="&#x1eae;" horiz-adv-x="1312" d="M-59 0l747 1434h260l244 -1434h-295l-31 238h-491l-113 -238h-321zM487 473h349l-76 569zM555 1792q0 33 6 66h170q-2 -10 -2 -31q0 -55 34 -86t99 -31q72 0 121 39t63 109h181q-29 -152 -123 -231.5t-250 -79.5q-141 0 -220 64.5t-79 180.5zM815 1911l137 223h187 l-170 -223h-154z" />
<glyph unicode="&#x1eaf;" horiz-adv-x="1142" d="M45 383q0 193 66.5 343.5t185.5 234t272 83.5q106 0 184 -38.5t111 -110.5h4l41 129h219l-133 -752q-37 -215 -43 -272h-245q12 84 22 135h-4q-61 -72 -146 -113.5t-173 -41.5q-166 0 -263.5 108.5t-97.5 294.5zM307 401q0 -106 44 -163.5t128 -57.5q109 0 184.5 62.5 t94.5 165.5l37 210q4 29 4 46q0 82 -56.5 134t-144.5 52q-82 0 -148.5 -58.5t-104.5 -161t-38 -229.5zM375 1382q0 33 6 66h170q-2 -10 -2 -31q0 -55 34 -86t99 -31q72 0 121 39t63 109h181q-29 -152 -123 -231.5t-250 -79.5q-141 0 -220 64.5t-79 180.5zM635 1501l137 223 h187l-170 -223h-154z" />
<glyph unicode="&#x1eb0;" horiz-adv-x="1312" d="M-59 0l747 1434h260l244 -1434h-295l-31 238h-491l-113 -238h-321zM487 473h349l-76 569zM555 1792q0 33 6 66h170q-2 -10 -2 -31q0 -55 34 -86t99 -31q72 0 121 39t63 109h181q-29 -152 -123 -231.5t-250 -79.5q-141 0 -220 64.5t-79 180.5zM725 2134h186l60 -223h-154z " />
<glyph unicode="&#x1eb1;" horiz-adv-x="1142" d="M45 383q0 193 66.5 343.5t185.5 234t272 83.5q106 0 184 -38.5t111 -110.5h4l41 129h219l-133 -752q-37 -215 -43 -272h-245q12 84 22 135h-4q-61 -72 -146 -113.5t-173 -41.5q-166 0 -263.5 108.5t-97.5 294.5zM307 401q0 -106 44 -163.5t128 -57.5q109 0 184.5 62.5 t94.5 165.5l37 210q4 29 4 46q0 82 -56.5 134t-144.5 52q-82 0 -148.5 -58.5t-104.5 -161t-38 -229.5zM375 1382q0 33 6 66h170q-2 -10 -2 -31q0 -55 34 -86t99 -31q72 0 121 39t63 109h181q-29 -152 -123 -231.5t-250 -79.5q-141 0 -220 64.5t-79 180.5zM545 1724h186 l60 -223h-154z" />
<glyph unicode="&#x1eb2;" horiz-adv-x="1312" d="M-59 0l747 1434h260l244 -1434h-295l-31 238h-491l-113 -238h-321zM487 473h349l-76 569zM555 1792q0 33 6 66h170q-2 -10 -2 -31q0 -55 34 -86t99 -31q72 0 121 39t63 109h181q-29 -152 -123 -231.5t-250 -79.5q-141 0 -220 64.5t-79 180.5zM754 2171q33 47 87 76 t117 29q78 0 123 -36t45 -91q0 -51 -20.5 -80t-61.5 -57q-33 -25 -53 -47.5t-29 -57.5h-139q10 53 36 84t67 59q29 20 42 34t13 36q0 14 -13.5 24.5t-33.5 10.5q-31 0 -61.5 -16.5t-51.5 -42.5z" />
<glyph unicode="&#x1eb3;" horiz-adv-x="1142" d="M45 383q0 193 66.5 343.5t185.5 234t272 83.5q106 0 184 -38.5t111 -110.5h4l41 129h219l-133 -752q-37 -215 -43 -272h-245q12 84 22 135h-4q-61 -72 -146 -113.5t-173 -41.5q-166 0 -263.5 108.5t-97.5 294.5zM307 401q0 -106 44 -163.5t128 -57.5q109 0 184.5 62.5 t94.5 165.5l37 210q4 29 4 46q0 82 -56.5 134t-144.5 52q-82 0 -148.5 -58.5t-104.5 -161t-38 -229.5zM375 1382q0 33 6 66h170q-2 -10 -2 -31q0 -55 34 -86t99 -31q72 0 121 39t63 109h181q-29 -152 -123 -231.5t-250 -79.5q-141 0 -220 64.5t-79 180.5zM574 1761 q33 47 87 76t117 29q78 0 123 -36t45 -91q0 -51 -20.5 -80t-61.5 -57q-33 -25 -53 -47.5t-29 -57.5h-139q10 53 36 84t67 59q29 20 42 34t13 36q0 14 -13.5 24.5t-33.5 10.5q-31 0 -61.5 -16.5t-51.5 -42.5z" />
<glyph unicode="&#x1eb4;" horiz-adv-x="1312" d="M-59 0l747 1434h260l244 -1434h-295l-31 238h-491l-113 -238h-321zM487 473h349l-76 569zM555 1792q0 33 6 66h170q-2 -10 -2 -31q0 -55 34 -86t99 -31q72 0 121 39t63 109h181q-29 -152 -123 -231.5t-250 -79.5q-141 0 -220 64.5t-79 180.5zM588 1944q20 100 73.5 153.5 t137.5 53.5q35 0 68.5 -13.5t76.5 -37.5q6 -2 28.5 -14.5t40 -17.5t31.5 -5q27 0 48.5 22.5t31.5 63.5h125q-10 -104 -62.5 -159.5t-142.5 -55.5q-47 0 -85 15t-87 42q-23 14 -46 24.5t-40 10.5q-25 0 -44 -21.5t-27 -60.5h-127z" />
<glyph unicode="&#x1eb5;" horiz-adv-x="1142" d="M45 383q0 193 66.5 343.5t185.5 234t272 83.5q106 0 184 -38.5t111 -110.5h4l41 129h219l-133 -752q-37 -215 -43 -272h-245q12 84 22 135h-4q-61 -72 -146 -113.5t-173 -41.5q-166 0 -263.5 108.5t-97.5 294.5zM307 401q0 -106 44 -163.5t128 -57.5q109 0 184.5 62.5 t94.5 165.5l37 210q4 29 4 46q0 82 -56.5 134t-144.5 52q-82 0 -148.5 -58.5t-104.5 -161t-38 -229.5zM375 1382q0 33 6 66h170q-2 -10 -2 -31q0 -55 34 -86t99 -31q72 0 121 39t63 109h181q-29 -152 -123 -231.5t-250 -79.5q-141 0 -220 64.5t-79 180.5zM408 1534 q20 100 73.5 153.5t137.5 53.5q35 0 68.5 -13.5t76.5 -37.5q6 -2 28.5 -14.5t40 -17.5t31.5 -5q27 0 48.5 22.5t31.5 63.5h125q-10 -104 -62.5 -159.5t-142.5 -55.5q-47 0 -85 15t-87 42q-23 14 -46 24.5t-40 10.5q-25 0 -44 -21.5t-27 -60.5h-127z" />
<glyph unicode="&#x1eb6;" horiz-adv-x="1312" d="M-59 0l747 1434h260l244 -1434h-295l-31 238h-491l-113 -238h-321zM376 -307q0 72 45.5 116t118.5 44q51 0 83 -31t32 -80q0 -70 -45 -115t-117 -45q-51 0 -84 31t-33 80zM487 473h349l-76 569zM555 1792q0 33 6 66h170q-2 -10 -2 -31q0 -55 35 -86t98 -31q74 0 122 39 t62 109h181q-27 -152 -122 -231.5t-251 -79.5q-141 0 -220 64.5t-79 180.5z" />
<glyph unicode="&#x1eb7;" horiz-adv-x="1142" d="M45 383q0 193 66.5 343.5t185.5 234t272 83.5q106 0 184 -38.5t111 -110.5h4l41 129h219l-133 -752q-37 -215 -43 -272h-245q12 84 22 135h-4q-61 -72 -146 -113.5t-173 -41.5q-166 0 -263.5 108.5t-97.5 294.5zM307 401q0 -106 44 -163.5t128 -57.5q109 0 184.5 62.5 t94.5 165.5l37 210q4 29 4 46q0 82 -56.5 134t-144.5 52q-82 0 -148.5 -58.5t-104.5 -161t-38 -229.5zM321 -307q0 72 45.5 116t118.5 44q51 0 83 -31t32 -80q0 -70 -45 -115t-117 -45q-51 0 -84 31t-33 80zM375 1382q0 33 6 66h170q-2 -10 -2 -31q0 -55 35 -86t98 -31 q74 0 122 39t62 109h181q-27 -152 -122 -231.5t-251 -79.5q-141 0 -220 64.5t-79 180.5z" />
<glyph unicode="&#x1eb8;" horiz-adv-x="1169" d="M49 0l252 1434h952l-41 -236h-657l-57 -328h585l-41 -235h-587l-68 -399h655l-41 -236h-952zM340 -307q0 72 45.5 116t118.5 44q51 0 83 -31t32 -80q0 -70 -45 -115t-117 -45q-51 0 -84 31t-33 80z" />
<glyph unicode="&#x1eb9;" horiz-adv-x="1110" d="M51 391q0 190 76 339t212 231.5t310 82.5q193 0 302.5 -108.5t109.5 -296.5q0 -68 -14 -137l-19 -86h-713q2 -106 56.5 -161.5t158.5 -55.5q90 0 163 30.5t149 102.5l119 -135q-78 -100 -205 -158.5t-267 -58.5q-201 0 -319.5 110.5t-118.5 300.5zM290 -307 q0 72 45.5 116t118.5 44q51 0 83 -31t32 -80q0 -70 -45 -115t-117 -45q-51 0 -84 31t-33 80zM340 594h475v12q6 111 -43 168t-151 57q-96 0 -172 -62t-109 -175z" />
<glyph unicode="&#x1eba;" horiz-adv-x="1169" d="M49 0l252 1434h952l-41 -236h-657l-57 -328h585l-41 -235h-587l-68 -399h655l-41 -236h-952zM606 1876q49 70 125 108t156 38q98 0 153 -45t55 -117q0 -68 -28.5 -107.5t-81.5 -82.5q-43 -37 -64.5 -61.5t-27.5 -61.5h-187q11 59 40.5 95t78.5 75q41 33 59.5 55t18.5 57 q0 20 -15.5 31.5t-43.5 11.5q-78 0 -150 -102z" />
<glyph unicode="&#x1ebb;" horiz-adv-x="1110" d="M51 391q0 190 76 339t212 231.5t310 82.5q193 0 302.5 -108.5t109.5 -296.5q0 -68 -14 -137l-19 -86h-713q2 -106 56.5 -161.5t158.5 -55.5q90 0 163 30.5t149 102.5l119 -135q-78 -100 -205 -158.5t-267 -58.5q-201 0 -319.5 110.5t-118.5 300.5zM340 594h475v12 q6 111 -43 168t-151 57q-96 0 -172 -62t-109 -175zM475 1466q49 70 125 108t156 38q98 0 153 -45t55 -117q0 -68 -28.5 -107.5t-81.5 -82.5q-43 -37 -64.5 -61.5t-27.5 -61.5h-187q11 59 40.5 95t78.5 75q41 33 59.5 55t18.5 57q0 20 -15.5 31.5t-43.5 11.5q-78 0 -150 -102 z" />
<glyph unicode="&#x1ebc;" horiz-adv-x="1169" d="M49 0l252 1434h952l-41 -236h-657l-57 -328h585l-41 -235h-587l-68 -399h655l-41 -236h-952zM454 1547q19 123 91.5 190.5t164.5 67.5q41 0 74 -14.5t76 -43.5q29 -18 48.5 -28.5t37.5 -10.5q55 0 74 105h164q-18 -133 -88 -199.5t-168 -66.5q-41 0 -77 15t-81 44 q-55 37 -80 37q-23 0 -43.5 -26.5t-28.5 -69.5h-164z" />
<glyph unicode="&#x1ebd;" horiz-adv-x="1110" d="M51 391q0 190 76 339t212 231.5t310 82.5q193 0 302.5 -108.5t109.5 -296.5q0 -68 -14 -137l-19 -86h-713q2 -106 56.5 -161.5t158.5 -55.5q90 0 163 30.5t149 102.5l119 -135q-78 -100 -205 -158.5t-267 -58.5q-201 0 -319.5 110.5t-118.5 300.5zM323 1137 q19 123 91.5 190.5t164.5 67.5q41 0 74 -14.5t76 -43.5q29 -18 48.5 -28.5t37.5 -10.5q55 0 74 105h164q-18 -133 -88 -199.5t-168 -66.5q-41 0 -77 15t-81 44q-55 37 -80 37q-23 0 -43.5 -26.5t-28.5 -69.5h-164zM340 594h475v12q6 111 -43 168t-151 57q-96 0 -172 -62 t-109 -175z" />
<glyph unicode="&#x1ebe;" horiz-adv-x="1169" d="M49 0l252 1434h952l-41 -236h-657l-57 -328h585l-41 -235h-587l-68 -399h655l-41 -236h-952zM452 1547l334 331h150l217 -331h-217l-95 159l-149 -159h-240zM1067 1833l133 222h186l-168 -222h-151z" />
<glyph unicode="&#x1ebf;" horiz-adv-x="1110" d="M51 391q0 190 76 339t212 231.5t310 82.5q193 0 302.5 -108.5t109.5 -296.5q0 -68 -14 -137l-19 -86h-713q2 -106 56.5 -161.5t158.5 -55.5q90 0 163 30.5t149 102.5l119 -135q-78 -100 -205 -158.5t-267 -58.5q-201 0 -319.5 110.5t-118.5 300.5zM321 1137l334 331h150 l217 -331h-217l-95 159l-149 -159h-240zM340 594h475v12q6 111 -43 168t-151 57q-96 0 -172 -62t-109 -175zM936 1423l133 222h186l-168 -222h-151z" />
<glyph unicode="&#x1ec0;" horiz-adv-x="1169" d="M49 0l252 1434h952l-41 -236h-657l-57 -328h585l-41 -235h-587l-68 -399h655l-41 -236h-952zM452 1547l334 331h150l217 -331h-217l-95 159l-149 -159h-240zM1042 2055h187l57 -222h-152z" />
<glyph unicode="&#x1ec1;" horiz-adv-x="1110" d="M51 391q0 190 76 339t212 231.5t310 82.5q193 0 302.5 -108.5t109.5 -296.5q0 -68 -14 -137l-19 -86h-713q2 -106 56.5 -161.5t158.5 -55.5q90 0 163 30.5t149 102.5l119 -135q-78 -100 -205 -158.5t-267 -58.5q-201 0 -319.5 110.5t-118.5 300.5zM321 1137l334 331h150 l217 -331h-217l-95 159l-149 -159h-240zM340 594h475v12q6 111 -43 168t-151 57q-96 0 -172 -62t-109 -175zM911 1645h187l57 -222h-152z" />
<glyph unicode="&#x1ec2;" horiz-adv-x="1169" d="M49 0l252 1434h952l-41 -236h-657l-57 -328h585l-41 -235h-587l-68 -399h655l-41 -236h-952zM452 1547l334 331h150l217 -331h-217l-95 159l-149 -159h-240zM1050 2061q39 49 95.5 76.5t115.5 27.5q70 0 117 -33.5t47 -89.5q0 -53 -20.5 -80.5t-61.5 -58.5 q-35 -25 -55.5 -47.5t-26.5 -59.5h-141q10 56 35.5 84.5t66.5 53.5q29 20 43.5 35.5t14.5 39.5q0 14 -14.5 23.5t-34.5 9.5q-68 0 -113 -57z" />
<glyph unicode="&#x1ec3;" horiz-adv-x="1110" d="M51 391q0 190 76 339t212 231.5t310 82.5q193 0 302.5 -108.5t109.5 -296.5q0 -68 -14 -137l-19 -86h-713q2 -106 56.5 -161.5t158.5 -55.5q90 0 163 30.5t149 102.5l119 -135q-78 -100 -205 -158.5t-267 -58.5q-201 0 -319.5 110.5t-118.5 300.5zM319 1137l334 331h150 l217 -331h-217l-95 159l-149 -159h-240zM340 594h475v12q6 111 -43 168t-151 57q-96 0 -172 -62t-109 -175zM917 1651q39 49 95.5 76.5t115.5 27.5q70 0 117 -33.5t47 -89.5q0 -53 -20.5 -80.5t-61.5 -58.5q-35 -25 -55.5 -47.5t-26.5 -59.5h-141q10 56 35.5 84.5t66.5 53.5 q29 20 43.5 35.5t14.5 39.5q0 14 -14.5 23.5t-34.5 9.5q-68 0 -113 -57z" />
<glyph unicode="&#x1ec4;" horiz-adv-x="1169" d="M49 0l252 1434h952l-41 -236h-657l-57 -328h585l-41 -235h-587l-68 -399h655l-41 -236h-952zM452 1547l334 331h150l217 -331h-217l-95 159l-149 -159h-240zM565 1952q70 207 227 207q35 0 66 -12.5t72 -36.5q55 -37 90 -37q57 0 84 84h127q-29 -102 -91.5 -158.5 t-150.5 -56.5q-37 0 -66.5 14.5t-66.5 40.5q-4 4 -21.5 15.5t-32 16.5t-26.5 5q-25 0 -49.5 -21.5t-38.5 -60.5h-123z" />
<glyph unicode="&#x1ec5;" horiz-adv-x="1110" d="M51 391q0 190 76 339t212 231.5t310 82.5q193 0 302.5 -108.5t109.5 -296.5q0 -68 -14 -137l-19 -86h-713q2 -106 56.5 -161.5t158.5 -55.5q90 0 163 30.5t149 102.5l119 -135q-78 -100 -205 -158.5t-267 -58.5q-201 0 -319.5 110.5t-118.5 300.5zM321 1137l334 331h150 l217 -331h-217l-95 159l-149 -159h-240zM340 594h475v12q6 111 -43 168t-151 57q-96 0 -172 -62t-109 -175zM434 1542q70 207 227 207q35 0 66 -12.5t72 -36.5q55 -37 90 -37q57 0 84 84h127q-29 -102 -91.5 -158.5t-150.5 -56.5q-37 0 -66.5 14.5t-66.5 40.5 q-4 4 -21.5 15.5t-32 16.5t-26.5 5q-25 0 -49.5 -21.5t-38.5 -60.5h-123z" />
<glyph unicode="&#x1ec6;" horiz-adv-x="1169" d="M49 0l252 1434h952l-41 -236h-657l-57 -328h585l-41 -235h-587l-68 -399h655l-41 -236h-952zM340 -307q0 72 45.5 116t118.5 44q51 0 83 -31t32 -80q0 -70 -45 -115t-117 -45q-51 0 -84 31t-33 80zM452 1547l334 331h150l217 -331h-217l-94 159l-150 -159h-240z" />
<glyph unicode="&#x1ec7;" horiz-adv-x="1110" d="M51 391q0 190 76 339t212 231.5t310 82.5q193 0 302.5 -108.5t109.5 -296.5q0 -68 -14 -137l-19 -86h-713q2 -106 56.5 -161.5t158.5 -55.5q90 0 163 30.5t149 102.5l119 -135q-78 -100 -205 -158.5t-267 -58.5q-201 0 -319.5 110.5t-118.5 300.5zM290 -307 q0 72 45.5 116t118.5 44q51 0 83 -31t32 -80q0 -70 -45 -115t-117 -45q-51 0 -84 31t-33 80zM321 1137l334 331h150l217 -331h-217l-94 159l-150 -159h-240zM340 594h475v12q6 111 -43 168t-151 57q-96 0 -172 -62t-109 -175z" />
<glyph unicode="&#x1ec8;" horiz-adv-x="661" d="M94 0l252 1434h293l-252 -1434h-293zM317 1876q49 70 125 108t156 38q98 0 153 -45t55 -117q0 -68 -28.5 -107.5t-81.5 -82.5q-43 -37 -64.5 -61.5t-27.5 -61.5h-187q11 59 40.5 95t78.5 75q41 33 59.5 55t18.5 57q0 20 -15.5 31.5t-43.5 11.5q-78 0 -150 -102z" />
</font>
</defs>
</svg>
